<?xml version="1.0" standalone="no"?>
<!DOCTYPE svg PUBLIC "-//W3C//DTD SVG 1.1//EN" "http://www.w3.org/Graphics/SVG/1.1/DTD/svg11.dtd" >
<svg xmlns="http://www.w3.org/2000/svg" xmlns:xlink="http://www.w3.org/1999/xlink" version="1.1" viewBox="-10 0 2058 2048">
   <path fill="currentColor"
d="M542 424q299 53 452 180q206 274 206 361v48l-26 132l13 12q-21 0 -90 168l-220 193q-91 0 -180 120h-13q-39 -36 -90 -36v-12l-91 24q-243 -82 -400 -325l-90 -108v-84l-13 -48l13 -48l-13 -12v-12q44 -256 116 -325q212 -228 426 -228zM194 845l12 12v12l-12 36l103 24
h64l104 -24q0 28 451 48l13 12h13l26 -48q-64 -243 -220 -325q-46 -48 -271 -48h-12q-128 0 -271 301zM168 1025v60l26 72l-13 48q51 36 51 96q26 0 52 61q195 120 245 120l90 -12l39 12q103 0 258 -169l90 -204l13 -36q-25 0 -25 -36h-26q-35 0 -52 180q-47 36 -90 36h-13
q-67 0 -78 -36l13 -12v-12l-13 -48l26 -24v-12l-26 -24l13 -12v-12l-25 -24q-26 0 -26 96l-26 24l13 48q0 32 -65 60l-51 -12l-13 12h-13l-90 -60l13 -60v-12q-26 0 -26 72q-47 36 -91 36h-51l-65 -60l26 -24v-12l-26 -36l13 -12h13q-30 -72 -52 -72h-38zM555 1025l-13 84
v48l77 12l13 -12v-12l-26 -24l26 -36l-26 -60h-51zM323 1037l-13 48l13 60h38l26 -24v-60l-26 -24h-38zM813 1085l13 84h26l25 -24v-24l-12 -60h-26z" />
</svg>
