<?xml version="1.0" standalone="no"?>
<!DOCTYPE svg PUBLIC "-//W3C//DTD SVG 1.1//EN" "http://www.w3.org/Graphics/SVG/1.1/DTD/svg11.dtd" >
<svg xmlns="http://www.w3.org/2000/svg" xmlns:xlink="http://www.w3.org/1999/xlink" version="1.1" viewBox="-10 0 2058 2048">
   <path fill="currentColor"
d="M756 431q400 191 400 386l44 162l-15 37l15 50l-15 12v12l15 13v12q-96 386 -237 386q-37 57 -282 125v12q-147 -12 -311 -112q-87 0 -207 -112l15 -12v-13l-148 -174l14 -13q-18 -143 -44 -161l15 -13v-12l-15 -37l74 -187q0 -125 119 -199l266 -150v13l15 -13h74z
M222 941v25l59 25l430 25l15 -13l133 25l178 -25v-37q0 -212 -222 -373h-45q-29 0 -29 87h-15l15 37l-15 62q104 43 104 63q0 29 -223 62q-133 -23 -133 -50q119 -79 119 -112l-15 -12v-13l15 -50v-12l-15 -12v-13l15 -12h14l-14 -50h-74q-267 83 -267 286q-25 0 -30 87z
M237 1103l15 37h-15l59 100l-15 12q87 166 356 249l119 -50l14 13q237 -115 237 -274l15 -12l-29 -25l14 -13v-12l-59 -25l-133 12q-166 0 -385 -37l-74 12l-15 -12h-15l-45 12v-12z" />
</svg>
