<?xml version="1.0" standalone="no"?>
<!DOCTYPE svg PUBLIC "-//W3C//DTD SVG 1.1//EN" "http://www.w3.org/Graphics/SVG/1.1/DTD/svg11.dtd" >
<svg xmlns="http://www.w3.org/2000/svg" xmlns:xlink="http://www.w3.org/1999/xlink" version="1.1" viewBox="-10 0 2058 2048">
   <path fill="currentColor"
d="M585 438l9 8h9l55 -8q137 65 137 133l-9 32l9 8v7l-9 32l27 15h82l37 8l27 -8l10 8l45 -8h64l73 -86l28 -8l18 24q0 26 -64 125q-60 134 -73 134q-32 0 -46 -87l-128 -15h-118q-70 0 -83 -32v-7q28 -34 28 -63q0 -105 -101 -126q-90 0 -164 149q0 24 -64 63l-9 -8l-64 8
h-73q-46 0 -46 -16q-91 0 -101 87l-45 7h-28l-18 -15v-32l146 -211l9 -8h9l37 23l-18 47v16q0 16 27 16l9 -8h9l10 8h9l45 -8l28 8l9 -8h9l37 8h9q73 -196 173 -196zM356 807l28 23l-37 63h9l37 8h91l37 -8l36 8l201 -32l10 8v8q0 42 -192 165l-37 55q18 0 18 23h19
q201 36 201 126q0 31 18 31l-9 8v8l9 39h-9l9 23q0 170 -411 275l-9 -8h-10l-27 8l-36 -8l-37 8q-148 -91 -174 -165l10 -39l-10 -8l64 -55h37q67 24 82 79l-9 31l9 24l-18 15v32l73 15q146 0 283 -141l18 -86q0 -99 -182 -157l-83 16l-9 -8v-31q117 -52 128 -102l37 -32
v-15l-82 -8l-46 15l-9 -7h-9q-174 10 -174 70l-37 39h-27l-18 -15v-32q143 -144 201 -235z" />
</svg>
