<?xml version="1.0" standalone="no"?>
<!DOCTYPE svg PUBLIC "-//W3C//DTD SVG 1.1//EN" "http://www.w3.org/Graphics/SVG/1.1/DTD/svg11.dtd" >
<svg xmlns="http://www.w3.org/2000/svg" xmlns:xlink="http://www.w3.org/1999/xlink" version="1.1" viewBox="-10 0 2038 2048">
   <path fill="currentColor"
d="M119 444q115 28 193 93l28 9v-9q28 -44 101 -84h9q166 60 166 148l9 10l-19 18l19 28l-9 9v9l9 37l-19 28v9l10 10v9l-19 18v37q123 28 258 139q191 244 303 352l9 9v28q-19 36 -303 213l-101 74h-19q-25 0 -64 -204h-9l9 -9v-9q-24 -122 -92 -241h9q-49 -139 -202 -139
h-9q-110 28 -110 47l73 185v65l19 74q-49 203 -92 203l-65 9q-137 -55 -137 -148l-28 -9l9 -9v-9l-18 -65l9 -28l-9 -37l9 -28l-9 -9v-9l18 -65l-9 -28q53 -105 156 -148q141 -55 212 -55l82 18l28 -18q-73 -129 -212 -315q-105 -130 -156 -130q-73 0 -73 74q0 34 64 130
l-28 37h-27q-55 -21 -92 -194l92 -121zM395 583v46l92 157l37 47h18v-19h9l-9 -9v-9l9 -47l-9 -9h-9l18 -28q0 -124 -73 -185h-28zM588 935l28 64h-10l92 195l-9 9v9l92 259l9 10h37q100 -94 211 -139l10 -9v-10l-56 -64l10 -10q-17 0 -285 -287l-83 -55h-28q-18 0 -18 28z
M92 1259l27 55l28 -18l110 18q0 -18 28 -18v-28q-21 -21 -28 -102l-55 -56q-56 0 -110 149zM184 1379l-37 -9h-9l-9 46q36 102 82 102l37 9q46 -67 46 -130l-28 -27v-10l-9 10h-18l-9 -10z" />
</svg>
