<?xml version="1.0" standalone="no"?>
<!DOCTYPE svg PUBLIC "-//W3C//DTD SVG 1.1//EN" "http://www.w3.org/Graphics/SVG/1.1/DTD/svg11.dtd" >
<svg xmlns="http://www.w3.org/2000/svg" xmlns:xlink="http://www.w3.org/1999/xlink" version="1.1" viewBox="-10 0 2058 2048">
   <path fill="currentColor"
d="M984 659l24 10l24 -10l24 10l48 -10l168 67q24 0 24 19h-8l32 95l-8 9l8 10l-8 38l8 28q0 57 -72 152v10q82 66 112 66q101 301 192 333q101 66 128 66v38q0 22 -40 29l-32 -10l-8 10h-8q-256 -107 -256 -228q-80 -219 -160 -219q0 -13 -136 -28l-16 47l8 10l-24 152l8 9
v10l-8 47l8 10v9l-8 38q0 56 64 76v10h-8l8 9v19l-16 19h-8q-136 0 -136 -19l-48 19h-32l-16 -19q80 -77 80 -123l-8 -57l8 -10l-8 -9l8 -29l-8 -85l8 -48l-8 -38l8 -9v-10l-8 -9v-10l8 -28l-8 -29l16 -95l-16 -66l8 -48l-8 -9l8 -48l-8 -133q33 -38 96 -38zM80 707l112 9
h64l32 10l32 -10h8q43 0 120 76v48q0 87 -88 171v38q80 0 184 95l40 95l-8 9l16 67q0 247 -200 304l-104 19l-24 -10l-8 10l-40 -10h-112l-8 -9l-8 9h-24l-32 -38v-19q56 -72 56 -123l-8 -29l8 -28l-8 -29h8l-8 -9v-10l8 -323l-8 -38l8 -47v-10l-8 -57l8 -9v-10l-8 -38h-24
q-56 0 -56 -57q19 -38 72 -38zM1048 745q0 14 -32 28l16 95l-8 38l8 10v9l-16 29l8 9v10l-8 47l16 19l-8 10v9l40 10q152 -21 152 -133q2 -38 16 -38q-32 -114 -88 -114q0 -19 -96 -38zM192 802l-8 47v152l48 10q96 -29 96 -86q16 0 16 -28q-20 -95 -152 -95zM184 1220l8 66
l-8 95l8 105l-8 9q16 0 16 38l8 10h88q97 -19 136 -67q61 -105 64 -152q0 -151 -208 -237l-56 -19q-48 0 -48 152z" />
</svg>
