<?xml version="1.0" standalone="no"?>
<!DOCTYPE svg PUBLIC "-//W3C//DTD SVG 1.1//EN" "http://www.w3.org/Graphics/SVG/1.1/DTD/svg11.dtd" >
<svg xmlns="http://www.w3.org/2000/svg" xmlns:xlink="http://www.w3.org/1999/xlink" version="1.1" viewBox="-17 0 2058 2048">
   <path fill="currentColor"
d="M420 438h46q35 0 109 344q81 210 118 219q45 -17 91 -156q102 -121 136 -250l91 -147h73l9 11l9 -11h9l46 21q35 -21 100 -21l54 11l9 -11h9l37 11l27 -11q45 42 73 105h-9l27 94q-5 72 -73 146l-27 52q6 42 63 42q119 44 119 125q36 34 36 104v52q-56 282 -182 282
q-27 54 -291 136l-9 -11h-9l-73 11l-54 -21l-173 42l-27 -42v-10q0 -35 127 -74l18 -114l-9 -32l9 -31l-9 -31q18 0 18 -32l-9 -10v-10l9 -42l-9 -11v-10l18 -21v-94l10 -10l-10 -11v-21q21 -29 37 -135l-9 -11v-10l18 -104l-9 -11l18 -21l-9 -10h-18q-44 24 -91 146
l-173 271q-47 164 -73 167h-18q-14 0 -45 -94l9 -10v-11l-109 -292l9 -10v-11l-55 -104q-45 12 -45 84l9 10q-45 69 -64 261q-18 0 -54 146l9 31q-16 0 -55 115q-20 0 -45 125q100 24 100 52l-36 53l-46 -11h-18l-100 21h-73l-18 -21q0 -77 109 -94l18 -42l-9 -10v-10
l18 -53l-9 -10q33 -30 73 -157q16 0 64 -250l18 -21l-9 -10v-11l27 -94l-9 -10q33 0 91 -324l-9 -31zM1102 678l9 10v11l-18 83v63h64q172 0 172 -198q-41 -97 -100 -126h-91q-21 0 -36 157zM1166 928l-37 -10h-9q-45 29 -45 94l9 10l-27 251v83l-10 42l10 42l-10 10v11
l46 31q111 0 300 -125q73 -103 73 -167q-33 -240 -100 -240l-46 -42h-63l-37 -10z" />
</svg>
