<?xml version="1.0" standalone="no"?>
<!DOCTYPE svg PUBLIC "-//W3C//DTD SVG 1.1//EN" "http://www.w3.org/Graphics/SVG/1.1/DTD/svg11.dtd" >
<svg xmlns="http://www.w3.org/2000/svg" xmlns:xlink="http://www.w3.org/1999/xlink" version="1.1" viewBox="-10 0 2058 2048">
   <path fill="currentColor"
d="M748 518l113 11h86l56 -11l10 11h9l76 -11q114 0 199 192v12q0 181 -85 181q-67 62 -67 90q60 45 152 57q95 95 95 203h9l-19 34l10 12q-50 282 -199 282q0 27 -133 57l-94 -11l-10 11h-9q-136 0 -180 -226q54 -102 94 -102v11l10 -11h19l28 45l-19 68v45l67 34l9 -11h9
l10 11h9q237 -68 237 -169q-41 -238 -123 -238q0 -45 -246 -68q0 -25 -85 -34l-57 136v23l9 11v11q-85 115 -142 340q0 30 -56 113q-114 0 -114 -136q-43 -51 -104 -226h9q-66 -158 -104 -306q-14 0 -47 -113l-95 -147q-45 0 -85 -68v-34l28 -34h161l76 -22q57 9 57 68
q-66 36 -66 101q37 61 56 159q64 125 105 305q18 0 104 192l9 12h10q42 0 151 -374q23 -19 133 -305v-57l-105 -33v-12q0 -38 29 -79zM833 869v11q20 45 47 45l161 12q104 -45 104 -102l19 -68q-26 -72 -113 -147h-67l-56 22z" />
</svg>
