<?xml version="1.0" standalone="no"?>
<!DOCTYPE svg PUBLIC "-//W3C//DTD SVG 1.1//EN" "http://www.w3.org/Graphics/SVG/1.1/DTD/svg11.dtd" >
<svg xmlns="http://www.w3.org/2000/svg" xmlns:xlink="http://www.w3.org/1999/xlink" version="1.1" viewBox="-10 0 1879 2048">
   <path fill="currentColor"
d="M1468 204q70 0 128.5 18t101 51t66 80t23.5 106q0 83 -30.5 153.5t-81.5 126t-119 94.5t-143 59l-1 4q96 17 148.5 70t52.5 139q0 119 -55 217t-145.5 168.5t-207 109t-239.5 38.5h-428l-520 -1434h187l397 1137q10 28 17 59.5t12 67.5h4q7 -60 33 -129l405 -1135h395z
M971 970l-190 516h193q85 0 167.5 -27t148 -75t106 -113.5t40.5 -143.5q0 -157 -272 -157h-193zM1198 356l-171 463h150q72 0 148.5 -23.5t138.5 -67t102 -105.5t40 -139q0 -64 -45 -96t-152 -32h-211z" />
</svg>
