<?xml version="1.0" standalone="no"?>
<!DOCTYPE svg PUBLIC "-//W3C//DTD SVG 1.1//EN" "http://www.w3.org/Graphics/SVG/1.1/DTD/svg11.dtd" >
<svg xmlns="http://www.w3.org/2000/svg" xmlns:xlink="http://www.w3.org/1999/xlink" version="1.1" viewBox="-10 0 2058 2048">
   <path fill="currentColor"
d="M181 485l56 15h105q76 62 76 134l7 7l-7 8v7l7 30q-18 73 -70 104q-25 3 -41 30v7q0 22 125 52q105 104 105 179v89q-79 193 -314 193q-181 0 -181 23q-35 -19 -35 -60q3 -15 35 -29l35 7l28 -45h6l-20 -96q4 -60 14 -60l-14 -45l7 -22l-7 -7v-8l7 -7v-8l-7 -37l7 -22
l-7 -8v-7l7 -30l-7 -7v-8l7 -22l-7 -30l7 -22l-7 -22l7 -8h7l-7 -7l7 -75v-14l-14 -23l14 -22q0 -25 -105 -45l-7 -44q0 -45 181 -45zM704 485h28l21 7l35 -7h48q188 0 230 97l7 22l-7 22l7 23q0 100 -111 163v30q202 41 202 179q0 176 -125 275q-18 15 -70 15l-7 7v8
l-35 -8l-7 8h-7l-7 -8l-223 15l-14 -22v-30l35 -7h21l7 7q35 -10 35 -22v-52l-14 -15l7 -8l-7 -89l7 -30l-7 -7v-8l7 -7v-8l-7 -44l7 -8v-7l-7 -7v-8l7 -7l-7 -75v-52l7 -30l-7 -7v-7l7 -8l-7 -37v-30l14 -44l-7 -8v-7l14 -75h-7q-84 -15 -84 -74zM829 634l7 7v8l-7 29l7 8
v7l-7 8v7l7 22l-7 67l7 8h7q88 0 119 -67l14 -60q0 -73 -77 -111h-49q-15 0 -21 67zM181 671l14 37l-14 67l7 37h35q90 -38 119 -126v-15q-21 -89 -98 -89q-56 0 -56 44zM836 976v245l7 53h91q68 0 126 -157l-7 -7l7 -37v-52q0 -113 -175 -149q-49 0 -49 104zM188 894v30
l7 7l-7 23l7 29l-7 23l7 22l-7 22l7 23l-7 7l7 37v60l-7 7l7 8v74q7 22 42 22l21 -14l7 7h7q181 -48 181 -193q0 -143 -139 -194q-49 0 -49 -15zM1331 1184l21 23l-49 141v22l105 -7l7 22q0 54 -70 60l-28 -8h-14q-56 0 -69 82l-14 15l7 7v8q-12 41 -35 59q-29 0 -56 -37
q17 -65 63 -119v-7l-21 -8l-7 8h-28l-14 -15q0 -39 35 -60l7 8h7q91 -49 91 -127q14 0 14 -22q11 0 27 -45h21zM572 1326h14q0 44 13 44h56q38 0 49 30v22h-14v8l-118 -15v22q0 15 55 15l49 15l7 7v30l-21 22l-90 -22h-21q-20 0 -56 134q-32 -14 -35 -30l14 -104h-49l-35 8
l-14 -23v-7q0 -15 42 -30l21 7l42 -7v7l35 -14v-30h-84l-14 -15v-7q0 -20 56 -30h63z" />
</svg>
