<?xml version="1.0" standalone="no"?>
<!DOCTYPE svg PUBLIC "-//W3C//DTD SVG 1.1//EN" "http://www.w3.org/Graphics/SVG/1.1/DTD/svg11.dtd" >
<svg xmlns="http://www.w3.org/2000/svg" xmlns:xlink="http://www.w3.org/1999/xlink" version="1.1" viewBox="-10 0 2058 2048">
   <path fill="currentColor"
d="M406 431q83 0 153 122l-10 65v9l10 85l-10 28l40 159l-10 47v37q7 56 31 56l-10 47l10 9v10l-10 37l10 28h-10l20 84h-10l10 10v9l-10 66l10 9h10l-10 37q10 57 30 57l-10 9v9l51 169h-10l-41 9h-30q-23 -21 -132 -28l-51 -19l-41 10h-10l-10 -10l-10 10l-71 -10h-285
q0 -110 51 -290q51 -284 91 -318l-10 -9v-10q27 0 61 -327h10l-10 -28q27 -178 193 -178h20zM285 618l50 66q112 0 112 -85l10 -9q-40 -65 -81 -65q-91 12 -91 93zM224 974l10 9l-31 103l10 28q-26 27 -101 356q30 37 183 37h20l41 -9l101 18q51 0 82 -46l-11 -38l11 -9v-10
q-14 -56 -31 -56l10 -46l-10 -10v-9l10 -10q-14 -167 -30 -187l10 -37l-10 -9l10 -47v-66q0 -168 -61 -168l-10 9h-10l-11 -9h-10l-50 9l-11 -9h-10q-71 19 -71 103l-20 103h-10z" />
</svg>
