<?xml version="1.0" standalone="no"?>
<!DOCTYPE svg PUBLIC "-//W3C//DTD SVG 1.1//EN" "http://www.w3.org/Graphics/SVG/1.1/DTD/svg11.dtd" >
<svg xmlns="http://www.w3.org/2000/svg" xmlns:xlink="http://www.w3.org/1999/xlink" version="1.1" viewBox="-10 0 1090 1000">
   <path fill="currentColor"
d="M700 577q0 17 -12 29t-28 12q-17 0 -29 -12t-12 -29q0 -16 12 -28t29 -12q16 0 28 12t12 28zM579 577q0 17 -12 29t-29 12q-16 0 -28 -12t-12 -29q0 -16 12 -28t28 -12q17 0 29 12t12 28zM1054 672l-262 113l63 -99h-568q-8 46 -44 77t-83 31q-53 0 -91 -37.5t-38 -91.5
q0 -53 38 -90.5t91 -37.5q46 0 81.5 29.5t44.5 74.5h569l-63 -90zM457 577q0 17 -11.5 29t-28.5 12t-28.5 -12t-11.5 -29q0 -16 11.5 -28t28.5 -12t28.5 12t11.5 28zM253 665q0 -38 -27.5 -65.5t-65.5 -27.5q-39 0 -66.5 27.5t-27.5 65.5q0 39 27.5 66.5t66.5 27.5
q38 0 65.5 -27.5t27.5 -66.5z" />
</svg>
