<?xml version="1.0" standalone="no"?>
<!DOCTYPE svg PUBLIC "-//W3C//DTD SVG 1.1//EN" "http://www.w3.org/Graphics/SVG/1.1/DTD/svg11.dtd" >
<svg xmlns="http://www.w3.org/2000/svg" xmlns:xlink="http://www.w3.org/1999/xlink" version="1.1" viewBox="-10 0 2058 2048">
   <path fill="currentColor"
d="M234 438l137 19l156 -10l39 10l10 -10l48 10l156 -19q49 7 49 28l-283 446l-146 279v19q100 119 361 242l302 102l10 10v9q-8 65 -59 65q0 -23 -243 -84l-195 -65l-196 -111q0 -18 -107 -112l-97 -195l9 -10v-9q-87 -161 -146 -437h-10l10 -28l-39 -121l39 -19l98 19
l9 -9h10l39 9zM127 578v27l19 19l-9 9v10q112 407 156 437l29 28h29q0 -28 68 -112q0 -50 147 -298q0 -23 58 -93l-48 -37h-10l-147 10v-10l-9 10l-98 -10h-68z" />
</svg>
