<?xml version="1.0" standalone="no"?>
<!DOCTYPE svg PUBLIC "-//W3C//DTD SVG 1.1//EN" "http://www.w3.org/Graphics/SVG/1.1/DTD/svg11.dtd" >
<svg xmlns="http://www.w3.org/2000/svg" xmlns:xlink="http://www.w3.org/1999/xlink" version="1.1" viewBox="-10 0 2058 2048">
   <path fill="currentColor"
d="M67 465l269 62l33 -12l45 12l67 -12v12l11 -12h23l11 12l11 -12l302 -13h68l67 -12l11 12h11l56 -12l11 12h11l45 -12h11l12 12l11 -12h22l45 50v25l-34 137l12 38q-79 219 -124 486q-105 167 -223 300l-157 100h-101l-101 -13l-55 25v-12q0 -23 -236 -225
q-125 -229 -145 -424l11 -13l-11 -62v-13l11 -12l-22 -100h11l-22 -75h11l-45 -150q0 -50 67 -87zM134 652v88l-11 49q30 258 90 412q17 0 44 113q116 199 280 199l11 -12v-50l-44 -88h11l-146 -349q-91 -298 -134 -312l-11 -62l-56 -13h-11zM369 702q79 142 168 424h11
l-11 38q42 92 67 100q50 -41 146 -437q78 -127 78 -175l-45 -25l-167 13l-56 -13l-12 13h-11l-67 -13h-33q-68 0 -68 75zM616 1463v38h44q127 0 269 -225l90 -162v-13l-12 -12v-13q35 0 90 -349l-11 -12v-13l11 -50v-12l-45 -13q-157 0 -157 50z" />
</svg>
