<?xml version="1.0" standalone="no"?>
<!DOCTYPE svg PUBLIC "-//W3C//DTD SVG 1.1//EN" "http://www.w3.org/Graphics/SVG/1.1/DTD/svg11.dtd" >
<svg xmlns="http://www.w3.org/2000/svg" xmlns:xlink="http://www.w3.org/1999/xlink" version="1.1" viewBox="-10 0 2058 2048">
   <path fill="currentColor"
d="M798 505q-52 239 -105 371l11 10v10l-21 39l10 29q-35 0 -42 137q-26 0 -147 459l-115 78h-63l-11 -10l-10 10h-11q-123 0 -189 -440q-19 0 -31 -107l10 -10l-42 -312l11 -10l-21 -20l10 -29l-42 -127l21 -58l105 9h21l21 -19q45 19 168 19h210zM368 612h-158l-31 30v29
l126 156q53 0 220 -146l42 -39l-31 -30h-32l-73 10l-11 -10v-9zM378 915l11 10v10l-21 29l10 39l-10 29l10 10v10l-10 10v9l10 10v10l-21 117l11 10v10l-11 39q27 49 84 49h42l21 -118l-10 -29q34 0 42 -137q20 -9 63 -185l-11 -10v-10l53 -127l-11 -9h-21zM105 730l63 312
v98l21 19l-10 10l21 108l-11 9l42 39q74 -19 74 -78v-205q0 -160 -147 -283q-16 -39 -32 -39l-10 10h-11zM242 1452q0 98 94 98q86 -29 116 -78q0 -77 -105 -127q-95 31 -95 98z" />
</svg>
