<?xml version="1.0" standalone="no"?>
<!DOCTYPE svg PUBLIC "-//W3C//DTD SVG 1.1//EN" "http://www.w3.org/Graphics/SVG/1.1/DTD/svg11.dtd" >
<svg xmlns="http://www.w3.org/2000/svg" xmlns:xlink="http://www.w3.org/1999/xlink" version="1.1" viewBox="-10 0 2058 2048">
   <path fill="currentColor"
d="M1635 579q48 9 48 36q-50 96 -87 226h-39q-73 -84 -116 -84h-48l-39 12l-39 -12q-164 38 -164 143l10 12q-35 0 -58 226l38 131l-9 12v12q0 167 261 202h19l29 -24q39 0 58 60q0 107 -155 107q-319 -108 -319 -226q-18 -6 -67 -179h9l-19 -83l10 -47l-10 -12v-12
q0 -79 106 -298l-9 -12q28 -35 164 -107q0 -29 116 -59l10 12h9l88 -24l67 12l10 -12h10l9 12h10zM445 591h19l97 36l39 -12l48 23l68 -35q38 18 38 35v24q-63 179 -96 179q-98 -47 -107 -84l-48 12h-58l-10 -12h-9q-1 17 -126 72q-107 89 -107 285h-9l19 48l-10 12v12
l58 143q0 129 184 190h20q193 0 290 -143h38l29 48q-44 155 -116 155q-29 38 -261 59q-245 -67 -300 -143q-29 0 -29 -47q-56 0 -106 -310v-24l10 -35l-10 -48q13 0 58 -166q149 -238 281 -238z" />
</svg>
