<?xml version="1.0" standalone="no"?>
<!DOCTYPE svg PUBLIC "-//W3C//DTD SVG 1.1//EN" "http://www.w3.org/Graphics/SVG/1.1/DTD/svg11.dtd" >
<svg xmlns="http://www.w3.org/2000/svg" xmlns:xlink="http://www.w3.org/1999/xlink" version="1.1" viewBox="-10 0 2058 2048">
   <path fill="currentColor"
d="M202 431h13q23 1 139 176l37 14l-12 13v14q89 176 177 176l277 -176q24 -82 89 -149h38q70 0 126 95v27q-192 211 -455 298l-37 41v54l189 326q0 45 126 176q-46 68 -76 68q-126 0 -126 -122l-151 -312q-38 0 -76 -122l-38 -14q-320 195 -328 326q0 162 151 176h25
l89 -27l12 13v41q-59 95 -164 95h-50q-177 -159 -177 -231v-122l13 -13v-14l-13 -13q118 -165 328 -299q51 -23 51 -95q-265 -285 -265 -325v-14z" />
</svg>
