<?xml version="1.0" standalone="no"?>
<!DOCTYPE svg PUBLIC "-//W3C//DTD SVG 1.1//EN" "http://www.w3.org/Graphics/SVG/1.1/DTD/svg11.dtd" >
<svg xmlns="http://www.w3.org/2000/svg" xmlns:xlink="http://www.w3.org/1999/xlink" version="1.1" viewBox="-10 0 2058 2048">
   <path fill="currentColor"
d="M159 572l527 24l122 -12l62 12l36 -12l37 12l12 -12l62 12h49l61 -12l208 24l74 -12q73 0 73 48l-24 96l12 12v12l-12 48l12 12v12l-37 179l12 12v12l-24 168l12 48l-12 48v48l12 59q-24 0 -24 36l12 12v12l-12 36l12 36l-86 72l-343 12l-37 12l-171 -24l-110 24l-37 -12
l-12 12l-62 -12h-36l-37 12l-306 -24l-111 24q-56 0 -73 -144l24 -108l-12 -47h12l-24 -72l24 -156l-24 -84l24 -96l-12 -72v-83l12 -48l-12 -12v-12q0 -120 74 -120zM331 680l-25 24l-12 -12q-159 0 -159 84v24h-13l13 12l-25 251l184 36l12 -12l221 36q0 -91 122 -168
l86 -24q107 51 208 180h12q392 -25 392 -72l13 -84l-13 -12v-12l13 -12v-12l-13 -95l13 -72q-13 -60 -74 -60l-73 12l-13 -12l-208 24l-37 -12l-12 12l-61 -12h-123l-12 -12l-12 12h-135l-73 -12l-62 24zM637 1111l12 12v12l-12 36l12 36h123l61 -60q-41 -120 -123 -120
q-73 33 -73 84zM147 1159l-25 48l13 48l-13 48l13 12l-25 191l49 24l123 -12l196 12l12 -12h12l135 24l37 -12l12 12h12l12 -12l147 12h111l171 -24l12 12l62 -12h98l24 -60l-12 -12v-12l12 -36l-12 -59h12l-12 -12l12 -120v-24l-12 -12v-12l-12 12l-62 -12l-220 36l-37 -12
l-37 12l-36 -12q-38 102 -123 144h-135l-159 -156h-86z" />
</svg>
