<?xml version="1.0" standalone="no"?>
<!DOCTYPE svg PUBLIC "-//W3C//DTD SVG 1.1//EN" "http://www.w3.org/Graphics/SVG/1.1/DTD/svg11.dtd" >
<svg xmlns="http://www.w3.org/2000/svg" xmlns:xlink="http://www.w3.org/1999/xlink" version="1.1" viewBox="-10 0 2058 2048">
   <path fill="currentColor"
d="M130 579l57 16l15 -16l72 16h115l72 -16q207 33 577 33l173 -17l29 65l-29 229l15 48l-15 49l15 17v16l-15 49l15 49l-29 163l14 48l-14 17v16l14 98l-14 65l14 65q0 49 -58 49l-302 -49l-58 33l-14 -17l-72 17h-15l-14 -17l-15 17l-72 -17l-216 17l-159 -33l-129 16
q-60 -22 -87 -81v-16l14 -17l-14 -16v-49l29 -65l-15 -16l29 -163l-14 -16v-17l14 -65v-33h-14l14 -81v-179l15 -114l-15 -17l44 -65l14 -16h29zM159 856l14 16l-14 114v49l-15 391q15 65 87 65h216l303 -32l303 16l28 -81l-14 -66l14 -16v-16l-14 -16l14 -196v-98l-14 -65
l14 -49q-10 -146 -144 -146l-14 16l-87 -16l-115 16v-16l-14 16h-15l-58 -16l-14 16l-72 -16h-43l-72 16l-87 -16l-58 16l-57 -16q-29 0 -29 49q-29 0 -29 81h-14zM822 872h14q44 0 44 65q-20 114 -58 114h-43l-72 -65q28 -114 115 -114zM404 1166h43q43 12 72 114l-58 48
h-72q-43 -16 -43 -97z" />
</svg>
