<?xml version="1.0" standalone="no"?>
<!DOCTYPE svg PUBLIC "-//W3C//DTD SVG 1.1//EN" "http://www.w3.org/Graphics/SVG/1.1/DTD/svg11.dtd" >
<svg xmlns="http://www.w3.org/2000/svg" xmlns:xlink="http://www.w3.org/1999/xlink" version="1.1" viewBox="-10 0 477 1000">
   <path fill="currentColor"
d="M413 269q-1 27 -32 26h-62q-9 144 -47 334q51 32 51 86q0 79 -77 79q-37 0 -59 -25q-19 -22 -19 -50q0 -52 56 -87q-21 -81 -57 -337q-44 -1 -48 0l-22 28q-20 22 -30 22l-10 -3l-1.5 -2t-1.5 -5q0 1 15 -24t15 -39q0 -21 -11 -46t-11 -23q0 -11 11 -11q8 0 29 28t24 28
h45q26 -204 77 -204q36 0 56 61q13 42 13 82l4 61q24 0 49 1q44 3 43 20z" />
</svg>
