<?xml version="1.0" standalone="no"?>
<!DOCTYPE svg PUBLIC "-//W3C//DTD SVG 1.1//EN" "http://www.w3.org/Graphics/SVG/1.1/DTD/svg11.dtd" >
<svg xmlns="http://www.w3.org/2000/svg" xmlns:xlink="http://www.w3.org/1999/xlink" version="1.1" viewBox="-10 0 739 1000">
   <path fill="currentColor"
d="M707 134l-264 547l-9 66q-21 -25 -39 -43q-43 -43 -62 -45q-25 -2 -35 4q-4 2 -18 19t-14 42q0 19 8 32l25 37q-3 1 -22 -7t-21 -10q-18 -19 -18 -48q0 -37 30 -66q33 -33 73 -33l52 7l224 -443l-486 184q8 14 26 39q15 15 15 40q0 38 -30 67q-32 32 -67 32
q-18 0 -30 -11q-6 -4 -11 -7q-9 -8 -16 -32q4 1 31 17q19 11 32 11q21 0 45 -24q18 -18 18 -40q0 -30 -36 -67q-26 -23 -51 -46l70 -11z" />
</svg>
