<?xml version="1.0" standalone="no"?>
<!DOCTYPE svg PUBLIC "-//W3C//DTD SVG 1.1//EN" "http://www.w3.org/Graphics/SVG/1.1/DTD/svg11.dtd" >
<svg xmlns="http://www.w3.org/2000/svg" xmlns:xlink="http://www.w3.org/1999/xlink" version="1.1" viewBox="-10 0 2058 2048">
   <path fill="currentColor"
d="M614 384l18 20l-45 187q14 40 27 40q62 0 90 -158q0 -30 37 -30l18 30v20q-50 204 -73 217l136 207l-9 10q54 115 63 188h9l-9 49l9 10v10l-9 39l9 10v10l-9 40l9 29q-21 0 -27 138q-141 188 -253 188l-27 -10l-9 10h-9q-154 -73 -154 -197v-89q94 -126 181 -139l72 -19
l9 -10v-10l145 20l9 -30l-9 -30h9l-54 -158l-37 -49l10 -10q-39 -39 -82 -49q-41 99 -54 99l-27 -30q21 -27 27 -148h-18q-72 43 -72 59l9 10v10l-36 29l-18 -19v-10q18 -13 36 -188q0 -45 -172 -178l-108 -29q-116 27 -208 108h-9l-9 -9v-20q91 -148 235 -148
q140 0 262 108h9q63 0 63 -79l-9 -10q18 0 18 -29l9 -10h27zM497 1371l9 40l-9 39q50 89 135 89q152 0 181 -247q-84 -69 -172 -69q-99 50 -144 148z" />
</svg>
