<?xml version="1.0" standalone="no"?>
<!DOCTYPE svg PUBLIC "-//W3C//DTD SVG 1.1//EN" "http://www.w3.org/Graphics/SVG/1.1/DTD/svg11.dtd" >
<svg xmlns="http://www.w3.org/2000/svg" xmlns:xlink="http://www.w3.org/1999/xlink" version="1.1" viewBox="-10 0 2058 2048">
   <path fill="currentColor"
d="M461 646q119 3 207 51l8 -8l46 43l7 -9h8q78 60 215 60h15q23 22 108 34l8 -9q0 18 138 35l7 -9l39 9q138 0 222 -17l23 8l8 -8q108 6 108 119l15 17l-15 26l7 26q0 77 -161 119l-8 -8l-38 8h-115l-207 -25h-16q-54 17 -54 120l8 34l-8 25l16 17l-8 26l23 26v8l8 -8h8
l30 8l23 -8l23 8l46 -25h31l8 42v18l-8 85h-23q-25 -51 -115 -51q-62 8 -62 43q0 107 77 128v8l-23 26v-9l-23 9l-92 -9l-8 9h-7l-23 -9v-17q53 -44 53 -154l-23 -25h-61q-31 0 -61 51q-12 0 -23 -34q15 -20 15 -103l8 -8h15q32 34 61 34q67 0 85 -51l-8 -9v-9l8 -34l-8 -25
l8 -9q0 -125 -54 -154l-8 -8h-7l-246 -9q-192 24 -192 51v17q0 32 31 77v77q0 137 -108 137q-68 0 -138 -85h-15l-77 68h-31q-105 0 -161 -179l15 -103l-7 -9v-8l7 -9v-8l-7 -26l30 -120l-7 -8l138 -188q143 -69 253 -86l8 -8zM345 740v-8q-67 0 -230 171q-25 79 -54 111
l16 60l61 -18q82 0 138 86h31l31 -26l7 9q24 -49 177 -77l230 -34h62q67 0 238 60l8 -9h7l31 9l8 -9h7l115 17l31 -8q0 25 115 25q39 0 46 -60q-10 -145 -30 -145l-8 9l-38 -9h-31l-123 9q-51 -24 -169 -43l-238 -69l-23 9q0 -12 -153 -68l-8 -9q-100 -6 -100 -17l-8 8h-7
l-31 -8zM1436 971v17q0 62 53 77l8 -9h8l31 9q0 -17 23 -17l23 -43l-8 -8v-9l8 -43l-46 -51l-31 9l-8 -9h-8q-53 25 -53 77zM69 1168l8 8v9l-16 25v9l16 26l-8 8q22 86 100 86q61 -28 61 -94l-23 -52l8 -8v-9q0 -49 -84 -60q-42 0 -62 52zM315 1253q0 120 115 120
q54 -56 54 -94l-8 -26l8 -8v-9q-23 -85 -77 -85q-56 0 -92 102z" />
</svg>
