<?xml version="1.0" standalone="no"?>
<!DOCTYPE svg PUBLIC "-//W3C//DTD SVG 1.1//EN" "http://www.w3.org/Graphics/SVG/1.1/DTD/svg11.dtd" >
<svg xmlns="http://www.w3.org/2000/svg" xmlns:xlink="http://www.w3.org/1999/xlink" version="1.1" viewBox="-10 0 2058 2048">
   <path fill="currentColor"
d="M794 444l169 11l11 -11l53 11h106l74 78l-11 11v12l11 55q-83 134 -180 134q-97 -89 -159 -89v-11q-423 56 -423 178l-32 123q40 56 116 56l170 -22l10 11h11l32 -11q116 34 201 234l-11 11v11l11 45q-39 184 -127 257q-135 100 -360 100q-95 0 -191 -78
q-149 -64 -222 -279l-21 -22l10 -12v-11l-31 -100h10l-21 -112q15 0 64 -212q91 -184 328 -290q213 -78 402 -78zM635 522l-10 -11h-11q-297 79 -455 301q-85 78 -85 268l53 145v11l-11 11q0 109 244 279l138 23l10 -11h11l10 11h11l64 -11v11q182 0 264 -268
q-19 -223 -180 -223l-190 44q-7 -33 -85 -33l-74 -123q0 -301 286 -301l148 -45l10 11h11l127 -22v-67l-74 -22zM995 567l11 11v11l-11 45l32 22h42q26 -6 53 -78q-42 -56 -74 -56z" />
</svg>
