<?xml version="1.0" standalone="no"?>
<!DOCTYPE svg PUBLIC "-//W3C//DTD SVG 1.1//EN" "http://www.w3.org/Graphics/SVG/1.1/DTD/svg11.dtd" >
<svg xmlns="http://www.w3.org/2000/svg" xmlns:xlink="http://www.w3.org/1999/xlink" version="1.1" viewBox="-10 0 909 1000">
   <path fill="currentColor"
d="M834 797q-14 -176 -97 -327q-97 -178 -261 -261q30 79 30 144q0 96 -71 167q-63 63 -155 63q-89 0 -149 -60q-78 -78 -78 -182q0 -96 68 -164q44 -43 140 -64q23 -5 49 -5q86 0 189 51q95 47 164 116q79 79 130 196q53 121 53 230q0 47 -12 96zM461 353
q0 -75 -51.5 -126.5t-126.5 -51.5q-74 0 -125 51.5t-51 125.5t51.5 125.5t125.5 51.5q75 0 126 -51t51 -125z" />
</svg>
