<?xml version="1.0" standalone="no"?>
<!DOCTYPE svg PUBLIC "-//W3C//DTD SVG 1.1//EN" "http://www.w3.org/Graphics/SVG/1.1/DTD/svg11.dtd" >
<svg xmlns="http://www.w3.org/2000/svg" xmlns:xlink="http://www.w3.org/1999/xlink" version="1.1" viewBox="-10 0 2058 2048">
   <path fill="currentColor"
d="M39 552l99 30l59 -10h10l40 10l69 -10h424l40 -10l9 10h10l30 -10l49 10l10 -10h10l30 10l39 -10l10 10l49 -10h20l49 10l60 -10h19l20 20v40l-30 41l-345 -10h-20l-79 -11l-187 21v-10q-40 0 -59 50l10 10v30h-10l10 70v61l-10 10l10 30l-10 40l10 10v10l-10 30l10 51
h19l138 -51h10q207 0 207 192l-9 40l19 110l-10 31l10 50h-10q22 83 99 120h59q57 -32 79 -70v-20l-10 -10l10 -10v-20l-19 -30q19 0 19 -31l10 -10h10q52 0 79 51v50q-48 100 -187 181h-30q-197 -63 -197 -201l-20 -30q20 0 20 -31l-10 -10v-10l10 -40l-20 -20l10 -10v-10
q0 -133 -129 -211q-157 49 -157 171v10h9l-9 10v20l9 40l-9 40l9 31l-19 20v120l19 30l-9 11v10q61 20 69 50l-60 20h-148q-39 -21 -39 -50q69 -106 69 -141v-282l10 -40l-10 -10v-10l10 -141l-10 -50l10 -40l-10 -30l10 -31l-10 -10v-10l10 -60l-10 -10h-10l10 -10v-10
l-30 -30h-79q-182 0 -227 80h-9q-17 0 -30 -70q20 -23 20 -121l10 -10h9z" />
</svg>
