<?xml version="1.0" standalone="no"?>
<!DOCTYPE svg PUBLIC "-//W3C//DTD SVG 1.1//EN" "http://www.w3.org/Graphics/SVG/1.1/DTD/svg11.dtd" >
<svg xmlns="http://www.w3.org/2000/svg" xmlns:xlink="http://www.w3.org/1999/xlink" version="1.1" viewBox="-10 0 983 1000">
   <path fill="currentColor"
d="M924 154q0 45 -32 77.5t-77 32.5q-16 0 -30 -4l-221 348q36 32 36 81q0 45 -32 77.5t-77 32.5q-46 0 -78 -32.5t-32 -77.5q0 -50 37 -83l-219 -345q-19 8 -41 8q-45 0 -77 -32.5t-32 -77.5t32 -77.5t77 -32.5q38 0 73.5 28.5t35.5 65.5q0 62 -31 93q82 156 219 349
q17 -6 36 -6q18 0 36 6q131 -195 220 -344q-42 -33 -42 -91q0 -44 33 -75t77 -31q45 0 77 32.5t32 77.5zM889 154q0 -30 -22 -52t-52 -22q-31 0 -53 22t-22 52q0 31 22 53t53 22q30 0 52 -22t22 -53zM233 159q0 -31 -22 -53t-53 -22q-30 0 -52 22t-22 53q0 30 22 52t52 22
q31 0 53 -22t22 -52zM565 689q0 -31 -22 -53t-52 -22q-31 0 -53 22t-22 53q0 30 22 52.5t53 22.5q30 0 52 -22.5t22 -52.5z" />
</svg>
