<?xml version="1.0" standalone="no"?>
<!DOCTYPE svg PUBLIC "-//W3C//DTD SVG 1.1//EN" "http://www.w3.org/Graphics/SVG/1.1/DTD/svg11.dtd" >
<svg xmlns="http://www.w3.org/2000/svg" xmlns:xlink="http://www.w3.org/1999/xlink" version="1.1" viewBox="-10 0 790 1000">
   <path fill="currentColor"
d="M472 347q0 28 -30 49q-26 18 -49 18q-2 0 -15.5 -2t-15.5 -2t-12 2t-17 2q1 -73 0 -96q12 36 25.5 51t39.5 15q30 0 30 -46q0 -37 -48 -59t-48 -60t72 -52l34 9q6 -10 16 -26q1 0 0 6.5t0 7.5v73q1 2 0 7q-7 -3 -21 -28q-13 -22 -31 -22q-26 0 -26 36q0 17 48 51.5
t48 65.5zM766 188l-58 55l-357 559l-276 -559l-58 -55h215l-59 55l208 454l289 -454l-60 -55h156z" />
</svg>
