<?xml version="1.0" standalone="no"?>
<!DOCTYPE svg PUBLIC "-//W3C//DTD SVG 1.1//EN" "http://www.w3.org/Graphics/SVG/1.1/DTD/svg11.dtd" >
<svg xmlns="http://www.w3.org/2000/svg" xmlns:xlink="http://www.w3.org/1999/xlink" version="1.1" viewBox="-10 0 713 1000">
   <path fill="currentColor"
d="M675 681l-23 53q-18 -26 -45 -26q-6 0 -12 2l-80 12q-54 -1 -96 -70q-32 -54 -49 -134v281h-35v-281q-16 80 -49 134q-41 69 -96 70l-80 -12q-5 -2 -12 -2q-27 0 -45 26l-22 -53l19 -63q11 16 37 50q31 32 87 31q65 -2 96 -70q24 -53 23 -134l3 -20h-112l-38 47l-28 -56
l28 -57q11 12 36 41h114q-1 -7 0 -16l-4 -41q-18 -173 -90 -171q-39 1 -85 23q-54 27 -67 66l-18 -70l19 -71q12 16 25 31q17 19 31 21l86 -22l39 -1q74 -1 103 178v-322h35v322q29 -179 103 -178l39 1l87 22q14 -2 30 -21q13 -15 26 -31l18 71l-18 70q-13 -39 -67 -66
q-46 -22 -85 -23q-72 -2 -89 171l-4 41q-1 7 0 16h113q11 -14 21.5 -28t14.5 -13l28 57l-28 56l-37 -47h-112l2 20q-1 81 24 134q30 68 96 70q56 1 86 -31q15 -15 37 -50z" />
</svg>
