<?xml version="1.0" standalone="no"?>
<!DOCTYPE svg PUBLIC "-//W3C//DTD SVG 1.1//EN" "http://www.w3.org/Graphics/SVG/1.1/DTD/svg11.dtd" >
<svg xmlns="http://www.w3.org/2000/svg" xmlns:xlink="http://www.w3.org/1999/xlink" version="1.1" viewBox="-10 0 2178 2048">
   <path fill="currentColor"
d="M2158 1638h-200l-240 -402q-33 -56 -63.5 -95.5t-63.5 -64.5t-70.5 -36.5t-84.5 -11.5h-236l-295 610h-190l-695 -1434h1580l-1 1q86 5 158.5 31.5t125 74t82 116.5t29.5 159q0 75 -22.5 137.5t-64 111.5t-100 83.5t-131.5 53.5v4q35 16 62 36.5t51 48.5t47.5 64t52.5 82
zM810 1453l524 -1097h-1049zM1526 876q63 0 116.5 -19t92.5 -54.5t61 -86.5t22 -116q0 -115 -74 -179.5t-216 -64.5h-2l-252 520h252z" />
</svg>
