<?xml version="1.0" standalone="no"?>
<!DOCTYPE svg PUBLIC "-//W3C//DTD SVG 1.1//EN" "http://www.w3.org/Graphics/SVG/1.1/DTD/svg11.dtd" >
<svg xmlns="http://www.w3.org/2000/svg" xmlns:xlink="http://www.w3.org/1999/xlink" version="1.1" viewBox="-10 0 810 1000">
   <path fill="currentColor"
d="M607 309q0 28 -20 48t-48 20q-27 0 -47 -20t-20 -48t20 -47.5t47 -19.5q28 0 48 19.5t20 47.5zM335 312q0 28 -20 47.5t-48 19.5t-47.5 -19.5t-19.5 -47.5t19.5 -48t47.5 -20t48 20t20 48zM733 204q0 27 -46 56v224h-267v141h59l19 -21l42 42l-42 43l-21 -18h-57v110
l16 15l-42 42l-42 -42l19 -19v-106h-66l-21 16l-42 -42l42 -42l22 22h65v-141h-258v-215q-46 -20 -46 -64q0 -27 19.5 -46.5t46.5 -19.5q28 0 47 19.5t19 46.5q0 38 -45 60v177h217v-182q-40 -13 -40 -58q0 -28 19 -47.5t47 -19.5q27 0 46.5 19.5t19.5 47.5q0 39 -43 59v178
h223v-174q-43 -18 -43 -61q0 -27 19.5 -46.5t47.5 -19.5q27 0 46.5 19.5t19.5 46.5zM708 203q0 -17 -12 -29.5t-29 -12.5t-29.5 12.5t-12.5 29.5t12.5 29t29.5 12t29 -12t12 -29zM581 307q0 -16 -11.5 -27.5t-27.5 -11.5t-27.5 11.5t-11.5 27.5t11.5 27.5t27.5 11.5
t27.5 -11.5t11.5 -27.5zM438 203q0 -17 -12 -29.5t-29 -12.5t-29.5 12.5t-12.5 29.5t12.5 29t29.5 12t29 -12t12 -29zM309 309q0 -16 -11.5 -27.5t-27.5 -11.5t-27.5 11.5t-11.5 27.5t11.5 27.5t27.5 11.5t27.5 -11.5t11.5 -27.5zM176 205q0 -17 -12 -29t-29 -12t-29.5 12
t-12.5 29t12.5 29.5t29.5 12.5t29 -12.5t12 -29.5z" />
</svg>
