<?xml version="1.0" standalone="no"?>
<!DOCTYPE svg PUBLIC "-//W3C//DTD SVG 1.1//EN" "http://www.w3.org/Graphics/SVG/1.1/DTD/svg11.dtd" >
<svg xmlns="http://www.w3.org/2000/svg" xmlns:xlink="http://www.w3.org/1999/xlink" version="1.1" viewBox="-10 0 762 1000">
   <path fill="currentColor"
d="M730 55q1 0 1 1q0 3 -5.5 14t-5.5 13q0 14 -66 76q-42 38 -83 76q-2 -1 0 -7q2 -7 2 -8q0 -25 157 -165zM583 93q0 9 -12 69q-2 15 -5 31q-6 20 -20 20q-3 -1 -3 -16v-33q0 -15 33 -112q7 35 7 41zM735 202q-69 30 -159 63q-1 -2 7 -8t8 -9q108 -44 110 -44t4.5 1t4.5 1
q1 2 25 -4zM708 296q-59 19 -68 17l-47 -12q10 -2 24 -9q25 -5 44 -5q7 0 47 9zM521 169q0 31 -2 39q-7 -2 -18 -30q-9 -25 -9 -35l-1 -36q2 -2 7.5 11t7.5 13q15 0 15 38zM587 359l-205 205q0 9 -1 41v40q0 65 -48 107.5t-113 42.5q-67 0 -128 -54.5t-61 -120.5
q0 -75 39 -129q43 -59 115 -59q8 0 41 4q30 3 41 2q-3 0 199 -200l19 30l-182 183q-15 15 -53 15q-11 0 -32.5 -2t-32.5 -2q-51 0 -87.5 46.5t-36.5 98.5q0 57 48.5 104.5t106.5 47.5q47 0 85 -24q42 -27 47 -72q2 -15 2 -31q0 -9 -3.5 -25t-3.5 -24t9 -27t11 -25l202 -202z
" />
</svg>
