<?xml version="1.0" standalone="no"?>
<!DOCTYPE svg PUBLIC "-//W3C//DTD SVG 1.1//EN" "http://www.w3.org/Graphics/SVG/1.1/DTD/svg11.dtd" >
<svg xmlns="http://www.w3.org/2000/svg" xmlns:xlink="http://www.w3.org/1999/xlink" version="1.1" viewBox="-10 0 1670 2048">
   <path fill="currentColor"
d="M782 1638h-198l-575 -1409h201l390 992q15 45 30 89.5t27 79.5q14 41 27 80q12 -37 26 -78q12 -35 26.5 -79t31.5 -92l388 -992h201zM923 603q0 43 -16.5 77t-48.5 56.5t-78.5 35t-105.5 12.5q-54 0 -96.5 -8t-75 -26.5t-54 -48.5t-32.5 -73l90 -17q14 49 54.5 71.5
t113.5 22.5q32 0 60 -4t47.5 -15t31 -29.5t11.5 -45.5q0 -28 -13.5 -46t-36.5 -29.5t-56.5 -20.5t-72.5 -20q-36 -9 -72.5 -21t-66 -32t-48 -48.5t-18.5 -72.5q0 -84 60 -128t174 -44q102 0 162 35.5t76 115.5l-93 10q-4 -23 -18 -39t-33 -26t-43 -14t-51 -4
q-68 0 -101 20.5t-33 62.5q0 26 12.5 42t34.5 27t52 19.5t67 17.5q24 6 50 13t49.5 16.5t45 23t37.5 32.5t25.5 44t9.5 58z" />
</svg>
