<?xml version="1.0" standalone="no"?>
<!DOCTYPE svg PUBLIC "-//W3C//DTD SVG 1.1//EN" "http://www.w3.org/Graphics/SVG/1.1/DTD/svg11.dtd" >
<svg xmlns="http://www.w3.org/2000/svg" xmlns:xlink="http://www.w3.org/1999/xlink" version="1.1" viewBox="-10 0 927 1000">
   <path fill="currentColor"
d="M864 747q-1 43 -37 66q-29 20 -71 20q-56 0 -93 -79q-25 -74 -50 -147q-28 -80 -65 -80h-189l-108 307l-198 -733h561q81 2 125.5 52.5t44.5 140.5q0 212 -160 225q20 21 33 51l20 52q7 13 16.5 66.5t19.5 76.5q16 37 45 37q21 0 46 -12q31 -15 31 -35q0 -16 -16 -35
t-33 -19q-18 0 -18 13l2 7q28 -3 20 -3q20 0 20 23q0 14 -11.5 23t-25.5 9q-15 0 -30.5 -16.5t-15.5 -31.5q0 -22 16 -40.5t37 -18.5q33 0 59 25t25 56zM727 288q0 -69 -40 -108q-34 -33 -87 -35q-46 -2 -123 0l-102 329h236q116 0 116 -186zM429 145h-318l153 550zM313 291
q0 15 -11 25.5t-25 10.5q-15 0 -25.5 -10.5t-10.5 -25.5t10.5 -25.5t25.5 -10.5q14 0 25 10.5t11 25.5z" />
</svg>
