<?xml version="1.0" standalone="no"?>
<!DOCTYPE svg PUBLIC "-//W3C//DTD SVG 1.1//EN" "http://www.w3.org/Graphics/SVG/1.1/DTD/svg11.dtd" >
<svg xmlns="http://www.w3.org/2000/svg" xmlns:xlink="http://www.w3.org/1999/xlink" version="1.1" viewBox="-10 0 1955 2048">
   <path fill="currentColor"
d="M1935 1638h-200l-240 -402q-33 -56 -63.5 -95.5t-63.5 -64.5t-70.5 -36.5t-84.5 -11.5h-138v610h-167l-1 -610h-408l-294 610h-195l700 -1434h625q94 0 173.5 23.5t138 71.5t91.5 119.5t33 167.5q0 75 -22.5 137.5t-64 111.5t-100 83.5t-131.5 53.5v4q35 16 62 36.5
t51 48.5t47.5 64t52.5 82zM1075 356v520h228q63 0 116.5 -19t92.5 -54.5t61 -86.5t22 -116q0 -115 -74 -179.5t-216 -64.5h-230zM566 876h341v-520h-94z" />
</svg>
