<?xml version="1.0" standalone="no"?>
<!DOCTYPE svg PUBLIC "-//W3C//DTD SVG 1.1//EN" "http://www.w3.org/Graphics/SVG/1.1/DTD/svg11.dtd" >
<svg xmlns="http://www.w3.org/2000/svg" xmlns:xlink="http://www.w3.org/1999/xlink" version="1.1" viewBox="-10 0 1449 2048">
   <path fill="currentColor"
d="M714 1763q-45 0 -86 -17.5t-71.5 -48.5t-48.5 -72t-18 -88q0 -39 12 -73.5t34 -63.5l-282 -776q-44 -2 -83 -20.5t-68 -49t-46 -70.5t-17 -86q0 -47 17.5 -87.5t47.5 -70.5t70.5 -47t87.5 -17q46 0 87.5 17.5t72 47.5t48.5 70.5t18 86.5q0 51 -20 93.5t-55 74.5l260 753
q9 -2 18.5 -3t20.5 -1q21 0 46 5l267 -753q-35 -31 -55.5 -74.5t-20.5 -94.5q0 -47 17.5 -87.5t47.5 -70.5t70.5 -47t87.5 -17q46 0 87.5 17.5t72 47.5t48.5 70.5t18 86.5t-17 86.5t-46.5 71t-69 49t-84.5 19.5l-288 781q21 28 33 61.5t12 70.5q0 47 -18 88t-48.5 72
t-71.5 48.5t-87 17.5zM1175 288q-22 0 -42 8.5t-35 23.5t-24 35t-9 43t8 43.5t22.5 36.5t34.5 25t44 9q23 0 43.5 -9t35.5 -25t24 -36.5t9 -43.5t-9 -43t-24 -35t-35.5 -23.5t-42.5 -8.5zM265 288q-22 0 -42 8.5t-35 23.5t-24 35t-9 43t8 43.5t22.5 36.5t34.5 25t44 9
q23 0 43.5 -9t35.5 -25t24 -36.5t9 -43.5t-9 -43t-24 -35t-35.5 -23.5t-42.5 -8.5zM715 1427q-22 0 -42 8.5t-35 23.5t-24 35t-9 43t8 43.5t22.5 36.5t34.5 25t44 9q23 0 43.5 -9t35.5 -25t24 -36.5t9 -43.5t-9 -43t-24 -35t-35.5 -23.5t-42.5 -8.5z" />
</svg>
