<?xml version="1.0" standalone="no"?>
<!DOCTYPE svg PUBLIC "-//W3C//DTD SVG 1.1//EN" "http://www.w3.org/Graphics/SVG/1.1/DTD/svg11.dtd" >
<svg xmlns="http://www.w3.org/2000/svg" xmlns:xlink="http://www.w3.org/1999/xlink" version="1.1" viewBox="-10 0 1158 1000">
   <path fill="currentColor"
d="M1104 557l-74 47l-151 -243l-99 135l-74 47l-133 -181l-100 137l-74 47l-132 -181l-142 193l-81 51l202 -274l73 -47l133 181l101 -138l73 -46l133 180l101 -137l73 -47zM1042 713l-75 47l-126 -206l-99 135l-74 47l-133 -181l-100 137l-74 47l-132 -181l-96 136l-81 52
l156 -218l73 -47l133 181l101 -138l73 -46l133 180l101 -137l73 -47z" />
</svg>
