<?xml version="1.0" standalone="no"?>
<!DOCTYPE svg PUBLIC "-//W3C//DTD SVG 1.1//EN" "http://www.w3.org/Graphics/SVG/1.1/DTD/svg11.dtd" >
<svg xmlns="http://www.w3.org/2000/svg" xmlns:xlink="http://www.w3.org/1999/xlink" version="1.1" viewBox="-10 0 766 1000">
   <path fill="currentColor"
d="M440 207q0 28 -19.5 47.5t-47.5 19.5t-47.5 -19.5t-19.5 -47.5t19.5 -47.5t47.5 -19.5t47.5 19.5t19.5 47.5zM696 472q0 28 -19.5 47.5t-47.5 19.5t-47.5 -19.5t-19.5 -47.5t19.5 -47.5t47.5 -19.5t47.5 19.5t19.5 47.5zM707 122l-104 59q-42 63 -77 113
q-84 122 -122 165l193 271l94 55l-105 32l-105 -25q19 -21 40 -50l-160 -238q-83 106 -192 254q-2 3 -2 6q0 8 16 19q20 13 23 17l-80 34l-75 -28q4 -3 58 -39q37 -24 56 -51t184 -234l-40 -51l-213 -289l87 -47l83 43q-36 45 -35 59q0 1 155 234q19 -20 101 -132
q76 -104 93 -130q4 -6 -28 -41l78 -40zM196 472q0 28 -19.5 47.5t-47.5 19.5q-27 0 -47 -19.5t-20 -47.5t20 -47.5t47 -19.5q28 0 47.5 19.5t19.5 47.5zM425 731q0 27 -19.5 47t-47.5 20q-27 0 -47 -20t-20 -47q0 -28 20 -47.5t47 -19.5q28 0 47.5 19.5t19.5 47.5z" />
</svg>
