<?xml version="1.0" standalone="no"?>
<!DOCTYPE svg PUBLIC "-//W3C//DTD SVG 1.1//EN" "http://www.w3.org/Graphics/SVG/1.1/DTD/svg11.dtd" >
<svg xmlns="http://www.w3.org/2000/svg" xmlns:xlink="http://www.w3.org/1999/xlink" version="1.1" viewBox="-10 0 1051 1000">
   <path fill="currentColor"
d="M982 741q0 29 -27 45q-23 13 -55 13q-40 0 -72 -48q-24 -41 -47 -81q-71 8 -68 8q-44 0 -78 -20q-18 -10 -36 -21q-44 32 -121 77q-98 56 -121 56q-10 0 -14 -8l233 -152q-29 -79 -42 -79h-254q-40 76 -114 76q-44 0 -75.5 -34.5t-31.5 -77.5q0 -57 33.5 -93t89.5 -36
q29 0 62 26.5t39 54.5h242q28 0 40 -16t24 -34q20 -23 58 -46q-57 -137 -88 -179q-61 -83 -167 -102l-8 -17q9 -4 17 -4q13 0 61 14.5t57 21.5q64 53 129 192q32 67 37 67t16 -1t16 -1q44 0 91 21q30 -26 49 -79q18 -49 18 -93q0 -86 -64 -123q-6 22 -14 43.5t-38 21.5
q-24 0 -24 -37q0 -22 18 -37t40 -15q52 0 80 49q23 40 23 95q0 56 -29.5 125.5t-29.5 67.5q0 -3 25.5 45.5t25.5 78.5q0 42 -19 81q-14 26 -35.5 48.5l-21.5 22.5q0 26 36 72.5t60 46.5q29 0 38 -7t9 -33q0 -31 -25 -31t-25 14q0 10 25 30l-9 -6q-40 0 -40 -21t16 -34
t37 -13q48 0 48 66zM774 407l-44 -19h-26l-10 2q11 27 38 76q12 -13 25 -27q14 -18 17 -32zM834 513q0 -18 -10.5 -43.5t-23.5 -32.5l-58 66q10 25 21 51q13 32 26 48q16 -20 30.5 -40t14.5 -49zM707 491q-15 -40 -17 -45q-10 -25 -22 -42q-32 7 -51 41q-16 30 -16 65
q0 36 26 62zM755 617q-10 -31 -16 -45q-12 -30 -23 -41l-72 69q24 26 73 26q20 0 38 -9zM253 472q0 -27 -27 -47q-25 -17 -52 -17q-73 0 -73 87q0 29 22 51.5t50 22.5q32 0 57 -34q23 -30 23 -63z" />
</svg>
