<?xml version="1.0" standalone="no"?>
<!DOCTYPE svg PUBLIC "-//W3C//DTD SVG 1.1//EN" "http://www.w3.org/Graphics/SVG/1.1/DTD/svg11.dtd" >
<svg xmlns="http://www.w3.org/2000/svg" xmlns:xlink="http://www.w3.org/1999/xlink" version="1.1" viewBox="-10 0 1060 1000">
   <path fill="currentColor"
d="M1002 205q0 91 -75 143q-50 35 -156 62q0 16 -7 59q79 23 150 77q88 66 88 135q0 52 -34 84t-87 32q-30 0 -56 -31.5t-26 -61.5q0 -69 66 -69q14 0 31 20.5t17 34.5q0 24 -15 24q-8 0 -13.5 -21t-28.5 -21q-28 0 -28 36q0 24 24 40q21 14 46 14q37 0 57.5 -24t20.5 -61
q0 -56 -85 -109q-77 -47 -139 -49q-27 67 -93 110t-139 43q-72 0 -132 -39t-85 -105q-60 2 -134 50q-81 54 -81 110q0 29 29 50.5t59 21.5q25 0 39 -22q13 -19 13 -45q0 -29 -31 -29q-21 0 -21 20q0 7 12 30q-10 4 -17 4q-15 0 -32 -29q-2 -66 69 -66q22 0 41 28.5t19 52.5
q0 33 -27.5 60.5t-61.5 27.5q-43 0 -80 -21q-43 -26 -43 -66q0 -101 77 -157q47 -35 165 -71l-5 -56l-16 1q-71 3 -148 -59q-81 -65 -81 -137q0 -69 33 -113q36 -49 103 -49q42 0 72 22q34 25 34 66q0 24 -23 44.5t-48 20.5q-18 0 -42 -14q-27 -16 -27 -33t11 -33t28 -16
q32 0 32 16t-18.5 17t-18.5 10q0 8 12.5 16.5t20.5 8.5q15 0 26.5 -12.5t11.5 -26.5q0 -26 -23 -42q-20 -13 -48 -13q-41 0 -74 40.5t-33 83.5q0 72 77 115q61 34 143 39q71 -176 234 -176q174 0 233 157q206 -18 206 -150q0 -106 -125 -106q-18 0 -35.5 12.5t-17.5 29.5
q0 19 15.5 37t34.5 18q17 0 17 -16q0 -5 -7.5 -16t-7.5 -16q0 -12 17 -12q32 0 32 36q0 23 -16 38t-39 15q-27 0 -52 -24.5t-25 -51.5q0 -82 99 -82q61 0 101.5 39t40.5 100zM690 363q-11 -49 -60 -78q-44 -27 -97 -27t-103 31t-65 80zM706 441l-1 -20q-10 -6 -17 -6
q-43 0 -129.5 6.5t-130.5 6.5q-39 0 -73 -4q-11 14 -11 24q0 -1 6 15q66 -13 227 -13q13 0 55.5 4t55.5 4q18 0 18 -17zM687 510q-131 -8 -133 -8q-5 0 -148 5q-43 2 -43 10q0 23 54 58t80 35q50 0 110 -27q69 -31 80 -73z" />
</svg>
