<?xml version="1.0" standalone="no"?>
<!DOCTYPE svg PUBLIC "-//W3C//DTD SVG 1.1//EN" "http://www.w3.org/Graphics/SVG/1.1/DTD/svg11.dtd" >
<svg xmlns="http://www.w3.org/2000/svg" xmlns:xlink="http://www.w3.org/1999/xlink" version="1.1" viewBox="-10 0 752 1000">
   <path fill="currentColor"
d="M719 463h-321v151h61l28 -28l52 52l-52 53l-32 -32h-57v84l24 24l-52 53l-52 -53l20 -21v-87h-60l-30 30l-52 -53l52 -52l30 30h60v-151h-323l252 -364q2 -3 6 -1q3 2 1 6l-179 314h243v-296q4 -40 32 -40q32 0 28 40v296h243l-167 -315q-2 -3 2 -5q3 -2 5 1z" />
</svg>
