<?xml version="1.0" standalone="no"?>
<!DOCTYPE svg PUBLIC "-//W3C//DTD SVG 1.1//EN" "http://www.w3.org/Graphics/SVG/1.1/DTD/svg11.dtd" >
<svg xmlns="http://www.w3.org/2000/svg" xmlns:xlink="http://www.w3.org/1999/xlink" version="1.1" viewBox="-10 0 804 1000">
   <path fill="currentColor"
d="M746 128q0 30 -23.5 50.5t-55.5 20.5q-8 0 -17 -1q-92 113 -191 231q24 23 24 53q0 28 -19 49q51 61 116 136q17 -8 35 -8q31 0 54.5 21.5t23.5 49.5q0 29 -23.5 50t-54.5 21q-32 0 -55 -21t-23 -50q0 -22 14 -40l-115 -139q-18 7 -37 7q-21 0 -40 -9l-121 140
q14 19 14 40q0 29 -23 50t-55 21t-55 -21t-23 -50q0 -28 23 -49t55 -21q18 0 35 7q33 -36 124 -138q-17 -20 -17 -46q0 -29 21 -50q-100 -120 -193 -234q-9 1 -17 1q-32 0 -55.5 -21t-23.5 -50q0 -28 23.5 -49.5t54.5 -21.5q32 0 55 21.5t23 49.5q0 33 -27 54
q97 121 188 231l8 -3v-232q-24 -7 -39.5 -26t-15.5 -41q0 -29 23 -50t55 -21q31 0 54.5 21t23.5 50q0 49 -52 66v233l8 2q91 -110 187 -230q-27 -21 -27 -54q0 -28 23 -49.5t55 -21.5q31 0 54.5 21.5t23.5 49.5zM713 128q0 -17 -13 -28.5t-31 -11.5q-19 0 -32 11.5t-13 28.5
t13 28.5t32 11.5q18 0 31 -11.5t13 -28.5zM440 114q0 -17 -13 -28.5t-31 -11.5t-31 11.5t-13 28.5t13 28.5t31 11.5t31 -11.5t13 -28.5zM171 129q0 -17 -13 -28.5t-31 -11.5t-31 11.5t-13 28.5t13 28.5t31 11.5t31 -11.5t13 -28.5zM451 482q0 -20 -15.5 -34.5t-37.5 -14.5
q-23 0 -38.5 14.5t-15.5 34.5t15.5 34.5t38.5 14.5q22 0 37.5 -14.5t15.5 -34.5zM660 734q0 -17 -13 -28.5t-31 -11.5t-31 11.5t-13 28.5q0 16 13 28t31 12t31 -12t13 -28zM218 733q0 -17 -13 -28.5t-31 -11.5t-31 11.5t-13 28.5t13 28.5t31 11.5t31 -11.5t13 -28.5z" />
</svg>
