<?xml version="1.0" standalone="no"?>
<!DOCTYPE svg PUBLIC "-//W3C//DTD SVG 1.1//EN" "http://www.w3.org/Graphics/SVG/1.1/DTD/svg11.dtd" >
<svg xmlns="http://www.w3.org/2000/svg" xmlns:xlink="http://www.w3.org/1999/xlink" version="1.1" viewBox="-10 0 1583 2048">
   <path fill="currentColor"
d="M90 1347q0 -61 22.5 -115.5t62.5 -94.5t94.5 -63.5t117.5 -23.5t118 23.5t95.5 64t63.5 94.5t23 115t-23 115t-63.5 94.5t-95.5 64t-118 23.5t-117.5 -23.5t-94.5 -63.5t-62.5 -94t-22.5 -116zM387 1176q-36 0 -66.5 12t-53 34.5t-35 53.5t-12.5 69t13 70t35.5 55t53 36
t65.5 13q34 0 65 -13t54.5 -36.5t37 -55t13.5 -69.5q0 -37 -13.5 -68.5t-36.5 -53.5t-54 -34.5t-66 -12.5zM886 1347q0 -61 22.5 -115.5t62.5 -94.5t94.5 -63.5t117.5 -23.5t118 23.5t95.5 64t63.5 94.5t23 115t-23 115t-63.5 94.5t-95.5 64t-118 23.5t-117.5 -23.5
t-94.5 -63.5t-62.5 -94t-22.5 -116zM1183 1176q-36 0 -66.5 12t-53 34.5t-35 53.5t-12.5 69t13 70t35.5 55t53 36t65.5 13q34 0 65 -13t54.5 -36.5t37 -55t13.5 -69.5q0 -37 -13.5 -68.5t-36.5 -53.5t-54 -34.5t-66 -12.5zM490 827q0 -61 22.5 -115.5t62.5 -94.5t94.5 -63.5
t117.5 -23.5t118 23.5t95.5 64t63.5 94.5t23 115t-23 115t-63.5 94.5t-95.5 64t-118 23.5t-117.5 -23.5t-94.5 -63.5t-62.5 -94t-22.5 -116zM787 656q-36 0 -66.5 12t-53 34.5t-35 53.5t-12.5 69t13 70t35.5 55t53 36t65.5 13q34 0 65 -13t54.5 -36.5t37 -55t13.5 -69.5
q0 -37 -13.5 -68.5t-36.5 -53.5t-54 -34.5t-66 -12.5z" />
</svg>
