<?xml version="1.0" standalone="no"?>
<!DOCTYPE svg PUBLIC "-//W3C//DTD SVG 1.1//EN" "http://www.w3.org/Graphics/SVG/1.1/DTD/svg11.dtd" >
<svg xmlns="http://www.w3.org/2000/svg" xmlns:xlink="http://www.w3.org/1999/xlink" version="1.1" viewBox="-10 0 647 1000">
   <path fill="currentColor"
d="M406 394q0 41 -28.5 69.5t-69.5 28.5t-69.5 -28.5t-28.5 -69.5q0 -40 28.5 -69t69.5 -29t69.5 29t28.5 69zM609 701q0 41 -29 69.5t-69 28.5q-41 0 -69.5 -28.5t-28.5 -69.5q0 -40 28.5 -69t69.5 -29q40 0 69 29t29 69zM220 704q0 40 -28.5 69t-69.5 29q-40 0 -69 -29
t-29 -69q0 -41 29 -69.5t69 -28.5q41 0 69.5 28.5t28.5 69.5z" />
</svg>
