<?xml version="1.0" standalone="no"?>
<!DOCTYPE svg PUBLIC "-//W3C//DTD SVG 1.1//EN" "http://www.w3.org/Graphics/SVG/1.1/DTD/svg11.dtd" >
<svg xmlns="http://www.w3.org/2000/svg" xmlns:xlink="http://www.w3.org/1999/xlink" version="1.1" viewBox="-10 0 1189 2048">
   <path fill="currentColor"
d="M1089 526q0 202 -110.5 340t-307.5 178v117h192v77h-192v222q47 -115 167 -115q93 0 151 87q51 76 51 174h-94q0 -63 -24 -108q-31 -57 -88 -57q-58 0 -95 55q-31 47 -36 110h-227q-5 -65 -35 -111q-37 -54 -97 -54q-56 0 -87 57q-25 46 -25 108h-93q0 -98 51 -175
q58 -86 151 -86q119 0 168 115v-222h-194v-77h194v-117q-197 -38 -308 -177t-111 -341q0 -347 220 -347q108 0 149 106q31 -108 131 -108q98 0 129 108q41 -106 150 -106q220 0 220 347zM973 449q-3 -59 -26 -112q-30 -69 -78 -69q-94 0 -109 181h213zM685 449
q0 -182 -95 -182q-96 0 -96 182h191zM418 449q-18 -181 -108 -181q-47 0 -78 70q-24 53 -27 111h213zM977 555h-775q11 167 115 273q107 109 273 109q165 0 272 -110q105 -106 115 -272z" />
</svg>
