<?xml version="1.0" standalone="no"?>
<!DOCTYPE svg PUBLIC "-//W3C//DTD SVG 1.1//EN" "http://www.w3.org/Graphics/SVG/1.1/DTD/svg11.dtd" >
<svg xmlns="http://www.w3.org/2000/svg" xmlns:xlink="http://www.w3.org/1999/xlink" version="1.1" viewBox="-10 0 1189 2048">
   <path fill="currentColor"
d="M1089 1100q0 227 -142 374q-145 150 -357 150q-211 0 -358 -150q-142 -145 -142 -374q0 -348 220 -348q108 0 149 106q31 -108 131 -108q98 0 129 108q41 -106 150 -106q220 0 220 348zM973 1022q-3 -58 -25 -111q-30 -69 -79 -69q-94 0 -109 180h213zM685 1022
q0 -182 -95 -182q-96 0 -96 182h191zM418 1022q-18 -180 -108 -180q-48 0 -78 70q-24 52 -27 110h213zM977 1128h-775q11 167 115 273q108 109 273 109t272 -110q105 -106 115 -272z" />
</svg>
