<?xml version="1.0" standalone="no"?>
<!DOCTYPE svg PUBLIC "-//W3C//DTD SVG 1.1//EN" "http://www.w3.org/Graphics/SVG/1.1/DTD/svg11.dtd" >
<svg xmlns="http://www.w3.org/2000/svg" xmlns:xlink="http://www.w3.org/1999/xlink" version="1.1" viewBox="-10 0 789 1000">
   <path fill="currentColor"
d="M752 442q0 27 -19 46t-46 19q-43 0 -60 -40h-217v205q42 16 42 60q0 27 -19 46t-46 19t-46 -19t-19 -46q0 -44 41 -60v-205h-212q-16 40 -60 40q-27 0 -46 -19t-19 -46t19 -46t46 -19q45 0 61 42h211v-206q-44 -16 -44 -62q0 -27 19 -46t46 -19t46 19t19 46q0 43 -39 60
v208h216q16 -42 61 -42q27 0 46 19t19 46zM718 442q0 -32 -31 -32t-31 32q0 31 31 31t31 -31zM415 145q0 -31 -31 -31t-31 31q0 32 31 32t31 -32zM418 737q0 -25 -24 -30h-14q-25 5 -25 30q0 32 32 32q31 0 31 -32zM120 454v-24q-8 -19 -29 -19q-31 0 -31 31t31 31
q21 0 29 -19z" />
</svg>
