<?xml version="1.0" standalone="no"?>
<!DOCTYPE svg PUBLIC "-//W3C//DTD SVG 1.1//EN" "http://www.w3.org/Graphics/SVG/1.1/DTD/svg11.dtd" >
<svg xmlns="http://www.w3.org/2000/svg" xmlns:xlink="http://www.w3.org/1999/xlink" version="1.1" viewBox="-10 0 1677 2048">
   <path fill="currentColor"
d="M1482 1638h-200l-240 -402q-33 -56 -64 -95.5t-63.5 -64.5t-70 -36.5t-84.5 -11.5h-138v610h-168v-1282h-413v-152h1585v152h-378q21 29 37 63q33 71 33 167q0 75 -22.5 137.5t-64 111.5t-100 83.5t-131.5 53.5v4q36 16 62.5 36.5t50.5 48.5t47.5 63.5t52.5 82.5z
M622 356v520h228q63 0 116.5 -19t92.5 -54.5t61 -87t22 -115.5q0 -115 -75 -179q-71 -62 -201 -65h-244z" />
</svg>
