<?xml version="1.0" standalone="no"?>
<!DOCTYPE svg PUBLIC "-//W3C//DTD SVG 1.1//EN" "http://www.w3.org/Graphics/SVG/1.1/DTD/svg11.dtd" >
<svg xmlns="http://www.w3.org/2000/svg" xmlns:xlink="http://www.w3.org/1999/xlink" version="1.1" viewBox="-10 0 640 1000">
   <path fill="currentColor"
d="M578 395l-56 56l-31 -31h-44v327l21 20l-56 56l-56 -56l27 -28v-319q-37 -2 -40 0q-31 63 -60 91q-40 39 -96 39q-58 0 -98 -52q-37 -48 -37 -107q0 -115 75 -219q83 -114 199 -118q12 -1 34 14q34 23 41 65q-43 -55 -81 -53q-112 4 -172 110q-50 88 -50 210q0 43 25 78
q28 39 71 39q73 0 132 -154h57v-112l-25 -25l57 -56l56 56l-24 23v114h50l25 -24z" />
</svg>
