<?xml version="1.0" standalone="no"?>
<!DOCTYPE svg PUBLIC "-//W3C//DTD SVG 1.1//EN" "http://www.w3.org/Graphics/SVG/1.1/DTD/svg11.dtd" >
<svg xmlns="http://www.w3.org/2000/svg" xmlns:xlink="http://www.w3.org/1999/xlink" version="1.1" viewBox="-10 0 1477 2048">
   <path fill="currentColor"
d="M1377 1119q0 54 -57 88q-49 29 -107 29v-15q74 -18 74 -93q0 -84 -105 -84h-367v368q0 104 84 104q74 0 92 -74h17q0 57 -30 106q-34 58 -87 58h-315q-52 0 -87 -58q-30 -50 -30 -106h17q18 74 92 74q84 0 84 -104v-368h-367q-105 0 -105 84q0 75 74 93v15
q-59 0 -107 -29q-57 -33 -57 -88v-313q0 -54 57 -88q49 -29 107 -29v16q-74 18 -74 91q0 86 105 86h367v-368q0 -105 -84 -105q-73 0 -92 74h-17q0 -57 30 -106q34 -58 87 -58h315q52 0 87 58q30 50 30 106h-17q-18 -74 -92 -74q-84 0 -84 105v368h367q105 0 105 -86
q0 -73 -74 -91v-16q58 0 107 29q57 34 57 88v313z" />
</svg>
