<?xml version="1.0" standalone="no"?>
<!DOCTYPE svg PUBLIC "-//W3C//DTD SVG 1.1//EN" "http://www.w3.org/Graphics/SVG/1.1/DTD/svg11.dtd" >
<svg xmlns="http://www.w3.org/2000/svg" xmlns:xlink="http://www.w3.org/1999/xlink" version="1.1" viewBox="-10 0 900 2048">
   <path fill="currentColor"
d="M800 691q0 34 -23.5 57.5t-57.5 23.5t-57.5 -23.5t-23.5 -57.5q0 -35 23 -58.5t58 -23.5t58 23.5t23 58.5zM800 1235q0 34 -23.5 57.5t-57.5 23.5t-57.5 -23.5t-23.5 -57.5q0 -81 81 -81t81 81zM719 1442q0 58 -29 107q-34 57 -88 57h-313q-54 0 -88 -57
q-29 -49 -29 -107h15q18 74 92 74q85 0 85 -104v-898q0 -105 -85 -105q-74 0 -92 74h-15q0 -66 33.5 -115t83.5 -49h313q53 0 88 58q29 49 29 106h-16q-18 -74 -92 -74q-85 0 -85 105v898q0 104 85 104q74 0 92 -74h16zM253 691q0 33 -24 57t-57 24q-34 0 -58 -23.5
t-24 -57.5t24 -58t58 -24t57.5 24t23.5 58zM253 1235q0 33 -24 57t-57 24q-34 0 -58 -23.5t-24 -57.5q0 -35 23.5 -58t58.5 -23q34 0 57.5 23.5t23.5 57.5z" />
</svg>
