<?xml version="1.0" standalone="no"?>
<!DOCTYPE svg PUBLIC "-//W3C//DTD SVG 1.1//EN" "http://www.w3.org/Graphics/SVG/1.1/DTD/svg11.dtd" >
<svg xmlns="http://www.w3.org/2000/svg" xmlns:xlink="http://www.w3.org/1999/xlink" version="1.1" viewBox="-10 0 1524 2048">
   <path fill="currentColor"
d="M1424 964q0 181 -89 334t-245 243.5t-333 90.5q-276 0 -471.5 -196t-195.5 -472q0 -179 88.5 -332.5t243 -244t335.5 -90.5q178 0 333.5 91t244.5 245t89 331zM1288 964q0 -202 -132.5 -351.5t-333.5 -176.5v1056q200 -26 333 -176t133 -352zM692 899v-463
q-180 22 -309.5 152t-151.5 311h461zM692 1492v-462h-461q22 182 150.5 310t310.5 152z" />
</svg>
