<?xml version="1.0" standalone="no"?>
<!DOCTYPE svg PUBLIC "-//W3C//DTD SVG 1.1//EN" "http://www.w3.org/Graphics/SVG/1.1/DTD/svg11.dtd" >
<svg xmlns="http://www.w3.org/2000/svg" xmlns:xlink="http://www.w3.org/1999/xlink" version="1.1" viewBox="-10 0 818 1000">
   <path fill="currentColor"
d="M795 750q0 30 -30 51t-62 21t-58 -33t-26 -66q0 -46 59.5 -105.5t59.5 -106.5q0 -64 -78 -64q-50 0 -77 72v4q1 114 -80.5 195.5t-196.5 81.5q-114 0 -195.5 -81.5t-81.5 -195.5q0 -115 81.5 -196t195.5 -81q100 0 176.5 63t95.5 159q37 -47 91 -47q40 0 76 29t36 68
q0 45 -35 87q-4 4 -67 63q-36 33 -36 58q0 22 24 45.5t47 23.5q27 0 51 -29l-2 -28q-3 1 -12.5 18t-23.5 17q-7 0 -17 -12.5t-10 -19.5q0 -13 15.5 -30t27.5 -17q15 0 33.5 20.5t18.5 35.5zM543 498q-9 -90 -77 -151.5t-160 -61.5q-27 0 -53 6v207h290zM543 544h-290v211
q26 6 53 6q93 0 161 -63t76 -154zM208 739v-433q-63 29 -101 86q-39 60 -39 131t38.5 129.5t101.5 86.5z" />
</svg>
