<?xml version="1.0" standalone="no"?>
<!DOCTYPE svg PUBLIC "-//W3C//DTD SVG 1.1//EN" "http://www.w3.org/Graphics/SVG/1.1/DTD/svg11.dtd" >
<svg xmlns="http://www.w3.org/2000/svg" xmlns:xlink="http://www.w3.org/1999/xlink" version="1.1" viewBox="-10 0 1524 2048">
   <path fill="currentColor"
d="M1424 964q0 181 -89 334t-245 243.5t-333 90.5q-276 0 -471.5 -196t-195.5 -472q0 -179 88.5 -332.5t243 -244t335.5 -90.5q178 0 333.5 91t244.5 245t89 331zM1283 899q-21 -180 -151 -311t-310 -152v463h461zM1283 1030h-461v462q182 -22 311 -151t150 -311zM692 1492
v-1056q-201 26 -334 176t-133 352q0 203 132.5 351.5t334.5 176.5z" />
</svg>
