<?xml version="1.0" standalone="no"?>
<!DOCTYPE svg PUBLIC "-//W3C//DTD SVG 1.1//EN" "http://www.w3.org/Graphics/SVG/1.1/DTD/svg11.dtd" >
<svg xmlns="http://www.w3.org/2000/svg" xmlns:xlink="http://www.w3.org/1999/xlink" version="1.1" viewBox="-10 0 694 1000">
   <path fill="currentColor"
d="M628 175l-3 69q0 50 -54 138q-51 76 -101 153q-55 86 -55 131q0 6 -1 19.5t-1 20.5q0 55 66 96q-4 -3 -117 29q-130 -32 -126 -29q28 -22 55 -44q14 -15 16 -51q3 -65 -61 -155q-62 -80 -123 -159q-67 -97 -67 -175q0 -68 39 -122q45 -61 118 -61q55 0 139 95
q83 -98 147 -98q52 0 93 53q36 47 36 90zM586 183q0 -41 -22 -79q-26 -46 -65 -47q-54 -2 -149 103q-83 -101 -133 -101q-52 0 -85.5 33t-33.5 84q0 63 35 118q6 10 96 124q59 75 126 215q32 -96 97 -193l96 -134q38 -60 38 -123z" />
</svg>
