<?xml version="1.0" standalone="no"?>
<!DOCTYPE svg PUBLIC "-//W3C//DTD SVG 1.1//EN" "http://www.w3.org/Graphics/SVG/1.1/DTD/svg11.dtd" >
<svg xmlns="http://www.w3.org/2000/svg" xmlns:xlink="http://www.w3.org/1999/xlink" version="1.1" viewBox="-10 0 1177 1000">
   <path fill="currentColor"
d="M1106 801l-1045 -1q392 -346 391 -361q0 -12 -51 -56q-15 4 -38 9q-17 0 -54 -12q-44 -14 -52 -29q41 9 73 9q56 0 79 -26q16 -17 26.5 -58.5t8.5 -81.5q21 24 21 75q0 37 -10 77l58 55l204 -182l143 191q42 -29 129 -98l28 41l-164 125l-134 -185l-178 146l46 52l-46 42
l-52 -55l-312 284h851l-142 -241l161 -121l19 31l-123 101z" />
</svg>
