<?xml version="1.0" standalone="no"?>
<!DOCTYPE svg PUBLIC "-//W3C//DTD SVG 1.1//EN" "http://www.w3.org/Graphics/SVG/1.1/DTD/svg11.dtd" >
<svg xmlns="http://www.w3.org/2000/svg" xmlns:xlink="http://www.w3.org/1999/xlink" version="1.1" viewBox="-10 0 1855 1000">
   <path fill="currentColor"
d="M1778 763l-91 27l-98 -22l58 -37l-51 -109h-147q-24 46 -49 103q6 6 39 43l-67 18l-61 -17l48 -52l182 -376l168 379zM1336 376l-43 43v343q-117 -115 -263 -264v179l39 44l-58 53l-58 -58l37 -38v-221l-118 -116h118l263 263v-195l-33 -33l58 -58zM984 795q0 2 -132 40
l-140 -40l102 -55l-69 -183h-323l-124 177q30 20 86 61l-161 45l-156 -45l153 -62l427 -618l242 613q41 27 95 67zM1585 592l-59 -149l-62 149h121zM734 522l-103 -298l-193 298h296z" />
</svg>
