<?xml version="1.0" standalone="no"?>
<!DOCTYPE svg PUBLIC "-//W3C//DTD SVG 1.1//EN" "http://www.w3.org/Graphics/SVG/1.1/DTD/svg11.dtd" >
<svg xmlns="http://www.w3.org/2000/svg" xmlns:xlink="http://www.w3.org/1999/xlink" version="1.1" viewBox="-10 0 2020 2048">
   <path fill="currentColor"
d="M1220 1092q51 0 97.5 14t82.5 41t57 67t21 92q0 48 -19 86t-51 64.5t-74 40t-87 13.5q-56 0 -101 -18t-78 -51.5t-53.5 -80.5t-25.5 -105q-29 8 -57 17.5t-55 20.5q43 76 57.5 166t1.5 181.5t-52.5 177.5t-105 152.5t-156 106.5t-204.5 40q-82 0 -126 -43.5t-54 -115
t13.5 -163t77.5 -187t138 -187.5t195 -164q-37 -26 -84 -41t-107 -15h-81v-51l260 -330h-550v-139h260l276 -338h-535v-139h775v51l-350 426h364v51l-291 362q58 12 105.5 35.5t85.5 56.5q95 -44 200 -68q9 -127 38.5 -258t77 -253.5t110.5 -229.5t138 -187t160.5 -126
t177.5 -46q44 0 89.5 10.5t83 37t61.5 70t24 109.5q0 41 -14.5 82t-40.5 78t-63 66.5t-82 46.5v4q76 17 118 69.5t42 130.5q0 85 -30.5 152t-80.5 113t-114.5 70.5t-133.5 24.5q-43 0 -77.5 -7.5t-62 -20.5t-47.5 -29t-35 -33q-34 -40 -49 -90l146 -73q3 32 17 58
q12 22 38 39.5t74 17.5q41 0 75.5 -17t59 -46.5t38.5 -69.5t14 -87q0 -61 -44 -91.5t-118 -30.5h-126v-142h68q61 0 110 -16.5t83 -44.5t52.5 -65t18.5 -77q0 -21 -4 -41t-15.5 -35t-32.5 -24t-54 -9q-57 0 -116 39t-115.5 107t-107 159.5t-91 197t-67.5 219t-36 225.5
l36 -2t37 -1zM449 1983q74 0 133.5 -30.5t103.5 -80.5t71.5 -115.5t36.5 -134.5t-1 -137.5t-41 -125.5q-86 55 -153 122t-113.5 136.5t-72.5 135.5t-31 117t11.5 82t55.5 31zM1253 1376q38 0 55.5 -21.5t17.5 -51.5q0 -33 -28 -56t-76 -23q-20 0 -39 1t-39 3q4 42 16 70
t27.5 45.5t33 25t32.5 7.5z" />
</svg>
