<?xml version="1.0" standalone="no"?>
<!DOCTYPE svg PUBLIC "-//W3C//DTD SVG 1.1//EN" "http://www.w3.org/Graphics/SVG/1.1/DTD/svg11.dtd" >
<svg xmlns="http://www.w3.org/2000/svg" xmlns:xlink="http://www.w3.org/1999/xlink" version="1.1" viewBox="-10 0 918 1000">
   <path fill="currentColor"
d="M850 478q0 12 -9 21t-21 9t-21 -9t-9 -21t9 -21t21 -9t21 9t9 21zM788 293l-37 37v318q13 10 37 37l-64 64l-64 -64q22 -19 38 -38v-316l-38 -38l64 -63zM645 480q0 12 -9 21t-21 9t-21 -9t-9 -21t9 -21t21 -9t21 9t9 21zM610 91l-224 181h187l-173 171q84 6 125 34
q51 35 51 112q0 10 -26 79q-28 73 -129 108q-76 26 -175 26q-62 0 -117 -39q-61 -42 -61 -102q0 -25 23 -44t49 -19q22 0 39 14.5t17 35.5q0 52 -80 52q-5 37 65 57q50 14 99 14q100 0 156 -49q60 -52 60 -150q0 -91 -135 -91h-29q-21 1 -27 1l181 -177q-10 4 -16 4l-195 -1
v-1q0 -3 26 -25q59 -50 202 -159q-6 1 -14 1q-75 0 -217 48q-109 37 -214 86l84 -219q36 63 178 63q43 0 129 -7t129 -7q8 0 32 3z" />
</svg>
