<?xml version="1.0" standalone="no"?>
<!DOCTYPE svg PUBLIC "-//W3C//DTD SVG 1.1//EN" "http://www.w3.org/Graphics/SVG/1.1/DTD/svg11.dtd" >
<svg xmlns="http://www.w3.org/2000/svg" xmlns:xlink="http://www.w3.org/1999/xlink" version="1.1" viewBox="-10 0 945 1000">
   <path fill="currentColor"
d="M877 459q0 30 -30 30t-30 -30q0 -31 30 -31t30 31zM811 278l-37 37v318l37 37l-64 64l-64 -64l38 -39v-315l-38 -38l64 -64zM673 461q0 30 -31 30q-30 0 -30 -30q0 -31 30 -31q31 0 31 31zM577 440q0 114 -71 228q-80 129 -186 129q-25 0 -75.5 -9.5t-76.5 -9.5
q-43 0 -73 34l-37 -69l32 -84q44 57 78 79q43 28 106 28q216 0 216 -267l4 -27h-185l-61 61l-46 -72l46 -76q8 0 30 23q15 15 29 30h187v-20q0 7 -7 -54q-10 -96 -34 -145q-37 -80 -113 -80q-64 0 -141 31q-87 36 -109 86l-29 -92l30 -93q21 21 43 41q29 27 49 27
q24 0 71 -12q56 -15 71 -17q7 -1 65 -1q89 0 144 126q43 101 43 205z" />
</svg>
