<?xml version="1.0" standalone="no"?>
<!DOCTYPE svg PUBLIC "-//W3C//DTD SVG 1.1//EN" "http://www.w3.org/Graphics/SVG/1.1/DTD/svg11.dtd" >
<svg xmlns="http://www.w3.org/2000/svg" xmlns:xlink="http://www.w3.org/1999/xlink" version="1.1" viewBox="-10 0 928 1000">
   <path fill="currentColor"
d="M856 485q0 12 -9.5 21t-21.5 9t-21 -9t-9 -21t9 -21t21 -9t21.5 9t9.5 21zM794 298l-38 37v317l38 38l-64 64l-64 -64q21 -21 38 -39v-315l-38 -38l64 -64zM667 488q0 12 -9 21t-21 9t-21 -9t-9 -21t9 -21t21 -9t21 9t9 21zM610 130l-280 249q125 0 176 30q70 40 70 157
q0 97 -95 170q-88 68 -188 68q-78 0 -136 -27q-75 -35 -75 -103q0 -82 66 -82q20 0 35.5 15.5t15.5 34.5q0 42 -56 66q1 29 62 45q44 12 85 12q103 0 147 -57q39 -50 39 -157q0 -85 -27 -114q-22 -23 -80 -23q-11 0 -40 1h-46h-58l140 -112q83 -69 128 -125l-7 -2
q-22 0 -55 6q-45 8 -54 9q-14 0 -40 1q-81 4 -137 31q-27 13 -117 75h-20l122 -247q135 94 190 94q36 0 109 -8t111 -8z" />
</svg>
