<?xml version="1.0" standalone="no"?>
<!DOCTYPE svg PUBLIC "-//W3C//DTD SVG 1.1//EN" "http://www.w3.org/Graphics/SVG/1.1/DTD/svg11.dtd" >
<svg xmlns="http://www.w3.org/2000/svg" xmlns:xlink="http://www.w3.org/1999/xlink" version="1.1" viewBox="-10 0 1010 1000">
   <path fill="currentColor"
d="M959 465q0 12 -9 21t-22 9q-12 0 -21 -9t-9 -21t9 -21t21 -9q13 0 22 9t9 21zM886 304l-38 36v318l38 38l-64 64l-64 -64l38 -38v-316l-38 -38l64 -64zM754 467q0 12 -9 21t-21 9q-13 0 -22 -9t-9 -21q0 -13 9 -22t22 -9q12 0 21 9t9 22zM676 223q0 160 -86 321
q-93 174 -231 232q-65 28 -109 28q-88 0 -146 -44q-63 -49 -63 -135q0 -80 26 -159q46 -142 169 -277q141 -154 271 -154q36 0 86.5 33.5t65.5 65.5q17 36 17 89zM590 223q0 -68 -15 -102q-22 -50 -81 -50q-86 0 -173 92q-76 79 -132 200q-52 115 -57 199q-3 44 -3 80
q0 56 38.5 94.5t95.5 38.5q150 0 247 -209q80 -172 80 -343z" />
</svg>
