<?xml version="1.0" standalone="no"?>
<!DOCTYPE svg PUBLIC "-//W3C//DTD SVG 1.1//EN" "http://www.w3.org/Graphics/SVG/1.1/DTD/svg11.dtd" >
<svg xmlns="http://www.w3.org/2000/svg" xmlns:xlink="http://www.w3.org/1999/xlink" version="1.1" viewBox="-10 0 640 1000">
   <path fill="currentColor"
d="M620 752q0 29 -20.5 45.5t-50.5 16.5q-38 0 -105 -50q-85 61 -178 61q-83 0 -142 -30q-73 -38 -66 -110q0 -85 147 -115h2l9 2q10 2 28 5q18 8 53 24q63 32 133 103q22 -49 22 -132q0 -40 -29.5 -65.5t-68.5 -25.5l-92 1l173 -173h-203q-9 -3 228 -186q-7 1 -14 1
q-134 0 -431 134q42 -109 84 -219q22 39 96 55q49 10 96 8l216 -11q1 0 12.5 -1.5t15.5 -1.5q7 0 32 3l-224 181h187l-173 171q190 14 190 146q0 86 -77 154q51 48 91 48q15 0 26.5 -15.5t11.5 -30.5q0 -19 -12.5 -34.5t-31.5 -15.5q-9 0 -17.5 12t-8.5 20q0 6 17 20
q3 -4 5 -14q0 -4 2 -7q23 -5 24 8q1 8 -9 16t-19 8q-12 0 -23 -9t-11 -21q0 -47 45 -47q28 0 44 21.5t16 49.5zM410 736l-14 -10q-116 -93 -190 -101q-21 5 -37 11q-37 12 -45 22q-16 22 -16 47q0 13 3 29q13 54 117 57h35q101 0 147 -55z" />
</svg>
