<?xml version="1.0" standalone="no"?>
<!DOCTYPE svg PUBLIC "-//W3C//DTD SVG 1.1//EN" "http://www.w3.org/Graphics/SVG/1.1/DTD/svg11.dtd" >
<svg xmlns="http://www.w3.org/2000/svg" xmlns:xlink="http://www.w3.org/1999/xlink" version="1.1" viewBox="-10 0 601 1000">
   <path fill="currentColor"
d="M581 122q-45 1 -107 1t-120.5 -1.5t-112 -6t-89.5 -12.5t-40 -21q-2 8 -7.5 27.5t-15.5 50t-24.5 64t-31.5 57.5q50 -33 93.5 -55t92.5 -37t109.5 -22.5t139.5 -7.5q-7 5 -41.5 28t-116.5 78.5t-97 65.5h248l-192 165q119 0 170 32t51 96q0 30 -16 59t-45 51t-67 35
t-80 13q-151 0 -181 -59q27 0 45 -16t18 -38q0 -25 -18 -43t-43 -18t-43 18t-18 43q0 60 68 99.5t173 39.5q52 0 101 -14t88 -39.5t61 -58.5t22 -70q0 -75 -57.5 -114t-148.5 -39l217 -185h-219z" />
</svg>
