<?xml version="1.0" standalone="no"?>
<!DOCTYPE svg PUBLIC "-//W3C//DTD SVG 1.1//EN" "http://www.w3.org/Graphics/SVG/1.1/DTD/svg11.dtd" >
<svg xmlns="http://www.w3.org/2000/svg" xmlns:xlink="http://www.w3.org/1999/xlink" version="1.1" viewBox="-10 0 679 1000">
   <path fill="currentColor"
d="M370 616q0 56 -25 81.5t-63 25.5q-36 0 -63.5 -27.5t-27.5 -82.5q0 -17 1.5 -39t2.5 -38v-2q31 4 75 4q49 0 94 -9q6 46 6 87zM185 302q-5 42 -12.5 76.5t-18.5 73.5q-9 31 -12 44q-41 -17 -62 -42t-22 -53q0 -41 33 -65t94 -34zM363 517q-35 5 -65 5q-60 0 -101 -10
q9 -127 16 -214q41 -5 107 -5h24q1 73 17 206zM571 407q-26 32 -64 56.5t-84 39.5q-6 -25 -22 -76q-13 -41 -20.5 -70t-10.5 -61q69 8 122.5 37.5t78.5 73.5zM614 294q0 45 -25 89q-29 -45 -85 -73.5t-135 -32.5v-10q0 -58 30.5 -94.5t82.5 -36.5q60 0 96 40t36 118z
M201 159q-1 32 -8 87q-5 29 -6 43q-73 14 -115 45t-42 83q0 31 27.5 59t79.5 45q-5 24 -5 63q0 66 40.5 115t110.5 49q69 0 109.5 -49t40.5 -116q0 -33 -8 -70q95 -31 153 -92q14 30 14 62q0 37 -11 64.5t-39 48.5q30 -10 52 -47t22 -76t-18 -75q44 -57 44 -120
q0 -77 -37.5 -118t-96.5 -41q-74 0 -118.5 45t-45.5 113q-77 0 -130 8q6 -88 7 -154q-9 1 -14.5 5t-12.5 12q-8 9 -14.5 13.5t-17.5 4.5q-8 0 -14 -4t-13 -12q-7 -9 -14.5 -14t-19.5 -5q-16 0 -30.5 14.5t-14.5 28.5q5 -9 14 -14.5t24 -5.5q12 0 33 20q18 18 28 18
q12 0 26 -10.5t20 -22.5z" />
</svg>
