<?xml version="1.0" standalone="no"?>
<!DOCTYPE svg PUBLIC "-//W3C//DTD SVG 1.1//EN" "http://www.w3.org/Graphics/SVG/1.1/DTD/svg11.dtd" >
<svg xmlns="http://www.w3.org/2000/svg" xmlns:xlink="http://www.w3.org/1999/xlink" version="1.1" viewBox="-10 0 498 1000">
   <path fill="currentColor"
d="M463 292q0 -43 -18 -80.5t-51 -65.5t-77 -43.5t-95 -15.5h-188q21 3 35.5 12.5t14.5 30.5v615q0 12 -7 22.5t-16 17t-16.5 10.5t-10.5 5h167q-12 -5 -30 -18.5t-18 -36.5v-244h69q46 0 89.5 -16t78 -45t54 -67.5t19.5 -80.5zM405 292q0 73 -49.5 123t-132.5 50h-70v-346
h70q83 0 132.5 50t49.5 123z" />
</svg>
