<?xml version="1.0" standalone="no"?>
<!DOCTYPE svg PUBLIC "-//W3C//DTD SVG 1.1//EN" "http://www.w3.org/Graphics/SVG/1.1/DTD/svg11.dtd" >
<svg xmlns="http://www.w3.org/2000/svg" xmlns:xlink="http://www.w3.org/1999/xlink" version="1.1" viewBox="-10 0 770 1000">
   <path fill="currentColor"
d="M750 714q-32 23 -54 30.5t-50 7.5q-18 0 -31.5 -7.5t-23 -28t-15 -58.5t-5.5 -99q1 -15 2 -38q4 -52 5 -70t6 -93l14.5 -3t49 -10t41.5 -8l-104 2q4 -53 8 -118q5 -73 6.5 -94t1.5 -30l-54 -4q0 8 -1 29t-3 56t-4 77.5t-5 84.5l-220 4l-31 -262h-57l-8 263l-189 4l61 105
l125 -24l-9 296q-44 0 -95.5 -8.5t-78.5 -18.5q15 12 34 24.5t48 26.5t64 24t73 10q9 -10 13 -59t4 -118q0 -45 -1 -83.5t-2 -54.5l17 90q8 40 24 79t36.5 72t43.5 58.5t44 38.5q23 -11 53.5 -54t54.5 -98q9 74 35.5 104t68.5 30q31 0 60.5 -23t47.5 -52zM533 368
q-2 36 -6 98q-3 55 -3 59q-2 22 -11.5 53t-23.5 62t-29.5 55.5t-27.5 34.5q-11 -12 -26.5 -38.5t-31.5 -62.5t-27.5 -72.5t-15.5 -68.5l-9 -79z" />
</svg>
