<?xml version="1.0" standalone="no"?>
<!DOCTYPE svg PUBLIC "-//W3C//DTD SVG 1.1//EN" "http://www.w3.org/Graphics/SVG/1.1/DTD/svg11.dtd" >
<svg xmlns="http://www.w3.org/2000/svg" xmlns:xlink="http://www.w3.org/1999/xlink" version="1.1" viewBox="-10 0 681 1000">
   <path fill="currentColor"
d="M653 733l-53 73l-134 -84q0 29 -8 55q-15 52 -56 52q-39 0 -97 -147q-30 -76 -54 -160v215q-13 33 -27 48t-37 15q-59 0 -153 -81l150 24v-296l-90 23l-69 -116h159v-234q24 -29 41 -26q12 3 26 21v221q4 24 22 23q67 -2 203 0v-228q11 -33 25 -31q12 2 20 26v233h109
l-109 35v311l68 63zM471 594v-196l-182 28q74 333 116 333q27 0 44 -60q8 -37 22 -105z" />
</svg>
