<?xml version="1.0" standalone="no"?>
<!DOCTYPE svg PUBLIC "-//W3C//DTD SVG 1.1//EN" "http://www.w3.org/Graphics/SVG/1.1/DTD/svg11.dtd" >
<svg xmlns="http://www.w3.org/2000/svg" xmlns:xlink="http://www.w3.org/1999/xlink" version="1.1" viewBox="-10 0 611 1000">
   <path fill="currentColor"
d="M591 261q0 -82 -42.5 -131t-110.5 -49q-64 0 -137 53t-136.5 138.5t-102 180.5t-38.5 174q0 83 38.5 129.5t102.5 46.5q72 0 148 -50.5t139.5 -133.5t101 -178.5t37.5 -179.5zM534 261q0 78 -30 168.5t-81.5 169.5t-116 128t-130.5 49q-45 0 -69.5 -41.5t-24.5 -107.5
q0 -73 32 -163t84.5 -171.5t113.5 -132.5t116 -51q46 0 76 44.5t30 107.5z" />
</svg>
