<?xml version="1.0" standalone="no"?>
<!DOCTYPE svg PUBLIC "-//W3C//DTD SVG 1.1//EN" "http://www.w3.org/Graphics/SVG/1.1/DTD/svg11.dtd" >
<svg xmlns="http://www.w3.org/2000/svg" xmlns:xlink="http://www.w3.org/1999/xlink" version="1.1" viewBox="-10 0 584 1000">
   <path fill="currentColor"
d="M544 440q1 101 -64 217q-80 138 -194 140l-132 -16q-8 -3 -19 -3q-44 0 -74 34l-37 -69l32 -84q18 23 61 67q50 42 142 40q108 -2 159 -91q40 -70 38 -176l4 -26h-193l-53 60l-46 -72l46 -76l50 43h196q-2 -7 0 -10l-7 -54q-1 -77 -31 -141q-41 -85 -116 -84
q-64 1 -139 31q-89 35 -111 86l-29 -92l30 -93q21 20 42 41q27 25 50 27l142 -29l65 -1q97 -2 150 143q36 98 38 188z" />
</svg>
