<?xml version="1.0" standalone="no"?>
<!DOCTYPE svg PUBLIC "-//W3C//DTD SVG 1.1//EN" "http://www.w3.org/Graphics/SVG/1.1/DTD/svg11.dtd" >
<svg xmlns="http://www.w3.org/2000/svg" xmlns:xlink="http://www.w3.org/1999/xlink" version="1.1" viewBox="-10 0 602 1000">
   <path fill="currentColor"
d="M543 441q0 -89 -21 -152t-56 -100t-76.5 -53.5t-84.5 -16.5q-30 0 -84 13q-53 13 -83 13q-24 0 -42.5 -13.5t-39.5 -34.5q-15 -17 -20 -17q-6 0 -6 7t8 33q5 19 8.5 33t3.5 26q0 17 -8 53q-5 23 -5 30q0 10 6 10q1 0 9 -9q16 -19 33.5 -35.5t46.5 -35t69.5 -31
t89.5 -12.5q35 0 64.5 13t52.5 44t36.5 85t13.5 134h-211q-10 0 -17.5 -7.5t-13 -17.5t-8 -18t-3.5 -11v142q1 -4 3.5 -12t8 -18.5t13 -18.5t17.5 -8h211q-1 80 -14.5 134.5t-36.5 86t-52.5 44.5t-64.5 13q-49 0 -88.5 -12.5t-68 -30.5t-45.5 -35t-32 -35q-9 -10 -10 -10
q-5 0 -5 10q0 8 5 31q8 35 8 51q0 12 -3 25t-9 33q-8 26 -8 34t5 8q4 0 19 -16q21 -23 40 -36.5t44 -13.5q30 0 80 13q51 14 82 14q40 0 81 -16t77 -53.5t58.5 -101t22.5 -152.5z" />
</svg>
