<?xml version="1.0" standalone="no"?>
<!DOCTYPE svg PUBLIC "-//W3C//DTD SVG 1.1//EN" "http://www.w3.org/Graphics/SVG/1.1/DTD/svg11.dtd" >
<svg xmlns="http://www.w3.org/2000/svg" xmlns:xlink="http://www.w3.org/1999/xlink" version="1.1" viewBox="-10 0 439 1000">
   <path fill="currentColor"
d="M365 197q15 40 15 79q0 85 -66 155q-59 63 -149 96v245l36 37l-63 64l-64 -64l38 -38l2 -280l51 -12q73 -33 98 -54q46 -38 46 -96q0 -36 -17.5 -83.5t-48 -77t-61.5 -29.5q-38 0 -60 43q-4 7 -4 16q0 17 16.5 52t16.5 46q0 8 -6 13q19 17 19 42q0 24 -17 41t-40 17
q-24 0 -41 -17t-17 -41t17 -40.5t41 -16.5h3q0 -12 -18.5 -36t-21 -35t-2.5 -25q0 -54 33 -82q51 -44 109 -44q50 0 91.5 32.5t63.5 92.5zM139 354q0 -33 -33 -33t-33 33t33 33t33 -33z" />
</svg>
