<?xml version="1.0" encoding="UTF-8" standalone="no"?>
<!-- Created with Inkscape (http://www.inkscape.org/) -->

<svg
   width="319.79312mm"
   height="249.84966mm"
   viewBox="0 0 319.79312 249.84966"
   version="1.1"
   id="svg1"
   inkscape:version="1.4.2 (ebf0e940d0, 2025-05-08)"
   sodipodi:docname="Calcinator GUI consept.svg"
   xml:space="preserve"
   xmlns:inkscape="http://www.inkscape.org/namespaces/inkscape"
   xmlns:sodipodi="http://sodipodi.sourceforge.net/DTD/sodipodi-0.dtd"
   xmlns="http://www.w3.org/2000/svg"
   xmlns:svg="http://www.w3.org/2000/svg"><sodipodi:namedview
     id="namedview1"
     pagecolor="#ffffff"
     bordercolor="#000000"
     borderopacity="0.25"
     inkscape:showpageshadow="2"
     inkscape:pageopacity="0.0"
     inkscape:pagecheckerboard="0"
     inkscape:deskcolor="#d1d1d1"
     inkscape:document-units="mm"
     inkscape:zoom="1.022048"
     inkscape:cx="628.63975"
     inkscape:cy="534.7107"
     inkscape:window-width="2560"
     inkscape:window-height="1403"
     inkscape:window-x="0"
     inkscape:window-y="0"
     inkscape:window-maximized="1"
     inkscape:current-layer="g7" /><defs
     id="defs1" /><g
     inkscape:label="Boundry"
     inkscape:groupmode="layer"
     id="layer1"
     transform="translate(-0.18026671,-0.18026671)"><path
       style="fill:#803300;fill-opacity:1;stroke-width:1.36265"
       d="M 0.68132299,472.83815 V 0.68132299 H 605.01481 1209.3483 V 472.83815 944.99498 H 605.01481 0.68132299 Z"
       id="path30"
       transform="scale(0.26458333)" /></g><g
     inkscape:groupmode="layer"
     id="layer2"
     inkscape:label="TitleBar"
     style="display:inline"><rect
       style="fill:#552200;fill-opacity:1;stroke-width:0.264583"
       id="rect30"
       width="320"
       height="32"
       x="0.11653295"
       y="0.24400052"
       rx="2.7755576e-17"
       transform="translate(-0.18026671,-0.18026671)" /><path
       style="fill:#552200;fill-opacity:1;stroke-width:0.963536"
       d="M 0.48176811,60.702781 V 0.48176811 H 604.61897 1208.7562 V 60.702781 120.92379 H 604.61897 0.48176811 Z"
       id="path31"
       transform="scale(0.26458333)" /></g><g
     inkscape:groupmode="layer"
     id="g7"
     inkscape:label="FuelSlot Alternative area"
     transform="matrix(1.2083333,0,0,1.2083333,-106.33333,-44.999994)"
     style="fill:#2b0000"><rect
       style="display:inline;fill:#2b0000;fill-opacity:1;stroke-width:0.264583"
       id="rect7"
       width="48"
       height="48"
       x="136"
       y="192"
       rx="2.7755579e-17" /><path
       style="display:inline;fill:#2b0000;fill-opacity:1;stroke-width:0.25532"
       d="m 136,216 v -24 h 24 24 v 24 24 h -24 -24 z"
       id="path7" /><g
       inkscape:groupmode="layer"
       id="g2"
       inkscape:label="FuelSlot Alternative"
       transform="matrix(0.82758624,0,0,0.82758624,27.586205,37.241375)"><rect
         style="display:inline;fill:#ffe680;fill-opacity:1;stroke-width:0.264583"
         id="rect2"
         width="48"
         height="48"
         x="136"
         y="192"
         rx="2.7755579e-17" /><path
         style="display:inline;fill:#ffe680;fill-opacity:1;stroke-width:0.25532"
         d="m 136,216 v -24 h 24 24 v 24 24 h -24 -24 z"
         id="path2" /></g></g><g
     inkscape:groupmode="layer"
     id="g4"
     inkscape:label="ProgressBar"
     transform="translate(-73)"><rect
       style="display:inline;fill:#ffe680;fill-opacity:1;stroke-width:0.250787"
       id="rect4"
       width="90"
       height="23"
       x="195"
       y="140"
       rx="5.2041711e-17" /><path
       style="display:inline;fill:#ffe680;fill-opacity:1;stroke-width:0.242007"
       d="M 195,151.5 V 140 h 45 45 v 11.5 11.5 h -45 -45 z"
       id="path4" /></g><g
     inkscape:groupmode="layer"
     id="g3"
     inkscape:label="Flame"
     transform="matrix(0.77083333,0,0,1.0833333,-36.833333,-77.999994)"><rect
       style="display:inline;fill:#ffe680;fill-opacity:1;stroke-width:0.264583"
       id="rect3"
       width="48"
       height="48"
       x="136"
       y="192"
       rx="2.7755579e-17" /><path
       style="display:inline;fill:#ffe680;fill-opacity:1;stroke-width:0.25532"
       d="m 136,216 v -24 h 24 24 v 24 24 h -24 -24 z"
       id="path3" /><path
       d="m 168.50936,169.03378 -0.0745,0.5384 c -0.7721,6.21181 0.62841,10.37509 5.59818,15.6139 2.51118,2.65821 4.66542,5.23384 5.37289,8.4426 l 0.7595,-0.46229 c 1.96971,-1.51104 3.84335,-2.14863 6.60477,-2.48955 2.13472,-0.35077 2.14591,-0.34904 2.78081,1.23115 0.95441,1.17358 1.44714,2.43553 2.25804,3.66162 3.46634,5.31301 6.34499,11.08293 6.40649,16.99894 0.0157,1.33816 0.017,2.67637 0.0403,4.01448 0.0583,3.14069 0.008,5.96683 -1.48354,8.94599 l -0.25962,0.56508 c -1.7899,3.75285 -4.58691,7.648 -8.93434,10.14953 -3.16624,1.74483 -6.31917,3.57101 -9.88051,4.89192 -2.22974,0.77047 -4.59062,1.30193 -6.92333,1.88165 -3.29758,0.71716 -6.66282,0.65921 -10.07736,0.65384 -1.05217,-2.4e-4 -2.10347,0.01 -3.15552,0.0207 -6.55929,0.0283 -12.10775,-1.01677 -17.97628,-3.06486 -2.96107,-0.89534 -5.35631,-2.40208 -7.8492,-3.8011 -6.00885,-3.47902 -9.92898,-9.34208 -11.21979,-14.70597 -0.0692,-0.74548 -0.0631,-1.49028 -0.0639,-2.23727 l 0.0192,-0.87765 c 1.46821,-0.18601 1.48132,-0.17567 4.13084,-0.29426 h 0.68104 l -0.28598,-0.80093 c -0.3033,-0.85741 -0.60832,-1.71451 -0.91241,-2.57177 -1.22419,-3.91533 -1.0682,-8.60602 0.51735,-12.45572 l 0.35116,-0.89224 c 1.42818,-3.33314 3.85128,-8.14236 8.16179,-10.06588 1.02156,-0.0457 1.02156,-0.0457 2.04311,0.24351 0.80468,0.91803 1.29495,1.77602 2.67359,4.22821 0.38224,0.67912 0.38224,0.67912 1.0721,1.37262 l 0.0927,-0.56711 c 1.61856,-9.67286 5.41108,-18.4844 16.55018,-24.78688 2.21351,-1.22345 3.33642,-1.72672 4.95613,-2.61872 2.36852,-1.16325 5.27905,-0.86344 8.02611,-0.76194 z m -13.28019,7.138 c -7.40619,4.64502 -11.55516,11.98466 -12.25863,18.91799 -0.0805,1.17564 -0.1628,2.99975 -0.27601,5.72966 -0.0645,0.6017 -0.0645,0.6017 -0.40502,1.08873 -2.36266,-0.0751 -3.87221,-0.34557 -5.61456,-1.57523 -1.45592,-1.1407 -2.51747,-2.44363 -3.57942,-3.78208 -3.81048,2.51466 -5.5388,6.82156 -5.84907,10.44429 -0.12213,4.28322 0.097,7.94988 2.52903,11.90383 0.43482,0.92316 0.34241,1.7691 0.25538,2.73383 -1.17291,0.0504 -2.97658,0.21193 -5.10776,0.2435 0.0243,4.66898 3.65121,8.93614 8.17242,12.17571 2.1819,1.40564 4.52765,2.69985 7.15087,3.6527 l 0.68103,-0.24352 -0.76617,-0.77619 c -3.09766,-3.53053 -3.31168,-8.17055 -2.08566,-12.14526 0.7492,-2.37968 2.06562,-4.6321 3.30143,-6.89639 0.81037,-1.45427 1.72551,-2.75368 2.95559,-4.04652 2.2458,-2.52159 4.55192,-4.76187 8.30144,-8.00837 1.13294,-1.31787 2.52119,-2.44027 4.04764,-3.53951 0.97216,-0.65621 1.48046,-0.86947 2.83055,-0.88845 1.92054,0.42959 2.97582,1.26115 4.20859,2.36094 0.77062,0.68234 1.52635,1.37318 2.28552,2.06202 3.2743,2.97651 2.28707,2.12117 4.99703,4.59656 6.06346,5.69946 10.9816,13.41705 10.10513,20.7063 -0.52027,2.31846 -1.55627,4.48822 -3.06466,6.57487 5.76217,-1.19632 9.60739,-5.08722 12.5925,-8.58196 5.96005,-7.84697 4.63626,-16.81825 1.31319,-25.06981 -1.40477,-3.37013 -3.19918,-6.54819 -5.39275,-9.6937 -1.89606,0 -2.73915,0.54488 -4.08621,1.46108 -1.40606,1.19504 -2.39112,2.64085 -4.08621,3.65271 -0.93643,0.0608 -0.93643,0.0608 -1.7026,0 l -0.13966,-0.90272 c -0.93602,-5.46056 -3.79011,-10.10699 -8.33072,-14.54519 -3.43694,-3.3928 -3.96683,-7.54092 -4.46928,-11.58213 -3.59795,0.17611 -5.90366,2.43186 -8.51295,3.97231 z m 2.68291,28.61194 c -2.51999,2.04523 -4.84794,4.18409 -7.10963,6.37797 l -0.4461,0.43221 c -5.13048,5.01668 -9.03388,10.60268 -9.76943,16.85728 l -0.0865,0.65825 c -0.18982,2.71487 1.38769,5.18283 3.49163,7.37771 l 0.59591,0.65444 c 3.152,2.31671 7.88631,3.89931 12.42091,4.04557 0.61122,0.006 0.69821,0.006 2.30316,-2.5e-4 5.50872,-0.0756 10.30967,-1.1883 14.28511,-3.93973 2.90557,-2.22146 4.38558,-5.09152 4.57437,-8.12632 -0.48201,-8.18308 -6.88633,-15.07599 -13.97452,-21.16764 -0.72417,-0.62613 -1.89101,-1.66967 -3.43046,-3.06486 -1.03774,-0.73442 -1.72333,-0.79436 -2.85449,-0.10463 z"
       fill="#000000"
       id="path1-3"
       sodipodi:nodetypes="ccccccccccccscccccccccccccccccccccccccccccccccccccccccccccccccccccccccccccccccccccccc"
       style="stroke-width:0.287959" /></g><g
     inkscape:groupmode="layer"
     id="g1"
     inkscape:label="FuelSlot"
     style="display:none"><rect
       style="display:inline;fill:#ffe680;fill-opacity:1;stroke-width:0.264583"
       id="rect1"
       width="48"
       height="48"
       x="136"
       y="192"
       rx="2.7755579e-17" /><path
       style="display:inline;fill:#ffe680;fill-opacity:1;stroke-width:0.25532"
       d="m 136,216 v -24 h 24 24 v 24 24 h -24 -24 z"
       id="path1" /></g><g
     inkscape:groupmode="layer"
     id="g10"
     inkscape:label="Text Area"
     style="display:inline;fill:#2b0000"
     transform="matrix(3.2916667,0,0,1.2083333,-316.66667,-45)"><rect
       style="display:inline;fill:#2b0000;fill-opacity:1;stroke-width:0.264583"
       id="rect10"
       width="48"
       height="48"
       x="136"
       y="192"
       rx="2.7755579e-17" /><path
       style="display:inline;fill:#2b0000;fill-opacity:1;stroke-width:0.25532"
       d="m 136,216 v -24 h 24 24 v 24 24 h -24 -24 z"
       id="path10" /><g
       inkscape:groupmode="layer"
       id="g8"
       inkscape:label="BlockTempText"
       style="display:inline"
       transform="matrix(0.93670883,0,0,0.31034483,10.126587,136.55173)"><rect
         style="display:inline;fill:#ffe680;fill-opacity:1;stroke-width:0.264583"
         id="rect8"
         width="48"
         height="48"
         x="136"
         y="192"
         rx="2.7755579e-17" /><path
         style="display:inline;fill:#ffe680;fill-opacity:1;stroke-width:0.25532"
         d="m 136,216 v -24 h 24 24 v 24 24 h -24 -24 z"
         id="path8" /></g><g
       inkscape:groupmode="layer"
       id="g9"
       inkscape:label="FuelhoursText"
       style="display:inline"
       transform="matrix(0.93670883,0,0,0.31034483,10.126587,161.37931)"><rect
         style="display:inline;fill:#ffe680;fill-opacity:1;stroke-width:0.264583"
         id="rect9"
         width="48"
         height="48"
         x="136"
         y="192"
         rx="2.7755579e-17" /><path
         style="display:inline;fill:#ffe680;fill-opacity:1;stroke-width:0.25532"
         d="m 136,216 v -24 h 24 24 v 24 24 h -24 -24 z"
         id="path9" /></g></g><g
     inkscape:groupmode="layer"
     id="g5"
     inkscape:label="Inputslot Area"
     style="fill:#ffaaaa"
     transform="matrix(3.4166667,0,0,1.2083333,-29.166667,-14.375)"><rect
       style="display:inline;fill:#ffaaaa;fill-opacity:1;stroke-width:0.264583"
       id="rect5"
       width="48"
       height="48"
       x="10"
       y="45"
       rx="2.7755579e-17" /><path
       style="display:inline;fill:#ffaaaa;fill-opacity:1;stroke-width:0.25532"
       d="M 10,69.000002 V 45 H 33.999998 58 V 69.000002 93 H 33.999998 10 Z"
       id="path5" /><g
       inkscape:groupmode="layer"
       id="layer3"
       inkscape:label="Inputslot 1"
       style="display:inline"
       transform="matrix(0.29268293,0,0,0.82758624,8.5365854,11.896552)"><rect
         style="display:inline;fill:#ffe680;fill-opacity:1;stroke-width:0.264583"
         id="rect31"
         width="48"
         height="48"
         x="10"
         y="45"
         rx="2.7755579e-17" /><path
         style="display:inline;fill:#ffe680;fill-opacity:1;stroke-width:0.254936"
         d="M 10,68.96395 V 45 h 23.963947 23.96395 V 68.96395 92.927897 H 33.963947 10 Z"
         id="path35" /></g><g
       inkscape:groupmode="layer"
       id="g32"
       inkscape:label="Inputslot 2"
       style="display:inline"
       transform="matrix(0.29268293,0,0,0.82758624,8.5365854,11.896552)"><path
         style="display:inline;fill:#ffe680;fill-opacity:1;stroke-width:0.256001"
         d="M 63,69.000002 V 45 H 87.000001 111 V 69.000002 93 H 87.000001 63 Z"
         id="path34" /><rect
         style="display:none;fill:#ffe680;fill-opacity:1;stroke-width:0.264583"
         id="rect32"
         width="48"
         height="48"
         x="63"
         y="45"
         rx="2.7755579e-17" /></g><g
       inkscape:groupmode="layer"
       id="g33"
       inkscape:label="Inputslot 3"
       transform="matrix(0.29268293,0,0,0.82758624,8.5365854,11.896552)"><rect
         style="display:inline;fill:#ffe680;fill-opacity:1;stroke-width:0.264583"
         id="rect33"
         width="48"
         height="48"
         x="116"
         y="45"
         rx="2.7755579e-17"
         inkscape:label="rect33" /><path
         style="display:inline;fill:#ffe680;fill-opacity:1;stroke-width:0.254936"
         d="M 116,68.96395 V 45 h 23.96395 23.96394 V 68.96395 92.927897 H 139.96395 116 Z"
         id="path33" /></g></g><g
     inkscape:groupmode="layer"
     id="g6"
     inkscape:label="outpuslot Area"
     style="display:inline;fill:#ff5555"
     transform="matrix(2.3125,0,0,1.2083333,-279.31251,-14.375003)"><rect
       style="display:inline;fill:#ff5555;fill-opacity:1;stroke-width:0.264583"
       id="rect6"
       width="48"
       height="48"
       x="209"
       y="45"
       rx="2.7755579e-17"
       inkscape:label="rect33" /><path
       style="display:inline;fill:#ff5555;fill-opacity:1;stroke-width:0.12766"
       d="M 209,68.999998 V 45 h 24 24 V 68.999998 93 h -24 -24 z"
       id="path6" /><g
       inkscape:groupmode="layer"
       id="g36"
       inkscape:label="outpuslot 2"
       style="display:inline;fill:#ffaaaa"
       transform="matrix(0.43243244,0,0,0.82758624,120.78379,11.896555)"><rect
         style="display:inline;fill:#ffaaaa;fill-opacity:1;stroke-width:0.264583"
         id="rect35"
         width="48"
         height="48"
         x="262"
         y="45"
         rx="2.7755579e-17"
         inkscape:label="rect33" /><path
         style="fill:#ffaaaa;fill-opacity:1;stroke-width:0.12766"
         d="M 262,68.999998 V 45 h 24 24 V 68.999998 93 h -24 -24 z"
         id="path37" /></g><g
       inkscape:groupmode="layer"
       id="g37"
       inkscape:label="outpuslot 1"
       style="display:inline;fill:#ffaaaa"
       transform="matrix(0.43243244,0,0,0.82758624,120.78379,11.896555)"><rect
         style="display:inline;fill:#ffaaaa;fill-opacity:1;stroke-width:0.264583"
         id="rect36"
         width="48"
         height="48"
         x="209"
         y="45"
         rx="2.7755579e-17"
         inkscape:label="rect33" /><path
         style="display:inline;fill:#ffaaaa;fill-opacity:1;stroke-width:0.12766"
         d="M 209,68.999998 V 45 h 24 24 V 68.999998 93 h -24 -24 z"
         id="path38" /></g></g></svg>
