<?xml version="1.0" standalone="no"?>
<!DOCTYPE svg PUBLIC "-//W3C//DTD SVG 1.1//EN" "http://www.w3.org/Graphics/SVG/1.1/DTD/svg11.dtd" >
<svg xmlns="http://www.w3.org/2000/svg" xmlns:xlink="http://www.w3.org/1999/xlink" version="1.1" viewBox="-10 0 969 1000">
   <path fill="currentColor"
d="M948 801h-819l240 -378h-102q-9 0 -26 23l-22 32q-45 55 -110 55q-91 0 -91 -105q0 -39 28.5 -66.5t69.5 -27.5q20 0 44.5 23.5t24.5 45.5q0 19 -16 39.5t-38 20.5q-11 0 -23.5 -10t-12.5 -20q0 -7 8 -22q10 -20 22 -20q7 0 12 6q8 9 9 9l6 -7v-10q-8 -19 -42 -19
q-31 0 -48 23t-17 55q0 33 18 43q11 6 53 6q45 0 82 -58q19 -29 29 -58h169l143 -225zM632 381l-91 -143l-91 143h182zM873 760l-214 -337h-237l-215 337h666z" />
</svg>
