<?xml version="1.0" standalone="no"?>
<!DOCTYPE svg PUBLIC "-//W3C//DTD SVG 1.1//EN" "http://www.w3.org/Graphics/SVG/1.1/DTD/svg11.dtd" >
<svg xmlns="http://www.w3.org/2000/svg" xmlns:xlink="http://www.w3.org/1999/xlink" version="1.1" viewBox="-10 0 922 1000">
   <path fill="currentColor"
d="M889 800l-232 -389h129q9 0 16.5 8t13 18t8.5 18t4 12v-143q-1 4 -4.5 12.5t-9 18.5t-13 18t-15.5 8h-148l-177 -296q-11 18 -27.5 46t-83.5 139l-67 111h-134q-8 0 -15.5 -8t-13.5 -19t-9.5 -18.5t-4.5 -11.5v143q1 -4 4.5 -12t9 -18t13.5 -18t16 -8h116l-234 389h858z
M571 381h-220l110 -209zM754 724h-587l167 -313h253z" />
</svg>
