<?xml version="1.0" standalone="no"?>
<!DOCTYPE svg PUBLIC "-//W3C//DTD SVG 1.1//EN" "http://www.w3.org/Graphics/SVG/1.1/DTD/svg11.dtd" >
<svg xmlns="http://www.w3.org/2000/svg" xmlns:xlink="http://www.w3.org/1999/xlink" version="1.1" viewBox="-10 0 969 1000">
   <path fill="currentColor"
d="M941 554q0 54 -20 79t-69 25q-48 0 -83 -29q-19 -15 -45 -53q-20 -28 -31 -28h-105l-161 253l-160 -253h-130v-42h103l-221 -348h816l-221 348h118q44 119 112 119q65 0 67 -57q2 -73 -60 -73q-36 0 -44 19v12l8 8q1 -1 7.5 -8t13.5 -7q11 0 19.5 16.5t8.5 23.5
q0 10 -12 19.5t-23 9.5q-21 0 -36.5 -20t-15.5 -39q0 -21 24 -44.5t44 -23.5q40 0 68 27.5t28 65.5zM751 205h-646l191 301h262zM531 548h-208l104 163z" />
</svg>
