<?xml version="1.0" standalone="no"?>
<!DOCTYPE svg PUBLIC "-//W3C//DTD SVG 1.1//EN" "http://www.w3.org/Graphics/SVG/1.1/DTD/svg11.dtd" >
<svg xmlns="http://www.w3.org/2000/svg" xmlns:xlink="http://www.w3.org/1999/xlink" version="1.1" viewBox="-10 0 916 1000">
   <path fill="currentColor"
d="M876 310q0 -37 -27.5 -66.5t-77.5 -29.5q-55 0 -94 57q-10 -26 -35 -42t-52 -16q-41 0 -65 26t-24 59q0 26 19 46t39 20q9 0 15 -5q-44 -20 -44 -58q1 -25 19.5 -41.5t42.5 -16.5q27 0 44 17.5t17 50.5q0 11 -2 22q-10 68 -36 128.5t-66 107t-92.5 73t-114.5 26.5
q-65 0 -124.5 -35t-99.5 -94l328 -327l8 -8q15 -15 23.5 -26.5t8.5 -23.5q0 -10 -11.5 -19t-24.5 -9q-16 0 -27.5 11.5t-11.5 27.5q0 8 3 16t11 19l-66 69q-54 -25 -100 -25q-97 0 -159 66t-62 182q0 47 21 93.5t58 83.5t84.5 58t97.5 21q83 0 151 -38.5t115.5 -100.5
t74.5 -132.5t32 -135.5q4 -45 34.5 -71.5t65.5 -26.5t56.5 21.5t21.5 43.5q0 13 -5 26q-1 -19 -16.5 -31t-31.5 -12q-26 1 -38 16.5t-12 32.5q0 22 17 38.5t40 16.5q28 0 50 -23.5t22 -61.5zM259 342q0 18 -11 34t-28 33l-2 2l-110 111q-11 -27 -15.5 -49.5t-5.5 -46.5
q0 -22 5.5 -44.5t17.5 -42t31.5 -31t46.5 -11.5q29 0 50 12.5t21 32.5z" />
</svg>
