<?xml version="1.0" standalone="no"?>
<!DOCTYPE svg PUBLIC "-//W3C//DTD SVG 1.1//EN" "http://www.w3.org/Graphics/SVG/1.1/DTD/svg11.dtd" >
<svg xmlns="http://www.w3.org/2000/svg" xmlns:xlink="http://www.w3.org/1999/xlink" version="1.1" viewBox="-10 0 957 1000">
   <path fill="currentColor"
d="M904 197q0 42 -32.5 70t-75.5 28q-52 0 -85 -37q-167 238 -232 532q-47 -209 -151 -400q-35 -66 -99 -132q-32 30 -78 30q-43 0 -75.5 -28t-32.5 -71q0 -46 37 -73q33 -25 81 -25q61 0 138 102q54 72 92 157q68 148 88 281q7 -71 36 -148q28 -65 56 -131
q21 -51 64.5 -118t81.5 -105q31 -31 79 -31q43 0 75.5 28t32.5 71zM864 199q0 -28 -19.5 -47.5t-47.5 -19.5q-27 0 -46.5 19.5t-19.5 47.5t19.5 47t46.5 19q28 0 47.5 -19t19.5 -47zM219 189q0 -28 -19 -47.5t-47 -19.5t-47.5 19.5t-19.5 47.5t19.5 47t47.5 19t47 -19
t19 -47z" />
</svg>
