<?xml version="1.0" standalone="no"?>
<!DOCTYPE svg PUBLIC "-//W3C//DTD SVG 1.1//EN" "http://www.w3.org/Graphics/SVG/1.1/DTD/svg11.dtd" >
<svg xmlns="http://www.w3.org/2000/svg" xmlns:xlink="http://www.w3.org/1999/xlink" version="1.1" viewBox="-10 0 674 1000">
   <path fill="currentColor"
d="M620 624q-2 41 -17 50q-44 24 -69 24q-16 0 -76 -19q-49 -15 -119 -140q-10 -20 -20 -39q-16 -23 -44 -22l-14 -4l-14 7q-8 26 9 46l-22 25q-5 -7 -15 -23v236l27 32l-53 23l-52 -23l32 -33v-427h-56l-32 34l-54 -58l56 -55l27 32h59v-168l-26 -32l54 -28l47 28l-29 32
v168h62l34 -32l53 57l-56 57l-32 -35h-61v142q27 -37 72 -30q33 4 51 28l22 40q69 122 127 139q42 12 54 12t24 -4q22 -7 25 -18q2 -7 2 -15q0 -23 -18 -43.5t-42 -27.5q-14 -4 -24 1q-13 5 -15 14v13q12 19 37 26l11 1l23 -13q-12 27 -57 27q-7 0 -12 -2q-12 -3 -23 -14.5
t-10 -26.5q5 -50 58 -50q16 0 34 6q28 9 45.5 31.5t16.5 50.5z" />
</svg>
