<?xml version="1.0" standalone="no"?>
<!DOCTYPE svg PUBLIC "-//W3C//DTD SVG 1.1//EN" "http://www.w3.org/Graphics/SVG/1.1/DTD/svg11.dtd" >
<svg xmlns="http://www.w3.org/2000/svg" xmlns:xlink="http://www.w3.org/1999/xlink" version="1.1" viewBox="-10 0 1574 2048">
   <path fill="currentColor"
d="M1044 1382q8 -37 27.5 -67.5t47.5 -53t63 -35t74 -12.5q46 0 85.5 16.5t69 46t46.5 70t17 87.5q0 44 -17 83t-46.5 68.5t-70 46.5t-86.5 17q-40 0 -75 -12.5t-62.5 -34.5t-46.5 -53t-27 -67h-522q-8 36 -27 67t-46.5 53t-62.5 34.5t-75 12.5q-47 0 -87 -17t-69.5 -46.5
t-46.5 -68.5t-17 -83q0 -47 17 -87.5t46.5 -70t69 -46t85.5 -16.5q39 0 74 12.5t63 35t47.5 53t27.5 67.5h524zM1256 1309q-24 0 -45.5 9.5t-37.5 26t-25.5 39.5t-9.5 50t10 49.5t26.5 38t38 24t45.5 8.5t44.5 -8.5t36.5 -24t25 -38t9 -49.5t-9 -50t-25 -39.5t-37.5 -26
t-45.5 -9.5zM308 1309q-24 0 -45.5 9.5t-37.5 26t-25 39.5t-9 50t9 49.5t25 38t36.5 24t44.5 8.5t45.5 -8.5t38 -24t26.5 -38t10 -49.5t-9.5 -50t-25.5 -39.5t-37.5 -26t-45.5 -9.5z" />
</svg>
