<?xml version="1.0" standalone="no"?>
<!DOCTYPE svg PUBLIC "-//W3C//DTD SVG 1.1//EN" "http://www.w3.org/Graphics/SVG/1.1/DTD/svg11.dtd" >
<svg xmlns="http://www.w3.org/2000/svg" xmlns:xlink="http://www.w3.org/1999/xlink" version="1.1" viewBox="-10 0 582 1000">
   <path fill="currentColor"
d="M545 290q0 48 -34.5 82.5t-82.5 34.5q-66 0 -114 -43v223h127l37 -36l56 55l-55 55l-38 -31h-127v126l51 34l-69 38l-78 -35l51 -37v-126h-122l-39 31l-55 -55l57 -56l37 37h122l-1 -223q-47 43 -118 43q-48 0 -82.5 -34t-34.5 -83q0 -48 34.5 -82t82.5 -34
q27 0 56.5 14.5t37.5 38.5q-17 23 -24 23q1 0 -3 -8q-21 -37 -69 -37q-35 0 -59.5 25t-24.5 60t24.5 60t59.5 25t72 -20t49 -50l-1 -209l-51 -38l78 -34l69 37l-50 35v214q14 28 48.5 46.5t66.5 18.5q35 0 60 -25t25 -60t-25 -60t-60 -25q-47 0 -68 37l-4 8q-6 0 -23 -23
q8 -24 39 -39q28 -15 55 -15q48 0 82.5 34.5t34.5 82.5z" />
</svg>
