<?xml version="1.0" standalone="no"?>
<!DOCTYPE svg PUBLIC "-//W3C//DTD SVG 1.1//EN" "http://www.w3.org/Graphics/SVG/1.1/DTD/svg11.dtd" >
<svg xmlns="http://www.w3.org/2000/svg" xmlns:xlink="http://www.w3.org/1999/xlink" version="1.1" viewBox="-10 0 797 1000">
   <path fill="currentColor"
d="M770 175q1 17 -8 40q-7 19 -11 23q-23 18 -63 27q-8 55 -36 115q-36 79 -85 115l-56 44q-41 25 -97 36v84h37l15 -15l40 40l-40 40l-19 -19h-33v67l17 19l-43 40l-40 -40l22 -25v-61h-39l-20 20l-40 -40l40 -40l15 14h44q-2 -84 0 -84q-88 -5 -167 -117q-63 -87 -89 -184
q-1 -2 -22.5 -13.5t-29.5 -27.5q-13 -26 -13 -46q0 -35 26.5 -59t60.5 -24q32 0 60 23.5t28 58.5q0 24 -20 47.5t-54 34.5q11 76 73 162q76 107 169 107q80 0 162 -79q86 -84 100 -192q-59 -24 -59 -96q0 -30 31 -53.5t62 -23.5q32 0 56 24t26 58zM736 186q0 -16 -10 -34
q-14 -24 -37 -24q-22 0 -40 13q-24 15 -24 41q0 23 21 38.5t42 15.5q15 0 31.5 -17t16.5 -33zM191 194q0 -57 -57 -57q-19 0 -37 17t-18 36q0 23 19.5 38.5t41.5 15.5q8 0 29.5 -17t21.5 -33z" />
</svg>
