<?xml version="1.0" standalone="no"?>
<!DOCTYPE svg PUBLIC "-//W3C//DTD SVG 1.1//EN" "http://www.w3.org/Graphics/SVG/1.1/DTD/svg11.dtd" >
<svg xmlns="http://www.w3.org/2000/svg" xmlns:xlink="http://www.w3.org/1999/xlink" version="1.1" viewBox="-10 0 357 1000">
   <path fill="currentColor"
d="M320 281q0 66 -34 104q-42 37 -84 73q86 57 86 152q0 100 -54 161q-12 13 -43 21q-26 8 -47 8q-104 0 -104 -113q0 -102 116 -210q-16 -9 -36 -16q-31 -11 -59 -52.5t-28 -73.5q0 -104 69 -147q-29 39 -29 83q0 61 11 93q16 50 61 66q23 8 43 19q70 -57 79 -69
q30 -37 30 -100q0 -50 -25.5 -80t-74.5 -30q-8 0 -27.5 8.5t-19.5 14.5q0 3 5 5.5t8 1.5l29 -9l-38 25h-4q-18 0 -18 -19q0 -20 23 -33q19 -12 40 -12q125 0 125 129zM259 637q0 -97 -88 -152q-14 12 -41 35q-23 23 -38 67.5t-15 80.5q0 38 16 70q19 39 53 39q53 0 85 -45
q28 -40 28 -95z" />
</svg>
