<?xml version="1.0" standalone="no"?>
<!DOCTYPE svg PUBLIC "-//W3C//DTD SVG 1.1//EN" "http://www.w3.org/Graphics/SVG/1.1/DTD/svg11.dtd" >
<svg xmlns="http://www.w3.org/2000/svg" xmlns:xlink="http://www.w3.org/1999/xlink" version="1.1" viewBox="-10 0 607 1000">
   <path fill="currentColor"
d="M569 811q-2 -4 -68 -112q-34 -57 -73 -80q-50 -31 -141 -31q-80 0 -129 46q-28 26 -64 95q-33 62 -59 79q3 -15 14 -50l42 -114q34 -79 65 -105q-55 -37 -94 -99q-36 -59 -36 -104q0 -133 69 -198q78 -73 191 -73q89 0 167 68q86 74 91 172q4 65 -41 142q-36 61 -72 87
q48 33 86 104q34 62 47 127zM499 325q0 -79 -73 -148q-68 -65 -132 -65q-93 0 -154 45q-72 54 -72 156q0 106 75 168q64 53 148 53q77 0 144 -71q64 -68 64 -138z" />
</svg>
