<?xml version="1.0" standalone="no"?>
<!DOCTYPE svg PUBLIC "-//W3C//DTD SVG 1.1//EN" "http://www.w3.org/Graphics/SVG/1.1/DTD/svg11.dtd" >
<svg xmlns="http://www.w3.org/2000/svg" xmlns:xlink="http://www.w3.org/1999/xlink" version="1.1" viewBox="-10 0 586 1000">
   <path fill="currentColor"
d="M531 333q0 -52 -19.5 -98t-54.5 -79.5t-79.5 -52t-93.5 -18.5q-50 0 -95 19t-79 53t-53 79.5t-19 95.5q0 43 14 82.5t38 71.5t56.5 53.5t67.5 31.5q-36 7 -69 27t-59 51.5t-41 73.5t-15 90q24 -102 87 -153.5t158 -51.5q31 0 70 9.5t79 32t73 63.5t48 100
q0 -58 -15.5 -102t-40 -73.5t-52.5 -47.5t-58 -29q26 -6 52.5 -26t49.5 -51.5t36.5 -70.5t13.5 -80zM446 387q0 63 -31 106t-78 43q-39 0 -77 -22t-68 -60t-47.5 -87.5t-17.5 -101.5q0 -61 31.5 -102t79.5 -41q36 0 73.5 22.5t68 61t48.5 86t18 95.5z" />
</svg>
