<?xml version="1.0" standalone="no"?>
<!DOCTYPE svg PUBLIC "-//W3C//DTD SVG 1.1//EN" "http://www.w3.org/Graphics/SVG/1.1/DTD/svg11.dtd" >
<svg xmlns="http://www.w3.org/2000/svg" xmlns:xlink="http://www.w3.org/1999/xlink" version="1.1" viewBox="-10 0 786 1000">
   <path fill="currentColor"
d="M742 612q0 -22 -15 -37t-37 -15q-18 0 -32 11.5t-18 28.5h-108l-85 -124h87l27 30v-129l-27 30h-103l97 -121h106q4 17 18 28.5t32 11.5q21 0 36.5 -15t15.5 -36q0 -22 -15 -37t-37 -15q-18 0 -32 11.5t-18 28.5h-88l115 -144q11 -16 27.5 -23.5t25.5 -9.5h-117q8 1 19 6
t11 14q0 5 -4 10l-120 147h-201l-100 -147q-3 -5 -3 -10q0 -9 9 -13.5t15 -6.5h-160q10 2 29 10.5t32 27.5l95 139h-89q-4 -17 -18 -28.5t-32 -11.5q-21 0 -36.5 15t-15.5 37q0 20 15.5 35.5t36.5 15.5q18 0 32 -11.5t18 -28.5h104l83 121h-87l-26 -30v129l26 -30h103
l-100 124h-97q-4 -17 -18 -28.5t-32 -11.5q-21 0 -36.5 15.5t-15.5 36.5t15.5 36t36.5 15q18 0 32 -11.5t18 -28.5h79l-112 141q-16 19 -34 26.5t-27 9.5h125q-7 -1 -18 -5t-11 -14q0 -5 4 -11l117 -147h205l102 147q4 5 4 10q0 9 -10.5 14t-17.5 6h159q-10 -1 -28.5 -10
t-32.5 -31l-93 -136h93q4 17 18 28.5t32 11.5q21 0 36.5 -15t15.5 -36zM713 275q0 11 -8.5 19.5t-20.5 8.5t-20.5 -8.5t-8.5 -19.5q0 -13 8.5 -21t20.5 -8t20.5 8t8.5 21zM719 612q0 12 -8 20t-21 8q-12 0 -20 -8t-8 -20t8 -20.5t20 -8.5q13 0 21 8.5t8 20.5zM485 286
l-90 113l-78 -113h168zM449 600h-172l93 -116zM109 275q0 11 -8.5 19.5t-20.5 8.5t-20.5 -8.5t-8.5 -19.5q0 -13 8.5 -21t20.5 -8t20.5 8t8.5 21zM115 612q0 12 -8.5 20t-20.5 8t-20.5 -8t-8.5 -20t8.5 -20.5t20.5 -8.5t20.5 8.5t8.5 20.5z" />
</svg>
