<?xml version="1.0" standalone="no"?>
<!DOCTYPE svg PUBLIC "-//W3C//DTD SVG 1.1//EN" "http://www.w3.org/Graphics/SVG/1.1/DTD/svg11.dtd" >
<svg xmlns="http://www.w3.org/2000/svg" xmlns:xlink="http://www.w3.org/1999/xlink" version="1.1" viewBox="-10 0 764 1000">
   <path fill="currentColor"
d="M728 616q0 19 -14 33t-33 14q-35 0 -44 -34h-116l70 109l91 57l-111 29l-99 -29q19 -18 44 -47l-75 -119h-181q-99 121 -99 129q0 7 16 19q19 15 21 18l-79 29l-76 -29q7 -6 61 -38q35 -21 56 -48q12 -15 69 -80h-83q-7 31 -46 31q-19 0 -32.5 -13.5t-13.5 -33.5
q0 -19 13.5 -32.5t32.5 -13.5q38 0 46 37q41 1 103 1q50 -57 101 -119v0h-108l-24 24l-41 -40l41 -40l18 18h91q-44 -63 -93 -136h-95q-7 31 -45 31q-20 0 -33.5 -14t-13.5 -33t13.5 -33t33.5 -14q38 0 45 38q32 1 78 1l-106 -155l84 -30l87 32q-3 9 -20.5 29.5t-17.5 28.5
q26 46 56 95l210 -2q84 -107 84 -112q0 -8 -26 -39l73 -32l81 32q-81 17 -191 151h99q23 -34 45 -34q19 0 32.5 13.5t13.5 33.5q0 19 -13.5 32.5t-32.5 13.5q-36 0 -45 -33h-120q-34 46 -104 136h100l21 -21l40 40l-40 41l-22 -22h-77l76 118l133 -1q23 -34 44 -34
q19 0 33 14t14 33zM703 301q0 -27 -28 -27q-27 0 -27 27t27 27q28 0 28 -27zM709 619q0 -28 -27 -28t-27 28q0 27 27 27t27 -27zM490 312h-175q26 40 77 120q18 -19 98 -120zM426 605l-62 -101l-84 101h146zM120 297q0 -27 -27 -27q-28 0 -28 27t28 27q27 0 27 -27zM126 615
q0 -28 -27 -28t-27 28q0 27 27 27t27 -27z" />
</svg>
