<?xml version="1.0" standalone="no"?>
<!DOCTYPE svg PUBLIC "-//W3C//DTD SVG 1.1//EN" "http://www.w3.org/Graphics/SVG/1.1/DTD/svg11.dtd" >
<svg xmlns="http://www.w3.org/2000/svg" xmlns:xlink="http://www.w3.org/1999/xlink" version="1.1" viewBox="-10 0 955 1000">
   <path fill="currentColor"
d="M933 906q0 30 -30 51t-62 21t-58 -33t-26 -66q0 -46 59.5 -105.5t59.5 -105.5q0 -65 -78 -65q-25 0 -41 29t-16 67q0 35 14 60h-736q128 -167 390 -494l290 388q35 -76 108 -76q40 0 76.5 29t36.5 68q0 45 -36 87q-4 4 -67 63q-36 33 -36 58q0 22 24.5 45.5t46.5 23.5
q27 0 51 -29l-2 -28q-3 1 -12 18t-24 17q-7 0 -17 -12.5t-10 -19.5q0 -13 15.5 -29.5t28.5 -16.5q15 0 33 20t18 35zM674 713q-88 -128 -265 -369l-286 369h551z" />
</svg>
