<?xml version="1.0" standalone="no"?>
<!DOCTYPE svg PUBLIC "-//W3C//DTD SVG 1.1//EN" "http://www.w3.org/Graphics/SVG/1.1/DTD/svg11.dtd" >
<svg xmlns="http://www.w3.org/2000/svg" xmlns:xlink="http://www.w3.org/1999/xlink" version="1.1" viewBox="-10 0 696 1000">
   <path fill="currentColor"
d="M670 717q0 32 -25.5 57t-57.5 25q-40 0 -65 -32q-24 -29 -24 -70q0 -37 19 -107t19 -106q0 -29 -17 -47.5t-46 -18.5q-25 0 -29 10l-80 173l-72 -174q-12 -11 -36 -11q-19 0 -38.5 16t-19.5 34q0 32 15.5 99.5t15.5 101.5q0 49 -28 88q-31 44 -78 44q-24 0 -54.5 -24
t-30.5 -47q0 -70 70 -70q16 0 28.5 13.5t12.5 29.5q0 34 -28 34q-10 0 -18.5 -8t-8.5 -19q0 -9 10 -15t19 -5q-3 -14 -13 -14q-14 0 -24 16t-10 32q0 21 18.5 35t40.5 14q23 0 40.5 -24.5t17.5 -48.5q0 -33 -19 -95t-19 -95q0 -43 28 -78t70 -34q8 2 24 3l-115 -311h440
l-142 307h14q94 2 94 127q0 35 -21.5 105.5t-21.5 93.5q0 19 16 33.5t36 14.5q24 0 40.5 -16t16.5 -40q0 -34 -22 -34l-9 1q1 5 10 12t9 17q0 9 -8 19t-17 10q-13 0 -23.5 -9.5t-10.5 -22.5q0 -20 17 -35.5t37 -15.5q22 0 37.5 20t15.5 42zM556 120h-349q6 20 19 60h307z
M525 200h-291l24 72h232zM483 293h-216l23 64h163zM444 377h-146l21 60h100zM409 454h-81l37 83z" />
</svg>
