<?xml version="1.0" standalone="no"?>
<!DOCTYPE svg PUBLIC "-//W3C//DTD SVG 1.1//EN" "http://www.w3.org/Graphics/SVG/1.1/DTD/svg11.dtd" >
<svg xmlns="http://www.w3.org/2000/svg" xmlns:xlink="http://www.w3.org/1999/xlink" version="1.1" viewBox="-10 0 651 1000">
   <path fill="currentColor"
d="M609 678q7 12 7 28q0 25 -13.5 50.5t-25.5 30.5q-28 12 -53 12q-38 0 -74 -28q-13 -11 -55 -56q-38 -41 -80 -96q-9 7 -32 43q-27 40 -41 56q-38 42 -55 56q-36 28 -75 28q-26 0 -54 -12q-12 -5 -25.5 -30.5t-13.5 -50.5q0 -16 7 -28q26 -44 57 -44q17 0 37.5 12.5
t20.5 40.5q0 17 -10.5 30t-26.5 13t-24 -16q-8 -15 0 -28q2 -4 13.5 -7.5t15.5 -1.5l9 6q8 -13 -4 -20q-6 -4 -13 -4q-27 0 -45 30q-7 11 -7 23q0 34 36 56q9 6 22 6q20 0 43 -16q19 -13 28 -28q19 -16 61 -75q53 -74 54 -76q-65 -91 -128 -251q-66 -166 -68 -256h475
q2 125 -228 510q1 10 113 145q36 43 73 43q11 0 21 -5q35 -22 35 -56q0 -12 -6 -23q-18 -30 -45 -30q-11 0 -16 6q-8 9 -2 18l9 -5q5 -3 16 0.5t13 7.5q8 13 0 28q-8 16 -23 16q-17 0 -27.5 -13t-10.5 -29q0 -29 20.5 -41.5t37.5 -12.5q31 0 57 44zM525 116h-383l17 49h355z
M502 191h-332l12 51h297zM468 271h-277l17 50l236 -1zM430 346h-216l17 45h179q3 -12 20 -45zM402 412h-157l24 44h106q13 -18 27 -44zM355 487h-72l33 60z" />
</svg>
