<?xml version="1.0" standalone="no"?>
<!DOCTYPE svg PUBLIC "-//W3C//DTD SVG 1.1//EN" "http://www.w3.org/Graphics/SVG/1.1/DTD/svg11.dtd" >
<svg xmlns="http://www.w3.org/2000/svg" xmlns:xlink="http://www.w3.org/1999/xlink" version="1.1" viewBox="-10 0 770 1000">
   <path fill="currentColor"
d="M731 710q0 60 -46 80q-31 14 -103 12q-74 -1 -148 -37q-41 -20 -106 -66q-49 -35 -64 -35l-42 32t-74 32q-27 0 -47 -10q-26 -13 -26 -39q0 -29 37 -54q34 -21 65 -21q15 0 44.5 5t43.5 5q22 0 121 -151l-47 -37v-1h-30v-57h57v26l42 33q59 -99 87 -141
q-34 -14 -109.5 -56t-114.5 -58q-65 -28 -115 -28q-29 0 -53 17t-24 45q0 20 12.5 35t31.5 15q35 0 33 -31q-16 8 -18 8q-26 0 -26 -31q0 -7 9 -13.5t17 -6.5q10 0 25 13t15 23q0 22 -17.5 39.5t-39.5 17.5q-24 0 -44.5 -22.5t-20.5 -47.5q0 -46 45 -72q37 -22 88 -22
q56 0 135 37q44 20 123 67q61 37 73 37q-2 0 37.5 -30t68.5 -30q17 0 34 18.5t17 36.5q0 21 -33 41q-29 18 -52 18q-2 0 -72 -13q-36 29 -96 147l28 21h31v57h-58v-24l-24 -19l-99 146q34 18 108 68q67 45 107 63q62 28 123 28q24 0 43 -15.5t22 -38.5q5 -27 -13.5 -46.5
t-44.5 -19.5q-36 0 -36 39q0 8 13 16.5t22 5.5q-1 -2 -9.5 -9.5t-8.5 -11.5q0 -16 14 -24q11 1 21.5 8.5t10.5 18.5q0 12 -13 24.5t-25 12.5q-16 0 -31.5 -11t-15.5 -26q0 -24 18 -43t43 -19q27 0 53.5 21.5t27.5 47.5zM652 245q0 -28 -38 -28q-17 0 -37.5 14.5t-29.5 30.5
q29 11 44 11q61 0 61 -28zM236 652q-25 -15 -47 -15q-89 0 -89 40q0 11 18 17q14 5 27 5q18 0 51.5 -16t39.5 -31z" />
</svg>
