<?xml version="1.0" standalone="no"?>
<!DOCTYPE svg PUBLIC "-//W3C//DTD SVG 1.1//EN" "http://www.w3.org/Graphics/SVG/1.1/DTD/svg11.dtd" >
<svg xmlns="http://www.w3.org/2000/svg" xmlns:xlink="http://www.w3.org/1999/xlink" version="1.1" viewBox="-10 0 1026 1000">
   <path fill="currentColor"
d="M999 719q0 32 -20.5 53t-53.5 21q-51 0 -80 -71q-21 -67 -42 -133q-27 -72 -69 -72q-2 0 -15 -2.5t-16 -1.5q-10 17 -22 55t-21 56q-46 82 -122.5 128t-163.5 48q-144 3 -255 -105q-86 -84 -86 -220q-1 -143 100 -248q99 -102 232 -103q5 0 71 3q42 2 70 -3
q92 -19 204 -19q33 0 88 11q76 15 121 60q49 50 49 129q0 69 -41 128q-47 69 -123 77q17 31 49 94q11 48 22 95q17 65 52 65q15 0 30 -11.5t15 -25.5q0 -16 -10.5 -33t-25.5 -17q-17 0 -17 12l2 6q26 -2 19 -2q18 0 18 21q0 29 -34 29q-14 0 -28 -15t-14 -29q0 -20 14.5 -37
t34.5 -17q29 0 48.5 22.5t19.5 51.5zM920 297q0 -76 -57 -109q-27 -17 -116 -38q-10 -2 -30 -2q-37 0 -109 9l-64 7q76 50 117 130.5t43 173.5l94 -1q57 -6 92 -62q30 -48 30 -108zM656 477q0 -13 -1 -39.5t-1 -40.5q0 -66 -74 -148q-78 -87 -155 -85h-81q-96 0 -185 93
t-89 194v45q0 102 98 187q95 82 200 82q114 0 201 -87t87 -201zM410 453q0 50 -45 50q-19 0 -32.5 -13.5t-13.5 -31.5q0 -19 13.5 -33.5t32.5 -14.5q45 0 45 43z" />
</svg>
