<?xml version="1.0" standalone="no"?>
<!DOCTYPE svg PUBLIC "-//W3C//DTD SVG 1.1//EN" "http://www.w3.org/Graphics/SVG/1.1/DTD/svg11.dtd" >
<svg xmlns="http://www.w3.org/2000/svg" xmlns:xlink="http://www.w3.org/1999/xlink" version="1.1" viewBox="-10 0 874 1000">
   <path fill="currentColor"
d="M734 227q0 19 -13 32.5t-31 13.5q-19 0 -32.5 -13t-13.5 -31q0 -19 13 -32.5t31 -13.5q19 0 32.5 13t13.5 31zM617 142q0 18 -13 31.5t-32 13.5q-18 0 -31.5 -13t-13.5 -31q0 -19 13 -32.5t32 -13.5q18 0 31.5 13t13.5 32zM811 354q0 18 -13 31.5t-31 13.5
q-19 0 -32.5 -13t-13.5 -32q0 -18 13 -31.5t32 -13.5q18 0 31.5 13t13.5 32zM487 111q0 18 -13 31.5t-31 13.5q-19 0 -32.5 -13t-13.5 -32q0 -18 13 -31.5t32 -13.5q18 0 31.5 13t13.5 32zM833 488q0 19 -13 32.5t-31 13.5q-19 0 -32.5 -13t-13.5 -31q0 -19 13 -32.5
t31 -13.5q19 0 32.5 13t13.5 31zM361 142q0 19 -13.5 32t-31.5 13q-19 0 -32 -13.5t-13 -31.5q0 -19 13.5 -32t31.5 -13q19 0 32 13.5t13 31.5zM793 606q0 18 -13 31.5t-31 13.5q-19 0 -32.5 -13t-13.5 -32q0 -18 13 -31.5t32 -13.5q18 0 31.5 13t13.5 32zM235 205
q0 19 -13.5 32t-31.5 13q-19 0 -32 -13.5t-13 -31.5q0 -19 13.5 -32t31.5 -13q19 0 32 13.5t13 31.5zM730 709q0 19 -13.5 32t-31.5 13q-19 0 -32 -13.5t-13 -31.5q0 -19 13.5 -32t31.5 -13q19 0 32 13.5t13 31.5zM638 334q38 60 38 130q0 61 -29.5 116t-83.5 89
q-60 38 -131 38q-61 0 -115.5 -29.5t-88.5 -82.5q-38 -60 -38 -131q0 -62 29 -116.5t83 -88.5q60 -38 131 -38q61 0 116 29.5t89 83.5zM154 331q0 19 -13.5 32t-31.5 13q-19 0 -32 -13.5t-13 -31.5q0 -19 13.5 -32t31.5 -13q19 0 32 13.5t13 31.5zM608 790q0 18 -13 31.5
t-32 13.5q-18 0 -31.5 -13t-13.5 -31q0 -19 13 -32.5t32 -13.5q18 0 31.5 13t13.5 32zM478 817q0 19 -13.5 32t-31.5 13q-19 0 -32 -13.5t-13 -31.5q0 -19 13.5 -32t31.5 -13q19 0 32 13.5t13 31.5zM122 470q0 19 -13 32.5t-31 13.5q-19 0 -32.5 -13t-13.5 -31
q0 -19 13 -32.5t31 -13.5q19 0 32.5 13t13.5 31zM149 587q0 19 -13 32.5t-31 13.5q-19 0 -32.5 -13t-13.5 -31q0 -19 13 -32.5t31 -13.5q19 0 32.5 13t13.5 31zM329 784q0 19 -13 32.5t-31 13.5q-19 0 -32.5 -13t-13.5 -31q0 -19 13 -32.5t31 -13.5q19 0 32.5 13t13.5 31z
M207 715q0 18 -13 31.5t-31 13.5q-19 0 -32.5 -13t-13.5 -32q0 -18 13 -31.5t32 -13.5q18 0 31.5 13t13.5 32zM612 350q-63 -98 -179 -98q-62 0 -114 33q-98 63 -98 179q0 62 33 115q62 98 178 98q62 0 115 -34q98 -63 98 -179q0 -62 -33 -114z" />
</svg>
