<?xml version="1.0" standalone="no"?>
<!DOCTYPE svg PUBLIC "-//W3C//DTD SVG 1.1//EN" "http://www.w3.org/Graphics/SVG/1.1/DTD/svg11.dtd" >
<svg xmlns="http://www.w3.org/2000/svg" xmlns:xlink="http://www.w3.org/1999/xlink" version="1.1" viewBox="-10 0 776 1000">
   <path fill="currentColor"
d="M744 351q0 19 -17.5 35.5t-36.5 16.5q-40 0 -40 -43q0 -31 19 -31q29 0 29 24q0 11 -14 21l11 5q11 -1 20 -12t9 -22q0 -16 -19.5 -29t-36.5 -13q-15 0 -61 38t-61 62l2 6q27 53 27 116q0 113 -80 193t-193 80t-192.5 -80t-79.5 -193t79.5 -192.5t192.5 -79.5
q69 0 127 31l4 2q27 -23 67 -70t40 -59q0 -16 -13.5 -27t-30.5 -11q-8 0 -20.5 9t-12.5 17l8 16q6 -30 19 -30q10 0 18 8.5t8 18.5t-14 20.5t-24 10.5q-14 0 -25.5 -18t-11.5 -32q0 -17 17.5 -29.5t35.5 -12.5q27 0 47.5 18.5t20.5 44.5q0 22 -39 72q-29 37 -59 74l4 3
l256 -202l2 3l-200 259v1q93 -87 141 -87q29 0 53 19.5t24 48.5zM535 527q0 -97 -68.5 -165t-164.5 -68q-97 0 -165 68t-68 165t68 165t165 68q96 0 164.5 -68t68.5 -165zM332 521q0 17 -12 29t-29 12q-16 0 -28 -12t-12 -29q0 -16 12 -28t28 -12q17 0 29 12t12 28z" />
</svg>
