<?xml version="1.0" standalone="no"?>
<!DOCTYPE svg PUBLIC "-//W3C//DTD SVG 1.1//EN" "http://www.w3.org/Graphics/SVG/1.1/DTD/svg11.dtd" >
<svg xmlns="http://www.w3.org/2000/svg" xmlns:xlink="http://www.w3.org/1999/xlink" version="1.1" viewBox="-10 0 759 1000">
   <path fill="currentColor"
d="M737 390q0 27 -25 59q-28 35 -58 35q-2 0 -16.5 2t-17.5 2q-34 0 -82 -36q-18 24 -35 48q-22 33 -22 53q0 34 35 65q32 28 62 31l63 -17q2 -1 14 5q-5 12 -31 23.5t-47 11.5q-57 0 -103 -64q-10 -14 -13.5 -35.5t-6.5 -25.5q-112 26 -112 120q0 41 17 66.5t69 60.5l-25 5
q-49 -27 -68 -57.5t-19 -78.5q0 -70 38 -96q-13 -7 -69 -46q-31 -22 -56 -22q-35 0 -61.5 33t-26.5 63q0 23 12.5 44t12.5 23q0 1 -7 14q-15 -1 -28 -37q-12 -30 -12 -45q0 -40 33 -80t73 -40q8 0 15 2q5 -54 -25 -85.5t-78 -31.5q-43 0 -69 21q-18 14 -30 40q-10 22 -13 22
q-11 0 -11 -14q0 -42 54 -72q44 -25 76 -25q29 0 58.5 19.5l29.5 19.5q7 0 34 -59q27 -56 27 -60q0 -45 -35 -78.5t-78 -33.5q1 0 -47 15q-7 -7 -7 -8q0 -9 24 -20q20 -10 26 -10q48 0 81 22q48 33 63 124h10q-4 0 42 -23q42 -20 42 -91q0 -41 -26.5 -72.5t-26.5 -38.5
q0 -3 2 -5t2 -3q39 10 61 45q19 30 19 66q0 24 -9.5 59.5t-19.5 48.5l105 54q3 0 7.5 1t6.5 1q36 0 65 -36q27 -32 27 -62q0 -3 -5 -24t-5 -23v-15q0 -1 1 -2t5 -1q11 0 19 34q6 26 6 37q0 17 -8 47q-67 77 -113 73q-3 0 -3 -4q0 2 10.5 30t10.5 42q1 17 24 37q17 15 32 21
q12 5 33 5q69 0 89 -89q14 3 14 16zM513 396q0 -47 -40.5 -82t-86.5 -35q-52 0 -88.5 39.5t-36.5 90.5q0 80 69 103q3 1 18 8q12 6 15 6h19q50 0 90.5 -37.5t40.5 -92.5zM417 404q0 31 -30 31q-13 0 -22 -10.5t-9 -22.5q0 -10 8.5 -19t19.5 -9q33 0 33 30z" />
</svg>
