<?xml version="1.0" standalone="no"?>
<!DOCTYPE svg PUBLIC "-//W3C//DTD SVG 1.1//EN" "http://www.w3.org/Graphics/SVG/1.1/DTD/svg11.dtd" >
<svg xmlns="http://www.w3.org/2000/svg" xmlns:xlink="http://www.w3.org/1999/xlink" version="1.1" viewBox="-10 0 737 1000">
   <path fill="currentColor"
d="M629 807q-13 -5 -84 -19q-26 -4 -62 -16q-32 -10 -61 -13q-18 -2 -38 -2q-64 0 -162 20l-156 34q36 -42 177 -151q159 -124 220 -182q108 -104 108 -171q0 -38 -26 -66.5t-63 -28.5q-44 0 -101 55l-100 102q-62 55 -118 55q-17 0 -35 -5q-32 -9 -65 -35
q-22 -18 -30 -43.5t-3 -44.5q17 -65 77 -65q11 0 23 3q39 11 39 52q0 50 -51 52q-33 -14 -33 -44q0 -18 14.5 -22t29.5 -6q-3 -6 -13 -13q-18 -4 -36.5 13.5t-23.5 36.5q-2 7 -2 14q0 28 31 50.5t61 22.5q38 0 84 -59q42 -56 84 -111q57 -59 122 -59q23 0 48 6
q56 15 87.5 58t31.5 99q0 25 -7 50q-26 96 -126 184q-66 58 -186 127q-114 65 -128 80q49 -15 99 -29q76 -20 127 -20q55 0 99 13l68 22q34 14 88 34q6 2 19 -6t13 -20q-2 -1 -4 -3q-2 1 -10 3t-13 2q-27 2 -27 -25q0 -9 3 -21t15.5 -20.5t23.5 -5.5q17 5 29.5 20.5
t12.5 33.5q0 31 -19.5 49.5t-50.5 14.5zM522 655q0 14 -10.5 24.5t-24.5 10.5t-24.5 -10.5t-10.5 -24.5t10.5 -24t24.5 -10t24.5 10t10.5 24z" />
</svg>
