<?xml version="1.0" standalone="no"?>
<!DOCTYPE svg PUBLIC "-//W3C//DTD SVG 1.1//EN" "http://www.w3.org/Graphics/SVG/1.1/DTD/svg11.dtd" >
<svg xmlns="http://www.w3.org/2000/svg" xmlns:xlink="http://www.w3.org/1999/xlink" version="1.1" viewBox="-10 0 938 1000">
   <path fill="currentColor"
d="M300 676q0 44 -18.5 71.5t-50.5 27.5q-22 0 -46 -14.5t-44 -39.5t-32.5 -56.5t-12.5 -62.5q0 -40 19.5 -67t50.5 -27q21 0 44.5 14t44 38t33 54t12.5 62zM364 611q-7 -42 -34 -76t-67 -51l521 -307zM337 731l560 -644l-765 399q-44 20 -72 61t-28 90q0 34 13 64.5
t36.5 54.5t53.5 37t63 13q43 0 79.5 -20t59.5 -55z" />
</svg>
