<?xml version="1.0" standalone="no"?>
<!DOCTYPE svg PUBLIC "-//W3C//DTD SVG 1.1//EN" "http://www.w3.org/Graphics/SVG/1.1/DTD/svg11.dtd" >
<svg xmlns="http://www.w3.org/2000/svg" xmlns:xlink="http://www.w3.org/1999/xlink" version="1.1" viewBox="-10 0 843 1000">
   <path fill="currentColor"
d="M823 534l-17 4q-20 5 -63 10q-89 3 -264 18q-6 9 -6 16l1 9l326 64q-208 -20 -327 -46q-15 12 -14 27l304 108l-310 -80l-17 20q103 55 212 121l-220 -102q-12 13 -32 36q-83 43 -134 43q-92 0 -161.5 -67t-69.5 -158q0 -96 70.5 -162.5t165.5 -59.5l13 1l74 -203
l-55 206l34 15q32 -65 65 -130q40 -79 72 -125l-107 265l20 12l204 -254l-182 279l17 7l272 -255q-40 63 -123 143l-138 130q4 11 5 14q4 8 10 11l326 -194q-19 25 -169 119q-139 87 -139 102q0 5 6 18q116 -35 174 -51q127 -35 166 -35q-66 28 -167 58q-85 25 -170 51
q-2 8 -2 17q0 6 3 6q45 0 170 -6q108 -5 171 -2h6zM447 568q0 -82 -59.5 -143t-141.5 -61q-69 0 -128 59.5t-59 128.5q0 78 59.5 136.5t137.5 58.5q73 0 132 -53t59 -126zM282 558q0 14 -9 25t-23 11t-25 -9.5t-11 -22.5q0 -14 10 -24t25 -10q33 0 33 30z" />
</svg>
