<?xml version="1.0" standalone="no"?>
<!DOCTYPE svg PUBLIC "-//W3C//DTD SVG 1.1//EN" "http://www.w3.org/Graphics/SVG/1.1/DTD/svg11.dtd" >
<svg xmlns="http://www.w3.org/2000/svg" xmlns:xlink="http://www.w3.org/1999/xlink" version="1.1" viewBox="-10 0 860 1000">
   <path fill="currentColor"
d="M467 371q10 23 10 49q0 36 -14.5 57.5t-40.5 21.5q-17 0 -35 -10t-33 -28zM324 411q-10 -23 -10 -50q0 -32 15 -53.5t40 -21.5q18 0 37.5 11.5t36.5 32.5zM275 444l-244 166l48 67l109 -86q25 5 39 20.5t14 41.5t-27.5 51.5t-71.5 55.5q-3 3 -5 4l30 41q18 -13 35.5 -28
t34.5 -35.5t28 -45t11 -51.5q0 -29 -18.5 -47t-47.5 -25l103 -80q36 31 83 31q56 0 95 -40t39 -95q0 -28 -13 -57l190 -150l-7 83l111 -177l-202 57l81 17l-198 135q-41 -41 -96 -41q-26 0 -50.5 10.5t-42.5 29.5q-40 40 -40 93q0 29 12 55z" />
</svg>
