<?xml version="1.0" standalone="no"?>
<!DOCTYPE svg PUBLIC "-//W3C//DTD SVG 1.1//EN" "http://www.w3.org/Graphics/SVG/1.1/DTD/svg11.dtd" >
<svg xmlns="http://www.w3.org/2000/svg" xmlns:xlink="http://www.w3.org/1999/xlink" version="1.1" viewBox="-10 0 646 1000">
   <path fill="currentColor"
d="M621 227q-21 55 -39 94q-43 96 -62 101q-27 8 -46 -37l-250 251l34 34l39 -1v81h-81v-43l-31 -32l-72 73v51h-90v-90h56l75 -73l-32 -31l-35 1v-84h79l1 42l30 30l238 -238q0 -1 -25 -19q-17 -12 -15 -27q2 -20 81 -48q67 -23 135 -46q8 0 10 11zM74 662q0 22 -22 22
t-22 -22q0 -21 22 -21t22 21zM186 776q0 22 -22 22q-21 0 -21 -22t21 -22q22 0 22 22z" />
</svg>
