<?xml version="1.0" standalone="no"?>
<!DOCTYPE svg PUBLIC "-//W3C//DTD SVG 1.1//EN" "http://www.w3.org/Graphics/SVG/1.1/DTD/svg11.dtd" >
<svg xmlns="http://www.w3.org/2000/svg" xmlns:xlink="http://www.w3.org/1999/xlink" version="1.1" viewBox="-10 0 364 1000">
   <path fill="currentColor"
d="M339 673l-54 53l-31 -31l-54 -1v70l41 35l-63 62l-63 -62l42 -35v-67l-46 2l-24 25l-57 -55l54 -52l30 32h43v-79h-48l-24 25l-58 -55l55 -52l30 32h45v-320l-80 53l108 -224l96 224l-81 -53v321h56l27 -31l53 54l-53 53l-30 -27h-53v80h58l27 -31zM157 764z" />
</svg>
