<?xml version="1.0" standalone="no"?>
<!DOCTYPE svg PUBLIC "-//W3C//DTD SVG 1.1//EN" "http://www.w3.org/Graphics/SVG/1.1/DTD/svg11.dtd" >
<svg xmlns="http://www.w3.org/2000/svg" xmlns:xlink="http://www.w3.org/1999/xlink" version="1.1" viewBox="-10 0 787 1000">
   <path fill="currentColor"
d="M731 104q27 33 27 75q0 55 -42 90q-32 27 -75 27q-54 0 -89 -42q-43 -50 -40 -109h-106v246h73l38 -38l56 55l-55 55l-39 -33h-73v81l184 286h-51l-153 -245l-159 245h-54l191 -286v-81h-63l-38 33l-55 -55l57 -56l38 39h61v-246h-96q2 56 -43 110q-35 42 -90 42
q-42 0 -75 -27q-42 -35 -42 -90q0 -42 28 -75q34 -40 82 -40q11 0 19 3q8 34 3 32q-12 -3 -23 -3q-33 0 -58 30q-20 24 -20 54q0 40 31 66q23 19 54 19q40 0 65 -30q39 -46 39 -110q0 -13 -3 -25h309q-4 90 33 134q26 30 65 30q31 0 55 -20q30 -25 30 -65q0 -31 -20 -54
q-25 -30 -58 -30q-11 0 -22 3q-1 -8 -1 -15q1 -7 4 -17q8 -3 18 -3q48 0 83 40z" />
</svg>
