<?xml version="1.0" standalone="no"?>
<!DOCTYPE svg PUBLIC "-//W3C//DTD SVG 1.1//EN" "http://www.w3.org/Graphics/SVG/1.1/DTD/svg11.dtd" >
<svg xmlns="http://www.w3.org/2000/svg" xmlns:xlink="http://www.w3.org/1999/xlink" version="1.1" viewBox="-10 0 503 1000">
   <path fill="currentColor"
d="M135 348q-26 11 -47.5 25.5t-34.5 30.5h30q29 -18 62 -24.5t68 -6.5q41 0 74.5 16t57.5 44.5t36 64.5t12 75q0 36 -14 70t-39 61.5t-57.5 43t-68.5 15.5q-52 0 -89 -8t-59 -31l-33 -9q26 38 75.5 66.5t115.5 28.5q49 0 92.5 -18.5t76.5 -51.5t51 -76.5t18 -90.5
q0 -54 -20 -99t-54.5 -77t-77 -49t-86.5 -17v-125h99v-31h-99v-86h-89v86h-97v31h97v142z" />
</svg>
