<?xml version="1.0" standalone="no"?>
<!DOCTYPE svg PUBLIC "-//W3C//DTD SVG 1.1//EN" "http://www.w3.org/Graphics/SVG/1.1/DTD/svg11.dtd" >
<svg xmlns="http://www.w3.org/2000/svg" xmlns:xlink="http://www.w3.org/1999/xlink" version="1.1" viewBox="-10 0 540 1000">
   <path fill="currentColor"
d="M508 712q-36 70 -58.5 80.5t-46.5 10.5q-30 0 -53 -14q-34 -20 -34 -65q0 -27 13 -68q8 -24 17 -48.5t9 -43.5q0 -13 -3 -25q-15 -62 -35 -93q-28 -42 -99 -41q-29 1 -69 39q-25 24 -42 49l1 174q52 15 52 69q0 29 -21 50t-50 21q-30 0 -50.5 -21t-20.5 -50q0 -49 45 -66
v-530l-40 -31l58 -58l58 58l-32 31v286q14 -27 44.5 -47t66.5 -21q143 -3 177 149q8 34 8 53t-10.5 52.5t-26.5 103.5q-3 24 6.5 35.5t32.5 8.5q47 -6 93 -59q2 -3 4 -3q4 0 7 5q2 4 -1 9zM127 736q0 -15 -11 -26t-26 -12l-9 1q-30 5 -30 37q0 16 11 27t27 11q15 0 26.5 -11
t11.5 -27z" />
</svg>
