<?xml version="1.0" standalone="no"?>
<!DOCTYPE svg PUBLIC "-//W3C//DTD SVG 1.1//EN" "http://www.w3.org/Graphics/SVG/1.1/DTD/svg11.dtd" >
<svg xmlns="http://www.w3.org/2000/svg" xmlns:xlink="http://www.w3.org/1999/xlink" version="1.1" viewBox="-10 0 976 1000">
   <path fill="currentColor"
d="M947 708l-101 -98h-275v102l34 41l-59 38l-63 -42l40 -37v-99h-307q-6 37 -34.5 62t-66.5 25q-43 0 -72.5 -30t-29.5 -72t29.5 -72t72.5 -30q33 0 60 19.5t37 51.5h311v-73l-39 -38l62 -45l62 42l-37 44v70h376v141zM175 598q0 -25 -17.5 -43t-42.5 -18t-43 18t-18 43
t18 42.5t43 17.5t42.5 -17.5t17.5 -42.5z" />
</svg>
