<?xml version="1.0" standalone="no"?>
<!DOCTYPE svg PUBLIC "-//W3C//DTD SVG 1.1//EN" "http://www.w3.org/Graphics/SVG/1.1/DTD/svg11.dtd" >
<svg xmlns="http://www.w3.org/2000/svg" xmlns:xlink="http://www.w3.org/1999/xlink" version="1.1" viewBox="-10 0 839 1000">
   <path fill="currentColor"
d="M779 376q0 66 -97 129q-90 48 -181 96q-97 51 -97 91q0 29 22.5 60t51.5 31q22 0 42 -11.5t20 -30.5l1 -20l-12 -12q-3 24 -5 29q-6 14 -24 14q-29 0 -44 -32q3 -52 52 -52q26 0 40.5 18t14.5 44q0 33 -26 57t-59 24q-44 0 -85 -27q-46 -30 -46 -72q0 -57 95 -130
l176 -120q94 -68 94 -113q0 -33 -34 -57q-31 -21 -66 -21q-24 0 -93.5 48t-119.5 48q-43 0 -117 -34.5t-117 -34.5q-76 0 -76 83q0 68 62 68q40 0 50 -24l-4 -17q-22 25 -32 25q-16 0 -26 -17q-8 -14 -8 -30l1 -11q17 -22 41 -22q21 0 37.5 16t16.5 37q0 31 -24.5 51
t-55.5 20q-47 0 -73 -40q-24 -35 -24 -84q0 -59 45 -93q40 -31 102 -31q43 0 106.5 46t103.5 46q42 0 105.5 -42.5t105.5 -42.5q71 0 114 33q47 37 47 107z" />
</svg>
