<?xml version="1.0" standalone="no"?>
<!DOCTYPE svg PUBLIC "-//W3C//DTD SVG 1.1//EN" "http://www.w3.org/Graphics/SVG/1.1/DTD/svg11.dtd" >
<svg xmlns="http://www.w3.org/2000/svg" xmlns:xlink="http://www.w3.org/1999/xlink" version="1.1" viewBox="-10 0 768 1000">
   <path fill="currentColor"
d="M704 171q25 16 25 34q0 19 -26 34q-1 -22 -3 -28q-4 -16 -16 -23q-17 -9 -43 -9q-43 0 -70 20q-32 25 -25 91q6 62 6 74q0 81 -67 132q-34 26 -99 29v236l45 41h-128l45 -41v-235q-64 -1 -100 -20q-78 -42 -78 -123q0 -28 11.5 -76.5t12.5 -71.5q2 -41 -27 -56t-61 -15
q-44 0 -50 27q-3 12 4 35q19 14 19 16h-1q-3 0 -24 -11q-30 -16 -30 -41q0 -9 6 -15q28 -28 84 -28q48 0 82 21q61 38 61 119q0 19 -3 51q-4 36 -4 50q-4 96 61 112q12 4 38 2v-349q-37 -12 -37 -51q0 -23 16 -39t38 -16q23 0 39 16t16 39q0 37 -35 50v349q32 0 45 -10
q28 -22 38 -66q4 -18 7 -78q3 -55 12 -86q15 -46 52 -74q33 -25 75 -30q36 -4 48 3q6 0 14 1q16 2 27 10z" />
</svg>
