<?xml version="1.0" standalone="no"?>
<!DOCTYPE svg PUBLIC "-//W3C//DTD SVG 1.1//EN" "http://www.w3.org/Graphics/SVG/1.1/DTD/svg11.dtd" >
<svg xmlns="http://www.w3.org/2000/svg" xmlns:xlink="http://www.w3.org/1999/xlink" version="1.1" viewBox="-10 0 342 1000">
   <path fill="currentColor"
d="M250 252q0 -31 -17.5 -46t-51.5 -28q-26 -11 -38.5 -20t-12.5 -26q0 -16 12 -25.5t29 -9.5q20 0 35 10.5t15 28.5q0 6 -2 18l22 -6q0 -33 -18 -49t-52 -16q-30 0 -50 18.5t-20 48.5q0 26 16 39.5t46 27.5q26 12 38.5 22t12.5 27t-13.5 27t-32.5 10q-18 0 -33 -11.5
t-15 -29.5q0 -10 4 -26l-24 7q-1 4 -1 14q0 28 21 44t51 16q33 0 56 -17.5t23 -47.5zM300 237q-5 44 -38 76.5t-77 32.5q-47 -1 -88 -27t-64 -82q8 57 33 91t58 43q-34 13 -55 45t-21 70q0 44 27 77t68 42v88h-62v20h62v87h60v-87h63v-20h-63v-88q42 -12 67.5 -45.5
t25.5 -79.5q0 -33 -23 -65.5t-57 -46.5q36 -13 60 -55t24 -76zM146 377q18 0 37 11t34.5 30t25 42.5t9.5 47.5q0 34 -14.5 55t-39.5 21q-19 0 -37.5 -11.5t-33.5 -31t-24 -44t-9 -48.5q0 -31 15.5 -51.5t36.5 -20.5z" />
</svg>
