<?xml version="1.0" standalone="no"?>
<!DOCTYPE svg PUBLIC "-//W3C//DTD SVG 1.1//EN" "http://www.w3.org/Graphics/SVG/1.1/DTD/svg11.dtd" >
<svg xmlns="http://www.w3.org/2000/svg" xmlns:xlink="http://www.w3.org/1999/xlink" version="1.1" viewBox="-10 0 408 1000">
   <path fill="currentColor"
d="M378 68q-4 61 -92 120q76 75 76 144q0 32 -36 93l-2 -2q-41 56 -101 62l1 113h73l30 -30l49 49l-51 52l-34 -24v-1h-69l1 130l29 23l-52 51l-50 -49l24 -20v-135h-72l-29 32l-52 -50l51 -51l21 23h78v-115q-68 -8 -104 -54q-35 -43 -35 -112q0 -58 89 -132
q-28 -23 -52 -56q-30 -41 -31 -67q37 30 74 61q47 36 87 36q104 0 179 -91zM312 324q0 -37 -37 -73.5t-75 -36.5q-46 0 -82 35t-36 81q0 51 34 79t86 28q38 0 74 -37t36 -76z" />
</svg>
