<?xml version="1.0" standalone="no"?>
<!DOCTYPE svg PUBLIC "-//W3C//DTD SVG 1.1//EN" "http://www.w3.org/Graphics/SVG/1.1/DTD/svg11.dtd" >
<svg xmlns="http://www.w3.org/2000/svg" xmlns:xlink="http://www.w3.org/1999/xlink" version="1.1" viewBox="-10 0 459 1000">
   <path fill="currentColor"
d="M343 693q0 53 -22.5 80.5t-63.5 27.5q-33 0 -61 -20.5t-48 -55t-31 -74.5t-11 -77q0 -52 25.5 -80t65.5 -28q33 0 60 21t46.5 55.5t29.5 74t10 76.5zM299 243q0 69 -54 69q-20 0 -37.5 -13t-30 -34.5t-19.5 -46.5t-7 -48q0 -33 16 -50.5t41 -17.5q20 0 37 13t29 34.5
t18.5 46t6.5 47.5zM194 325v118q-70 11 -116 64q-22 26 -34.5 58.5t-12.5 67.5q0 39 15 74.5t42 62.5t62.5 42t74.5 15t74.5 -15t62 -42t41.5 -62.5t15 -74.5q0 -36 -12.5 -68.5t-35.5 -58.5t-54 -43t-66 -21v-117q41 -9 67.5 -42t26.5 -76q0 -50 -35 -85t-85 -35t-85.5 35
t-35.5 85q0 42 26 75t65 43z" />
</svg>
