<?xml version="1.0" standalone="no"?>
<!DOCTYPE svg PUBLIC "-//W3C//DTD SVG 1.1//EN" "http://www.w3.org/Graphics/SVG/1.1/DTD/svg11.dtd" >
<svg xmlns="http://www.w3.org/2000/svg" xmlns:xlink="http://www.w3.org/1999/xlink" version="1.1" viewBox="-10 0 879 1000">
   <path fill="currentColor"
d="M836 446q0 -49 -18.5 -93.5t-52 -79.5t-79.5 -54.5t-98 -19.5q-80 0 -136.5 40.5t-82.5 97.5q-9 -45 -38.5 -89.5t-75.5 -80.5t-103.5 -57t-119.5 -21q75 77 110.5 168t35.5 189q0 46 -10 95t-30 97t-48.5 90t-63.5 73q56 0 112 -18.5t103.5 -52t80.5 -80t44 -100.5
q16 27 36 51t47 45t62.5 33.5t77.5 12.5q50 0 95.5 -19t79.5 -53t53 -79t19 -95zM757 499q0 30 -9.5 58t-26 49.5t-38 34t-44.5 12.5q-97 0 -159 -71t-62 -195q0 -29 10 -56t27 -48t39 -33t46 -12q45 0 84 18.5t69.5 53t47 83t16.5 106.5zM337 446q0 50 -21 104t-57.5 101
t-83 81t-96.5 47q21 -18 47 -52t51 -79t41 -97.5t16 -104.5q0 -53 -13 -103.5t-35 -94.5t-48.5 -78t-54.5 -57q57 18 104 52.5t80.5 80t51.5 97.5t18 103zM626 446q0 -17 -12.5 -29.5t-30.5 -12.5q-17 0 -29.5 12.5t-12.5 29.5t12.5 29.5t29.5 12.5q18 0 30.5 -12.5
t12.5 -29.5z" />
</svg>
