<?xml version="1.0" standalone="no"?>
<!DOCTYPE svg PUBLIC "-//W3C//DTD SVG 1.1//EN" "http://www.w3.org/Graphics/SVG/1.1/DTD/svg11.dtd" >
<svg xmlns="http://www.w3.org/2000/svg" xmlns:xlink="http://www.w3.org/1999/xlink" version="1.1" viewBox="-10 0 1269 1000">
   <path fill="currentColor"
d="M1210 463q0 128 -90 218t-218 90q-97 0 -176 -56t-114 -149q-36 104 -123.5 168.5t-196.5 64.5q-144 0 -243 -104q57 30 123 30q110 0 188.5 -78.5t78.5 -188.5q0 -111 -78.5 -189.5t-188.5 -78.5q-55 0 -105 22q96 -86 225 -86q109 0 197 64.5t123 168.5
q35 -91 114 -147t176 -56q128 0 218 90t90 217zM1158 463q0 -105 -75 -180t-181 -75q-105 0 -180 75t-75 180q0 106 75 181t180 75q106 0 181 -75t75 -181zM958 467q0 23 -17 40t-40 17t-40 -17t-17 -40t17 -40t40 -17t40 17t17 40zM211 759l26 1q164 3 254 -69
q99 -79 99 -241q0 -115 -84.5 -204.5t-198.5 -89.5q-43 0 -89 8q124 32 183 92q67 68 67 188q0 138 -61 211q-58 69 -196 104z" />
</svg>
