<?xml version="1.0" standalone="no"?>
<!DOCTYPE svg PUBLIC "-//W3C//DTD SVG 1.1//EN" "http://www.w3.org/Graphics/SVG/1.1/DTD/svg11.dtd" >
<svg xmlns="http://www.w3.org/2000/svg" xmlns:xlink="http://www.w3.org/1999/xlink" version="1.1" viewBox="-10 0 697 1000">
   <path fill="currentColor"
d="M635 260l-67 67l-212 413l84 61h-211l82 -61l-198 -413l-61 -66l77 -45l74 45l-47 68l154 305v-376q-40 -9 -66.5 -41.5t-26.5 -74.5q0 -49 35 -83.5t84 -34.5t83.5 34.5t34.5 83.5q0 44 -28 77t-70 40v375l161 -304l-29 -69l72 -48zM419 142q0 -34 -24.5 -58.5
t-58.5 -24.5q-35 0 -59.5 24.5t-24.5 58.5q0 35 24.5 59.5t59.5 24.5q34 0 58.5 -24.5t24.5 -59.5z" />
</svg>
