<?xml version="1.0" standalone="no"?>
<!DOCTYPE svg PUBLIC "-//W3C//DTD SVG 1.1//EN" "http://www.w3.org/Graphics/SVG/1.1/DTD/svg11.dtd" >
<svg xmlns="http://www.w3.org/2000/svg" xmlns:xlink="http://www.w3.org/1999/xlink" version="1.1" viewBox="-10 0 1665 2048">
   <path fill="currentColor"
d="M1565 1398q0 94 -66 160t-160 66q-76 0 -135 -44t-81 -117q-130 103 -296 103q-167 0 -297 -103q-20 72 -79.5 116.5t-135.5 44.5q-93 0 -159 -66.5t-66 -159.5t66 -159t159 -66l44 6q-8 -44 -8 -89q0 -149 85.5 -271t225.5 -174q-60 -64 -60 -153q0 -93 66 -159t159 -66
q94 0 159.5 65.5t65.5 159.5q0 88 -59 153q140 54 225 175t85 270q0 38 -9 89l45 -6q93 0 159.5 66t66.5 159zM948 492q0 -49 -36 -85t-85 -36q-50 0 -86 35.5t-36 85.5q0 51 35.5 87t86.5 36q49 0 85 -36.5t36 -86.5zM1460 1398q0 -49 -36 -84.5t-85 -35.5q-50 0 -86.5 35
t-36.5 85q0 51 36 87.5t87 36.5q50 0 85.5 -37t35.5 -87zM1170 1090q0 -144 -99.5 -243t-243.5 -99t-243 99t-99 243t99 243.5t243 99.5q145 0 244 -99t99 -244zM436 1398q0 -49 -36 -84.5t-85 -35.5t-85.5 35.5t-36.5 84.5q0 50 36 87t86 37t85.5 -37t35.5 -87z" />
</svg>
