<?xml version="1.0" standalone="no"?>
<!DOCTYPE svg PUBLIC "-//W3C//DTD SVG 1.1//EN" "http://www.w3.org/Graphics/SVG/1.1/DTD/svg11.dtd" >
<svg xmlns="http://www.w3.org/2000/svg" xmlns:xlink="http://www.w3.org/1999/xlink" version="1.1" viewBox="-10 0 883 1000">
   <path fill="currentColor"
d="M819 189q1 8 -3 23q-19 40 -49 40q-39 0 -39 -36q0 -16 10 -28t27 -12q4 0 8 1q13 3 25 16q0 -43 -35 -79.5t-78 -36.5q-46 0 -73 46q-24 39 -24 89q0 30 34 108t34 136q0 78 -56 136.5t-133 58.5q-89 0 -116 -34q-18 47 -35 93q-45 91 -126 91q-50 0 -88.5 -35
t-47.5 -87q-1 -2 -6 -21q-3 -11 -1 -20q8 -45 39 -45q15 0 27.5 11t12.5 25t-16 27q-14 9 -28 19q0 39 33 65.5t73 26.5q56 0 87 -61q25 -49 25 -112q0 -25 -13.5 -75t-13.5 -77q0 -85 58 -135q55 -48 142 -48l85 22q-11 -32 -11 -81q0 -53 36 -101q39 -52 91 -52
q58 0 103.5 42t41.5 100zM591 528q23 -39 23 -79q0 -83 -80 -129q-43 -25 -104 -16l78 289q54 -15 83 -65zM476 601l-76 -284q-45 20 -68 59q-24 43 -24 84q0 79 81 126q31 18 72 18q10 0 15 -3z" />
</svg>
