<?xml version="1.0" standalone="no"?>
<!DOCTYPE svg PUBLIC "-//W3C//DTD SVG 1.1//EN" "http://www.w3.org/Graphics/SVG/1.1/DTD/svg11.dtd" >
<svg xmlns="http://www.w3.org/2000/svg" xmlns:xlink="http://www.w3.org/1999/xlink" version="1.1" viewBox="-10 0 678 1000">
   <path fill="currentColor"
d="M643 686l-9 15q-65 99 -199 99q-44 0 -91 -11q-156 -38 -242 -184q-76 -128 -67 -270q1 -2 8 -73q3 -7 12 -38q19 -67 70 -124q57 -65 120 -70l-2 9q-8 32 -20 102q-2 24 -2 49q0 157 73 291q85 156 231 191q17 4 55.5 1.5t54.5 1.5q10 3 8 11zM602 703l-10 -3
q-20 8 -72 -5q-159 -39 -247 -189q-77 -131 -77 -298q0 -76 18 -143q-102 62 -134 181q-12 46 -12 98q0 140 75 257q82 129 215 159q33 7 71 7q122 0 173 -64z" />
</svg>
