<?xml version="1.0" standalone="no"?>
<!DOCTYPE svg PUBLIC "-//W3C//DTD SVG 1.1//EN" "http://www.w3.org/Graphics/SVG/1.1/DTD/svg11.dtd" >
<svg xmlns="http://www.w3.org/2000/svg" xmlns:xlink="http://www.w3.org/1999/xlink" version="1.1" viewBox="-10 0 827 1000">
   <path fill="currentColor"
d="M751 363q-2 37 -32 69t-65 32q-28 0 -54.5 -22t-26.5 -50q0 -20 19 -39.5t39 -19.5q18 0 32.5 14t14.5 31q0 12 -9 21.5t-21 9.5q-20 0 -20 -22q0 -14 15 -26l-9 -7q-16 0 -28 12.5t-12 28.5q0 17 20 32.5t38 15.5q30 0 53 -26t23 -57q0 -39 -38.5 -76t-73.5 -37
q-88 0 -143 43q-60 47 -60 133q0 26 10 76.5t10 76.5q0 25 -7 72.5t-7 71.5q0 20 72 78l-102 27l-109 -29q114 -38 114 -195q0 -106 -19 -144q-26 -51 -112 -73q-27 63 -98 63q-41 0 -70.5 -31t-29.5 -71t28.5 -71.5t68.5 -31.5q36 0 67.5 33.5t37.5 72.5q23 8 66 27
q24 13 50 44q3 -13 6 -38q5 -44 42 -91q10 -12 70 -74q47 -49 47 -76q0 -34 -30 -60.5t-65 -26.5q-21 0 -37.5 27t-16.5 55q0 34 30 34q13 0 19 -3l-8 -2q-26 -8 -26 -25q0 -10 8.5 -20.5t19.5 -10.5q15 0 24 12.5t9 27.5q0 43 -46 43q-24 0 -38.5 -17t-14.5 -41
q0 -43 27.5 -73.5t65.5 -29.5q45 1 75 37q27 33 27 73q0 22 -35 94q13 -4 40 -11q23 -6 63 -3q34 -1 74.5 49t37.5 94zM226 340q0 -19 -17.5 -39t-36.5 -20q-30 0 -49 19t-19 50q0 16 17.5 37t31.5 21h21q25 0 40 -22q12 -19 12 -46z" />
</svg>
