<?xml version="1.0" standalone="no"?>
<!DOCTYPE svg PUBLIC "-//W3C//DTD SVG 1.1//EN" "http://www.w3.org/Graphics/SVG/1.1/DTD/svg11.dtd" >
<svg xmlns="http://www.w3.org/2000/svg" xmlns:xlink="http://www.w3.org/1999/xlink" version="1.1" viewBox="-10 0 815 1000">
   <path fill="currentColor"
d="M755 260q0 41 -90 55q-33 5 -92 -17q-35 7 -87 147q-54 144 -94 346q-54 -263 -156 -493q-36 15 -102 29q-31 0 -55 -13q-29 -16 -29 -45q0 -36 45 -55q34 -14 76 -14q4 0 16 8.5t17 5.5l47 35q49 -49 141 -191q123 185 153 185q-3 0 39 -23.5t73 -23.5q29 0 63.5 19
t34.5 45zM709 260q-50 -29 -58 -29q-35 0 -60 35q27 12 42 12q70 0 76 -18zM513 268q-27 -22 -64 -69q-28 -37 -57 -74l-106 143q41 50 70 181q18 105 36 209q37 -286 121 -390zM206 277q-4 -11 -17 -22t-25 -11q-4 0 -12 -2.5t-12 -2.5q-33 0 -65 25q11 29 45 29
q48 0 86 -16z" />
</svg>
