<?xml version="1.0" standalone="no"?>
<!DOCTYPE svg PUBLIC "-//W3C//DTD SVG 1.1//EN" "http://www.w3.org/Graphics/SVG/1.1/DTD/svg11.dtd" >
<svg xmlns="http://www.w3.org/2000/svg" xmlns:xlink="http://www.w3.org/1999/xlink" version="1.1" viewBox="-10 0 591 1000">
   <path fill="currentColor"
d="M551 699v-31h-53v-513l-60 62v451h-328q56 -48 101.5 -93t84 -94t61.5 -101.5t23 -103.5q0 -85 -46 -135.5t-115 -50.5q-35 0 -68.5 12t-61 35.5t-43.5 58.5t-16 80q23 -58 63 -90.5t85 -32.5q51 0 88.5 35.5t37.5 103.5q0 41 -20 88.5t-56 99.5t-82.5 105.5
t-106.5 113.5h399v101h60v-101h53z" />
</svg>
