<?xml version="1.0" standalone="no"?>
<!DOCTYPE svg PUBLIC "-//W3C//DTD SVG 1.1//EN" "http://www.w3.org/Graphics/SVG/1.1/DTD/svg11.dtd" >
<svg xmlns="http://www.w3.org/2000/svg" xmlns:xlink="http://www.w3.org/1999/xlink" version="1.1" viewBox="-10 0 815 1000">
   <path fill="currentColor"
d="M790 269l-61 62q-12 44 -35 81q-55 88 -158 122q152 53 191 204l61 61l-76 55l-71 -52l36 -65q-3 -45 -40 -90q-74 -89 -242 -89q-148 0 -221 89q-37 45 -45 90l52 66l-83 52l-79 -52l73 -65q9 -45 29 -82q48 -88 144 -122q-141 -53 -171 -203l-73 -66l79 -51l83 52
l-52 65q8 46 45 90q73 89 221 89q168 0 242 -89q37 -44 40 -90l-36 -65l72 -52z" />
</svg>
