<?xml version="1.0" standalone="no"?>
<!DOCTYPE svg PUBLIC "-//W3C//DTD SVG 1.1//EN" "http://www.w3.org/Graphics/SVG/1.1/DTD/svg11.dtd" >
<svg xmlns="http://www.w3.org/2000/svg" xmlns:xlink="http://www.w3.org/1999/xlink" version="1.1" viewBox="-10 0 716 1000">
   <path fill="currentColor"
d="M674 377q0 55 -75 105q-69 47 -128 47q-14 0 -29 -2q-17 97 -89 184q-78 94 -160 94q-17 0 -24 -13q-2 -3 -11 -32l15 -86q9 23 28 46q23 26 44 26q19 0 40 -14l36 -26q64 -89 64 -162q0 -14 -1 -27l-102 -30q-61 -17 -105 -17q-38 0 -80 17l-76 34q33 -34 112 -103
q25 -22 41 -61q18 -44 14 -87q-8 -79 -14 -111q-16 -70 -43 -70q-19 0 -45 35q-5 7 -5 14q0 19 26 28l-16 55q-17 -9 -36 -28q-23 -23 -24 -38q-2 -68 31 -87q14 -8 62 -8q53 0 92 73q34 62 34 117q0 98 -88 184q7 -2 34 -14q23 -10 34 -10q48 0 135 27q-15 -42 -29 -84
q-15 -49 -15 -88q0 -75 81 -132q74 -52 154 -52l-66 46q-28 10 -55 20q-19 7 -36.5 22t-17.5 44q0 47 27 124q31 86 35 122q37 8 68 8q21 0 60 -14q46 -17 59 -37l40 -60z" />
</svg>
