<?xml version="1.0" standalone="no"?>
<!DOCTYPE svg PUBLIC "-//W3C//DTD SVG 1.1//EN" "http://www.w3.org/Graphics/SVG/1.1/DTD/svg11.dtd" >
<svg xmlns="http://www.w3.org/2000/svg" xmlns:xlink="http://www.w3.org/1999/xlink" version="1.1" viewBox="-10 0 1040 1000">
   <path fill="currentColor"
d="M1001 646v-96q-1 5 -6 13t-18 8h-157v-243h155q13 0 18 8t6 14v-96q-1 5 -6 13t-18 8h-155v-109q0 -21 11 -31t18 -12h-143q9 2 22.5 12t13.5 31v109h-452v-109q0 -21 13.5 -31t22.5 -12h-143q7 2 18 12t11 31v109h-155q-13 0 -18 -8t-6 -13v96q1 -6 6.5 -14t17.5 -8h155
v243h-157q-13 0 -18 -8t-6 -13v96q1 -6 6 -14t18 -8l157 1v100q0 20 -11 30.5t-18 13.5h143q-9 -3 -22.5 -14t-13.5 -30v-100h452v100q0 19 -13.5 30t-22.5 14h143q-7 -3 -18 -13.5t-11 -30.5v-100l157 -1q13 0 18 8t6 14zM742 571h-452v-243h452v243zM668 455
q0 -16 -11.5 -27.5t-28.5 -11.5t-28 11t-11 28t11 28t27 12q17 0 29 -12t12 -28zM443 453q0 -16 -12 -28t-28 -12t-27.5 11.5t-11.5 28.5t11 28t28 11t28.5 -11.5t11.5 -27.5z" />
</svg>
