<?xml version="1.0" standalone="no"?>
<!DOCTYPE svg PUBLIC "-//W3C//DTD SVG 1.1//EN" "http://www.w3.org/Graphics/SVG/1.1/DTD/svg11.dtd" >
<svg xmlns="http://www.w3.org/2000/svg" xmlns:xlink="http://www.w3.org/1999/xlink" version="1.1" viewBox="-10 0 1075 1000">
   <path fill="currentColor"
d="M1001 403h-43l-47 33l20 22h40v69h-69v-49l-17 -22q-69 47 -69 54q0 1 6.5 14t6.5 28q0 37 -21.5 61.5t-58.5 24.5q-23 0 -38 -16t-15 -40q0 -35 38 -47q16 2 30 14t14 28q0 14 -12 20t-24 11q4 4 15 9q19 -1 32 -23t13 -42q0 -31 -27.5 -54t-59.5 -23q-49 0 -135 83
q-150 146 -161 155q-102 83 -193 83q-72 0 -117 -49t-45 -121q0 -97 118 -188q32 -25 219 -136q118 -70 118 -114q0 -34 -31.5 -57.5t-65.5 -23.5q-9 0 -15 8q14 3 30 6t16 27q0 12 -9.5 23.5t-21.5 11.5q-20 0 -38 -15.5t-18 -35.5q0 -23 22 -36q18 -11 42 -11
q48 0 80.5 35.5t32.5 83.5q0 79 -114 166q-106 71 -213 141q-114 82 -114 148q0 38 27 67t66 29q54 0 154 -80q89 -75 179 -150q107 -80 179 -80q28 0 56 13.5t25 13.5q9 0 69 -48l-12 -18h-41v-68h68v41l16 22l44 -30v-36h69v68z" />
</svg>
