<?xml version="1.0" standalone="no"?>
<!DOCTYPE svg PUBLIC "-//W3C//DTD SVG 1.1//EN" "http://www.w3.org/Graphics/SVG/1.1/DTD/svg11.dtd" >
<svg xmlns="http://www.w3.org/2000/svg" xmlns:xlink="http://www.w3.org/1999/xlink" version="1.1" viewBox="-10 0 1002 1000">
   <path fill="currentColor"
d="M961 732q0 -26 -21.5 -47t-58.5 -25q30 25 30 56q0 22 -13 35.5t-40 13.5q-28 0 -42.5 -23t-14.5 -56v-469q0 -37 -12.5 -62t-33 -39.5t-45 -20.5t-51.5 -6q-61 0 -99 25t-48 64q-17 -43 -51.5 -66t-90.5 -23q-30 0 -60.5 6.5t-57 21.5t-42.5 40t-16 60v469
q0 33 -14.5 56t-42.5 23q-26 0 -39.5 -13.5t-13.5 -35.5q0 -31 30 -56q-37 4 -58.5 25t-21.5 47q0 34 25.5 57t84.5 23q36 0 62.5 -11t42 -29t23 -40.5t7.5 -46.5q0 -53 -1 -217.5t-2 -255.5q0 -36 26.5 -57t64.5 -21q36 0 64 23.5t28 63.5v440h-118v31h118v108h79v-108h117
v-31h-117v-445q0 -38 26.5 -59.5t61.5 -21.5q38 0 65.5 23t27.5 59v468q0 25 7 47t22 40.5t41 29t62 10.5q59 0 84.5 -23t25.5 -57z" />
</svg>
