<?xml version="1.0" standalone="no"?>
<!DOCTYPE svg PUBLIC "-//W3C//DTD SVG 1.1//EN" "http://www.w3.org/Graphics/SVG/1.1/DTD/svg11.dtd" >
<svg xmlns="http://www.w3.org/2000/svg" xmlns:xlink="http://www.w3.org/1999/xlink" version="1.1" viewBox="-10 0 803 1000">
   <path fill="currentColor"
d="M739 365q7 23 7 51q0 58 -28 128q-27 64 -65 110q-55 65 -144 106t-170 35q-30 -2 -69 -13q114 -8 218 -70q111 -66 165 -171q-147 1 -184 -30q-48 -40 -48 -106q0 -57 37 -101q57 -67 132 -67q53 0 97 36q33 28 52 92zM531 184q-114 8 -218 72q-112 69 -174 182
q147 0 184 31q48 40 48 105q0 57 -37 101q-57 68 -132 68q-53 0 -97 -37q-32 -27 -52 -92q-6 -20 -6 -46q0 -60 32 -138q30 -70 70 -118q54 -65 143.5 -106t170.5 -35q30 2 68 13zM652 460q23 -27 23 -63q0 -47 -35 -77q-27 -23 -63 -23q-48 0 -77 36q-23 27 -23 64
q0 47 35 76q27 23 63 23q48 0 77 -36zM292 647q23 -27 23 -64q0 -47 -35 -76q-27 -23 -63 -23q-47 0 -77 35q-23 28 -23 64q0 47 35 77q27 22 63 22q48 0 77 -35z" />
</svg>
