<?xml version="1.0" standalone="no"?>
<!DOCTYPE svg PUBLIC "-//W3C//DTD SVG 1.1//EN" "http://www.w3.org/Graphics/SVG/1.1/DTD/svg11.dtd" >
<svg xmlns="http://www.w3.org/2000/svg" xmlns:xlink="http://www.w3.org/1999/xlink" version="1.1" viewBox="-10 0 493 1000">
   <path fill="currentColor"
d="M450 599q0 -71 -45 -127.5t-114 -72.5v-301h-89v296q-75 14 -124 72.5t-49 135.5q0 43 16.5 81t46 66.5t69 44t83.5 15.5q41 0 78.5 -17t66.5 -46.5t45 -67.5t16 -79zM366 649q0 49 -26.5 82.5t-65.5 33.5q-27 0 -56 -16.5t-54 -46t-40 -66.5t-15 -76q0 -59 24.5 -94
t66.5 -35q33 0 63.5 19t53.5 51.5t36 71.5t13 76z" />
</svg>
