<?xml version="1.0" standalone="no"?>
<!DOCTYPE svg PUBLIC "-//W3C//DTD SVG 1.1//EN" "http://www.w3.org/Graphics/SVG/1.1/DTD/svg11.dtd" >
<svg xmlns="http://www.w3.org/2000/svg" xmlns:xlink="http://www.w3.org/1999/xlink" version="1.1" viewBox="-10 0 707 1000">
   <path fill="currentColor"
d="M666 800q0 -60 -23.5 -112t-62 -93.5t-83 -75t-105.5 -71.5q62 -38 108 -72t84 -75t60 -92t22 -111h-634q0 60 22.5 111t60.5 92.5t84 75t108 71.5q-60 37 -106.5 71.5t-84 76t-59.5 92.5t-22 112h631zM599 157q-1 41 -21 77.5t-53.5 67t-72.5 56.5t-103 64
q-62 -38 -101.5 -64t-72.5 -57t-53 -67t-20 -77h497zM599 740h-497q0 -41 20 -77.5t53.5 -67t72 -56t102.5 -64.5q61 37 101 63.5t73.5 57.5t53.5 67t21 77z" />
</svg>
