<?xml version="1.0" standalone="no"?>
<!DOCTYPE svg PUBLIC "-//W3C//DTD SVG 1.1//EN" "http://www.w3.org/Graphics/SVG/1.1/DTD/svg11.dtd" >
<svg xmlns="http://www.w3.org/2000/svg" xmlns:xlink="http://www.w3.org/1999/xlink" version="1.1" viewBox="-10 0 493 1000">
   <path fill="currentColor"
d="M466 293q0 -43 -17 -81t-47.5 -66.5t-71 -44.5t-84.5 -16q-42 0 -81 17t-68 46.5t-45.5 68t-16.5 79.5q0 72 46 128t116 73v303h92v-298q78 -14 127.5 -72.5t49.5 -136.5zM384 335q0 59 -25 95t-68 36q-34 0 -65.5 -19.5t-55 -52t-36.5 -71.5t-13 -77q0 -48 27 -82.5
t66 -34.5q28 0 58 17t55.5 46.5t41 66.5t15.5 76z" />
</svg>
