<?xml version="1.0" standalone="no"?>
<!DOCTYPE svg PUBLIC "-//W3C//DTD SVG 1.1//EN" "http://www.w3.org/Graphics/SVG/1.1/DTD/svg11.dtd" >
<svg xmlns="http://www.w3.org/2000/svg" xmlns:xlink="http://www.w3.org/1999/xlink" version="1.1" viewBox="-10 0 752 1000">
   <path fill="currentColor"
d="M697 171q0 11 -9 19.5t-20 9.5q-21 -13 -46 -27q-52 -30 -67 -35q-58 -20 -99 -22q-22 -1 -81 7q-98 12 -182 99q-89 93 -89 202q0 127 81 219l78 57l259 -345l22 -11l1 2v1l-110 401q119 -9 198 -116q13 -17 24 -18q7 -1 16 25q-5 64 -82.5 114.5t-170.5 54.5
q-5 20 -45 168l-29 16l-15 -27q3 -13 43 -159q-68 -11 -151 -61t-121 -103q-66 -94 -66 -219q0 -150 110 -256q105 -100 256 -113q61 -6 170 27q125 39 125 90zM385 749q27 -75 77 -251q-152 214 -145 227z" />
</svg>
