<?xml version="1.0" standalone="no"?>
<!DOCTYPE svg PUBLIC "-//W3C//DTD SVG 1.1//EN" "http://www.w3.org/Graphics/SVG/1.1/DTD/svg11.dtd" >
<svg xmlns="http://www.w3.org/2000/svg" xmlns:xlink="http://www.w3.org/1999/xlink" version="1.1" viewBox="-10 0 586 1000">
   <path fill="currentColor"
d="M542 559q0 -85 -49.5 -151.5t-127.5 -91.5l5 -143q0 -39 38 -39q18 0 28.5 11.5t10.5 27.5q0 11 -3 20.5t-9 13.5q16 0 27 -13.5t11 -36.5q0 -26 -18.5 -46t-58.5 -20t-60 18t-20 43v14q-3 59 -3.5 84.5t-0.5 55.5q-8 -1 -24 -1q-17 0 -25 1q0 -31 -1.5 -65.5t-2.5 -65.5
q-1 -16 -1 -18q0 -28 -21 -47t-61 -19q-39 0 -58.5 19.5t-19.5 46.5q0 20 12 35t27 15q-6 -4 -8.5 -14t-2.5 -20q0 -17 10 -28t28 -11q17 0 27.5 13t10.5 32l5 139q-77 26 -125 92t-48 149q0 52 19.5 98t55 81t81.5 54.5t98 19.5t98 -19.5t81.5 -54.5t55 -81t19.5 -98z
M462 641q0 28 -11 53t-30 43.5t-42 28.5t-47 10q-35 -1 -73.5 -27.5t-70.5 -70t-51.5 -96.5t-19.5 -105q0 -26 10.5 -51t28 -44t39 -30.5t43.5 -12.5q40 0 80 28t73 74t52 99.5t19 100.5z" />
</svg>
