<?xml version="1.0" standalone="no"?>
<!DOCTYPE svg PUBLIC "-//W3C//DTD SVG 1.1//EN" "http://www.w3.org/Graphics/SVG/1.1/DTD/svg11.dtd" >
<svg xmlns="http://www.w3.org/2000/svg" xmlns:xlink="http://www.w3.org/1999/xlink" version="1.1" viewBox="-10 0 1061 1000">
   <path fill="currentColor"
d="M1000 467q-11 68 -80 70q-65 3 -93 -71h-319l179 271l90 57l-106 29l-104 -29q21 -20 44 -47l-152 -244q-86 103 -201 247q-2 4 -2 7q0 8 15 19q19 13 23 18l-82 31l-74 -31q4 -3 60 -37q37 -22 57 -49q10 -12 103 -120q87 -99 87 -103q0 -8 -13 -19h-212q-37 0 -49 4
q-7 2 -47 23q-71 42 -73 34l23 -88l90 -62q-1 9 -1 16q0 53 73 53h185l-12 -18l-202 -295l88 -45q63 46 82 46q-3 10 -20.5 30t-17.5 28q0 1 148 239q19 -19 105 -128q80 -101 97 -126q5 -7 -26 -43l76 -40l78 40q-75 16 -168 131q-68 91 -135 181h304h31q17 34 22 41
q16 22 36 22q60 0 67 -64h23q5 11 3 22z" />
</svg>
