<?xml version="1.0" standalone="no"?>
<!DOCTYPE svg PUBLIC "-//W3C//DTD SVG 1.1//EN" "http://www.w3.org/Graphics/SVG/1.1/DTD/svg11.dtd" >
<svg xmlns="http://www.w3.org/2000/svg" xmlns:xlink="http://www.w3.org/1999/xlink" version="1.1" viewBox="-10 0 821 1000">
   <path fill="currentColor"
d="M783 179q0 -36 -23 -63t-73 -27q-59 0 -89.5 36t-30.5 90q0 40 6 86.5t19 120.5q11 69 17 113.5t6 80.5q0 56 -51 85.5t-156 29.5q-206 0 -206 -115q0 -36 6 -80t17 -114q13 -74 19 -120.5t6 -86.5q0 -54 -31 -90t-89 -36q-50 0 -73.5 27t-23.5 63q0 31 18.5 52t49.5 23
q-13 -17 -18 -30t-5 -34q0 -20 11.5 -34.5t30.5 -14.5q36 0 59 18.5t23 56.5q0 37 -9.5 81.5t-28.5 116.5q-20 78 -30.5 128t-10.5 93q0 48 25 82.5t66.5 55t91.5 30t103 9.5q52 0 102 -9.5t91.5 -30t66.5 -55t25 -82.5q0 -43 -10.5 -93.5t-31.5 -127.5
q-19 -73 -28.5 -117.5t-9.5 -80.5q0 -38 23.5 -56.5t58.5 -18.5q20 0 31 14.5t12 34.5q0 20 -5 33t-18 31q31 -2 49 -23t18 -52z" />
</svg>
