<?xml version="1.0" standalone="no"?>
<!DOCTYPE svg PUBLIC "-//W3C//DTD SVG 1.1//EN" "http://www.w3.org/Graphics/SVG/1.1/DTD/svg11.dtd" >
<svg xmlns="http://www.w3.org/2000/svg" xmlns:xlink="http://www.w3.org/1999/xlink" version="1.1" viewBox="-10 0 1088 1000">
   <path fill="currentColor"
d="M747 309q0 26 -26 26q-25 0 -25 -26t25 -26q26 0 26 26zM595 215q0 9 -8.5 18t-18.5 9q-21 0 -21 -24q0 -7 7.5 -17t15.5 -10q7 0 16 8.5t9 15.5zM804 447q0 20 -29 20q-22 0 -22 -22q0 -8 6.5 -17t14.5 -9q13 0 21.5 9.5t8.5 18.5zM602 317q0 12 -13.5 19.5t-22.5 7.5
q-8 0 -14.5 -8.5t-6.5 -16.5q0 -10 7 -19t16 -9q11 0 22.5 7t11.5 19zM590 425q0 11 -11 18t-18 7q-8 0 -16.5 -8.5t-8.5 -17.5q0 -12 10 -19.5t18 -7.5q26 0 26 28zM708 543q0 28 -31 28q-9 0 -16 -11t-7 -18q0 -8 9.5 -16t20.5 -8q9 0 16.5 9t7.5 16zM474 311q0 27 -28 27
q-27 0 -27 -27q0 -28 27 -28q28 0 28 28zM820 669q0 25 -24 25q-25 0 -25 -25q0 -24 25 -24q24 0 24 24zM1025 565q0 13 -33 30q-29 14 -38 14q-39 0 -58 -39q-14 -29 -18 -79q-1 -29 -2 -59q-4 -42 -20 -132q-7 -29 -39 -76q-28 -42 -43 -54q-51 -39 -100 -56
q-31 -10 -84 -16q-20 -2 -39 -2q-159 0 -256 144q-81 119 -100 298l-16 145q0 35 30 73q18 20 37 40q-7 6 -107 29l-86 -26q13 -11 23 -20q23 -24 25 -37q13 -105 26 -209q21 -138 61 -230q65 -145 164 -205q91 -55 236 -51q77 2 165 58q78 49 103 95q21 37 27 52
q16 36 24 80q19 104 19 108q11 52 28 90q8 21 71 35zM584 579q0 12 -13.5 19.5t-21.5 7.5q-9 0 -15.5 -8.5t-6.5 -17.5q0 -10 7.5 -19t15.5 -9q11 0 22.5 7t11.5 20zM399 440q0 28 -28 28q-27 0 -27 -28q0 -27 27 -27q28 0 28 27zM474 547q0 13 -15 21q-11 6 -20 6
q-8 0 -14.5 -8.5t-6.5 -16.5q0 -10 7 -19t15 -9q12 0 23 7t11 19zM592 701q0 26 -26 26t-26 -26t26 -26t26 26zM447 683q0 12 -13.5 19.5t-21.5 7.5q-9 0 -15 -8.5t-6 -17.5q0 -10 7 -19t15 -9q11 0 22.5 7t11.5 20zM295 534q0 12 -15 21q-11 6 -20 6q-8 0 -14.5 -8.5
t-6.5 -16.5q0 -10 7 -19t15 -9q12 0 23 7t11 19zM338 655q0 27 -27 27t-27 -27t27 -27t27 27z" />
</svg>
