<?xml version="1.0" standalone="no"?>
<!DOCTYPE svg PUBLIC "-//W3C//DTD SVG 1.1//EN" "http://www.w3.org/Graphics/SVG/1.1/DTD/svg11.dtd" >
<svg xmlns="http://www.w3.org/2000/svg" xmlns:xlink="http://www.w3.org/1999/xlink" version="1.1" viewBox="-10 0 776 1000">
   <path fill="currentColor"
d="M718 798h-669v-669h669v669zM683 420v-230l-116 115zM651 167h-221l110 111zM514 305l-110 -110v220zM655 446l-115 -114l-114 114h229zM364 417v-224l-113 112zM335 167h-221l110 111zM682 739v-228l-115 114zM654 484h-227l113 114zM198 305l-113 -113v226zM339 446
l-115 -114l-114 114h229zM514 625l-111 -111v222zM652 763l-112 -111l-111 111h223zM338 484h-227l113 114zM363 736v-222l-112 111zM336 763l-112 -111l-111 111h223zM198 625l-114 -114v228z" />
</svg>
