<?xml version="1.0" standalone="no"?>
<!DOCTYPE svg PUBLIC "-//W3C//DTD SVG 1.1//EN" "http://www.w3.org/Graphics/SVG/1.1/DTD/svg11.dtd" >
<svg xmlns="http://www.w3.org/2000/svg" xmlns:xlink="http://www.w3.org/1999/xlink" version="1.1" viewBox="-10 0 1314 2048">
   <path fill="currentColor"
d="M1051 705q-45 0 -83.5 -17.5t-66.5 -47t-44 -68.5q-2 -5 -5 -11h-220v182q84 13 157 53.5t127.5 101.5t86 138.5t31.5 163.5q0 95 -38 179t-102.5 147t-150 99.5t-180.5 36.5t-180.5 -36.5t-149.5 -99.5t-101.5 -147t-37.5 -179q0 -87 31.5 -165t86.5 -139t129 -101
t158 -52v-182h-224v-134h224v-223h133v223h218q3 -10 7 -19q17 -38 45.5 -65.5t67 -43.5t81.5 -16t81.5 16.5t68 45t46.5 66.5t17 80q0 46 -17 85t-46.5 67.5t-68 45t-81.5 16.5zM234 1200q0 72 25.5 133t70 106t104.5 70t129 25t129.5 -25t105 -70t70.5 -106t26 -133
t-26 -133t-70.5 -106t-105 -70t-129.5 -25t-129 25t-104.5 70t-70 106t-25.5 133zM1052 380q-24 0 -44.5 8.5t-35 23.5t-23 35.5t-8.5 43.5t8.5 44t23.5 37t35 25t43 9q24 0 44.5 -9t36 -25t24 -37t8.5 -44t-8.5 -43.5t-23.5 -35.5t-35.5 -23.5t-44.5 -8.5z" />
</svg>
