<?xml version="1.0" standalone="no"?>
<!DOCTYPE svg PUBLIC "-//W3C//DTD SVG 1.1//EN" "http://www.w3.org/Graphics/SVG/1.1/DTD/svg11.dtd" >
<svg xmlns="http://www.w3.org/2000/svg" xmlns:xlink="http://www.w3.org/1999/xlink" version="1.1" viewBox="-10 0 1608 2048">
   <path fill="currentColor"
d="M1466 583q0 45 -17 84.5t-46.5 69t-69 46.5t-84.5 17t-85 -17t-69.5 -46.5t-46.5 -69.5q-2 -4 -4 -9v3h-282v211q194 33 325 184t131 354q0 225 -160 385t-386 160q-225 0 -386 -160.5t-161 -384.5q0 -199 131.5 -352.5t325.5 -186.5v-210h-283v-157h283v-269h180v269
h282v4q2 -5 4 -9q17 -40 46.5 -70t69.5 -47t85 -17t84.5 17t69 47t46.5 69.5t17 84.5zM672 1776q151 0 258 -107t107 -259q0 -150 -107.5 -258t-257.5 -108q-162 0 -270 121q-96 105 -96 245q0 141 96 246q108 120 270 120zM1369 583q0 -26 -9.5 -48t-25.5 -39t-38 -26.5
t-47 -9.5q-26 0 -48.5 9.5t-38.5 26.5t-25.5 39t-9.5 48q0 25 9.5 47t25.5 38.5t38.5 26t48.5 9.5q25 0 47 -9.5t38 -26t25.5 -38.5t9.5 -47z" />
</svg>
