<?xml version="1.0" standalone="no"?>
<!DOCTYPE svg PUBLIC "-//W3C//DTD SVG 1.1//EN" "http://www.w3.org/Graphics/SVG/1.1/DTD/svg11.dtd" >
<svg xmlns="http://www.w3.org/2000/svg" xmlns:xlink="http://www.w3.org/1999/xlink" version="1.1" viewBox="-10 0 2040 2048">
   <path fill="currentColor"
d="M1223 361q0 42 -16 78t-43 64q-25 26 -59 41h3v872h374q-52 -79 -94 -162q-35 -70 -57 -135t-36 -129q-20 -92 -20 -179q0 -110 32 -195q25 -68 72 -117q39 -41 95 -66q48 -19 99 -19q27 0 59 6t64 16q19 6 40 14.5t50 22.5q52 25 77 49q-30 -12 -53 -16t-50 -4
q-57 0 -115 24q-57 28 -95 68q-48 53 -65.5 120.5t-17.5 133.5q0 168 86 346q51 108 133 197q36 39 107 105l70 63h-755v437h-171v-437h-755l70 -63q71 -66 107 -105q82 -89 133 -197q86 -178 86 -346q0 -66 -17.5 -133.5t-65.5 -120.5q-38 -40 -95 -68q-58 -24 -115 -24
q-27 0 -50 4t-53 16q25 -24 77 -49q29 -14 50 -22.5t40 -14.5q32 -10 64 -16t59 -6q51 0 99 19q56 25 95 66q47 49 72 117q32 85 32 195q0 87 -20 179q-14 64 -36 129t-57 135q-42 83 -94 162h374v-872h3q-34 -15 -60 -41q-26 -28 -42 -64t-16 -78q0 -41 16 -77.5t43 -63.5
t64 -42.5t78 -15.5t77.5 15.5t63.5 42.5t43 63.5t16 77.5zM1133 361q0 -23 -8.5 -43t-23.5 -35t-35 -24t-43 -9q-24 0 -44.5 9t-35.5 24t-23.5 35t-8.5 43q0 24 8.5 44.5t23.5 36t35.5 24.5t44.5 9q23 0 43 -9t35 -24.5t23.5 -36t8.5 -44.5z" />
</svg>
