<?xml version="1.0" standalone="no"?>
<!DOCTYPE svg PUBLIC "-//W3C//DTD SVG 1.1//EN" "http://www.w3.org/Graphics/SVG/1.1/DTD/svg11.dtd" >
<svg xmlns="http://www.w3.org/2000/svg" xmlns:xlink="http://www.w3.org/1999/xlink" version="1.1" viewBox="-10 0 2078 2048">
   <path fill="currentColor"
d="M310 1252h643v-792h162v792h643l-167 -165q-61 -60 -127 -122t-121.5 -131t-91.5 -148.5t-36 -174.5q0 -89 27 -157t78 -113.5t123.5 -69t163.5 -23.5q56 0 105 8t94 24.5t87.5 41t84.5 57.5v172q-44 -41 -86 -71.5t-84 -51t-86 -31t-92 -10.5q-131 0 -192 58t-61 182
q0 73 28 134t74 116.5t104 109.5t118 114l277 277v107h-863v253h-162v-253h-863v-107l277 -277q60 -60 118 -114t104 -109.5t74 -116.5t28 -134q0 -124 -61 -182t-192 -58q-48 0 -92 10.5t-86 31t-84 51t-86 71.5v-172q42 -33 84.5 -57.5t87.5 -41t94 -24.5t105 -8
q91 0 163.5 23.5t123.5 69t78 113.5t27 157q0 95 -36 174.5t-91.5 148.5t-121.5 131t-127 122zM1033 449q-45 0 -83.5 -17.5t-66.5 -47t-44 -68.5t-16 -81q0 -45 16.5 -83t45 -65.5t67 -43.5t81.5 -16t81.5 16.5t68 45t46.5 66.5t17 80q0 46 -17 85t-46.5 67.5t-68 45
t-81.5 16.5zM1034 124q-24 0 -44.5 8.5t-35 23.5t-23 35.5t-8.5 43.5t8.5 44t23.5 37t35 25t43 9q24 0 44.5 -9t36 -25t24 -37t8.5 -44t-8.5 -43.5t-23.5 -35.5t-35.5 -23.5t-44.5 -8.5z" />
</svg>
