<?xml version="1.0" standalone="no"?>
<!DOCTYPE svg PUBLIC "-//W3C//DTD SVG 1.1//EN" "http://www.w3.org/Graphics/SVG/1.1/DTD/svg11.dtd" >
<svg xmlns="http://www.w3.org/2000/svg" xmlns:xlink="http://www.w3.org/1999/xlink" version="1.1" viewBox="-10 0 1812 2048">
   <path fill="currentColor"
d="M1044 1766h-282v269h-180v-269h-283v-157h283v-210q-194 -33 -325.5 -186.5t-131.5 -352.5q0 -224 161 -384.5t386 -160.5q226 0 386 160t160 385q0 203 -131 354t-325 184v211h282v3v154zM672 494q-162 0 -270 120q-96 105 -96 246q0 140 96 245q108 121 270 121
q150 0 257.5 -108t107.5 -258q0 -152 -107 -259t-258 -107zM1678 1688q0 68 -26 127t-70.5 103.5t-104 70.5t-126.5 26q-68 0 -127 -26t-103.5 -70.5t-70.5 -103.5t-26 -127q0 -67 26 -126.5t70.5 -103.5t103.5 -70t127 -26q67 0 126.5 26t104 70t70.5 103.5t26 126.5z
M1532 1688q0 -38 -14.5 -71t-39 -57.5t-57 -38.5t-70.5 -14q-40 0 -72.5 14t-57 38.5t-39 57.5t-14.5 71q0 39 14.5 72t39 59t57 40t72.5 14q38 0 70.5 -14t57 -40t39 -59t14.5 -72z" />
</svg>
