<?xml version="1.0" standalone="no"?>
<!DOCTYPE svg PUBLIC "-//W3C//DTD SVG 1.1//EN" "http://www.w3.org/Graphics/SVG/1.1/DTD/svg11.dtd" >
<svg xmlns="http://www.w3.org/2000/svg" xmlns:xlink="http://www.w3.org/1999/xlink" version="1.1" viewBox="-10 0 2053 2048">
   <path fill="currentColor"
d="M346 1768h189v-128q-140 -17 -234 -132q-85 -103 -85 -236q0 -148 103 -256q98 -102 235 -113q20 -3 42 -3q119 0 210 67l250 -250q-43 -33 -92 -53t-104 -26l519 -161l-157 522q-6 -58 -30 -113q-19 -42 -49 -82l-250 249q69 93 69 213q0 72 -25 132q-26 75 -88 137
q-84 83 -193 103v130h189v106h-189v180h-121v-180h-189v-106zM515 1032q-57 21 -100 69q-64 71 -64 165q0 95 64 164q73 82 181 82q100 0 172 -73q27 -27 43 -57l2 -3q24 -50 24 -107q0 -101 -74 -175t-175 -74q-37 0 -69 8q-2 1 -4 1zM1693 335q0 38 -14 70.5t-38.5 57.5
t-57 39t-70.5 14q-36 0 -69.5 -14t-58 -39t-38.5 -57.5t-14 -70.5q0 -37 14 -69.5t38.5 -57t58 -38.5t69.5 -14q38 0 70.5 14t57 38.5t38.5 57t14 69.5zM1613 335q0 -20 -8 -38.5t-21.5 -32t-31 -21.5t-39.5 -8q-21 0 -39.5 8t-32 21.5t-21.5 32t-8 38.5q0 22 8 40t21.5 32
t32 22t39.5 8q22 0 39.5 -8t31 -22t21.5 -32t8 -40z" />
</svg>
