<?xml version="1.0" standalone="no"?>
<!DOCTYPE svg PUBLIC "-//W3C//DTD SVG 1.1//EN" "http://www.w3.org/Graphics/SVG/1.1/DTD/svg11.dtd" >
<svg xmlns="http://www.w3.org/2000/svg" xmlns:xlink="http://www.w3.org/1999/xlink" version="1.1" viewBox="-10 0 1728 2048">
   <path fill="currentColor"
d="M123 810q61 -59 147.5 -83.5t179.5 -22.5t173.5 27.5t131.5 68.5l125 136q43 63 68.5 149t28.5 180t-24.5 184.5t-87.5 159.5l-85 -20q51 -63 76.5 -145.5t23.5 -173.5t-35 -176.5t-88 -147.5q-61 -65 -141.5 -100.5t-166 -41.5t-163 17t-128.5 74zM1290 1018v-439
l-408 361l-66 -81l413 -370h-402l795 -275zM749 1287q0 71 -28 135t-75 112t-110 76t-137 28q-71 0 -136 -28t-112 -76t-75 -112t-28 -135q0 -74 28 -137t75 -110t112 -75t136 -28q74 0 137 28t110 75t75 110t28 137zM593 1287q0 -41 -16 -76t-41.5 -61.5t-60.5 -42
t-76 -15.5q-42 0 -78 15.5t-61.5 42t-41 61.5t-15.5 76q0 42 15.5 77t41 62t61.5 42.5t78 15.5q41 0 76 -15.5t60.5 -42.5t41.5 -62t16 -77z" />
</svg>
