<?xml version="1.0" standalone="no"?>
<!DOCTYPE svg PUBLIC "-//W3C//DTD SVG 1.1//EN" "http://www.w3.org/Graphics/SVG/1.1/DTD/svg11.dtd" >
<svg xmlns="http://www.w3.org/2000/svg" xmlns:xlink="http://www.w3.org/1999/xlink" version="1.1" viewBox="-10 0 1995 2048">
   <path fill="currentColor"
d="M1895 400q0 73 -49.5 123t-122.5 50t-123 -50t-50 -123q0 -72 50.5 -122.5t122.5 -50.5t122 50.5t50 122.5zM1519 357l-229 439l-2 -198l-277 231q92 131 92 289q0 209 -149.5 357.5t-356.5 148.5q-210 0 -358.5 -149t-148.5 -357q0 -153 85 -280t225 -187
q91 -39 197 -39q220 0 371 162l274 -229l-195 -38zM1824 400q0 -41 -30 -71t-71 -30t-71 30t-30 71q0 42 29.5 72t71.5 30t71.5 -30t29.5 -72zM972 1118q0 -154 -111 -264.5t-264 -110.5q-112 0 -206.5 63t-139.5 166q-29 67 -29 146q0 156 110.5 265t264.5 109
q155 0 265 -110.5t110 -263.5z" />
</svg>
