<?xml version="1.0" standalone="no"?>
<!DOCTYPE svg PUBLIC "-//W3C//DTD SVG 1.1//EN" "http://www.w3.org/Graphics/SVG/1.1/DTD/svg11.dtd" >
<svg xmlns="http://www.w3.org/2000/svg" xmlns:xlink="http://www.w3.org/1999/xlink" version="1.1" viewBox="-10 0 1735 2048">
   <path fill="currentColor"
d="M1665 173q0 72 -51 122.5t-122 50.5q-72 0 -123 -50.5t-51 -122.5q0 -73 50.5 -123t123.5 -50q72 0 122.5 50.5t50.5 122.5zM1258 117l-229 440l-2 -198l-210 174q41 79 41 174q0 137 -84.5 242t-218.5 133v201h193v96h-193v227h-163v-227h-192v-96h192v-201
q-132 -26 -217 -132.5t-85 -242.5q0 -161 111.5 -272.5t272.5 -111.5q189 0 305 151l201 -170l-194 -37zM1593 173q0 -42 -29.5 -71.5t-71.5 -29.5q-43 0 -72.5 29t-29.5 72q0 42 30 71t72 29t71.5 -29t29.5 -71zM728 707q0 -107 -73.5 -181t-180.5 -74t-180.5 74t-73.5 181
t73.5 180.5t180.5 73.5t180.5 -73.5t73.5 -180.5z" />
</svg>
