<?xml version="1.0" standalone="no"?>
<!DOCTYPE svg PUBLIC "-//W3C//DTD SVG 1.1//EN" "http://www.w3.org/Graphics/SVG/1.1/DTD/svg11.dtd" >
<svg xmlns="http://www.w3.org/2000/svg" xmlns:xlink="http://www.w3.org/1999/xlink" version="1.1" viewBox="-10 0 1760 2048">
   <path fill="currentColor"
d="M1660 173l-260 651l-43 -303l-452 404q103 148 103 328q0 218 -141 379l-114 -62q128 -132 128 -317q0 -188 -133 -321.5t-321 -133.5q-152 0 -276 94l-61 -111q151 -109 337 -109q233 0 400 160l451 -399l-291 -74zM730 1247q0 126 -87 212.5t-213 86.5t-212 -86.5
t-86 -212.5t86 -212.5t212 -86.5t213 86.5t87 212.5zM614 1247q0 -78 -53 -130.5t-131 -52.5q-77 0 -130 53t-53 130q0 78 52.5 131t130.5 53t131 -53t53 -131z" />
</svg>
