<?xml version="1.0" standalone="no"?>
<!DOCTYPE svg PUBLIC "-//W3C//DTD SVG 1.1//EN" "http://www.w3.org/Graphics/SVG/1.1/DTD/svg11.dtd" >
<svg xmlns="http://www.w3.org/2000/svg" xmlns:xlink="http://www.w3.org/1999/xlink" version="1.1" viewBox="-10 0 2103 2048">
   <path fill="currentColor"
d="M961 1586q0 185 -132.5 317t-316.5 132q-212 0 -346 -164q-103 -124 -103 -285q0 -178 125 -309q132 -139 324 -139q137 0 262 82l304 -304q-52 -40 -111 -64t-126 -32l627 -195l-190 632q-7 -70 -36 -137q-23 -51 -60 -99l-304 304q83 128 83 261zM813 1586
q0 -122 -89 -211.5t-212 -89.5q-124 0 -212.5 89t-88.5 212q0 116 78 202q89 99 223 99q124 0 212.5 -89t88.5 -212zM1997 444q0 68 -26 127t-70.5 103.5t-104 70.5t-126.5 26q-68 0 -127 -26t-103.5 -70.5t-70.5 -103.5t-26 -127q0 -67 26 -126.5t70.5 -103.5t103.5 -70
t127 -26q67 0 126.5 26t104 70t70.5 103.5t26 126.5zM1851 444q0 -38 -14.5 -71t-39 -57.5t-57 -38.5t-70.5 -14q-40 0 -72.5 14t-57 38.5t-39 57.5t-14.5 71q0 39 14.5 72t39 59t57 40t72.5 14q38 0 70.5 -14t57 -40t39 -59t14.5 -72z" />
</svg>
