<?xml version="1.0" standalone="no"?>
<!DOCTYPE svg PUBLIC "-//W3C//DTD SVG 1.1//EN" "http://www.w3.org/Graphics/SVG/1.1/DTD/svg11.dtd" >
<svg xmlns="http://www.w3.org/2000/svg" xmlns:xlink="http://www.w3.org/1999/xlink" version="1.1" viewBox="-10 0 1656 2048">
   <path fill="currentColor"
d="M1478 517q0 45 -17 84.5t-46.5 69.5t-69 47t-84.5 17t-85 -17t-69.5 -47t-46.5 -69l-6 -14h-451v336q98 -80 245 -80q129 0 216 53.5t139 128.5q57 85 82 184.5t25 169.5q6 95 -23.5 187.5t-38.5 115.5t-27 66q-8 34 -37 163q-13 105 -111 134q-35 -16 -54 -87
q-13 -43 11.5 -114t28.5 -80t30 -76l46 -148q20 -78 20 -153q0 -55 -16 -124.5t-51 -126.5t-91 -98t-138 -41q-198 0 -256 134v506h-154v-1050h-254v-143h254v-271h154v271h452q2 -6 5 -12q17 -40 46.5 -69.5t69.5 -46.5t85 -17t84.5 17t69 46.5t46.5 69t17 84.5zM1381 517
q0 -25 -9.5 -47t-25.5 -38.5t-38 -26t-47 -9.5q-26 0 -48.5 9.5t-38.5 26t-25.5 38.5t-9.5 47q0 26 9.5 48t25.5 39t38.5 26.5t48.5 9.5q25 0 47 -9.5t38 -26.5t25.5 -39t9.5 -48z" />
</svg>
