<?xml version="1.0" standalone="no"?>
<!DOCTYPE svg PUBLIC "-//W3C//DTD SVG 1.1//EN" "http://www.w3.org/Graphics/SVG/1.1/DTD/svg11.dtd" >
<svg xmlns="http://www.w3.org/2000/svg" xmlns:xlink="http://www.w3.org/1999/xlink" version="1.1" viewBox="-10 0 1307 2048">
   <path fill="currentColor"
d="M1207 507q0 76 -52 128t-128 52q-61 0 -109.5 -37t-64.5 -96h-408v356q87 -166 245 -166q132 0 203 90q64 81 64 217q0 339 -438 555h-238q241 -132 340 -217q184 -157 184 -338q0 -169 -158 -169q-145 0 -202 187h-162v-515h-193v-96h193v-137h162v137h408
q16 -59 64.5 -95.5t109.5 -36.5q76 0 128 52.5t52 128.5zM1128 507q0 -41 -30 -71t-71 -30q-42 0 -71 29.5t-29 71.5t29 71t71 29t71.5 -29t29.5 -71z" />
</svg>
