<?xml version="1.0" standalone="no"?>
<!DOCTYPE svg PUBLIC "-//W3C//DTD SVG 1.1//EN" "http://www.w3.org/Graphics/SVG/1.1/DTD/svg11.dtd" >
<svg xmlns="http://www.w3.org/2000/svg" xmlns:xlink="http://www.w3.org/1999/xlink" version="1.1" viewBox="-10 0 1617 2048">
   <path fill="currentColor"
d="M1517 1334q0 120 -83 203t-203 83q-119 0 -203 -83.5t-84 -202.5q0 -151 130 -240l-271 -594l-270 594q131 89 131 240q0 118 -84.5 202t-202.5 84q-119 0 -203 -83.5t-84 -202.5q0 -120 83.5 -203.5t203.5 -83.5h10l343 -728h147l343 728h11q120 0 203 83.5t83 203.5z
M1395 1334q0 -69 -47.5 -116.5t-116.5 -47.5t-116.5 47.5t-47.5 116.5q0 68 48 116t116 48t116 -48t48 -116zM540 1334q0 -70 -46.5 -117t-116.5 -47t-117 47t-47 117q0 69 47.5 116.5t116.5 47.5t116 -47.5t47 -116.5z" />
</svg>
