<?xml version="1.0" standalone="no"?>
<!DOCTYPE svg PUBLIC "-//W3C//DTD SVG 1.1//EN" "http://www.w3.org/Graphics/SVG/1.1/DTD/svg11.dtd" >
<svg xmlns="http://www.w3.org/2000/svg" xmlns:xlink="http://www.w3.org/1999/xlink" version="1.1" viewBox="-10 0 1012 1000">
   <path fill="currentColor"
d="M991 682q0 48 -34 82t-82 34q-42 0 -74 -27t-40 -67h-511q-8 40 -40 66.5t-73 26.5q-48 0 -82 -34t-34 -82t34 -82t82 -34q42 0 74 27.5t40 68.5h222v-347l-101 99l-30 -30l118 -121l-128 -128l29 -32l112 113v-119h39v117l112 -111l27 28l-133 133l115 116l-27 28
l-94 -92v346h249q8 -41 40 -67.5t74 -26.5q48 0 82 33.5t34 81.5zM957 682q0 -34 -24.5 -58.5t-58.5 -24.5q-35 0 -59.5 24.5t-24.5 58.5q0 35 24.5 59.5t59.5 24.5q34 0 58.5 -24.5t24.5 -59.5zM220 682q0 -34 -24.5 -58.5t-58.5 -24.5q-35 0 -59.5 24.5t-24.5 58.5
q0 35 24.5 59.5t59.5 24.5q34 0 58.5 -24.5t24.5 -59.5z" />
</svg>
