<?xml version="1.0" standalone="no"?>
<!DOCTYPE svg PUBLIC "-//W3C//DTD SVG 1.1//EN" "http://www.w3.org/Graphics/SVG/1.1/DTD/svg11.dtd" >
<svg xmlns="http://www.w3.org/2000/svg" xmlns:xlink="http://www.w3.org/1999/xlink" version="1.1" viewBox="-10 0 1835 2048">
   <path fill="currentColor"
d="M118 1211q19 -45 49.5 -81.5t68 -62t81 -39.5t90.5 -14q40 0 79 10q53 -116 126 -223.5t170 -209.5q14 -14 26.5 -27t26.5 -26q-164 -133 -352 -210.5t-393 -107.5l83 -80q204 24 388 104.5t352 223.5q167 -143 351 -223.5t388 -104.5l83 80q-207 30 -393.5 107
t-350.5 211q14 13 26 26t26 27q97 102 170 209.5t126 223.5q39 -10 79 -10q47 0 90.5 14t81 39.5t67.5 62t50 81.5q14 32 21 65.5t7 66.5q0 91 -49 169t-144 120q-65 27 -128 27q-47 0 -91 -13.5t-81.5 -39t-68 -62t-49.5 -81.5q-28 -65 -28 -134q0 -78 37 -148t109 -116
q-98 -216 -273 -403q-27 -29 -56 -56l-57 56q-175 187 -273 403q72 46 109 116t37 148q0 69 -28 134q-20 45 -50 81.5t-67.5 62t-81.5 39t-91 13.5q-64 0 -128 -27q-95 -42 -144 -120t-49 -169q0 -33 7 -66.5t21 -65.5zM1498 1531q60 -26 95 -77t35 -113q0 -46 -19 -88
q-27 -63 -79 -96t-112 -33q-45 0 -87 18q-60 26 -94.5 77t-34.5 114q0 46 19 88q27 63 79 95.5t112 32.5q44 0 86 -18zM327 1531q42 18 86 18q60 0 112 -32.5t79 -95.5q19 -42 19 -88q0 -63 -34.5 -114t-94.5 -77q-42 -18 -87 -18q-60 0 -112 33t-79 96q-19 42 -19 88
q0 62 35 113t95 77z" />
</svg>
