<?xml version="1.0" standalone="no"?>
<!DOCTYPE svg PUBLIC "-//W3C//DTD SVG 1.1//EN" "http://www.w3.org/Graphics/SVG/1.1/DTD/svg11.dtd" >
<svg xmlns="http://www.w3.org/2000/svg" xmlns:xlink="http://www.w3.org/1999/xlink" version="1.1" viewBox="-10 0 2181 2048">
   <path fill="currentColor"
d="M2049 1466q0 68 -26 127t-70.5 103.5t-104 70.5t-126.5 26q-68 0 -127 -26t-103.5 -70.5t-70.5 -103.5q-11 -25 -18 -52h-288v475h-185v-475h-821q22 -20 76 -69q77 -71 116 -114q89 -97 145 -214q93 -194 93 -376q0 -72 -19 -145.5t-71 -130.5q-41 -44 -103 -74
q-63 -26 -125 -26q-30 0 -54.5 4t-57.5 18q27 -27 84 -54q31 -15 54 -24t43 -16q35 -11 70 -17.5t64 -6.5q56 0 108 21q61 27 103 72q51 53 78 127q35 92 35 212q0 94 -22 194q-15 70 -39 140.5t-62 146.5q-45 90 -102 176h407v-281l185 -186v467h290q6 -23 16 -45
q26 -60 70.5 -104t103.5 -70t127 -26q67 0 126.5 26t104 70t70.5 103.5t26 126.5zM1903 1466q0 -38 -14.5 -71t-39 -57.5t-57 -38.5t-70.5 -14q-40 0 -72.5 14t-57 38.5t-39 57.5t-14.5 71q0 39 14.5 72t39 59t57 40t72.5 14q38 0 70.5 -14t57 -40t39 -59t14.5 -72z" />
</svg>
