<?xml version="1.0" standalone="no"?>
<!DOCTYPE svg PUBLIC "-//W3C//DTD SVG 1.1//EN" "http://www.w3.org/Graphics/SVG/1.1/DTD/svg11.dtd" >
<svg xmlns="http://www.w3.org/2000/svg" xmlns:xlink="http://www.w3.org/1999/xlink" version="1.1" viewBox="-10 0 1570 2048">
   <path fill="currentColor"
d="M40 1638v-134h137l309 -500q-40 -32 -72.5 -72.5t-55.5 -86.5t-35.5 -97t-12.5 -104q0 -96 39 -179.5t104 -145t150 -97t177 -35.5q96 0 181 35.5t149 97t101.5 143.5t37.5 176q0 53 -12.5 105.5t-35.5 100.5t-55.5 90t-71.5 73l309 496h137v134h-430v-134h135l-266 -429
q-87 35 -179 35q-94 0 -180 -37l-265 431h135v134h-430zM1110 642q0 -72 -28 -132t-74.5 -103.5t-106.5 -68t-125 -24.5q-72 0 -132.5 29t-103.5 77t-67 109.5t-24 126.5q0 70 27.5 130t73.5 103.5t106 68.5t124 25q72 0 133 -29t104.5 -76.5t68 -109t24.5 -126.5z" />
</svg>
