<?xml version="1.0" standalone="no"?>
<!DOCTYPE svg PUBLIC "-//W3C//DTD SVG 1.1//EN" "http://www.w3.org/Graphics/SVG/1.1/DTD/svg11.dtd" >
<svg xmlns="http://www.w3.org/2000/svg" xmlns:xlink="http://www.w3.org/1999/xlink" version="1.1" viewBox="-10 0 786 1000">
   <path fill="currentColor"
d="M728 592q-1 38 -13 57q-19 28 -71 32q-32 3 -61.5 -30.5t-24.5 -64.5q2 -15 10 -33q6 -14 7 -40q1 -17 -48 -20q-21 -1 -50 0h-4v269l31 33l-51 39l-58 -39l33 -33v-269h-400l401 -403h44v361h16q21 -2 37 -2q50 0 68.5 17t18.5 54q0 29 -9 46t-9 29q0 18 13 32
q16 18 45 20q37 1 44 -10q3 -15 7 -30l-15 -30q-3 1 -12 18.5t-24 17.5q-7 0 -17 -13t-10 -20q0 -13 15.5 -29.5t28.5 -16.5q17 0 37.5 18t20.5 40zM429 451v-307l-306 307h306z" />
</svg>
