<?xml version="1.0" standalone="no"?>
<!DOCTYPE svg PUBLIC "-//W3C//DTD SVG 1.1//EN" "http://www.w3.org/Graphics/SVG/1.1/DTD/svg11.dtd" >
<svg xmlns="http://www.w3.org/2000/svg" xmlns:xlink="http://www.w3.org/1999/xlink" version="1.1" viewBox="-10 0 786 1000">
   <path fill="currentColor"
d="M759 714q0 41 -38 71q-13 10 -28 13t-16 3q-11 8 -44 4q-28 -3 -42.5 -13t-37.5 -39q-36 -45 -49 -90q-13 -42 -13 -109q0 -29 3 -77l-94 53v47l17 21l-42 41l-39 -39l16 -23v-47l-101 -58q1 15 10 95q6 49 6 76q0 83 -61 131q-36 27 -80 27q-57 0 -92 -44
q-19 -24 -19 -50q0 -21 16 -33q12 -10 30 -10q19 0 36.5 11t17.5 28q0 21 -13 31t-22 10t-20.5 -12t-15.5 -14q-4 10 2 18q33 42 86 42q26 0 44 -14q27 -21 27 -112q0 -102 -30 -255l179 89v-157h-45l-34 32l-53 -53l52 -51l41 31h39v-107l-49 -49l74 -48l73 48l-50 49v107
h52l40 -26l49 50l-52 51l-35 -34h-54v157l171 -84q-16 108 -16 195q0 108 28 144t76 36q26 0 45 -15q30 -23 30 -58q0 -12 -6 -20q-11 -7 -18 -7q8 31 8 30q0 11 -10 19t-23 8q-23 0 -40 -17q-5 -12 -5 -24q0 -23 20 -38q17 -14 37 -14q27 0 44.5 23t17.5 50z" />
</svg>
