<?xml version="1.0" standalone="no"?>
<!DOCTYPE svg PUBLIC "-//W3C//DTD SVG 1.1//EN" "http://www.w3.org/Graphics/SVG/1.1/DTD/svg11.dtd" >
<svg xmlns="http://www.w3.org/2000/svg" xmlns:xlink="http://www.w3.org/1999/xlink" version="1.1" viewBox="-10 0 786 1000">
   <path fill="currentColor"
d="M352 807h-39l-41 32l-53 -52l54 -52l34 32h45v-253h-199q46 -172 46 -272q0 -67 -23 -85q-18 -14 -44 -14q-53 0 -86 42q-6 8 -2 18q4 -2 15.5 -14t20.5 -12t22 10t13 31q0 18 -17.5 28.5t-36.5 10.5q-18 0 -30 -9q-16 -13 -16 -34q0 -25 19 -49q35 -45 92 -45
q44 0 80 28q54 42 54 119q0 30 -10 91q-11 79 -14 112h116v-148l-16 -23l39 -39l42 41l-17 21v148h109q-6 -109 -6 -129q0 -110 50 -173q23 -30 37.5 -39.5t42.5 -12.5q34 -4 44 4q11 0 44 16q38 30 38 71q0 28 -17.5 50.5t-44.5 22.5q-20 0 -37 -14q-20 -15 -20 -38
q0 -11 5 -24q17 -16 40 -16q13 0 23 7.5t10 18.5q0 -1 -8 30q7 0 18 -6q6 -8 6 -20q0 -35 -30 -59q-19 -15 -45 -15q-48 0 -76 37q-23 29 -23 104q0 94 31 229h-191v253h54l35 -34l52 48l-49 52l-40 -26h-51h-49zM400 807h-48h48z" />
</svg>
