<?xml version="1.0" standalone="no"?>
<!DOCTYPE svg PUBLIC "-//W3C//DTD SVG 1.1//EN" "http://www.w3.org/Graphics/SVG/1.1/DTD/svg11.dtd" >
<svg xmlns="http://www.w3.org/2000/svg" xmlns:xlink="http://www.w3.org/1999/xlink" version="1.1" viewBox="-10 0 441 1000">
   <path fill="currentColor"
d="M396 604q0 -10 -3 -20l-54 -228q-4 -21 -15.5 -29.5t-33.5 -8.5h-38v-68q21 -9 36.5 -31t15.5 -49q0 -36 -26 -62t-63 -26q-36 0 -62 26t-26 62q0 27 15.5 49.5t36.5 30.5v68h-38q-22 0 -33 8.5t-16 29.5l-54 228l-1 2q-3 11 -3 18q0 22 15 36t36 14h94v108q0 20 -14 28
t-23 10h148q-9 -2 -23.5 -10.5t-14.5 -27.5v-108h93q22 0 36.5 -13.5t14.5 -36.5zM269 170q0 22 -16 38t-38 16t-37.5 -16t-15.5 -38t15.5 -38t37.5 -16t38 16t16 38zM328 473h-76v-129h34q11 0 14 14zM357 614q0 14 -17 14h-88v-130h82l23 95v21zM179 473h-76l27 -115
q3 -14 15 -14h34v129zM179 628h-89q-16 0 -16 -14v-21l23 -95h82v130z" />
</svg>
