<?xml version="1.0" standalone="no"?>
<!DOCTYPE svg PUBLIC "-//W3C//DTD SVG 1.1//EN" "http://www.w3.org/Graphics/SVG/1.1/DTD/svg11.dtd" >
<svg xmlns="http://www.w3.org/2000/svg" xmlns:xlink="http://www.w3.org/1999/xlink" version="1.1" viewBox="-10 0 1238 1000">
   <path fill="currentColor"
d="M1164 425l-35 35l-18 -17h-93v161q30 10 30 41q0 18 -13 31.5t-31 13.5t-31 -13.5t-13 -31.5q0 -32 32 -41v-161h-125q-22 72 -56.5 98.5t-100.5 26.5q-19 0 -45 -2v232h-35v-235q-20 -11 -39 -22q-28 -15 -38 -15q-15 0 -29.5 10.5t-14.5 24.5q0 43 36 43q13 0 21 -7
q-45 -1 -45 -29q0 -30 32 -30q12 0 24.5 15t12.5 28q0 18 -16 30t-34 12q-19 0 -34.5 -20t-15.5 -39t17.5 -38t35.5 -19q1 0 41 14t46 15v-93h-268v167q29 10 29 41q0 18 -13 31t-31 13t-31 -13t-13 -31q0 -32 32 -41v-167h-93q-34 78 -59.5 96t-117.5 30q52 -42 66 -62
q22 -32 22 -88q0 -75 -74 -148q63 3 102 40q29 28 57 93h97v-166q-32 -9 -32 -43q0 -18 13 -31t31 -13t31 13t13 31q0 31 -29 42v167h268v-80q-45 40 -87 40q-26 0 -42 -20t-16 -47q0 -22 14.5 -40t35.5 -18q18 0 31.5 13t13.5 30q0 16 -11 28t-27 12q-26 0 -26 -31
q0 -22 23 -22h5q3 6 16 15l1 -6q0 -20 -24 -20q-14 0 -24.5 10t-10.5 25q0 41 55 41q17 0 45 -14.5t28 -30.5v-152q-24 -11 -24 -37q0 -17 12.5 -29.5t29.5 -12.5q16 0 28.5 12.5t12.5 29.5q0 25 -24 37v149q10 0 29.5 -5t29.5 -5q49 0 89 41q37 36 50 87h129v-172
q-32 -9 -32 -43q0 -18 13 -31t31 -13t31 13t13 31q0 31 -30 42v173h97l14 -14zM820 404q0 -30 -28 -67t-57 -37q-12 0 -70 19v85h155zM827 444q-8 -2 -28 -2l-134 1q4 15 0 99q32 5 44 5q40 0 79 -32t39 -71zM212 433q0 -40 -64 -119q32 67 32 111q0 49 -35 115
q32 -11 49.5 -41t17.5 -66z" />
</svg>
