<?xml version="1.0" standalone="no"?>
<!DOCTYPE svg PUBLIC "-//W3C//DTD SVG 1.1//EN" "http://www.w3.org/Graphics/SVG/1.1/DTD/svg11.dtd" >
<svg xmlns="http://www.w3.org/2000/svg" xmlns:xlink="http://www.w3.org/1999/xlink" version="1.1" viewBox="-10 0 2289 2048">
   <path fill="currentColor"
d="M493 1548q-91 97 -208 97q-51 0 -88 -17t-60.5 -45.5t-35 -65t-11.5 -76.5q0 -19 2.5 -38t7.5 -37q18 -68 50.5 -124t77.5 -95.5t100 -61.5t118 -22q57 0 93 24t50 60h3l18 -67h126l-98 365q-6 24 -6 42q0 52 54 52q26 0 47 -4.5t38 -11.5q-13 -38 -13 -82q0 -39 10 -75
q18 -68 50.5 -124t77.5 -95.5t100 -61.5t118 -22q57 0 93 24t50 60h3l18 -67h126l-98 365q-6 24 -6 42q0 52 54 52q26 0 48 -4.5t39 -12.5q-13 -38 -13 -82q0 -40 10 -74q18 -68 50.5 -124t77.5 -95.5t100 -61.5t118 -22q57 0 93 24t50 60h3l18 -67h126l-98 365q-6 24 -6 42
q0 52 54 52q31 0 62 -16l-28 104q-39 18 -103 18q-57 0 -87 -25t-34 -72h-3q-91 97 -208 97q-44 0 -77 -12.5t-56 -33.5q-29 14 -81.5 30t-123.5 16q-57 0 -87 -25t-34 -72h-3q-91 97 -208 97q-44 0 -76.5 -12t-55.5 -34q-29 14 -81.5 30t-122.5 16q-57 0 -87 -25t-34 -72
h-3zM1199 1374l13 -46q6 -24 6 -48q0 -47 -27 -80.5t-82 -33.5q-29 0 -58 12t-55.5 36.5t-48 61t-34.5 84.5q-5 20 -7.5 37.5t-2.5 32.5q0 57 29 84.5t75 27.5q33 0 63.5 -12.5t56 -34.5t44 -53t28.5 -68zM1869 1374l13 -46q6 -24 6 -48q0 -47 -27 -80.5t-82 -33.5
q-29 0 -58 12t-55.5 36.5t-48 61t-34.5 84.5q-5 20 -7.5 37.5t-2.5 32.5q0 57 29 84.5t75 27.5q33 0 63.5 -12.5t56 -34.5t44 -53t28.5 -68zM531 1374l13 -46q6 -24 6 -48q0 -47 -27 -80.5t-82 -33.5q-29 0 -58 12t-55.5 36.5t-48 61t-34.5 84.5q-5 20 -7.5 37.5t-2.5 32.5
q0 57 29 84.5t75 27.5q33 0 63.5 -12.5t56 -34.5t44 -53t28.5 -68zM2059 704l32 -90h128l-105 299h-128l32 -90h-1689l-32 90h-127l104 -299h128l-32 90h1689z" />
</svg>
