<?xml version="1.0" standalone="no"?>
<!DOCTYPE svg PUBLIC "-//W3C//DTD SVG 1.1//EN" "http://www.w3.org/Graphics/SVG/1.1/DTD/svg11.dtd" >
<svg xmlns="http://www.w3.org/2000/svg" xmlns:xlink="http://www.w3.org/1999/xlink" version="1.1" viewBox="-10 0 514 1000">
   <path fill="currentColor"
d="M475 210q-31 0 -55.5 2t-48.5 11.5t-39.5 30t-15.5 55.5q0 38 -14.5 71.5t-35.5 34.5v-185q19 -8 31 -26.5t12 -40.5q0 -30 -21.5 -51t-51.5 -21t-51 21t-21 51q0 22 12 40.5t31 26.5v184q-19 0 -33.5 -33t-14.5 -72q0 -57 -28 -78.5t-74 -21.5h-14q-9 1 -14 1
q34 10 55.5 42.5t21.5 81.5q0 19 9 38.5t23.5 35.5t32.5 26t36 10v126h-63q-4 -12 -14.5 -19.5t-23.5 -7.5q-16 0 -28 12t-12 28t11.5 27.5t28.5 11.5q27 0 37 -25h64v115q-22 15 -22 42q0 22 15 36.5t36 14.5q22 0 37 -15t15 -36q0 -27 -22 -42v-115h68q4 13 14.5 21
t23.5 8q16 0 28 -12t12 -28t-11.5 -27.5t-28.5 -11.5q-26 0 -36 23h-70v-124q17 -1 36 -11.5t35.5 -27t26.5 -36t10 -37.5q0 -52 29.5 -82.5t71.5 -41.5zM273 163q0 16 -11 27t-26 11q-16 0 -26.5 -11t-10.5 -27t10.5 -26.5t26.5 -10.5q15 0 26 10.5t11 26.5z" />
</svg>
