<?xml version="1.0" standalone="no"?>
<!DOCTYPE svg PUBLIC "-//W3C//DTD SVG 1.1//EN" "http://www.w3.org/Graphics/SVG/1.1/DTD/svg11.dtd" >
<svg xmlns="http://www.w3.org/2000/svg" xmlns:xlink="http://www.w3.org/1999/xlink" version="1.1" viewBox="-10 0 531 1000">
   <path fill="currentColor"
d="M500 163q-43 22 -51 27q-29 17 -44 37q-19 25 -34 83q-16 65 -28 87q-23 42 -72 50v108h55q10 -7 20.5 -13.5t21.5 -6.5q15 0 28 13.5t13 28.5q0 13 -13 27t-26 14q-22 0 -42 -24h-57v115q2 5 14 18q9 9 9 25q0 18 -16 32t-35 14q-18 0 -32 -15.5t-14 -33.5q0 -23 37 -43
l-1 -112h-75q-23 18 -29 18q-17 0 -30 -12.5t-13 -29.5q0 -15 12.5 -26.5t28.5 -11.5q10 0 35 23l7 1q21 -1 64 -1q-2 -35 -1 -108q-56 -9 -75 -75q-14 -57 -28 -115q-26 -60 -101 -60q17 -32 60 -32q69 0 93 41q13 22 21 92q8 66 30 95v-172q-45 -37 -45 -70q0 -30 20 -50
t50 -20q26 0 45 21t19 48q0 41 -50 71v179q23 -15 34 -61q9 -42 18 -83q15 -47 48 -66q17 -10 129 -27zM284 153q0 -36 -27 -36q-30 0 -30 35q0 34 27 34q13 0 21.5 -10t8.5 -23z" />
</svg>
