<?xml version="1.0" standalone="no"?>
<!DOCTYPE svg PUBLIC "-//W3C//DTD SVG 1.1//EN" "http://www.w3.org/Graphics/SVG/1.1/DTD/svg11.dtd" >
<svg xmlns="http://www.w3.org/2000/svg" xmlns:xlink="http://www.w3.org/1999/xlink" version="1.1" viewBox="-10 0 796 1000">
   <path fill="currentColor"
d="M729 801l-61 22l-60 -23l35 -37l-176 -246l-85 161l-84 -155l-161 240l28 36l-57 18l-51 -17q44 -22 223 -310l-186 -347h220q-9 -17 -9 -36q0 -35 25 -59.5t59 -24.5t58.5 24.5t24.5 59.5q0 19 -8 36h200l-176 334q84 124 119 173q92 130 122 151zM445 107
q0 -23 -16.5 -40t-39.5 -17t-39.5 17t-16.5 40q0 20 13 36h86q13 -16 13 -36zM587 189h-413l135 254q25 -41 75 -121q6 8 76 114zM439 478l-57 -79l-54 79l57 106z" />
</svg>
