<?xml version="1.0" standalone="no"?>
<!DOCTYPE svg PUBLIC "-//W3C//DTD SVG 1.1//EN" "http://www.w3.org/Graphics/SVG/1.1/DTD/svg11.dtd" >
<svg xmlns="http://www.w3.org/2000/svg" xmlns:xlink="http://www.w3.org/1999/xlink" version="1.1" viewBox="-10 0 816 1000">
   <path fill="currentColor"
d="M787 452q0 35 -26 58.5t-61 23.5q-27 0 -48.5 -18.5t-23.5 -45.5h-230v132h56q10 -25 38 -25q15 0 27 12t12 27q0 16 -12 28t-27 12q-16 0 -37 -26h-57v89q24 11 24 40q0 19 -13.5 32t-31.5 13t-31.5 -13t-13.5 -32q0 -29 25 -40v-89h-55q-11 23 -36 23q-16 0 -28 -12
t-12 -28q0 -15 12 -27t28 -12q27 0 37 28h54v-134q-172 5 -184 3q-21 48 -77 48q-32 0 -56.5 -24t-24.5 -57q0 -32 24.5 -56.5t56.5 -24.5q6 0 18 3l278 -279l292 292q9 -2 19 -2q34 0 59 23.5t25 57.5zM751 455q0 -18 -13.5 -31.5t-30.5 -13.5q-18 0 -31.5 13.5t-13.5 31.5
q0 17 13.5 30.5t31.5 13.5q17 0 30.5 -13.5t13.5 -30.5zM650 394l-257 -256l-243 244q21 25 26 47h452q9 -16 22 -35zM139 443q0 -18 -13.5 -31t-31.5 -13q-17 0 -30.5 13t-13.5 31t13.5 31t30.5 13q18 0 31.5 -13t13.5 -31z" />
</svg>
