<?xml version="1.0" standalone="no"?>
<!DOCTYPE svg PUBLIC "-//W3C//DTD SVG 1.1//EN" "http://www.w3.org/Graphics/SVG/1.1/DTD/svg11.dtd" >
<svg xmlns="http://www.w3.org/2000/svg" xmlns:xlink="http://www.w3.org/1999/xlink" version="1.1" viewBox="-10 0 859 1000">
   <path fill="currentColor"
d="M831 755v45h-262q1 -56 -11 -97q-30 -98 -125 -108v213h-43v-213q-120 15 -120 176q0 16 1 29h-246v-45h202q2 -56 19 -98q40 -100 144 -110v-148h-82l-31 30l-56 -53l59 -55l25 25h85v-68h-81l-30 30l-56 -53l59 -55l25 30h83v-71l-42 -34l63 -62l64 62l-41 34v71h89
l31 -32l57 53l-58 54l-27 -28h-92v69h87l31 -27l57 53l-58 54l-26 -28h-91l-1 149q112 9 157 109q18 42 22 99h219z" />
</svg>
