<?xml version="1.0" standalone="no"?>
<!DOCTYPE svg PUBLIC "-//W3C//DTD SVG 1.1//EN" "http://www.w3.org/Graphics/SVG/1.1/DTD/svg11.dtd" >
<svg xmlns="http://www.w3.org/2000/svg" xmlns:xlink="http://www.w3.org/1999/xlink" version="1.1" viewBox="-10 0 1141 1000">
   <path fill="currentColor"
d="M1071 216l-62 61l-31 -31q-76 47 -106 126q-21 56 -23 146q3 18 3 47q-7 27 34 92q43 69 85 78l31 -32l62 61l-62 61l-29 -29h-816l-27 26l-61 -61l61 -61l33 33q87 -42 111 -86q30 -55 39 -75q16 -38 16 -71q0 -2 -2.5 -23.5t-2.5 -31.5q-2 -41 -59 -111.5t-109 -91.5
l-34 34l-62 -61l62 -61l32 33h823l32 -33zM887 736q-89 -87 -87 -208q2 -95 13 -144q19 -81 74 -138h-638q64 34 102 112q34 69 33 136q-1 59 -37 127q-39 74 -98 115h638z" />
</svg>
