<?xml version="1.0" standalone="no"?>
<!DOCTYPE svg PUBLIC "-//W3C//DTD SVG 1.1//EN" "http://www.w3.org/Graphics/SVG/1.1/DTD/svg11.dtd" >
<svg xmlns="http://www.w3.org/2000/svg" xmlns:xlink="http://www.w3.org/1999/xlink" version="1.1" viewBox="-10 0 2309 2048">
   <path fill="currentColor"
d="M94 1249q0 -86 31.5 -157.5t85 -123t125 -80t152.5 -28.5h1323q81 0 152.5 28.5t125 80t85 123t31.5 157.5t-31.5 157.5t-85 123t-125 80t-152.5 28.5h-1323q-81 0 -152.5 -28.5t-125 -80t-85 -123t-31.5 -157.5zM1417 1249q0 -78 25 -143t70 -116h-726q45 51 70.5 116
t25.5 143t-25.5 143t-70.5 116h726q-45 -51 -70 -116t-25 -143zM229 1249q0 54 19 101t53.5 82t82 55.5t104.5 20.5h11q55 -2 100.5 -23t78.5 -56t51 -81t18 -99q0 -54 -19 -101t-53.5 -82t-82 -55.5t-104.5 -20.5t-104.5 20.5t-82 55.5t-53.5 82t-19 101zM1552 1249
q0 54 19 101t53.5 82t82 55.5t104.5 20.5t104.5 -20.5t82 -55.5t53.5 -82t19 -101t-19 -101t-53.5 -82t-82 -55.5t-104.5 -20.5t-104.5 20.5t-82 55.5t-53.5 82t-19 101z" />
</svg>
