<?xml version="1.0" standalone="no"?>
<!DOCTYPE svg PUBLIC "-//W3C//DTD SVG 1.1//EN" "http://www.w3.org/Graphics/SVG/1.1/DTD/svg11.dtd" >
<svg xmlns="http://www.w3.org/2000/svg" xmlns:xlink="http://www.w3.org/1999/xlink" version="1.1" viewBox="-10 0 883 1000">
   <path fill="currentColor"
d="M819 659q0 57 -44 99.5t-101 42.5q-52 0 -91 -52q-36 -48 -36 -101q0 -50 11 -81l-85 22q-87 0 -142 -48q-58 -50 -58 -135q0 -27 13.5 -77t13.5 -76q0 -62 -25 -111q-31 -61 -87 -61q-40 0 -73 26.5t-33 65.5q0 23 13.5 38.5t36.5 15.5q18 0 31 -16q-36 -29 -36 -47
q0 -14 12.5 -25t26.5 -11q40 0 40 49q0 33 -22.5 52t-55.5 19q-31 0 -52.5 -24t-21.5 -55q0 -51 43 -88q41 -34 93 -34q81 0 126 91q17 46 35 93q27 -34 116 -34q77 0 133 58.5t56 136.5q0 57 -34 135.5t-34 108.5q0 50 24 89q27 46 73 46q43 0 78 -36.5t35 -80.5
q0 -19 -18.5 -35t-38.5 -16q-16 0 -31.5 10.5t-15.5 25.5q14 -9 23 -9q15 0 25.5 11t10.5 25q0 39 -38 39q-21 0 -34.5 -15.5t-13.5 -37.5q0 -30 24 -54t54 -24q28 0 51 28t23 57zM548 274q-6 -11 -36.5 -20.5t-45.5 -9.5q-72 0 -113.5 41t-41.5 112q0 45 29 85zM611 395
q0 -58 -39 -98l-212 211q48 38 98 38q67 0 110 -42t43 -109z" />
</svg>
