<?xml version="1.0" standalone="no"?>
<!DOCTYPE svg PUBLIC "-//W3C//DTD SVG 1.1//EN" "http://www.w3.org/Graphics/SVG/1.1/DTD/svg11.dtd" >
<svg xmlns="http://www.w3.org/2000/svg" xmlns:xlink="http://www.w3.org/1999/xlink" version="1.1" viewBox="-10 0 1956 2048">
   <path fill="currentColor"
d="M1826 829v809h-1706v-809h1706zM651 1503l512 -545h-149l-514 545h151zM944 1503l512 -545h-147l-514 545h149zM254 1503h102l512 -545h-143l-471 503v42zM1692 958h-90l-514 545h145l459 -492v-53zM254 1307l326 -349h-148l-178 187v162zM1513 1503l179 -191v-145
l-315 336h136zM1692 1503v-36l-35 36h35zM254 992l32 -34h-32v34z" />
</svg>
