<?xml version="1.0" standalone="no"?>
<!DOCTYPE svg PUBLIC "-//W3C//DTD SVG 1.1//EN" "http://www.w3.org/Graphics/SVG/1.1/DTD/svg11.dtd" >
<svg xmlns="http://www.w3.org/2000/svg" xmlns:xlink="http://www.w3.org/1999/xlink" version="1.1" viewBox="-10 0 735 1000">
   <path fill="currentColor"
d="M701 688q0 51 -41 82q-35 27 -86 28q-83 1 -141 -32q-40 -22 -82 -73q-125 106 -228 106q-115 0 -115 -107q0 -74 62 -113q51 -33 130 -33q80 0 136 72v-201h-193l-25 27l-51 -49l50 -52l26 34h193v-52h-86l-27 27l-49 -49l49 -50l28 30h85l-1 -73l-37 -36l59 -60l60 60
l-37 36v73h86l28 -32l47 51l-47 48l-27 -25h-87v49h187l29 -31l49 51l-51 49l-27 -26h-187v210q37 -32 57 -47q41 -28 65 -30q79 -4 134 27q65 37 65 111zM662 686q0 -47 -41 -80q-37 -30 -80 -30q-39 0 -92 37q-23 16 -76 62l8 15q18 30 78 50q54 17 100 14q103 -5 103 -68
zM331 670q-37 -44 -63 -62q-40 -27 -95 -27q-54 0 -93 27q-43 31 -43 82q0 29 31 49q27 18 60 18q7 0 14 -1q80 -16 106 -27q32 -14 83 -59z" />
</svg>
