<?xml version="1.0" standalone="no"?>
<!DOCTYPE svg PUBLIC "-//W3C//DTD SVG 1.1//EN" "http://www.w3.org/Graphics/SVG/1.1/DTD/svg11.dtd" >
<svg xmlns="http://www.w3.org/2000/svg" xmlns:xlink="http://www.w3.org/1999/xlink" version="1.1" viewBox="-10 0 972 1000">
   <path fill="currentColor"
d="M822 658q0 14 -15.5 28.5t-29.5 14.5q-20 0 -35.5 -16.5t-15.5 -36.5q0 -16 15.5 -27.5t32.5 -11.5q20 0 34 15t14 34zM912 286q-12 -1 -19.5 -13.5t-14.5 -24.5q-17 62 -61 102q-48 43 -110 43q-104 0 -243 -32v211h217v188h172v-188h42v229h-252v-186h-179l1 186h-233
l1 -229h185v-240q-45 -15 -221 -52q-34 5 -68 11q-43 10 -43 44q0 17 12 31t29 14q6 0 35 -13t35 -18l-25 -33l4 -3q22 10 59 33q-12 22 -46 40t-60 18q-30 0 -53 -14q-26 -17 -26 -46q0 -96 143 -96q85 0 225 47v-197l-52 -30l76 -53l72 52l-50 31v225q133 41 216 41
q54 0 102 -32q53 -35 60 -86q-12 12 -24 23q-15 14 -28 14l70 -193zM418 760v-146l-147 1v145h147z" />
</svg>
