<?xml version="1.0" standalone="no"?>
<!DOCTYPE svg PUBLIC "-//W3C//DTD SVG 1.1//EN" "http://www.w3.org/Graphics/SVG/1.1/DTD/svg11.dtd" >
<svg xmlns="http://www.w3.org/2000/svg" xmlns:xlink="http://www.w3.org/1999/xlink" version="1.1" viewBox="-10 0 648 1000">
   <path fill="currentColor"
d="M590 173l-37 61l-211 580l-249 -554l-45 -52l96 -3q-52 -34 -48 -89q4 -38 29 -61t53 -21q4 0 22 9.5t19 11.5l-45 5q-17 3 -32.5 17.5t-19 35t-3.5 21.5q0 13 19 34q33 33 64 37q-48 27 -43 46l196 456l171 -491q-33 -6 -46 -5q-26 2 -48 -21.5t-25 -58.5
q-3 -33 10 -59.5t37 -28.5q1 0 5.5 -2t9.5 -2q12 0 32 9q-26 10 -51 21q-25 16 -21 58q5 56 78 56q-2 0 83 -10z" />
</svg>
