<?xml version="1.0" standalone="no"?>
<!DOCTYPE svg PUBLIC "-//W3C//DTD SVG 1.1//EN" "http://www.w3.org/Graphics/SVG/1.1/DTD/svg11.dtd" >
<svg xmlns="http://www.w3.org/2000/svg" xmlns:xlink="http://www.w3.org/1999/xlink" version="1.1" viewBox="-10 0 1031 1000">
   <path fill="currentColor"
d="M996 222q5 17 5 34q0 36 -24 65t-59 29q-20 0 -37 -16t-17 -37q0 -30 29 -38q11 -3 25 2.5t17 18.5v4q0 31 26 36q28 -19 28 -63q0 -17 -4 -31q-2 -9 -29 -37q-31 -33 -51 -33q-58 1 -106 47q-26 25 -72 95q72 78 72 184q0 123 -92 204q75 78 124 92q17 4 36 4
q75 0 94 -69q3 -12 3 -22q0 -32 -36 -62l-40 -6q-7 21 3 40q5 9 2 23q-2 8 -18 15t-24 4q-9 -2 -16 -9q-10 -10 -3 -38q15 -54 64 -54q33 0 58.5 26.5t25.5 60.5q0 49 -38.5 81.5t-88.5 32.5q-15 0 -30 -3q-27 -7 -78 -26q-41 -22 -85 -56q-62 36 -135 36q-78 0 -144 -41
q-48 38 -94 62q-26 8 -78 26q-16 3 -31 3q-51 0 -89.5 -32.5t-38.5 -81.5q0 -33 26.5 -60t60.5 -27q49 0 63 54q7 28 -1.5 36.5t-16.5 10.5q-9 3 -24.5 -4t-17.5 -15q-4 -14 4 -27q8 -14 0 -36l-40 6q-39 33 -39 67q0 11 4 22q21 64 99 64q18 0 33 -4q53 -14 133 -101
q-83 -80 -83 -196q0 -98 63 -174l-24 -35q-43 -60 -65 -80q-43 -39 -98 -38q-30 0 -57 34q-19 23 -22.5 37t-3.5 30q0 43 28 63q19 -4 21.5 -15.5t5 -24.5t16 -18.5t25.5 -2.5q28 8 28 38q0 21 -16.5 37t-37.5 16q-36 0 -60.5 -29t-24.5 -65q0 -17 5 -34q21 -81 113 -81
q106 0 219 120q71 -51 159 -51q81 0 149 44q109 -112 212 -112q87 0 110 81zM650 279q-58 -35 -126 -35q-74 0 -135 42q12 13 23 28q57 70 104 136q35 -50 104 -135q15 -19 30 -36zM762 481q0 -86 -55 -152q-28 44 -97 143q-25 26 -43 47q27 34 98 120q8 10 17 20
q80 -71 80 -178zM467 519q-58 -77 -132 -182q-48 64 -48 144q0 100 71 170l9 -11q39 -45 100 -121zM629 694q-55 -46 -110 -110q-50 58 -107 106q52 29 112 29q55 0 105 -25z" />
</svg>
