<?xml version="1.0" standalone="no"?>
<!DOCTYPE svg PUBLIC "-//W3C//DTD SVG 1.1//EN" "http://www.w3.org/Graphics/SVG/1.1/DTD/svg11.dtd" >
<svg xmlns="http://www.w3.org/2000/svg" xmlns:xlink="http://www.w3.org/1999/xlink" version="1.1" viewBox="-10 0 1269 1000">
   <path fill="currentColor"
d="M1187 626q0 74 -43.5 136t-97.5 62q-64 0 -90 -7q-87 -26 -176 -91q-62 -46 -158 -139q-18 -17 -21 -20q-14 -12 -22 -13q-9 5 -48 43q-231 225 -329 225q-40 0 -76.5 -40.5t-36.5 -94.5q0 -55 28 -95t68 -40q23 0 46 15q27 17 33 45q-5 7 -11 7q-2 0 -22.5 -15
t-41.5 -15q-32 0 -51 26t-19 70q0 37 23 68.5t50 31.5q65 0 188 -96q98 -77 169 -160q-40 -42 -102 -120q-74 -92 -101 -122q-87 -100 -192 -100q-21 0 -38 41q-16 37 -16 68q0 30 11 61q12 35 31 44q8 -5 8 -17q0 -5 -2 -15t-2 -15q0 -25 15.5 -43t34.5 -18q20 0 36.5 21
t16.5 49q0 42 -20 71.5t-51 29.5q-45 0 -76 -55q-29 -52 -29 -115q0 -79 43 -123q39 -40 99 -40q81 0 183 80q67 52 154 149q74 81 80 82q25 -24 67 -63q271 -255 365 -255q40 0 68.5 34t28.5 88q0 49 -40 86q-37 32 -75 32q-13 0 -26 -20v-18l66 -22q38 -19 38 -66
q0 -34 -22 -53q-18 -15 -45 -15q-51 0 -132 59q-60 44 -144 127l-118 120q90 89 179 177q126 118 191 118q45 0 83 -35q43 -40 43 -99q0 -58 -54 -91l-30 4q0 10 11.5 27.5t11.5 42.5q0 19 -18 39.5t-32 20.5q-44 0 -44 -75q0 -48 22 -83t57 -35q45 0 74.5 38.5t29.5 100.5z
" />
</svg>
