<?xml version="1.0" standalone="no"?>
<!DOCTYPE svg PUBLIC "-//W3C//DTD SVG 1.1//EN" "http://www.w3.org/Graphics/SVG/1.1/DTD/svg11.dtd" >
<svg xmlns="http://www.w3.org/2000/svg" xmlns:xlink="http://www.w3.org/1999/xlink" version="1.1" viewBox="-10 0 1150 1000">
   <path fill="currentColor"
d="M1123 483l-49 50l-23 -18h-477v217h482v-45l42 64l-42 79v-52h-456q-70 0 -72 -32q-3 -33 0 -231h-447l-15 20l-49 -49l48 -46l16 20h447v-188q0 -75 15 -83q8 -5 34 -5h31q24 1 43 1h405v-59l39 78l-39 60v-36h-482v232h478l22 -25z" />
</svg>
