<?xml version="1.0" standalone="no"?>
<!DOCTYPE svg PUBLIC "-//W3C//DTD SVG 1.1//EN" "http://www.w3.org/Graphics/SVG/1.1/DTD/svg11.dtd" >
<svg xmlns="http://www.w3.org/2000/svg" xmlns:xlink="http://www.w3.org/1999/xlink" version="1.1" viewBox="-10 0 921 1000">
   <path fill="currentColor"
d="M867 710q0 29 -21 47.5t-49 18.5q-46 0 -97 -41l-82 -72q-110 -76 -181 -76q-26 0 -45 10l137 -181h-189q-45 63 -105 149q18 8 53 24q55 27 122 91q31 31 63 62q43 37 78 37q14 0 25 -14.5t11 -28.5q0 -18 -12 -33t-30 -15q-7 0 -15 11t-8 18q0 6 14 17q0 -10 7 -20
q25 -5 27 10q1 10 -10 18.5t-21 8.5q-13 0 -24.5 -10t-11.5 -23q0 -21 13 -35t34 -14q30 0 47 24q16 20 16 50q0 29 -21.5 46.5t-52.5 17.5q-37 0 -99 -46q-57 -44 -114 -87q-72 -50 -130 -56l-94 108q39 43 88 43q57 0 57 -38q0 -17 -19 -28q-18 -3 -24 12q8 4 17 9t9 13
q0 7 -6.5 14t-14.5 7q-11 0 -22 -10.5t-11 -20.5q0 -18 16 -33t34 -15q16 0 31 18.5t15 34.5q0 37 -38 59q-32 18 -72 18q-47 0 -82.5 -42.5t-35.5 -89.5q0 -90 151 -119q-3 -1 163 -272h-73l-28 28l-42 -42l42 -42l28 29h89l24 -73l-35 -43l78 -34l75 34l-54 41l-34 75h181
l26 -69q-4 -14 -34 -42l71 -34l83 34l-57 39l-29 72h96l24 -24l42 42l-42 42l-30 -29h-103l-51 97h112l25 -27l42 42l-42 42l-30 -28h-30h-98q-43 54 -100 131q7 1 13 1q81 0 135 51q1 0 75 94q40 51 87 51q38 0 38 -35q0 -16 -11.5 -28t-27.5 -12q-24 0 -24 15q0 10 17 18
q1 -1 3 -11q1 -6 11 -7l16 9q-1 21 -9 24q-3 2 -23 2q-34 0 -34 -30q0 -45 52 -45q29 0 47 19t18 47zM599 290h-186l-55 97h186zM158 613l-22 3q-22 4 -41 19q-21 18 -21 38q0 9 11 29z" />
</svg>
