<?xml version="1.0" standalone="no"?>
<!DOCTYPE svg PUBLIC "-//W3C//DTD SVG 1.1//EN" "http://www.w3.org/Graphics/SVG/1.1/DTD/svg11.dtd" >
<svg xmlns="http://www.w3.org/2000/svg" xmlns:xlink="http://www.w3.org/1999/xlink" version="1.1" viewBox="-10 0 828 1000">
   <path fill="currentColor"
d="M551 96l-31 28q-1 1 -0.5 2.5t-1.5 4.5q-6 -2 -12 -28q-5 -22 -23 -22q-27 0 -38 36q-2 4 -2 8q0 14 31 42.5t31 51.5q0 30 -36 56.5t-67 26.5q-2 0 -15 -2t-15 -2t-12.5 2t-17.5 1q1 0 -7 -38q43 -55 38 -57q1 36 8 49q10 16 35 16q31 0 46 -46q4 -11 4 -19
q0 -22 -32.5 -39.5t-32.5 -39.5q0 -9 4 -21q12 -37 88 -51l31 9q9 -10 24 -26q1 0 -2 6t-2 7zM802 307l-380 478l-392 -478h772zM698 352h-556q0 -3 84 101q4 5 389 0zM589 494h-340q72 89 173 207z" />
</svg>
