<?xml version="1.0" standalone="no"?>
<!DOCTYPE svg PUBLIC "-//W3C//DTD SVG 1.1//EN" "http://www.w3.org/Graphics/SVG/1.1/DTD/svg11.dtd" >
<svg xmlns="http://www.w3.org/2000/svg" xmlns:xlink="http://www.w3.org/1999/xlink" version="1.1" viewBox="-10 0 983 1000">
   <path fill="currentColor"
d="M924 154q0 45 -32 77.5t-77 32.5q-16 0 -30 -4l-221 348q36 32 36 81q0 45 -32 77.5t-77 32.5q-46 0 -78 -32.5t-32 -77.5q0 -50 37 -83l-219 -345q-19 8 -41 8q-45 0 -77 -32.5t-32 -77.5q0 -46 32 -78t77 -32q41 0 72 27t37 67h438q4 -42 35.5 -70.5t74.5 -28.5
q45 0 77 32.5t32 77.5zM889 154q0 -31 -22 -52.5t-52 -21.5q-31 0 -53 21.5t-22 52.5t22 53t53 22q30 0 52 -22t22 -53zM747 241q-28 -22 -38 -56h-444q-7 30 -29 51l88 153h332zM233 159q0 -31 -22 -53t-53 -22q-30 0 -52 22t-22 53t22 52.5t52 21.5q31 0 53 -21.5
t22 -52.5zM627 430h-277l105 155q17 -6 36 -6q18 0 36 6zM565 689q0 -31 -22 -53t-52 -22q-31 0 -53 22t-22 53t22 53t53 22q30 0 52 -22t22 -53z" />
</svg>
