<?xml version="1.0" standalone="no"?>
<!DOCTYPE svg PUBLIC "-//W3C//DTD SVG 1.1//EN" "http://www.w3.org/Graphics/SVG/1.1/DTD/svg11.dtd" >
<svg xmlns="http://www.w3.org/2000/svg" xmlns:xlink="http://www.w3.org/1999/xlink" version="1.1" viewBox="-10 0 675 1000">
   <path fill="currentColor"
d="M643 497q0 125 -89 214t-215 89t-215 -89t-89 -214q0 -126 89 -215t215 -89t215 89t89 215zM547 341q-72 -95 -190 -103v213zM599 498q0 -64 -29 -120l-190 109l198 114q21 -49 21 -103zM313 449v-211q-115 11 -184 104zM557 639l-200 -115v234q129 -9 200 -119zM294 487
l-188 -108q-29 56 -29 119q0 54 21 102zM313 758v-232l-195 113q69 107 195 119z" />
</svg>
