<?xml version="1.0" standalone="no"?>
<!DOCTYPE svg PUBLIC "-//W3C//DTD SVG 1.1//EN" "http://www.w3.org/Graphics/SVG/1.1/DTD/svg11.dtd" >
<svg xmlns="http://www.w3.org/2000/svg" xmlns:xlink="http://www.w3.org/1999/xlink" version="1.1" viewBox="-10 0 1899 2048">
   <path fill="currentColor"
d="M1819 1662q-111 -3 -208.5 -37.5t-171.5 -95.5t-120.5 -146.5t-53.5 -190.5h-164q-18 198 -136 323q-138 147 -371 147q-226 0 -363 -143q-135 -144 -135 -381q0 -257 141 -403q141 -145 381 -145q229 0 357 141q109 122 126 321h165q13 -112 61.5 -197.5t122 -144
t168 -89t201.5 -31.5v138q-74 1 -141.5 26t-120 68.5t-85.5 102.5t-39 127h386v140h-386q6 74 39.5 134.5t86 104t119.5 68t141 25.5v138zM356 836q-92 107 -92 296q0 182 93 287q70 80 177 99v-784q-107 19 -178 102zM850 1421q71 -86 83 -229h-259v327q110 -18 176 -98z
M850 832q-66 -80 -176 -98v318h258q-13 -136 -82 -220z" />
</svg>
