<?xml version="1.0" standalone="no"?>
<!DOCTYPE svg PUBLIC "-//W3C//DTD SVG 1.1//EN" "http://www.w3.org/Graphics/SVG/1.1/DTD/svg11.dtd" >
<svg xmlns="http://www.w3.org/2000/svg" xmlns:xlink="http://www.w3.org/1999/xlink" version="1.1" viewBox="-10 0 738 2048">
   <path fill="currentColor"
d="M638 908h-220v251q80 19 131 83t51 146q0 98 -69 167t-167 69t-167 -69t-69 -167q0 -83 50.5 -146.5t131.5 -82.5v-251h-220v-95h220v-251q-82 -20 -132 -83t-50 -147q0 -98 69 -167t167 -69t167 69t69 167q0 83 -50.5 146.5t-131.5 83.5v251h220v95zM494 332
q0 -54 -38 -92t-92 -38t-92 38t-38 92t38 92t92 38t92 -38t38 -92zM494 1388q0 -54 -38 -92t-92 -38t-92 38t-38 92t38 92t92 38t92 -38t38 -92z" />
</svg>
