<?xml version="1.0" standalone="no"?>
<!DOCTYPE svg PUBLIC "-//W3C//DTD SVG 1.1//EN" "http://www.w3.org/Graphics/SVG/1.1/DTD/svg11.dtd" >
<svg xmlns="http://www.w3.org/2000/svg" xmlns:xlink="http://www.w3.org/1999/xlink" version="1.1" viewBox="-10 0 1142 1000">
   <path fill="currentColor"
d="M1054 463q0 130 -91 228q-96 103 -236 103q-227 0 -543 -283q-16 -15 -106 -23l33 -129l133 -40l-3 86q0 94 144 188q51 34 215 112q21 10 75 23q61 15 92 15q105 -1 183 -95q72 -89 72 -197q0 -117 -65 -205q-74 -100 -199 -106q-49 -2 -89 39t-40 93q0 40 23 71
q26 35 69 35q31 0 56 -21t22 -45q-31 15 -62 15q-14 0 -22 -13t-7 -26q5 -44 52 -44q36 0 56 20q17 18 17 43q0 48 -35 76q-31 24 -75 24q-49 0 -79.5 -26.5t-53.5 -88.5q-30 19 -63 19q-39 0 -66 -23q-30 -24 -30 -63q0 -27 29 -49.5t54 -22.5q11 0 28 9q23 12 26 32
q-30 -14 -55 -14q-53 0 -53 48q0 23 20 39q16 14 32 14q39 0 76 -46q65 -80 69 -84q49 -45 120 -45q100 0 185.5 93t88.5 204q1 31 2 45.5z" />
</svg>
