<?xml version="1.0" standalone="no"?>
<!DOCTYPE svg PUBLIC "-//W3C//DTD SVG 1.1//EN" "http://www.w3.org/Graphics/SVG/1.1/DTD/svg11.dtd" >
<svg xmlns="http://www.w3.org/2000/svg" xmlns:xlink="http://www.w3.org/1999/xlink" version="1.1" viewBox="-10 0 1010 1000">
   <path fill="currentColor"
d="M945 734q0 38 -24.5 60.5t-61.5 22.5q-36 0 -97 -45l-112 -82q-69 -45 -122 -45q-21 0 -40 6l127 -193h-326l-129 191l57 -7q40 0 116.5 63t95.5 63q42 0 42 -45q0 -11 -10.5 -24.5t-21.5 -13.5q-9 0 -14 10l2 16q3 -5 10 -5q19 0 19 18t-31 18q-36 0 -36 -39
q0 -43 45 -43q25 0 44 24t19 49q0 27 -27.5 45t-56.5 18q-31 0 -80 -25q-65 -34 -77 -38q-81 -28 -134 -28q-37 0 -68 11l23 -33q65 -61 158 -225h-61q-11 13 -30 12q-33 -2 -33 -30q0 -15 11.5 -25.5t26.5 -8.5q21 3 31 25h69l76 -113h-76q-13 13 -37 13q-12 0 -22 -12.5
t-10 -24.5q0 -15 12 -25t29 -10q22 0 28 29l90 1q20 -34 76 -124q-14 1 -39.5 11t-44.5 10q-51 0 -88 -27q-42 -30 -42 -79q0 -28 17 -52q25 94 124 94q23 0 78 -22q48 -19 75 -34l31 -15l-16 29l-118 209h335l62 -108q-79 26 -107 26q-45 0 -76 -34t-31 -79q0 -43 5 -54
q27 54 56.5 76.5t76.5 22.5q38 0 95 -26.5t54 -26.5q2 0 12 -8t12 -6l-118 217h78q19 -25 29 -25q15 0 26 10t11 26q0 36 -32 36q-17 0 -34 -18h-98l-72 113l80 -2q4 1 17.5 -8t17.5 -9q12 0 23 9.5t11 22.5q0 31 -28 31q-24 0 -41 -17h-94q-45 63 -97 143q4 2 9 2
q6 0 18 -4t18 -4q38 0 90 50q45 46 90 91q52 50 89 50q15 0 29 -17.5t14 -32.5q0 -13 -13.5 -26.5t-26.5 -13.5q-6 0 -11 11l2 15q12 -8 15 -8q16 0 16 18q0 7 -6 15t-13 8q-16 0 -29 -13.5t-13 -29.5q0 -17 11 -32t28 -15q26 0 44.5 21.5t18.5 47.5zM706 318h-331l-74 113
h335z" />
</svg>
