<?xml version="1.0" standalone="no"?>
<!DOCTYPE svg PUBLIC "-//W3C//DTD SVG 1.1//EN" "http://www.w3.org/Graphics/SVG/1.1/DTD/svg11.dtd" >
<svg xmlns="http://www.w3.org/2000/svg" xmlns:xlink="http://www.w3.org/1999/xlink" version="1.1" viewBox="-10 0 745 1000">
   <path fill="currentColor"
d="M714 795l-71 24l-73 -24l34 -43l-134 -247l-94 186l-98 -181l-122 242l36 43l-71 24l-64 -24l59 -43l140 -281l-163 -301l-52 -46l70 -23l73 23l-34 41l135 249l94 -188l97 182l122 -243l-36 -41l70 -23l65 23l-58 46l-141 279l163 303zM448 464l-76 -140l-65 129l76 141
z" />
</svg>
