<?xml version="1.0" standalone="no"?>
<!DOCTYPE svg PUBLIC "-//W3C//DTD SVG 1.1//EN" "http://www.w3.org/Graphics/SVG/1.1/DTD/svg11.dtd" >
<svg xmlns="http://www.w3.org/2000/svg" xmlns:xlink="http://www.w3.org/1999/xlink" version="1.1" viewBox="-10 0 735 1000">
   <path fill="currentColor"
d="M703 225q0 73 -63 109q-55 31 -134 27q-36 -2 -126 -81v311h92l26 -24l49 47l-49 50l-27 -30h-91v121l36 36l-56 54l-55 -54l36 -36v-121h-89l-27 29l-46 -49l46 -49l26 26h90v-305q-57 79 -140 79q-78 0 -129 -32q-61 -39 -61 -112q0 -104 113 -104q103 0 230 107
q43 -52 83 -74q58 -34 142 -33q50 1 85 28q39 30 39 80zM671 227q0 -66 -107 -72q-47 -2 -102 15q-62 20 -80 52q-6 9 -10 17q57 49 80 65q54 37 93 37q45 0 83 -31q43 -34 43 -83zM338 243q-9 -9 -17 -15q-39 -34 -65 -45q-31 -14 -113 -29q-6 -1 -14 -1q-34 0 -63 18
q-32 21 -32 52q0 53 45 85q40 28 96 28t98 -28q27 -19 65 -65z" />
</svg>
