<?xml version="1.0" standalone="no"?>
<!DOCTYPE svg PUBLIC "-//W3C//DTD SVG 1.1//EN" "http://www.w3.org/Graphics/SVG/1.1/DTD/svg11.dtd" >
<svg xmlns="http://www.w3.org/2000/svg" xmlns:xlink="http://www.w3.org/1999/xlink" version="1.1" viewBox="-10 0 782 1000">
   <path fill="currentColor"
d="M733 800h-695v-694h695v694zM688 756v-606h-607v606h607zM629 448q0 102 -72 174.5t-174 72.5t-174.5 -72.5t-72.5 -174.5t72.5 -174t174.5 -72t174 72t72 174zM590 448q0 -87 -61 -148.5t-148 -61.5t-148.5 61.5t-61.5 148.5t61.5 148t148.5 61t148 -61t61 -148z
M432 445q0 22 -15 37.5t-37 15.5t-37 -15.5t-15 -37.5q0 -21 15 -36.5t37 -15.5t37 15.5t15 36.5z" />
</svg>
