<?xml version="1.0" standalone="no"?>
<!DOCTYPE svg PUBLIC "-//W3C//DTD SVG 1.1//EN" "http://www.w3.org/Graphics/SVG/1.1/DTD/svg11.dtd" >
<svg xmlns="http://www.w3.org/2000/svg" xmlns:xlink="http://www.w3.org/1999/xlink" version="1.1" viewBox="-10 0 766 1000">
   <path fill="currentColor"
d="M707 122l-104 59q-42 63 -77 113q-84 122 -122 165l193 271l94 55l-105 32l-105 -25q19 -21 40 -50l-160 -238q-28 38 -90 122q33 34 33 76q0 43 -30.5 73.5t-73.5 30.5t-73.5 -30.5t-30.5 -73.5t30.5 -73.5t73.5 -30.5q20 0 49 13l100 -129l-40 -51l-213 -289l87 -47
l83 43q-36 45 -35 59q0 1 155 234q19 -20 101 -132q76 -104 93 -130q4 -6 -28 -41l78 -40zM270 702q0 -30 -20.5 -50.5t-50.5 -20.5q-29 0 -50 20.5t-21 50.5q0 29 21 50t50 21q30 0 50.5 -21t20.5 -50z" />
</svg>
