<?xml version="1.0" standalone="no"?>
<!DOCTYPE svg PUBLIC "-//W3C//DTD SVG 1.1//EN" "http://www.w3.org/Graphics/SVG/1.1/DTD/svg11.dtd" >
<svg xmlns="http://www.w3.org/2000/svg" xmlns:xlink="http://www.w3.org/1999/xlink" version="1.1" viewBox="-10 0 1058 1000">
   <path fill="currentColor"
d="M1024 803h-56l-207 -374l-159 368l-160 -346l-111 226q-13 26 -26 47q-32 49 -57.5 60t-27.5 12q-19 5 -60 5q-19 0 -46 -1q-2 -1 -7 -3v0h-2l1 1v0q-2 -2 -7 -4q-76 -24 -76 -106q0 -45 32 -77t77 -32q44 0 75.5 32t33.5 77q2 55 -53 83q22 -6 45 -12q10 -11 21 -22
q36 -33 200 -382l160 348l155 -365zM204 691q0 -31 -22 -53t-53 -22t-53 22t-22 53t22 53t53 22t53 -22t22 -53zM149 690q0 21 -20 21q-21 0 -21 -21t21 -21q20 0 20 21z" />
</svg>
