<?xml version="1.0" standalone="no"?>
<!DOCTYPE svg PUBLIC "-//W3C//DTD SVG 1.1//EN" "http://www.w3.org/Graphics/SVG/1.1/DTD/svg11.dtd" >
<svg xmlns="http://www.w3.org/2000/svg" xmlns:xlink="http://www.w3.org/1999/xlink" version="1.1" viewBox="-10 0 759 1000">
   <path fill="currentColor"
d="M723 316q0 36 -25 61t-61 25q-54 0 -77 -49l-179 48l-113 340l107 -48v34l-172 75l127 -388l-135 36q5 39 -20.5 68t-64.5 29q-35 0 -60 -25t-25 -60q0 -36 25 -61t60 -25q54 0 77 48l153 -41l83 -252l-98 39v-27l163 -67l-97 293l161 -43q-4 -38 21.5 -67t63.5 -29
q36 0 61 25.5t25 60.5zM637 256q-24 0 -41.5 17t-17.5 41t17 41.5t41 17.5t41.5 -17t17.5 -41t-17 -41.5t-41 -17.5zM109 402q-24 0 -41 17t-17 41t17 41t41 17t41.5 -17t17.5 -41t-17 -41t-42 -17z" />
</svg>
