<?xml version="1.0" standalone="no"?>
<!DOCTYPE svg PUBLIC "-//W3C//DTD SVG 1.1//EN" "http://www.w3.org/Graphics/SVG/1.1/DTD/svg11.dtd" >
<svg xmlns="http://www.w3.org/2000/svg" xmlns:xlink="http://www.w3.org/1999/xlink" version="1.1" viewBox="-10 0 1996 2048">
   <path fill="currentColor"
d="M875 399h109v215h304q31 -60 74.5 -103t91.5 -70t98 -40t95 -13q53 0 92.5 12.5t65.5 35t39 52.5t13 64q0 48 -19 81.5t-54.5 54.5t-84.5 30.5t-109 9.5h-178q-16 51 -14.5 93.5t23 78.5t66.5 68.5t116 63.5q66 29 120.5 60t92.5 68.5t59 85t21 108.5q0 76 -32 133.5
t-87 96.5t-127 58.5t-151 19.5q-64 0 -123 -15.5t-107 -43.5t-80.5 -67.5t-42.5 -88.5t7 -105.5t68 -117.5l136 70q-48 47 -53.5 88.5t19.5 73t74.5 50t112.5 18.5q110 0 164 -41t54 -113q0 -41 -17 -71.5t-48 -55t-74 -46t-95 -43.5q-97 -42 -153 -93t-81 -107t-24.5 -114
t17.5 -112h-38q0 64 -21 106t-57 66.5t-84 34.5t-102 10h-77v-217h-68v-114h68zM305 1294q-48 47 -53.5 88.5t19.5 73t74.5 50t112.5 18.5q216 0 216 -144q0 -41 -18.5 -69.5t-50 -50.5t-74 -39.5t-91.5 -36.5q-68 -27 -119.5 -54.5t-86 -62t-52 -78.5t-17.5 -103
q0 -72 33 -127.5t88 -93t125.5 -56.5t145.5 -19q46 0 84 6t66 13q33 9 58 19v166q-28 -18 -63 -33q-30 -12 -72.5 -22.5t-94.5 -10.5q-46 0 -83 10.5t-63.5 29.5t-41 45.5t-14.5 58.5q0 40 14.5 67t42.5 48t68 38t91 37q68 26 122 53.5t92 62t58.5 80t20.5 106.5
q0 76 -28 132t-79.5 93t-124.5 55t-163 18q-64 0 -123 -15.5t-107 -43.5t-80.5 -67.5t-42.5 -88.5t7 -105.5t68 -117.5zM1601 614q65 0 93 -15t28 -47q0 -29 -21.5 -41.5t-59.5 -12.5q-25 0 -52.5 8.5t-53.5 23.5t-48 36.5t-37 47.5h151zM984 843q59 0 87.5 -24t28.5 -76
q0 -9 -16 -12t-62 -3h-38v115z" />
</svg>
