<?xml version="1.0" standalone="no"?>
<!DOCTYPE svg PUBLIC "-//W3C//DTD SVG 1.1//EN" "http://www.w3.org/Graphics/SVG/1.1/DTD/svg11.dtd" >
<svg xmlns="http://www.w3.org/2000/svg" xmlns:xlink="http://www.w3.org/1999/xlink" version="1.1" viewBox="-10 0 620 1000">
   <path fill="currentColor"
d="M588 546q0 54 -33 149q-39 111 -79 111q-12 0 -12 -11q0 -4 38 -102.5t38 -153.5q0 -27 -11 -47q-1 -4 -25.5 -39.5t-92.5 -35.5q-92 0 -124 74v310h-44v-506h-104v505h-44v-505h-78v-38h78v-112l-39 -36l62 -33l59 33l-38 36v112h104v-111l-40 -36l63 -33l59 33l-38 35
v112h109v38h-109v127q32 -52 126 -52q84 0 129.5 46.5t45.5 129.5z" />
</svg>
