<?xml version="1.0" standalone="no"?>
<!DOCTYPE svg PUBLIC "-//W3C//DTD SVG 1.1//EN" "http://www.w3.org/Graphics/SVG/1.1/DTD/svg11.dtd" >
<svg xmlns="http://www.w3.org/2000/svg" xmlns:xlink="http://www.w3.org/1999/xlink" version="1.1" viewBox="-10 0 800 1000">
   <path fill="currentColor"
d="M756 527q0 -46 -19 -62t-54 -22v0q37 -9 55 -25t18 -61q0 -23 -18 -44.5t-40 -27.5q10 11 13.5 22t3.5 27q0 25 -17 44t-53 19h-205v-204q0 -37 19 -54t44 -17q16 0 27 3.5t22 13.5q-6 -22 -27.5 -40t-44.5 -18q-41 0 -56.5 16t-25.5 49q0 3 -2 8l-1 -3q-9 -35 -25 -52.5
t-60 -17.5q-23 0 -44 18t-28 40q12 -10 23 -13.5t27 -3.5q25 0 44 17.5t19 53.5v204h-205q-36 0 -53.5 -19t-17.5 -44q0 -16 3.5 -27t13.5 -22q-22 6 -40 27.5t-18 44.5q0 45 18.5 61t53.5 25h1q-35 6 -54 22t-19 62q0 23 18.5 44.5t39.5 27.5q-10 -12 -13.5 -22.5
t-3.5 -26.5q0 -26 17.5 -46t53.5 -20h205v208q0 36 -19 53t-44 17q-16 0 -27 -3.5t-23 -13.5q7 22 28 40t44 18q44 0 60 -17.5t25 -52.5l1 -3q2 5 2 8q10 32 25.5 48.5t56.5 16.5q23 0 44.5 -18t27.5 -40q-11 10 -22 13.5t-27 3.5q-25 0 -44 -17t-19 -53v-208h205
q36 0 53 20t17 46q0 16 -3.5 26.5t-13.5 22.5q22 -6 40 -27.5t18 -44.5z" />
</svg>
