<?xml version="1.0" standalone="no"?>
<!DOCTYPE svg PUBLIC "-//W3C//DTD SVG 1.1//EN" "http://www.w3.org/Graphics/SVG/1.1/DTD/svg11.dtd" >
<svg xmlns="http://www.w3.org/2000/svg" xmlns:xlink="http://www.w3.org/1999/xlink" version="1.1" viewBox="-10 0 744 1000">
   <path fill="currentColor"
d="M704 203l-553 553l474 1q22 -9 33 -18q33 -26 39 -102q0 -2 1 -2q2 0 2 2l-1 163l-661 -1l553 -554h-319v50l40 39l-66 66l-64 -63l41 -42v-50l-61 1l-43 40l-63 -62l63 -65l43 45l63 -1v-52l-39 -39l61 -61l64 62l-39 38v52h432z" />
</svg>
