<?xml version="1.0" standalone="no"?>
<!DOCTYPE svg PUBLIC "-//W3C//DTD SVG 1.1//EN" "http://www.w3.org/Graphics/SVG/1.1/DTD/svg11.dtd" >
<svg xmlns="http://www.w3.org/2000/svg" xmlns:xlink="http://www.w3.org/1999/xlink" version="1.1" viewBox="-10 0 1138 2048">
   <path fill="currentColor"
d="M565 638q28 0 58 -8.5t54.5 -25.5t40 -42.5t15.5 -59.5v-52h302v132h-177q-6 38 -27.5 68t-52 52.5t-66 37t-69.5 20.5q52 9 100 30q63 27 115 68.5t89 94.5t57 117t20 135q0 87 -30 163t-82.5 135t-124 98t-155.5 51v128h223v134h-223v156h-133v-156h-224v-134h224v-127
q-84 -12 -156.5 -51t-125.5 -98t-83 -135.5t-30 -163.5q0 -72 20 -135.5t56.5 -117t87.5 -94.5t114 -68q49 -22 103 -30q-32 -6 -66 -23t-64 -41t-52.5 -53.5t-29.5 -60.5h-178v-132h303v50q0 35 15.5 60.5t40 43t54 26t57.5 8.5zM244 1205q0 72 24 131.5t66.5 102.5
t101 66.5t127.5 23.5t128 -23.5t101.5 -66.5t67 -102.5t24.5 -131.5t-24.5 -131.5t-67 -102.5t-101.5 -66.5t-128 -23.5t-127.5 23.5t-101 66.5t-66.5 102.5t-24 131.5zM565 170q-28 0 -57.5 8.5t-54 26t-40 43.5t-15.5 60v50h-303v-132h178q12 -50 44 -86t74 -58.5t88 -33
t85 -10.5t87 10.5t91.5 33t75.5 58t40 86.5h177v132h-302v-52q0 -34 -15.5 -59.5t-40 -42.5t-54.5 -25.5t-58 -8.5z" />
</svg>
