<?xml version="1.0" standalone="no"?>
<!DOCTYPE svg PUBLIC "-//W3C//DTD SVG 1.1//EN" "http://www.w3.org/Graphics/SVG/1.1/DTD/svg11.dtd" >
<svg xmlns="http://www.w3.org/2000/svg" xmlns:xlink="http://www.w3.org/1999/xlink" version="1.1" viewBox="-10 0 1512 2048">
   <path fill="currentColor"
d="M969 1516h-175v122h-100v-122h-174v-100h174v-68q-37 -9 -68.5 -29t-55 -49t-37 -65t-13.5 -77q0 -51 21 -95t56 -74q-35 -32 -56 -75.5t-21 -94.5q0 -47 17.5 -87.5t47.5 -70.5t70.5 -47t87.5 -17q46 0 87.5 17.5t72 47.5t48.5 70.5t18 86.5q0 52 -21.5 96t-57.5 75
q36 31 57.5 74t21.5 94q0 41 -13.5 77t-37 65.5t-55.5 49.5t-69 29v67h175v100zM537 568h-358l-32 90h-107l98 -279h108l-32 90h202q4 -139 95 -222q90 -84 232 -84q134 0 229 84t107 222h243l32 -90h108l-99 279h-108l32 -90h-331v-99q-12 -87 -71 -137q-59 -51 -140 -51
q-194 0 -208 188v99zM745 1018q-22 0 -42 8.5t-35 23.5t-24 35t-9 43t8 43.5t22.5 36.5t34.5 25t44 9q23 0 43.5 -9t35.5 -25t24 -36.5t9 -43.5t-9 -43t-24 -35t-35.5 -23.5t-42.5 -8.5zM745 679q-22 0 -42 8.5t-35 23.5t-24 35t-9 43t8 43.5t22.5 36.5t34.5 25t44 9
q23 0 43.5 -9t35.5 -25t24 -36.5t9 -43.5t-9 -43t-24 -35t-35.5 -23.5t-42.5 -8.5z" />
</svg>
