<?xml version="1.0" standalone="no"?>
<!DOCTYPE svg PUBLIC "-//W3C//DTD SVG 1.1//EN" "http://www.w3.org/Graphics/SVG/1.1/DTD/svg11.dtd" >
<svg xmlns="http://www.w3.org/2000/svg" xmlns:xlink="http://www.w3.org/1999/xlink" version="1.1" viewBox="-10 0 1759 2048">
   <path fill="currentColor"
d="M1238 1225q-28 0 -54.5 8.5t-47 26t-33 43.5t-12.5 60v50l-459 2v223h-133v-223h-224v-134h224v-181q-84 -12 -158 -52.5t-129 -101.5t-86.5 -139t-31.5 -165q0 -63 17 -122t47.5 -110t73.5 -93.5t95 -72.5q-52 -30 -95 -72t-73.5 -93.5t-47.5 -110.5t-17 -122h140
q0 72 25.5 133t70 106t104.5 70t129 25t129.5 -25t105 -70t70.5 -106t26 -133h140q0 63 -17.5 122t-48.5 110.5t-74.5 93.5t-95.5 72q52 30 95.5 72.5t74.5 93.5t48.5 110t17.5 122q0 87 -31.5 164.5t-86 138.5t-127.5 101.5t-157 52.5v182h344q12 -50 39.5 -86t63.5 -58.5
t77.5 -33t80.5 -10.5t82.5 10.5t81 33t65 58t35.5 86.5h207v132h-322v-52q0 -34 -12.5 -59.5t-33.5 -42.5t-47.5 -25.5t-54.5 -8.5zM234 642q0 72 25.5 133t70 106t104.5 70t129 25t129.5 -25t105 -70t70.5 -106t26 -133t-26 -133t-70.5 -106t-105 -70t-129.5 -25t-129 25
t-104.5 70t-70 106t-25.5 133zM1709 1637h-940v-132h940v132z" />
</svg>
