<?xml version="1.0" standalone="no"?>
<!DOCTYPE svg PUBLIC "-//W3C//DTD SVG 1.1//EN" "http://www.w3.org/Graphics/SVG/1.1/DTD/svg11.dtd" >
<svg xmlns="http://www.w3.org/2000/svg" xmlns:xlink="http://www.w3.org/1999/xlink" version="1.1" viewBox="-10 0 671 1000">
   <path fill="currentColor"
d="M637 622q0 7 -7 14q-50 -43 -97 -43q-39 0 -102 53q-56 49 -113 98q-69 53 -121 53q-73 0 -121 -44.5t-48 -117.5q0 -69 47 -134q44 -53 87 -106q48 -64 48 -129q0 -51 -36 -82v-11q85 0 144 72q56 67 56 151q0 -2 4 36q52 -54 105 -108q75 -79 75 -114q0 -30 -15 -53
q-18 -25 -48 -25q-26 0 -44 14t-18 40l1 6q7 -3 16 -14q6 -9 21 -9q11 0 19 9.5t8 20.5q0 14 -11 25t-25 11q-23 0 -37.5 -15t-14.5 -38q0 -33 28 -52q25 -17 59 -17q31 0 54.5 30.5t23.5 62.5q0 46 -74 130l-112 116h86q43 1 102.5 63.5t59.5 106.5zM358 410
q0 -120 -115 -193q-22 -13 -33 -12q35 74 35 117q0 72 -50 131l-94 92q-51 55 -51 118q0 17 8 39q9 28 21 29q32 -26 134 -129q104 -107 123 -133q22 -31 22 -59zM612 600q-61 -123 -171 -123q-64 0 -75 8q-56 41 -137 126q-98 103 -132 133q37 34 70 34q44 0 110 -55
q58 -51 116 -103q68 -55 115 -55q43 0 104 35z" />
</svg>
