<?xml version="1.0" standalone="no"?>
<!DOCTYPE svg PUBLIC "-//W3C//DTD SVG 1.1//EN" "http://www.w3.org/Graphics/SVG/1.1/DTD/svg11.dtd" >
<svg xmlns="http://www.w3.org/2000/svg" xmlns:xlink="http://www.w3.org/1999/xlink" version="1.1" viewBox="-10 0 1220 2048">
   <path fill="currentColor"
d="M453 239q4 18 -1.5 29.5t-5.5 25.5q-14 4 -32.5 7t-37 5t-35.5 6.5t-30 12.5q6 57 7 114.5t-1 116t-5 117.5t-1 119v90t2 88t8.5 87t20.5 85q156 2 299 0t285 -18q-13 -99 -16 -197t-6 -197.5t-10 -199t-30 -199.5q-10 -8 -23.5 -12t-27.5 -8.5t-27.5 -9.5t-19.5 -13
q-4 -6 -4 -12t1 -11.5t3 -11.5t0 -14q37 -8 88 -15.5t104.5 -8.5t103.5 6.5t85 23.5q2 14 0 25.5t-6 23.5q-15 4 -32 5t-33.5 2t-34 3t-29.5 9q-6 65 -6 135.5t2 144.5t4 149.5t0 153.5q0 23 1 49.5t2 54t4 53.5t5 46q2 12 8 24.5t4 24.5q-4 35 -21.5 56.5t-45 30.5
t-60 12.5t-69.5 3.5t-74 1t-68 7q-2 49 -4 94t-2 88t2 85t11 83q18 6 41.5 5t47 0t43 5t27.5 21q0 28 -16.5 44.5t-43 27t-61 14.5t-69.5 4h-69t-60 2q-37 2 -68 5t-52.5 -2t-32.5 -24.5t-13 -64.5q14 -17 42 -23t59.5 -8t60 -2t47.5 -4q-8 -37 -9 -82t-1 -90t-1.5 -87
t-7.5 -73q-12 -2 -19 1t-13.5 8.5t-11.5 11.5t-11 10q-6 -4 -9 -11.5t-5 -15.5t-5 -14t-12 -8q-34 8 -68 10t-67 0t-62.5 -12.5t-54.5 -28.5q-10 -78 -13 -162t-4 -170t-1 -173t-6 -171q-2 -31 -4 -61.5t-5 -60t-9.5 -58.5t-18.5 -53q-23 2 -43.5 3t-37.5 -3t-29.5 -14.5
t-18.5 -28.5q18 -27 47 -41.5t64.5 -19.5t75.5 -4t80 6t78 11.5t67 10.5z" />
</svg>
