<?xml version="1.0" standalone="no"?>
<!DOCTYPE svg PUBLIC "-//W3C//DTD SVG 1.1//EN" "http://www.w3.org/Graphics/SVG/1.1/DTD/svg11.dtd" >
<svg xmlns="http://www.w3.org/2000/svg" xmlns:xlink="http://www.w3.org/1999/xlink" version="1.1" viewBox="-10 0 1339 2048">
   <path fill="currentColor"
d="M393 407q-12 4 -24.5 3t-22.5 -2t-20.5 -1t-18.5 6q-8 84 23.5 161t90 135.5t135.5 90t157 25.5q63 -4 116.5 -36t94.5 -83t65.5 -116.5t30.5 -139.5q-6 -12 -20.5 -18t-30 -10.5t-30.5 -8.5t-27.5 -11t-16.5 -21.5t2 -40.5q29 -2 61.5 -7.5t68.5 -9.5t69.5 -6t65.5 1
t58.5 14.5t45.5 31.5q2 21 -6.5 31t-12.5 24q-18 -2 -35.5 -1t-32 3.5t-29.5 3.5t-32 1q-12 59 -24.5 116.5t-31 108.5t-48 92t-74.5 64q-4 32 -28.5 53.5t-57.5 37t-68.5 29t-66.5 27.5q2 37 10 68.5t8 72.5q35 11 75 5.5t77 -10.5t68.5 0t50.5 36q0 41 -10.5 63.5t-30 34
t-45 13.5t-55 0t-63.5 -5.5t-67 -1.5q-2 31 1 62t7.5 63.5t9.5 66.5t7 73q20 0 44.5 2t48.5 6t43.5 12t31.5 21.5t14 34t-10 47.5q-19 10 -42.5 10t-52 -2t-61.5 -5t-65 -3q-19 0 -44.5 5t-52 10t-52 6t-45 -6t-30 -24.5t-4.5 -52.5q0 -2 5.5 -7t1.5 -11q20 -17 49.5 -22
t60.5 -9q21 -21 29 -51.5t9 -65.5t-2 -73.5t-5 -79.5q-31 -7 -68 -2.5t-73.5 8.5t-70.5 4t-59 -17q-8 -24 -7 -45.5t9.5 -40t21.5 -31t32 -18.5q49 17 103 22t106 -3q10 -15 12 -36.5t1 -44t-4 -46t-9 -39.5q-31 -15 -66 -27t-67.5 -25.5t-65.5 -26.5t-59 -32
q-41 -35 -72 -82t-53.5 -99t-40 -110.5t-31.5 -119.5h-104q-15 -15 -22 -32.5t-3 -47.5q20 -11 60 -23t86.5 -19t91.5 -8t76.5 9t44 34.5t-8.5 67.5z" />
</svg>
