<?xml version="1.0" standalone="no"?>
<!DOCTYPE svg PUBLIC "-//W3C//DTD SVG 1.1//EN" "http://www.w3.org/Graphics/SVG/1.1/DTD/svg11.dtd" >
<svg xmlns="http://www.w3.org/2000/svg" xmlns:xlink="http://www.w3.org/1999/xlink" version="1.1" viewBox="-10 0 607 1000">
   <path fill="currentColor"
d="M569 126l-5 46q-11 54 -47 95q-27 31 -85 71q35 26 71 87q45 77 41 143q-5 98 -91 172q-78 67 -167 67q-113 0 -191 -72q-69 -65 -69 -199q0 -45 36 -103q39 -63 95 -100q-72 -58 -108 -154q-7 -17 -13 -50q58 48 117 97q74 59 134 59q69 0 138 -34q85 -42 144 -125z
M499 547q0 -69 -64 -137q-67 -71 -144 -71q-84 0 -148 53q-74 62 -74 167q0 103 72 156q60 46 153 46q64 0 132 -65q73 -69 73 -149z" />
</svg>
