<?xml version="1.0" standalone="no"?>
<!DOCTYPE svg PUBLIC "-//W3C//DTD SVG 1.1//EN" "http://www.w3.org/Graphics/SVG/1.1/DTD/svg11.dtd" >
<svg xmlns="http://www.w3.org/2000/svg" xmlns:xlink="http://www.w3.org/1999/xlink" version="1.1" viewBox="-10 0 1033 1000">
   <path fill="currentColor"
d="M966 799h-897q69 -80 69 -86q0 -3 7 -9t11 -22q6 -23 5 -69q0 -42 -10 -73q-23 -79 -94 -133v-86h226q10 -120 141 -199q5 -40 27 -66t52 -26q70 -2 76 89q73 28 114.5 81.5t42.5 120.5h224q1 84 0 85q-54 61 -60 72q-22 40 -21 117q1 71 44 140q21 32 43 64zM553 113
q-21 -55 -49 -52q-39 4 -49 55l47 -9zM692 321l-1 -35q1 -57 -67 -101q-61 -40 -125 -40q-49 0 -110.5 52t-60.5 99v25h364zM927 402v-41l-832 -1v41zM888 765q-24 -17 -42 -75q-16 -52 -17 -93q-1 -34 13.5 -83.5t33.5 -78.5h-723q32 69 38 87q16 42 16 81q1 51 -52 162
h733z" />
</svg>
