<?xml version="1.0" standalone="no"?>
<!DOCTYPE svg PUBLIC "-//W3C//DTD SVG 1.1//EN" "http://www.w3.org/Graphics/SVG/1.1/DTD/svg11.dtd" >
<svg xmlns="http://www.w3.org/2000/svg" xmlns:xlink="http://www.w3.org/1999/xlink" version="1.1" viewBox="-10 0 559 1000">
   <path fill="currentColor"
d="M495 271l-4 37q-9 41 -39 66q-34 24 -69 48q28 21 57 70q37 62 34 116q-4 79 -74 139q-63 55 -135 55q-92 0 -155 -59q-56 -53 -56 -161q0 -36 30.5 -85t75.5 -79q-70 -57 -87 -104q-6 -14 -11 -41q44 31 87 62q53 34 98 42v-254h-75l-32 33l-53 -53l53 -52l29 30h206
l30 -30l52 52l-52 52l-31 -32h-89v254q143 -13 210 -106zM438 591q0 -56 -53 -112.5t-116 -56.5q-68 0 -120 43q-60 50 -60 136q0 83 58 126q49 37 124 37q52 0 109.5 -54.5t57.5 -118.5z" />
</svg>
