<?xml version="1.0" standalone="no"?>
<!DOCTYPE svg PUBLIC "-//W3C//DTD SVG 1.1//EN" "http://www.w3.org/Graphics/SVG/1.1/DTD/svg11.dtd" >
<svg xmlns="http://www.w3.org/2000/svg" xmlns:xlink="http://www.w3.org/1999/xlink" version="1.1" viewBox="-10 0 865 1000">
   <path fill="currentColor"
d="M784 431q0 157 -89 260q-94 109 -248 109q-91 0 -196 -54q-180 -93 -180 -306q0 -146 94 -255q99 -115 242 -115q151 0 264 106t113 255zM755 447q-2 -12 -6 -37q-11 21 -11 65l1 56zM706 554v-107q0 -7 -5 -18q-19 13 -19 54l3 91q21 -16 21 -20zM687 257q0 -32 -99 -87
q-95 -53 -133 -53h-22q10 8 24 31.5t14 34.5v36q-3 4 -21 37t-20 33q-1 -7 -1 -21v-23q1 -114 -75 -114q-64 0 -126.5 47.5t-78.5 109.5q39 29 113 51q71 22 122 22q118 0 249 -61q12 -6 31 -19q23 -17 23 -24zM658 529v-18q0 -45 -11 -60q-16 20 -16 45v60q0 31 3 45
q24 1 24 -72zM602 556q1 -20 -5 -48q-8 -35 -21 -35q-11 0 -16.5 15.5t-5.5 28.5q0 25 8 100q5 8 11 8q11 0 27 -10zM740 367q0 -1 -17 -40q-11 -27 -23 -36q-28 34 -149 69q-110 33 -168 33q-112 0 -245 -76q-28 43 -28 87q28 10 42 47l30 -5q11 0 23 15q16 19 21 21
q14 -14 24 -14q12 0 22 10.5t19 20.5q15 -17 33 -17q15 0 30.5 11t16.5 11q23 -22 43 -22q12 0 44 20q25 -27 46 -27q16 0 30 7q17 -39 48 -39q4 0 12 5t12 5q17 -36 46 -36q6 0 13 2q17 -28 35 -28q8 0 15 4q8 -15 25 -28zM534 632v-54q0 -23 -6 -45q-8 -31 -24 -31
q-9 0 -18 23t-9 34v90zM447 618q1 -27 -6 -59q-10 -45 -28 -45q-12 0 -22.5 20.5t-10.5 34.5v84h66zM704 606q-153 80 -297 80q-125 0 -219 -43q25 48 111 86q78 34 140 34q162 0 265 -157zM353 563q0 -15 -7.5 -33.5t-20.5 -18.5q-8 0 -14 18q-4 14 -4 25v55q0 43 35 43
q6 0 8 -3zM277 606q0 -22 -5 -56q-7 -44 -17 -51h-11l-7 63l4 70q18 2 31 8q5 -23 5 -34zM207 615v-91q0 -25 -25 -44q-5 5 -21 40q0 33 11 77q20 15 35 18zM134 560v-50q0 -53 -23 -69q-3 10 -3 25q0 64 26 94z" />
</svg>
