<?xml version="1.0" standalone="no"?>
<!DOCTYPE svg PUBLIC "-//W3C//DTD SVG 1.1//EN" "http://www.w3.org/Graphics/SVG/1.1/DTD/svg11.dtd" >
<svg xmlns="http://www.w3.org/2000/svg" xmlns:xlink="http://www.w3.org/1999/xlink" version="1.1" viewBox="-10 0 453 1000">
   <path fill="currentColor"
d="M408 504h-162v55h160v32h-160v33h160v32h-160v33h160v32h-160v79h-39v-79h-161v-32h161v-33h-161v-32h161v-33h-161v-32h161v-55h-159v-31h159v-34h-159v-32h159v-33h-159v-31h159v-66l-162 -161h363l-162 161v66h162v31h-162v33h162v32h-162v34h162v31zM327 146l-202 -1
l101 101z" />
</svg>
