<?xml version="1.0" standalone="no"?>
<!DOCTYPE svg PUBLIC "-//W3C//DTD SVG 1.1//EN" "http://www.w3.org/Graphics/SVG/1.1/DTD/svg11.dtd" >
<svg xmlns="http://www.w3.org/2000/svg" xmlns:xlink="http://www.w3.org/1999/xlink" version="1.1" viewBox="-10 0 988 1000">
   <path fill="currentColor"
d="M929 329l-128 229v-72h-139v280h182l70 -38l-137 220l37 -139h-212v-323h-316v31v24v13q0 85 1 197l53 47l-86 29l-65 -30l43 -48q2 -116 2 -194q0 -37 -1 -69h-99l-72 50l13 -87l62 -63v69h95v-229q-8 -3 -29 -5q-44 -5 -59 -10q-35 -13 -35 -42q0 -57 76 -57
q35 0 62.5 22.5t38.5 56.5h317q27 -79 102 -79q84 0 84 59q0 27 -53 43q-34 10 -74 12v229h141zM750 160q0 -26 -29 -26q-64 0 -64 43q1 2 3 7l2 6q7 1 23 1q65 0 65 -31zM602 455v-228h-315v228h315zM233 168q0 -12 -24 -21q-20 -8 -36 -8q-28 0 -28 22q0 14 22 23
q18 9 36 9h15q9 -1 14 -1z" />
</svg>
