<?xml version="1.0" standalone="no"?>
<!DOCTYPE svg PUBLIC "-//W3C//DTD SVG 1.1//EN" "http://www.w3.org/Graphics/SVG/1.1/DTD/svg11.dtd" >
<svg xmlns="http://www.w3.org/2000/svg" xmlns:xlink="http://www.w3.org/1999/xlink" version="1.1" viewBox="-10 0 938 1000">
   <path fill="currentColor"
d="M914 160q-25 46 -46 79q-50 80 -68 82q-12 2 -14 -15.5t-4 -34.5l-152 111l25 32h32v71h-72v-40l-26 -33q-166 110 -166 125q0 6 22 35q12 16 25 32q48 71 109 117q66 48 122 48q44 0 71 -34q23 -29 23 -66q0 -25 -19 -44.5t-40 -19.5q-19 0 -33.5 11t-14.5 27q0 9 6 24
q8 19 19 19h21q4 -4 4 -5q-31 -4 -31 -29q0 -9 10 -17.5t17 -8.5q11 0 24 12.5t13 24.5q0 40 -50 40q-25 0 -38.5 -16t-13.5 -38q0 -29 24 -47q21 -16 45 -16q36 0 59.5 27t23.5 62q0 51 -39.5 86t-87.5 35q-114 0 -246 -141q-105 -130 -209 -260q-114 -140 -182 -140h-6
q-4 1 -7 1q-5 0 -21 -8l145 -21l58 -133q7 18 7 31q0 3 -5 26.5t-5 26.5q0 64 70 174q26 41 102 141l165 -118l-25 -32h-28v-72h71v39l23 36l156 -112q-3 -5 -30.5 -10.5t-24.5 -17.5q5 -18 79 -33l126 -24q7 1 7 11z" />
</svg>
