<?xml version="1.0" standalone="no"?>
<!DOCTYPE svg PUBLIC "-//W3C//DTD SVG 1.1//EN" "http://www.w3.org/Graphics/SVG/1.1/DTD/svg11.dtd" >
<svg xmlns="http://www.w3.org/2000/svg" xmlns:xlink="http://www.w3.org/1999/xlink" version="1.1" viewBox="-10 0 854 1000">
   <path fill="currentColor"
d="M799 577l-344 1q8 24 8 62q0 64 -18 136q111 41 117 44q75 38 75 90q0 26 -22.5 45.5t-48.5 19.5q-20 0 -36.5 -13.5t-16.5 -33.5q0 -15 10 -28t25 -13q33 0 33 31q0 19 -11 19l-10 -5l-7 -9q5 -6 11 -21h-11q-6 -1 -16 3q-9 9 -9 26q0 26 34 26q22 0 36.5 -14.5
t14.5 -36.5q0 -28 -40 -47q-5 -3 -63 -22q-26 -10 -77 -27q-79 97 -100 113q-51 39 -144 39q-144 0 -144 -118q0 -34 41 -70q36 -31 74 -42q23 -7 60 -7q90 0 178 36q2 -15 2 -38q0 -80 -17 -146h-329l378 -463zM708 533l-276 -348l-279 348h555zM386 796q-64 -20 -133 -20
q-54 0 -96 15q-59 21 -59 65q0 36 24 57t60 21q138 0 204 -138z" />
</svg>
