<?xml version="1.0" standalone="no"?>
<!DOCTYPE svg PUBLIC "-//W3C//DTD SVG 1.1//EN" "http://www.w3.org/Graphics/SVG/1.1/DTD/svg11.dtd" >
<svg xmlns="http://www.w3.org/2000/svg" xmlns:xlink="http://www.w3.org/1999/xlink" version="1.1" viewBox="-10 0 826 1000">
   <path fill="currentColor"
d="M789 747l-28 67q-23 -33 -57 -33q-8 0 -15 2l-101 16q-69 -1 -122 -88q-42 -69 -63 -170q-21 101 -62 170q-52 87 -121 89l-102 -16q-6 -2 -15 -2q-34 0 -56 32l-29 -66l25 -81q13 22 47 64q38 40 109 39q82 -2 122 -88q31 -68 30 -169l2 -25h-142l-47 58l-35 -70l35 -72
q14 16 45 51h144q-1 -8 0 -19l-5 -52q-22 -218 -113 -216q-50 1 -107 29q-68 34 -85 83l-23 -89l24 -88l32 38q21 25 38 27l109 -28l50 -1q95 -2 131 224q37 -226 130 -224l50 1l109 28q18 -3 39 -27q16 -19 32 -39l23 89l-23 89q-16 -49 -84 -83q-58 -29 -107 -30
q-92 -2 -114 217l-5 52q-1 8 0 19h144q13 -17 26.5 -35t18.5 -16l35 72l-35 70l-47 -59h-142v26q-1 100 31 169q41 86 124 88q70 1 109 -39q18 -20 46 -64z" />
</svg>
