<?xml version="1.0" standalone="no"?>
<!DOCTYPE svg PUBLIC "-//W3C//DTD SVG 1.1//EN" "http://www.w3.org/Graphics/SVG/1.1/DTD/svg11.dtd" >
<svg xmlns="http://www.w3.org/2000/svg" xmlns:xlink="http://www.w3.org/1999/xlink" version="1.1" viewBox="-10 0 1218 2048">
   <path fill="currentColor"
d="M218 915q0 -88 31 -157q32 -71 83 -121l-268 -433h206l197 347q66 -25 145 -25q80 0 152 29q1 1 4 1l211 -352h193l-277 436q48 48 79 118q32 72 32 157t-32 158q-31 70 -79 118l283 447h-205l-212 -361q-71 27 -149 27q-82 0 -153 -28l-7 -3l-220 365h-206l300 -450
q-49 -51 -77 -115q-31 -71 -31 -158zM353 915q0 56 19 101q12 31 31 56l103 -155l-101 -162q-19 26 -33 59q-19 45 -19 101zM852 1016q19 -45 19 -101t-19 -101q-7 -15 -14.5 -29t-17.5 -27l-99 157l99 158q10 -13 17.5 -27t14.5 -30zM606 1018l-85 141q42 15 91 15
q44 0 82 -12l-84 -144h-4zM614 808h4l82 -138q-42 -14 -88 -14q-40 0 -79 11z" />
</svg>
