<?xml version="1.0" standalone="no"?>
<!DOCTYPE svg PUBLIC "-//W3C//DTD SVG 1.1//EN" "http://www.w3.org/Graphics/SVG/1.1/DTD/svg11.dtd" >
<svg xmlns="http://www.w3.org/2000/svg" xmlns:xlink="http://www.w3.org/1999/xlink" version="1.1" viewBox="-10 0 904 1000">
   <path fill="currentColor"
d="M843 797q-4 11 -45 27t-56 16q-52 0 -112 -43q-63 -46 -68 -96q-140 91 -203 91q-76 0 -119 -63q-36 -55 -36 -135q0 -22 3 -40l-2 -8q-79 59 -101.5 97t-31.5 133q-2 22 -13 64q-8 -32 -8 -104q0 -107 119 -202q18 -11 53 -36q10 -26 26 -63q29 -58 78 -113
q20 -22 96 -96l7 -8q-37 -46 -61 -64q-37 -30 -80 -30q-37 0 -82 21q11 -19 31 -36q24 -19 43 -19q100 0 185 112q85 -38 123 -38q93 0 141 88q19 -24 38 -97q12 -51 23 -102q5 18 5 65q0 38 -16 85q-3 10 -32 82q11 61 11 64q0 92 -53 180q-37 64 -118 148q0 49 57 93
q55 40 106 40q14 0 42 -7t42 -7zM705 294q-6 -36 -39 -65t-69 -29q-53 0 -110 38l49 166zM718 373q0 -13 -3 -47l-175 113l39 196q139 -151 139 -262zM500 418q-17 -53 -50 -159q-135 131 -180 222zM550 657l-41 -204q-127 33 -258 72q-9 17 -9 52q0 177 116 177
q34 0 105 -34q76 -36 87 -63zM648 277q0 14 -10.5 24.5t-25.5 10.5q-14 0 -24.5 -10.5t-10.5 -24.5q0 -15 10.5 -25.5t24.5 -10.5q15 0 25.5 10.5t10.5 25.5zM653 458q0 31 -31 31q-30 0 -30 -31t30 -31q31 0 31 31zM449 377q0 13 -9 22t-22 9t-22 -9t-9 -22t9 -22t22 -9
t22 9t9 22zM453 605q0 22 -16.5 38.5t-38.5 16.5t-38.5 -16.5t-16.5 -38.5t16.5 -38.5t38.5 -16.5t38.5 16.5t16.5 38.5z" />
</svg>
