<?xml version="1.0" standalone="no"?>
<!DOCTYPE svg PUBLIC "-//W3C//DTD SVG 1.1//EN" "http://www.w3.org/Graphics/SVG/1.1/DTD/svg11.dtd" >
<svg xmlns="http://www.w3.org/2000/svg" xmlns:xlink="http://www.w3.org/1999/xlink" version="1.1" viewBox="-10 0 1202 1000">
   <path fill="currentColor"
d="M1165 62q-71 91 -57 86q52 -20 54 -22q-12 19 -89 66q-72 45 -78 65q51 -1 58 0l-169 78q9 6 28 6t30 6q-60 20 -120 39q-77 28 -112 57l-146 318l33 30l-72 50l-56 -50l48 -37l130 -297l-230 63q-194 279 -301 279q-33 0 -55.5 -21.5t-22.5 -54.5q0 -26 21 -46.5
t47 -20.5q6 0 13 2q27 6 27 39q0 11 -6 17q-29 -29 -27 -29q-15 0 -26 10.5t-11 24.5q0 20 14 38t33 18q47 0 147 -107q96 -102 101 -138q-77 12 -103 10q-100 -6 -135 -18q-65 -22 -65 -84q0 -31 18.5 -55t44.5 -24q9 0 18 3q28 9 36 27t14 35l-62 -33q-45 1 -45 45
q0 41 55 64q47 19 115 20q61 0 122 -17l88 -165l338 -128l-70 167q27 -8 68 -53q31 -33 62 -67l-6 57q34 -8 69 -66q22 -44 45 -87q9 35 7 49q53 -11 116 -143l-14 59zM700 342l-227 89l-38 63l223 -64z" />
</svg>
