<?xml version="1.0" standalone="no"?>
<!DOCTYPE svg PUBLIC "-//W3C//DTD SVG 1.1//EN" "http://www.w3.org/Graphics/SVG/1.1/DTD/svg11.dtd" >
<svg xmlns="http://www.w3.org/2000/svg" xmlns:xlink="http://www.w3.org/1999/xlink" version="1.1" viewBox="-10 0 564 1000">
   <path fill="currentColor"
d="M503 166l-34 -48q-31 -40 -52 -40q-49 0 -49 88v34l33 325q0 75 -26 116q-11 17 -36 38q-19 16 -19 27q0 33 14 49.5t55 26.5q0 6 21 20h-277q-1 -9 13 -14q27 -11 27 -12q28 -7 35 -29q3 -8 3 -31q0 -17 -18 -30q-24 -17 -37 -48t-13 -119q0 -65 24 -191t24 -164
q0 -32 -11 -55q-14 -31 -42 -31q-37 0 -83 71q-5 -1 -5 -6t5 -15.5t5 -11.5q-2 -25 25.5 -45t56.5 -20q42 0 63 39q17 31 17 77q0 51 -23 180t-23 182q0 32 13 76q21 67 59 67q2 0 14 -1t15 -1q45 0 70 -56q19 -41 19 -85q0 5 -14.5 -141.5t-14.5 -207.5q0 -129 90 -129
q43 0 66 65q11 30 11 46q0 3 -1 4z" />
</svg>
