<?xml version="1.0" standalone="no"?>
<!DOCTYPE svg PUBLIC "-//W3C//DTD SVG 1.1//EN" "http://www.w3.org/Graphics/SVG/1.1/DTD/svg11.dtd" >
<svg xmlns="http://www.w3.org/2000/svg" xmlns:xlink="http://www.w3.org/1999/xlink" version="1.1" viewBox="-10 0 1456 2048">
   <path fill="currentColor"
d="M1356 1027q0 87 -22.5 167.5t-64 149.5t-99.5 126t-128.5 97t-151 62t-167.5 22t-167.5 -22t-151 -62t-128.5 -97t-99.5 -126t-64 -149.5t-22.5 -167.5q0 -130 50 -244t136 -198t201 -132.5t246 -48.5q87 0 167.5 22t151 62t128.5 97t99.5 126t64 149t22.5 167z
M1206 1027q0 -103 -36.5 -192.5t-101.5 -155.5t-153.5 -104t-191.5 -38q-104 0 -192 38t-153 104t-101.5 155.5t-36.5 192.5q0 104 36.5 193.5t101.5 155.5t153 104t192 38q103 0 191.5 -38t153.5 -104t101.5 -155.5t36.5 -193.5zM723 1396q-33 0 -62 -13t-50.5 -34.5
t-34 -50.5t-12.5 -62t13 -62.5t34.5 -51.5t50.5 -35t61 -13q34 0 63 13t51 35.5t34.5 52t12.5 61.5q0 34 -13 63t-35.5 50.5t-51.5 34t-61 12.5zM537 1083q-33 0 -62 -13t-50.5 -34.5t-34 -50.5t-12.5 -62t13 -62.5t34.5 -51.5t50.5 -35t61 -13q34 0 63 13t51 35.5t34.5 52
t12.5 61.5q0 34 -13 63t-35.5 50.5t-51.5 34t-61 12.5zM907 1083q-33 0 -62 -13t-50.5 -34.5t-34 -50.5t-12.5 -62t13 -62.5t34.5 -51.5t50.5 -35t61 -13q34 0 63 13t51 35.5t34.5 52t12.5 61.5q0 34 -13 63t-35.5 50.5t-51.5 34t-61 12.5z" />
</svg>
