<?xml version="1.0" standalone="no"?>
<!DOCTYPE svg PUBLIC "-//W3C//DTD SVG 1.1//EN" "http://www.w3.org/Graphics/SVG/1.1/DTD/svg11.dtd" >
<svg xmlns="http://www.w3.org/2000/svg" xmlns:xlink="http://www.w3.org/1999/xlink" version="1.1" viewBox="-10 0 622 1000">
   <path fill="currentColor"
d="M498 113q0 28 -27 28q-28 0 -28 -28q0 -27 28 -27q27 0 27 27zM560 243q0 28 -27 28q-28 0 -28 -28q0 -27 28 -27q27 0 27 27zM517 387q0 28 -27 28q-28 0 -28 -28q0 -27 28 -27q27 0 27 27zM169 113q0 28 -27 28q-28 0 -28 -28q0 -27 28 -27q27 0 27 27zM479 578l-58 57
l-33 -33h-66v157l38 41h-119l40 -41v-157h-63l-32 33l-58 -58l58 -57l35 35h60v-136q-57 -9 -96 -53t-39 -101q0 -65 45.5 -110.5t109.5 -45.5q65 0 110.5 45.5t45.5 110.5q0 57 -39 100.5t-96 52.5v137h65l34 -34zM107 243q0 28 -27 28q-28 0 -28 -28q0 -27 28 -27
q27 0 27 27zM150 387q0 28 -27 28q-28 0 -28 -28q0 -27 28 -27q27 0 27 27zM414 265q0 -47 -33 -80t-80 -33q-46 0 -79 33t-33 80q0 46 33 79t79 33q47 0 80 -33t33 -79zM378 239q0 28 -27 28q-28 0 -28 -28q0 -27 28 -27q27 0 27 27zM283 236q0 28 -28 28q-27 0 -27 -28
q0 -27 27 -27q28 0 28 27zM329 316q0 28 -27 28q-28 0 -28 -28q0 -27 28 -27q27 0 27 27z" />
</svg>
