<?xml version="1.0" standalone="no"?>
<!DOCTYPE svg PUBLIC "-//W3C//DTD SVG 1.1//EN" "http://www.w3.org/Graphics/SVG/1.1/DTD/svg11.dtd" >
<svg xmlns="http://www.w3.org/2000/svg" xmlns:xlink="http://www.w3.org/1999/xlink" version="1.1" viewBox="-10 0 1030 1000">
   <path fill="currentColor"
d="M961 386q0 69 -30 112q-34 49 -100 49q-34 0 -94 -22q-18 110 -67 182q-62 94 -159 94q-159 0 -201 -259q-97 28 -111 28q-63 0 -102 -48t-39 -112q0 -82 53 -170q122 -204 396 -204q103 0 207.5 49.5t171.5 128.5q25 30 49 82q26 57 26 90zM924 412q0 -87 -73 -177
q-69 -84 -154 -120q-30 -13 -76 -23q-39 -8 -77 -17v61q0 84 45.5 175t112.5 142q75 57 130 57q40 0 66 -29t26 -69zM693 501q-111 -69 -168 -256q-21 80 -85 170q-1 1 -47 58q-39 48 -39 52q0 65 34 143q40 93 96 93h37q79 0 129 -94q39 -76 43 -166zM508 173q0 -10 -3 -19
v-79q-82 1 -129 11q-55 13 -118 51q-54 33 -108 111q-57 83 -57 141q0 64 27 102q31 44 93 44q91 0 196 -136q99 -131 99 -226z" />
</svg>
