<?xml version="1.0" standalone="no"?>
<!DOCTYPE svg PUBLIC "-//W3C//DTD SVG 1.1//EN" "http://www.w3.org/Graphics/SVG/1.1/DTD/svg11.dtd" >
<svg xmlns="http://www.w3.org/2000/svg" xmlns:xlink="http://www.w3.org/1999/xlink" version="1.1" viewBox="-10 0 1054 1000">
   <path fill="currentColor"
d="M1021 743l-29 59q-17 -13 -53 -25q-32 -10 -50 -11q-38 -3 -79 -25q-74 -41 -116 -113q-38 -65 -38 -130h-396q-4 11 -14 32q-37 73 -113 73q-95 0 -95 -85q0 -95 102 -95q27 0 42.5 15t15.5 33q0 9 -4 15q-22 -39 -60 -37q-67 4 -67 69q0 26 20.5 40t52.5 13
q50 -1 73 -52q13 -29 16 -64h427q11 -145 76 -193q10 -7 30 -22q28 -24 56 -34q39 -8 111 -25q54 -14 63 -34l24 76q-11 33 -28 64q-18 -22 -27 -29q-15 -10 -36 -9q-20 0 -59 3q-113 8 -155 90q-31 60 -31 74q0 5 1 39h118l36 -39l58 59l-58 58l-35 -35h-117v22q0 14 10 33
l18 30q27 60 99 97q62 32 116 32q16 0 35 -17q27 -25 30 -27zM163 515q0 30 -30 30t-30 -30q0 -29 30 -29t30 29z" />
</svg>
