<?xml version="1.0" standalone="no"?>
<!DOCTYPE svg PUBLIC "-//W3C//DTD SVG 1.1//EN" "http://www.w3.org/Graphics/SVG/1.1/DTD/svg11.dtd" >
<svg xmlns="http://www.w3.org/2000/svg" xmlns:xlink="http://www.w3.org/1999/xlink" version="1.1" viewBox="-10 0 765 1000">
   <path fill="currentColor"
d="M721 470l-236 -361q-3 -4 -5 -4l-1 1h-1q-6 0 -6 4l1 2v1l173 332h-233v-350h-71v350h-233l172 -330v-1l1 -2q0 -4 -6 -5q-5 0 -7 3l-235 360h308v145h-63q-11 0 -15.5 -7.5t-4.5 -12.5v65q1 -5 5 -13t15 -8h63v127q0 17 -10 24.5t-17 9.5h127q-7 -2 -18 -9.5t-11 -24.5
v-127h63q11 0 15.5 8t4.5 13v-65q0 5 -4.5 12.5t-15.5 7.5h-63v-145h308z" />
</svg>
