<?xml version="1.0" standalone="no"?>
<!DOCTYPE svg PUBLIC "-//W3C//DTD SVG 1.1//EN" "http://www.w3.org/Graphics/SVG/1.1/DTD/svg11.dtd" >
<svg xmlns="http://www.w3.org/2000/svg" xmlns:xlink="http://www.w3.org/1999/xlink" version="1.1" viewBox="-10 0 593 1000">
   <path fill="currentColor"
d="M323 483q20 6 49 6q56 0 93 -30q-19 7 -50 7q-50 0 -83 -22q21 -97 45.5 -159.5t53 -96t62.5 -46t80 -12.5q-45 -10 -75 -10q-96 0 -151 67.5t-90 215.5l-5 -1q-24 -5 -33 -5q-25 0 -60.5 11.5t-53.5 28.5q4 -1 11 -3q19 -4 35.5 -7t31.5 -3q39 0 65 15
q-22 100 -44.5 162.5t-48.5 96.5t-57 47t-74 13q39 9 80 9q89 0 137 -67t82 -217z" />
</svg>
