<?xml version="1.0" standalone="no"?>
<!DOCTYPE svg PUBLIC "-//W3C//DTD SVG 1.1//EN" "http://www.w3.org/Graphics/SVG/1.1/DTD/svg11.dtd" >
<svg xmlns="http://www.w3.org/2000/svg" xmlns:xlink="http://www.w3.org/1999/xlink" version="1.1" viewBox="-10 0 1035 1000">
   <path fill="currentColor"
d="M958 797h-891v-476h556l211 -268q30 74 64 74q32 0 32 -24t-30 -71l44 26q14 0 14 41q0 61 -66 60q-27 0 -61 -52l-164 214h291v476zM915 747v-383h-277l-119 137q9 33 9 39q0 20 -14 33t-32 13t-35 -13.5t-17 -32.5q0 -21 17.5 -37.5t41.5 -13.5q2 -1 107 -125h-483v383
h802z" />
</svg>
