<?xml version="1.0" standalone="no"?>
<!DOCTYPE svg PUBLIC "-//W3C//DTD SVG 1.1//EN" "http://www.w3.org/Graphics/SVG/1.1/DTD/svg11.dtd" >
<svg xmlns="http://www.w3.org/2000/svg" xmlns:xlink="http://www.w3.org/1999/xlink" version="1.1" viewBox="-10 0 762 1000">
   <path fill="currentColor"
d="M662 664q0 29 -29 29q-28 0 -28 -29t28 -29q29 0 29 29zM567 577q0 29 -29 29t-29 -29t29 -29t29 29zM394 413q0 29 -29 29q-28 0 -28 -29t28 -29q29 0 29 29zM475 499q0 29 -29 29t-29 -29q0 -28 29 -28t29 28zM740 768q0 28 -29 28t-29 -28q0 -29 29 -29t29 29z
M325 491q0 29 -29 29t-29 -29t29 -29t29 29zM406 577q0 29 -29 29t-29 -29t29 -29t29 29zM486 661q0 29 -28 29q-29 0 -29 -29t29 -29q28 0 28 29zM579 768q0 28 -29 28t-29 -28q0 -29 29 -29t29 29zM244 574q0 29 -29 29q-28 0 -28 -29q0 -28 28 -28q29 0 29 28zM325 661
q0 29 -29 29t-29 -29t29 -29t29 29zM403 765q0 29 -29 29t-29 -29t29 -29t29 29zM161 678q0 29 -29 29t-29 -29t29 -29t29 29zM241 765q0 29 -28 29q-29 0 -29 -29t29 -29q28 0 28 29zM77 768q0 28 -29 28t-29 -28q0 -29 29 -29t29 29z" />
</svg>
