<?xml version="1.0" standalone="no"?>
<!DOCTYPE svg PUBLIC "-//W3C//DTD SVG 1.1//EN" "http://www.w3.org/Graphics/SVG/1.1/DTD/svg11.dtd" >
<svg xmlns="http://www.w3.org/2000/svg" xmlns:xlink="http://www.w3.org/1999/xlink" version="1.1" viewBox="-10 0 812 1000">
   <path fill="currentColor"
d="M529 203l-46 46l-28 -28h-38v68l-26 58l-23 -58v-68h-47v0l-25 25l-46 -46l46 -47l30 30h42v-70l-26 -26l51 -51l52 51l-28 28v68h39l27 -27zM683 664q0 29 -28 29q-29 0 -29 -29t29 -29q28 0 28 29zM588 577q0 29 -29 29q-28 0 -28 -29t28 -29q29 0 29 29zM415 413
q0 29 -29 29q-28 0 -28 -29t28 -29q29 0 29 29zM496 499q0 29 -29 29t-29 -29q0 -28 29 -28t29 28zM761 768q0 28 -29 28q-28 0 -28 -28q0 -29 28 -29q29 0 29 29zM346 491q0 29 -29 29t-29 -29t29 -29t29 29zM427 577q0 29 -29 29t-29 -29t29 -29t29 29zM507 661
q0 29 -28 29q-29 0 -29 -29t29 -29q28 0 28 29zM600 768q0 28 -29 28t-29 -28q0 -29 29 -29t29 29zM265 574q0 29 -29 29q-28 0 -28 -29q0 -28 28 -28q29 0 29 28zM346 661q0 29 -29 29t-29 -29t29 -29t29 29zM424 765q0 29 -29 29t-29 -29t29 -29t29 29zM182 678
q0 29 -29 29t-29 -29t29 -29t29 29zM262 765q0 29 -28 29q-29 0 -29 -29t29 -29q28 0 28 29zM98 768q0 28 -29 28t-29 -28q0 -29 29 -29t29 29z" />
</svg>
