<?xml version="1.0" standalone="no"?>
<!DOCTYPE svg PUBLIC "-//W3C//DTD SVG 1.1//EN" "http://www.w3.org/Graphics/SVG/1.1/DTD/svg11.dtd" >
<svg xmlns="http://www.w3.org/2000/svg" xmlns:xlink="http://www.w3.org/1999/xlink" version="1.1" viewBox="-10 0 935 1000">
   <path fill="currentColor"
d="M905 607q0 114 -107 120q-33 2 -62.5 -31t-24.5 -64q3 -15 10 -33q6 -14 7 -40q1 -17 -48 -21q-20 -2 -49 -1h-57l178 259h-735q127 -167 389 -493l130 188h106q18 -2 32 -2q53 0 74 21q18 17 18 56q0 29 -8.5 46t-8.5 29q0 18 12 32q16 18 45 20q36 1 52 -28l18 -42
l-3 -28q-2 1 -11.5 18.5t-23.5 17.5q-8 0 -18 -13t-10 -20q0 -13 15.5 -29.5t28.5 -16.5q15 0 33 20t18 35zM667 752q-87 -127 -265 -369l-286 369h551zM429 605q0 14 -12.5 25t-27.5 11q-36 0 -36 -39q0 -37 38 -37q16 0 27 12t11 28z" />
</svg>
