<?xml version="1.0" standalone="no"?>
<!DOCTYPE svg PUBLIC "-//W3C//DTD SVG 1.1//EN" "http://www.w3.org/Graphics/SVG/1.1/DTD/svg11.dtd" >
<svg xmlns="http://www.w3.org/2000/svg" xmlns:xlink="http://www.w3.org/1999/xlink" version="1.1" viewBox="-10 0 931 1000">
   <path fill="currentColor"
d="M892 717q0 38 -22.5 63t-62.5 25q-47 0 -81 -33q-11 -11 -53 -72q-2 -1 -6 -12q-108 114 -265 114q-151 0 -257.5 -106.5t-106.5 -257.5t106.5 -257.5t257.5 -106.5t257.5 106.5t106.5 257.5q0 118 -70 214q24 47 34 63q14 21 37.5 37t40.5 16q15 0 29.5 -9.5t16.5 -20.5
v-1q-13 11 -31 11q-22 0 -38 -23q-13 -19 -13 -35q0 -14 22 -30q19 -14 27 -14q30 0 50.5 23t20.5 48zM728 438q0 -135 -95.5 -230.5t-230.5 -95.5t-230.5 95.5t-95.5 230.5t95.5 230.5t230.5 95.5q152 0 250 -116q-17 -46 -21 -61q-17 -67 -57 -115q-51 -60 -120 -60
q-31 0 -42 20q-5 40 -36 44q-16 1 -31 -8q-18 -10 -18 -28q0 -20 13 -34.5t34 -14.5q3 0 8.5 2t7.5 3q30 -21 77 -22q78 -1 144 91q45 64 69 144q48 -79 48 -171z" />
</svg>
