<?xml version="1.0" standalone="no"?>
<!DOCTYPE svg PUBLIC "-//W3C//DTD SVG 1.1//EN" "http://www.w3.org/Graphics/SVG/1.1/DTD/svg11.dtd" >
<svg xmlns="http://www.w3.org/2000/svg" xmlns:xlink="http://www.w3.org/1999/xlink" version="1.1" viewBox="-10 0 743 1000">
   <path fill="currentColor"
d="M710 800q-6 -1 -16 -7.5t-16 -21.5l-56 -132h38q12 0 16.5 12t5.5 20v-94q-1 8 -6 20t-16 12h-52l-38 -90h37q11 0 16 11.5t6 19.5v-93q-1 8 -6 19.5t-16 11.5h-50l-39 -90h38q11 0 16.5 11.5t6.5 19.5v-92q-1 7 -6.5 18.5t-16.5 11.5h-51l-39 -89h38q11 0 16 11.5
t6 19.5v-93q-1 8 -6 19.5t-16 11.5h-51l-70 -164l-75 164h-52q-10 0 -15 -11.5t-6 -19.5v93q2 -8 7 -19.5t14 -11.5h38l-41 89h-50q-11 0 -15.5 -11.5t-5.5 -18.5v92q2 -8 7 -19.5t14 -11.5h36l-40 90h-50q-11 0 -15.5 -11.5t-5.5 -19.5v93q1 -8 5.5 -19.5t15.5 -11.5h36
l-41 90h-50q-10 0 -15 -12t-6 -20v94q1 -8 5.5 -20t15.5 -12h36l-60 131q-7 15 -19.5 22t-19.5 8h148q-8 -1 -20 -5.5t-12 -16.5q0 -4 2 -8l59 -131h382l57 132q2 5 2 9q0 10 -8 14.5t-13 5.5h82zM421 247h-35l18 -40zM473 367h-141l40 -89h62zM525 488h-248l40 -90h169z
M577 609h-355l41 -90h275z" />
</svg>
