<svg width="16" height="16" viewBox="0 0 12 12" xmlns="http://www.w3.org/2000/svg"><path style="fill:none;stroke:#000;stroke-width:.60000002;stroke-linecap:round;stroke-linejoin:round;stroke-miterlimit:10;stroke-dasharray:none;stroke-opacity:1" d="m7.875 5.497-1.25-2.165M7.25 2.25C7.25 1.558 6.691 1 6 1s-1.25.558-1.25 1.25a1.25 1.25 0 1 0 2.5 0zM6 11V6.58M3.5 9.25h5m0-1.42a1.25 1.25 0 1 0 .002-2.498A1.25 1.25 0 0 0 8.5 7.83zM4.75 6.58h2.5M3.5 5.33a1.25 1.25 0 1 0-.002 2.498A1.25 1.25 0 0 0 3.5 5.33zm.625.167 1.25-2.165"/></svg>