<?xml version="1.0" standalone="no"?>
<!DOCTYPE svg PUBLIC "-//W3C//DTD SVG 1.1//EN" "http://www.w3.org/Graphics/SVG/1.1/DTD/svg11.dtd" >
<svg xmlns="http://www.w3.org/2000/svg" xmlns:xlink="http://www.w3.org/1999/xlink" version="1.1" viewBox="-10 0 895 2048">
   <path fill="currentColor"
d="M481 203q6 18 7 38.5t1 41t2.5 42t8.5 44.5q26 2 62 2t72 -2t69.5 -6.5t60.5 -12.5q6 35 3 54.5t-15 43.5q-35 3 -70 3h-67.5t-63.5 1t-57 9q24 18 59 22t73 2t73.5 -5t64.5 5q18 19 21 44.5t-9 54.5q-24 12 -58 16t-71 2q-20 -2 -42.5 -6t-43 -5t-37 3t-24.5 20
q18 15 42.5 19t53.5 2t58.5 -5t57 -4t51 4t38.5 21q-6 51 -31 86q-33 15 -62.5 15t-59.5 -5.5t-62.5 -8.5t-73.5 5q-16 39 -18 80t0 85t3 90t-10 96q37 20 79 37.5t81 37t74 44t55 59.5q17 35 27 76t15 86t2 93t-13 95q-19 39 -39 72.5t-47 63.5t-59.5 53.5t-75.5 43.5
q-56 25 -126.5 23t-139 -26.5t-128 -66.5t-92.5 -95q-45 -72 -55 -152t6.5 -154.5t57.5 -139t96 -107.5q22 0 41.5 -4.5t37 -9.5t36 -10t38.5 -7q7 -37 10 -80t5 -89t1 -93t-3 -88q-29 -8 -62 -8t-64.5 1t-62 0t-57.5 -12q-16 -37 -9 -56.5t29.5 -28.5t56.5 -10t66.5 -3
t62 -6t46.5 -19q-21 -20 -54.5 -19t-71.5 6t-75 6t-63 -17q-7 -10 -10 -22.5t-2 -26t5.5 -24.5t12.5 -19q20 -4 52 -5t65.5 -2.5t65.5 -5.5t56 -12q-30 -12 -61 -9t-62.5 9t-62.5 10t-59 -4q-15 -16 -25 -36.5t0 -49.5q57 -12 121.5 -21.5t148.5 -15.5q-2 -20 -1 -46.5
t6.5 -52.5t15.5 -47.5t24.5 -31.5t34 -6t43.5 31zM137 1432q-6 38 1 76t20.5 71t33 59.5t37.5 44.5q27 25 52.5 37.5t52 18.5t56.5 8t67 4q16 2 29.5 8t25.5 4q25 -4 53.5 -16t53 -30.5t45 -40t32.5 -42.5q15 -30 25 -69t10 -80t-9 -81t-32 -71q-14 -20 -44 -39.5t-62.5 -36
t-65.5 -25.5t-55 -9q-66 0 -121 10t-98 35.5t-71 65.5t-36 98z" />
</svg>
