<?xml version="1.0" standalone="no"?>
<!DOCTYPE svg PUBLIC "-//W3C//DTD SVG 1.1//EN" "http://www.w3.org/Graphics/SVG/1.1/DTD/svg11.dtd" >
<svg xmlns="http://www.w3.org/2000/svg" xmlns:xlink="http://www.w3.org/1999/xlink" version="1.1" viewBox="-10 0 1495 2048">
   <path fill="currentColor"
d="M1397 993q4 51 4 105.5t-1 107.5t-1 106.5t4 104.5q2 24 8 50t9 48.5t-2 43t-27 36.5q-70 0 -143.5 3t-150.5 7t-156 7t-159 1q-12 -2 -17 1.5t-9 9.5t-9.5 10t-13.5 4q-4 -8 -9 -15.5t-22 -2.5q-86 0 -159.5 1t-144 4t-140.5 6t-145 7q-19 -18 -37.5 -36.5t-30.5 -43.5
q6 -49 6 -101t-3 -105.5t-5 -103.5t1 -96t15.5 -85t40.5 -68q156 -18 309.5 -20.5t304 0t299 0t292.5 -22.5q10 4 22 8t25.5 7t25 8.5t19.5 13.5zM168 1128q-12 92 -7 188.5t19 186.5h82t78 -1t68.5 -3t54.5 -8q106 10 213.5 12t213 -2t205 -11.5t191.5 -17.5q0 -96 -2 -185
t-10 -190q-139 2 -278.5 2t-278.5 2t-276.5 7.5t-272.5 19.5zM555 1245q-6 -13 -7 -31t1 -37q16 -20 50 -32.5t72 -13.5t72.5 7t54 24.5t17.5 43t-39 63.5q-24 -10 -54 -8t-58.5 4t-57 0t-51.5 -20zM457 1153q14 32 7 54.5t-27.5 36t-50.5 18.5t-62.5 4t-64.5 -6t-54 -15
q-10 -35 -1 -57.5t30.5 -35t52 -16.5t62.5 -2t60.5 7t47.5 12zM899 1269q-4 -14 -10 -23t-11.5 -18.5t-9.5 -19.5t0 -25q4 -18 28 -30.5t58.5 -19.5t73.5 -7t74 7t58.5 21.5t27.5 34.5q4 29 -10.5 44.5t-40 21.5t-58 7t-65.5 0t-63.5 0t-51.5 7zM770 1319q16 12 24.5 31.5
t7.5 39t-10.5 36.5t-27.5 28q-29 -13 -62.5 -11t-66.5 3.5t-56.5 -6t-29.5 -35.5q-6 -35 13.5 -55.5t54 -30t75.5 -9.5t78 9zM229 1441q-28 -26 -32 -47.5t9 -38t39.5 -28t58.5 -17.5t65.5 -6t63.5 6t49.5 17.5t23.5 27.5q6 25 -7.5 41.5t-37 26.5t-54 15t-63.5 7.5t-63.5 0
t-51.5 -4.5zM1182 1349q-2 29 -14.5 48.5t-22.5 37.5q-35 2 -73 3t-72.5 2t-67.5 1h-58q-34 -41 -31 -67.5t30.5 -40.5t71.5 -18.5t90 -1.5t86 13.5t61 22.5z" />
</svg>
