<?xml version="1.0" standalone="no"?>
<!DOCTYPE svg PUBLIC "-//W3C//DTD SVG 1.1//EN" "http://www.w3.org/Graphics/SVG/1.1/DTD/svg11.dtd" >
<svg xmlns="http://www.w3.org/2000/svg" xmlns:xlink="http://www.w3.org/1999/xlink" version="1.1" viewBox="-10 0 1986 2048">
   <path fill="currentColor"
d="M182 1518q-82 -106 -82 -265q0 -28 2.5 -56.5t7.5 -59.5q42 -257 207 -403q165 -144 405 -144q230 2 334 143q76 103 76 259q0 62 -12 132q-39 244 -203 393q-105 95 -231 123q31 40 55.5 68t50 46t56 26.5t74.5 8.5q25 0 55 -4.5t55 -12.5l-23 142q-28 6 -60 10.5
t-58 4.5q-69 0 -123 -22t-98 -58.5t-80.5 -85t-71.5 -102.5q-112 -1 -195.5 -36t-140.5 -107zM687 728q-159 0 -268 108q-109 107 -140 295q-9 51 -9 97q0 115 55 191q75 105 232 105q79 0 145 -26t116 -76.5t84 -124t50 -168.5q5 -30 7.5 -57.5t2.5 -53.5
q0 -140 -70 -214.5t-205 -75.5zM1906 1638h-666v-1024h643v140h-481v220h372v140h-372v384h504v140z" />
</svg>
