<?xml version="1.0" standalone="no"?>
<!DOCTYPE svg PUBLIC "-//W3C//DTD SVG 1.1//EN" "http://www.w3.org/Graphics/SVG/1.1/DTD/svg11.dtd" >
<svg xmlns="http://www.w3.org/2000/svg" xmlns:xlink="http://www.w3.org/1999/xlink" version="1.1" viewBox="-10 0 1013 2048">
   <path fill="currentColor"
d="M913 1580q0 44 -72 44q-31 0 -56 -17q-28 -19 -28 -48q0 -30 12.5 -78t12.5 -71q0 -21 -29 -51q-38 -40 -36 -66l5 -62l-1 -22q0 -7 -49.5 -26.5t-57.5 -34.5l-2 -23l6 -71q3 -31 -56 -31h-8l12 88q0 24 -20 52t-20 44q0 10 21.5 34.5t21.5 52.5q0 31 -16 61.5t-16 48.5
q0 21 13.5 59.5t13.5 63.5q0 26 -18 59q-21 36 -45 36q-63 0 -63 -36l16 -97q0 -15 -12.5 -50t-12.5 -58q0 -18 27 -54l5 -17q0 -18 -16 -53t-16 -57q0 -16 21 -44t21 -35l-26 -98h-10q-55 0 -53 31l5 71l-3 23q-8 16 -43 35q-38 20 -38 26l-18 101l-11 21q-45 59 -45 79
q0 25 11 74t11 75q0 30 -31 49q-26 16 -58 16q-72 0 -72 -44q0 -28 44 -46q9 -4 9 -11l-21 -130q0 -24 51 -70l11 -16l7 -64q2 -23 11 -63q9 -23 41 -43t35 -26.5t3 -10.5l-7 -69q0 -30 35 -48q28 -15 61 -15v-4h-6q-30 0 -60 -22t-30 -51l7 -67l-2 -11q-4 -11 -50 -27
q-62 -22 -62 -61l19 -106v-7l-11 -17q-47 -41 -47 -65q0 -13 22 -72l20 -54q0 -5 -29 -22t-29 -40q0 -19 21.5 -31t50.5 -12q31 0 59.5 17.5t28.5 47.5q0 34 -19 81t-19 69q0 18 26 50q29 36 29 55l-17 86v9q0 9 17 15q87 29 95 46l3 23l-5 78q4 25 48 25h15l18 -90
q0 -12 -18 -46.5t-18 -54.5q0 -22 17 -53.5t17 -49.5q0 -16 -11.5 -34t-11.5 -41q0 -24 16.5 -54.5t16.5 -42.5l-27 -79l-6 -24q0 -47 47 -47q32 0 60 39.5t28 72.5q0 24 -13.5 59t-13.5 53t11.5 54t11.5 61q0 24 -22.5 48.5t-22.5 30.5q0 14 18 57t17 62l-5 76h15
q41 0 47 -22l2 -20l-4 -58l4 -23q9 -17 78 -46q11 -5 12 -15l2 -36v-35l4 -36l8 -19q37 -56 37 -74q0 -22 -14 -70.5t-14 -79.5q0 -30 31 -49q26 -16 58 -16q72 0 72 43q0 25 -23 36q-28 13 -28 21l13 55l11 76q0 25 -40 65l-10 17v100q0 50 -51 74q-45 21 -43 41l5 64
q-2 30 -31.5 51.5t-60.5 21.5h-5v4q33 0 61 15q34 18 34 48l-7 69l2 11q3 8 48 24q59 21 62 86l-4 51l2 26l11 18q47 56 47 77l-4 33l-21 92q0 7 9 11q44 23 44 51z" />
</svg>
