<?xml version="1.0" standalone="no"?>
<!DOCTYPE svg PUBLIC "-//W3C//DTD SVG 1.1//EN" "http://www.w3.org/Graphics/SVG/1.1/DTD/svg11.dtd" >
<svg xmlns="http://www.w3.org/2000/svg" xmlns:xlink="http://www.w3.org/1999/xlink" version="1.1" viewBox="-10 0 778 1000">
   <path fill="currentColor"
d="M501 819l-18 3q-8 -2 -6 -12q3 -17 21.5 -50.5t21.5 -51.5q7 -32 7 -63q0 -143 -120 -273q-106 -114 -241 -161q-14 -5 -100 -26l-9 -2q26 -46 90 -71q56 -22 121 -22q24 0 45 3q32 5 39 5q24 8 70 25q115 44 196 146q92 116 92 250q0 107 -51 191q-58 95 -158 109z
M670 594q8 -33 8 -67q0 -151 -128 -278.5t-279 -127.5q-95 0 -169 49q168 30 300 154q149 139 149 314q0 38 -8 76q-5 26 -8 36q-7 20 -18 31l-1 11q55 -14 101 -78q39 -56 53 -120zM505 329l-23 26l-43 -49l17 -26zM436 260l-23 26l-49 -43l20 -23zM551 413l-23 14l-29 -52
l20 -20zM367 203l-26 25l-55 -31l17 -26zM594 505l-28 12l-24 -69l21 -12zM280 159l-20 26l-72 -23l32 -17zM609 606l-29 -3l-3 -63l23 -6zM609 629l-12 58l-23 -3l9 -58zM591 713l-40 49l17 -52z" />
</svg>
