<?xml version="1.0" standalone="no"?>
<!DOCTYPE svg PUBLIC "-//W3C//DTD SVG 1.1//EN" "http://www.w3.org/Graphics/SVG/1.1/DTD/svg11.dtd" >
<svg xmlns="http://www.w3.org/2000/svg" xmlns:xlink="http://www.w3.org/1999/xlink" version="1.1" viewBox="-10 0 429 1000">
   <path fill="currentColor"
d="M400 478l-41 40l-21 -20h-101v38q48 8 81.5 46t33.5 87q0 55 -39 94.5t-93 39.5q-55 0 -94 -39.5t-39 -94.5q0 -50 32 -87.5t81 -45.5v-38h-115l-22 20l-41 -40l41 -41l22 21h115v-43q-33 -4 -55.5 -33t-22.5 -62q0 -34 20.5 -60.5t52.5 -34.5q-32 -9 -52.5 -35.5
t-20.5 -59.5q0 -40 29 -69t69 -29q39 0 68 29t29 69q0 33 -20.5 59.5t-52.5 35.5q32 8 52.5 34.5t20.5 60.5q0 30 -25 60q-25 33 -55 35v43h101l21 -22zM285 131q0 -27 -19.5 -46.5t-45.5 -19.5q-27 0 -46 19.5t-19 46.5q0 26 19 45.5t46 19.5q26 0 45.5 -19.5t19.5 -45.5z
M285 318q0 -27 -19.5 -46.5t-45.5 -19.5q-27 0 -46 19.5t-19 46.5q0 26 19 45.5t46 19.5q26 0 45.5 -19.5t19.5 -45.5zM314 673q0 -39 -27.5 -67t-66.5 -28t-67 28t-28 67t28 67t67 28t66.5 -28t27.5 -67z" />
</svg>
