<?xml version="1.0" standalone="no"?>
<!DOCTYPE svg PUBLIC "-//W3C//DTD SVG 1.1//EN" "http://www.w3.org/Graphics/SVG/1.1/DTD/svg11.dtd" >
<svg xmlns="http://www.w3.org/2000/svg" xmlns:xlink="http://www.w3.org/1999/xlink" version="1.1" viewBox="-10 0 736 1000">
   <path fill="currentColor"
d="M708 802q-41 -13 -78 -24q-90 -26 -146 -33q-74 -10 -127 -10t-124 10q-82 11 -219 57q28 -26 55 -47q64 -51 109 -71q83 -36 173 -40v-122h-62l-25 26l-47 -47l47 -46l24 23h63v-135q-42 -7 -68.5 -40t-26.5 -77q0 -34 15 -57q13 -19 48 -47q-37 -22 -70 -92l79 63l55 9
l49 -9l86 -66q-10 24 -21 42q-28 44 -62 53q60 34 60 104q0 43 -29 76.5t-72 40.5v135h62l27 -26l47 46l-47 47l-23 -23h-66v122q33 4 62 9q69 14 108 31q67 29 144 118zM466 223q0 -37 -26 -63.5t-63 -26.5t-63.5 26.5t-26.5 63.5t26.5 63t63.5 26t63 -26t26 -63zM631 753
q-165 -84 -266 -83q-92 0 -245 75q157 -39 248 -38q97 1 263 46z" />
</svg>
