<?xml version="1.0" standalone="no"?>
<!DOCTYPE svg PUBLIC "-//W3C//DTD SVG 1.1//EN" "http://www.w3.org/Graphics/SVG/1.1/DTD/svg11.dtd" >
<svg xmlns="http://www.w3.org/2000/svg" xmlns:xlink="http://www.w3.org/1999/xlink" version="1.1" viewBox="-10 0 1045 1000">
   <path fill="currentColor"
d="M971 451l-36 30v115l35 29l-55 57l-64 -54l41 -34v-23h-388v199l32 31l-58 51l-54 -57l33 -29v-195h-144q-9 44 -43.5 74.5t-79.5 30.5q-53 0 -90 -37.5t-37 -89.5t37 -89t90 -37q39 0 74 31q31 29 45 68q13 1 148 -1v-116l-22 -28q-22 -17 -20 -63q1 -37 30 -67
q-26 -45 -26 -63q1 -24 18.5 -42.5t41.5 -18.5t38.5 18t14.5 42q0 21 -25 64q38 35 38 74q0 17 -10 50q-13 12 -31 34v117h388v-39l-39 -29l59 -57zM495 187q0 -7 -6.5 -13t-12.5 -6q-16 0 -16 21q0 19 15 24q20 -7 20 -26zM512 322q0 -9 -11.5 -22.5t-18.5 -13.5
q-8 0 -18 11t-10 23q0 36 29 35q12 0 20.5 -11.5t8.5 -21.5zM268 551q0 -32 -22.5 -55t-55.5 -23q-32 0 -55 23t-23 55t23 55t55 23q33 0 55.5 -23t22.5 -55z" />
</svg>
