<?xml version="1.0" standalone="no"?>
<!DOCTYPE svg PUBLIC "-//W3C//DTD SVG 1.1//EN" "http://www.w3.org/Graphics/SVG/1.1/DTD/svg11.dtd" >
<svg xmlns="http://www.w3.org/2000/svg" xmlns:xlink="http://www.w3.org/1999/xlink" version="1.1" viewBox="-10 0 921 1000">
   <path fill="currentColor"
d="M162 471q18 -47 60 -76.5t94 -29.5q63 0 110 41t55 102h174v-62l-34 -40l56 -57l55 57l-31 40v0v62l127 1l34 -50l38 69l-35 78l-38 -57l-126 1v73l37 39l-62 57l-56 -56l35 -40v-75l-174 1q-6 64 -53 105.5t-112 41.5q-49 0 -93.5 -30t-59.5 -74q-11 -1 -22 -1
q-35 0 -60 25t-25 60t25 60t60 25q16 0 16 8q0 9 -15 24q-48 0 -82 -34.5t-34 -82.5t37 -83t86 -35q1 8 1 -27q0 -24 1 -25q-62 2 -96 -31t-34 -84q0 -48 34 -82t82 -34q15 14 15 23q0 8 -16 8q-35 0 -60 25t-25 60t25 60t60 25q12 0 27 -2zM444 531q0 -53 -37.5 -90.5
t-90.5 -37.5q-54 0 -91.5 37.5t-37.5 90.5t37.5 91t91.5 38q53 0 90.5 -38t37.5 -91z" />
</svg>
