<?xml version="1.0" standalone="no"?>
<!DOCTYPE svg PUBLIC "-//W3C//DTD SVG 1.1//EN" "http://www.w3.org/Graphics/SVG/1.1/DTD/svg11.dtd" >
<svg xmlns="http://www.w3.org/2000/svg" xmlns:xlink="http://www.w3.org/1999/xlink" version="1.1" viewBox="-10 0 409 1000">
   <path fill="currentColor"
d="M295 238q0 27 -27.5 49t-55.5 22q-5 0 -16.5 -2t-16.5 -2t-15 2t-15 2q1 -76 0 -101q12 35 22 48q16 21 46 21q32 0 32 -48q0 -38 -50.5 -61.5t-50.5 -63.5t76 -54l35 9q5 -9 16 -27v98q-7 -3 -22 -29q-12 -23 -32 -23q-27 0 -27 37q0 19 50.5 55t50.5 68zM339 257
q-3 38 -20 62q-13 19 -48 43q55 54 55 109q0 35 -30 71q-12 15 -35 26q-26 13 -35 20v56h45l22 -23l44 44l-44 44l-21 -22v4h-47v90l20 20l-44 44l-44 -44l15 -16v-94h-44l-23 23l-44 -43l44 -44l16 17h49v-56q-48 -6 -74 -44q-25 -35 -25 -85q0 -46 64 -100
q-60 -52 -60 -96l1 -4q29 24 57 47q36 29 67 29q83 0 139 -78zM281 465q0 -27 -27 -53.5t-53 -26.5q-34 0 -59.5 25.5t-25.5 59.5q0 36 24 56t62 20q27 0 53 -27t26 -54z" />
</svg>
