<?xml version="1.0" standalone="no"?>
<!DOCTYPE svg PUBLIC "-//W3C//DTD SVG 1.1//EN" "http://www.w3.org/Graphics/SVG/1.1/DTD/svg11.dtd" >
<svg xmlns="http://www.w3.org/2000/svg" xmlns:xlink="http://www.w3.org/1999/xlink" version="1.1" viewBox="-10 0 987 1000">
   <path fill="currentColor"
d="M937 670q-7 47 -44.5 86.5t-77.5 39.5q-60 0 -106 -53t-50 -117l-24 -129l-146 308l-156 -308q-9 88 -28 151q-46 151 -137 151q-36 0 -68 -17q-45 -23 -60 -74q-2 -9 3 -15t12 -6q14 0 25 20q18 30 24 37q20 20 52 20q49 0 78 -68q20 -45 22 -89l15 -239q2 -23 2 -46
q0 -217 -105 -217q-27 0 -55.5 32t-35.5 63q-2 0 -6.5 1t-7.5 1q-4 0 -10 -5q-5 -46 37.5 -86t90.5 -40q58 0 94 52q27 38 44 108q9 46 19 92l2 102l149 -364q51 122 149 365q4 -31 4 -73q0 -69 43 -158q54 -112 134 -112q30 0 67 23q44 28 44 65q0 19 -15 19q-4 0 -29 -35
t-59 -35q-99 0 -113 225l-10 154q-5 75 12 146q27 111 99 111q32 0 53 -25q12 -13 27 -46q11 -26 19 -26q13 0 23 11zM610 456l-121 -293l-127 293l127 271z" />
</svg>
