<?xml version="1.0" standalone="no"?>
<!DOCTYPE svg PUBLIC "-//W3C//DTD SVG 1.1//EN" "http://www.w3.org/Graphics/SVG/1.1/DTD/svg11.dtd" >
<svg xmlns="http://www.w3.org/2000/svg" xmlns:xlink="http://www.w3.org/1999/xlink" version="1.1" viewBox="-10 0 2323 2048">
   <path fill="currentColor"
d="M104 1601v-176q133 99 295 99q216 0 216 -144q0 -41 -18.5 -69.5t-50 -50.5t-74 -39.5t-91.5 -36.5q-68 -27 -119.5 -54.5t-86 -62t-52 -78.5t-17.5 -103q0 -72 33 -127.5t88 -93t125.5 -56.5t145.5 -19q134 0 238 46v166q-113 -74 -260 -74q-46 0 -83 10.5t-63.5 29.5
t-41 45.5t-14.5 58.5q0 40 14.5 67t42.5 48t68 38t91 37q68 26 122 53.5t92 62t58.5 80t20.5 106.5q0 76 -33.5 132t-89.5 93t-129.5 55t-152.5 18q-159 0 -274 -61zM828 1601v-176q133 99 295 99q216 0 216 -144q0 -41 -18.5 -69.5t-50 -50.5t-74 -39.5t-91.5 -36.5
q-68 -27 -119.5 -54.5t-86 -62t-52 -78.5t-17.5 -103q0 -72 33 -127.5t88 -93t125.5 -56.5t145.5 -19q134 0 238 46v166q-113 -74 -260 -74q-46 0 -83 10.5t-63.5 29.5t-41 45.5t-14.5 58.5q0 40 14.5 67t42.5 48t68 38t91 37q68 26 122 53.5t92 62t58.5 80t20.5 106.5
q0 76 -33.5 132t-89.5 93t-129.5 55t-152.5 18q-159 0 -274 -61zM1548 1601v-176q133 99 295 99q216 0 216 -144q0 -41 -18.5 -69.5t-50 -50.5t-74 -39.5t-91.5 -36.5q-68 -27 -119.5 -54.5t-86 -62t-52 -78.5t-17.5 -103q0 -72 33 -127.5t88 -93t125.5 -56.5t145.5 -19
q134 0 238 46v166q-113 -74 -260 -74q-46 0 -83 10.5t-63.5 29.5t-41 45.5t-14.5 58.5q0 40 14.5 67t42.5 48t68 38t91 37q68 26 122 53.5t92 62t58.5 80t20.5 106.5q0 76 -33.5 132t-89.5 93t-129.5 55t-152.5 18q-159 0 -274 -61z" />
</svg>
