<?xml version="1.0" standalone="no"?>
<!DOCTYPE svg PUBLIC "-//W3C//DTD SVG 1.1//EN" "http://www.w3.org/Graphics/SVG/1.1/DTD/svg11.dtd" >
<svg xmlns="http://www.w3.org/2000/svg" xmlns:xlink="http://www.w3.org/1999/xlink" version="1.1" viewBox="-10 0 1936 2048">
   <path fill="currentColor"
d="M205 1325v-138h208l14 -98h-222v-138h241l15 -101h-256v-138h277l28 -219q16 -130 104 -210q88 -79 222 -79q65 0 116 19v149q-47 -28 -108 -28q-146 0 -170 160l-31 208h279l28 -219q16 -130 104 -210q88 -79 222 -79q65 0 116 19v149q-47 -28 -108 -28q-146 0 -170 160
l-31 208h279l28 -219q16 -130 104 -210q88 -79 222 -79q65 0 116 19v149q-47 -28 -108 -28q-146 0 -170 160l-31 208h213v138h-234l-14 101h248v138h-268l-13 98h281v138h-300l-24 173q-58 418 -348 418q-33 0 -90 -16v-143q36 21 86 21q150 0 190 -292l23 -161h-277
l-24 173q-58 418 -348 418q-33 0 -90 -16v-143q36 21 86 21q150 0 190 -292l23 -161h-277l-24 173q-58 418 -348 418q-33 0 -90 -16v-143q36 21 86 21q150 0 190 -292l23 -161h-188zM1341 850h-279l-14 101h278zM901 850h-279l-14 101h278zM1015 1187h278l14 -98h-279z
M575 1187h278l14 -98h-279z" />
</svg>
