<?xml version="1.0" standalone="no"?>
<!DOCTYPE svg PUBLIC "-//W3C//DTD SVG 1.1//EN" "http://www.w3.org/Graphics/SVG/1.1/DTD/svg11.dtd" >
<svg xmlns="http://www.w3.org/2000/svg" xmlns:xlink="http://www.w3.org/1999/xlink" version="1.1" viewBox="-10 0 801 1000">
   <path fill="currentColor"
d="M756 449q0 -74 -28 -140t-78 -116.5t-115.5 -78.5t-139.5 -28t-140.5 28t-116.5 78.5t-78 116.5t-28 140t28 140t78 116t116.5 78t140.5 28t139.5 -28t115.5 -78t78 -116t28 -140zM646 565q0 41 -16.5 77t-44.5 61.5t-61.5 39.5t-65.5 14q-63 0 -120 -32.5t-100 -91.5
t-67 -136t-24 -162q0 -39 15 -74.5t41 -63.5t57 -43.5t63 -15.5q66 0 125 35t104 96.5t69.5 138.5t24.5 157zM396 392q-25 0 -43 17.5t-18 42.5t18 42.5t43 17.5t42.5 -17.5t17.5 -42.5t-18 -42.5t-42 -17.5z" />
</svg>
