<?xml version="1.0" standalone="no"?>
<!DOCTYPE svg PUBLIC "-//W3C//DTD SVG 1.1//EN" "http://www.w3.org/Graphics/SVG/1.1/DTD/svg11.dtd" >
<svg xmlns="http://www.w3.org/2000/svg" xmlns:xlink="http://www.w3.org/1999/xlink" version="1.1" viewBox="-10 0 2058 2048">
   <path fill="currentColor"
d="M364 237q86 0 96 136l115 25l9 -12l58 12l67 -12l9 12h10l10 -12h9l38 25l77 -13l29 13q143 -13 143 -38l144 38l86 -25l39 12l-10 -62l48 -62h29l38 75q-21 0 -29 124l10 12l-10 62v99q0 25 -57 37l-10 -12v-87l-48 -37h-28l-48 12l-58 -12h-9l-48 12l-58 -12h-38
l-48 12v38l48 161h-10l58 210h9l-9 38q29 65 76 347q23 0 48 173h144l29 38v37l-29 37h-10l-57 -12l-29 12l-9 -12v-13l-29 13l-105 -13h-10l-105 25h-10q-14 0 -29 -50q14 -51 48 -74l39 25q0 -25 28 -25q-38 -285 -76 -285l-87 -25l-9 12h-10l-172 -37q-52 0 -153 149
q-236 310 -374 310h-29l-9 -12h-10l-9 12h-10q-67 0 -67 -124q0 -74 172 -99q173 -50 297 -211q150 -165 201 -310q58 -49 58 -99l-10 -12q23 0 67 -162h20v-24q-6 -38 -77 -38h-10q-129 0 -201 38l-9 -13h-10q-39 14 -96 99h-19q-50 0 -57 -37v-136l-10 -124
q7 -149 48 -149zM680 1080h19l58 12l9 -12h10l134 25l19 -25q-57 -335 -86 -335h-10q-153 273 -153 335z" />
</svg>
