<?xml version="1.0" standalone="no"?>
<!DOCTYPE svg PUBLIC "-//W3C//DTD SVG 1.1//EN" "http://www.w3.org/Graphics/SVG/1.1/DTD/svg11.dtd" >
<svg xmlns="http://www.w3.org/2000/svg" xmlns:xlink="http://www.w3.org/1999/xlink" version="1.1" viewBox="-10 0 757 1000">
   <path fill="currentColor"
d="M722 298l-77 -78l60 -58l-52 -51l-59 59l-76 -76l-23 23l76 76l-94 94q-44 -29 -99 -29q-57 0 -102 31q-81 -82 -93 -93l76 -76l-23 -24l-77 78l-58 -61l-52 52l60 59l-76 76l23 23l76 -76l38.5 38.5l55.5 55.5q-29 45 -29 98q0 52 29 99l-93 93l-76 -76l-23 23l76 76
l-63 63l51 51l63 -63l76 76l24 -23l-77 -77l92 -92q45 31 102 31q54 0 99 -28l93 93l-76 76l23 23l76 -76l63 63l51 -51l-63 -63l76 -76l-23 -24l-77 77l-92 -93q32 -46 32 -102q0 -55 -31 -101l93 -94l76 77zM430 334l-55 55q-10 -10 -37 -37.5t-46 -46.5q21 -21 50 -23
q46 0 88 52zM499 501v11l-73 -72l44 -44q14 27 21.5 54.5t7.5 50.5zM324 440l-39 39q-12 -26 -19 -53.5t-7 -50.5q22 21 40 39t25 26zM462 577q-23 17 -52 17q-21 -1 -42.5 -15t-42.5 -38l50 -51z" />
</svg>
