<?xml version="1.0" standalone="no"?>
<!DOCTYPE svg PUBLIC "-//W3C//DTD SVG 1.1//EN" "http://www.w3.org/Graphics/SVG/1.1/DTD/svg11.dtd" >
<svg xmlns="http://www.w3.org/2000/svg" xmlns:xlink="http://www.w3.org/1999/xlink" version="1.1" viewBox="-10 0 758 1000">
   <path fill="currentColor"
d="M723 799h-64v-30l-83 -82l-55 55v37h-63v-64h42l50 -49l-50 -49q-56 45 -128 45q-77 0 -135 -50l-45 45l52 52h43v64h-63v-34l-56 -56l-83 82v34h-68v-64h37l84 -83l-74 -75l-38 -1v-64h64l1 41l72 71l44 -44q-41 -55 -41 -124q0 -73 47 -130l-48 -47l-72 72v41h-63v-63
h34l75 -75l-61 -62h-35v-64h63v29l63 62l50 -49v-40h63v64h-29l-55 55l46 46q56 -45 128 -45q69 0 124 42l47 -47l-68 -66h-39v-64h64l-1 38l70 69l64 -64v-40h63v64h-26l-71 69l55 51h39v64h-64v-32l-55 -54l-44 44q48 57 48 132q0 72 -45 129l47 47l53 -54v-37h64v64h-37
l-51 50l79 80h35v64zM470 318q-44 -30 -98 -30q-56 0 -101 33l99 97zM546 462q0 -64 -41 -113l-104 104l112 112q33 -46 33 -103zM335 450l-97 -98q-39 48 -39 110q0 53 29 97zM481 598l-115 -115l-109 109q49 44 115 44q61 0 109 -38z" />
</svg>
