<?xml version="1.0" standalone="no"?>
<!DOCTYPE svg PUBLIC "-//W3C//DTD SVG 1.1//EN" "http://www.w3.org/Graphics/SVG/1.1/DTD/svg11.dtd" >
<svg xmlns="http://www.w3.org/2000/svg" xmlns:xlink="http://www.w3.org/1999/xlink" version="1.1" viewBox="-10 0 820 1000">
   <path fill="currentColor"
d="M773 304l-106 18l25 20q-62 38 -116.5 54t-126.5 19v-332l-264 298q-40 -19 -83 -48l-5 -53l-68 82l49 -2q40 27 75.5 44.5t71.5 27.5t73.5 14t86.5 5v351l114 -92l10 -55l-60 57v-262q75 -4 133 -21.5t128 -57.5l7 33zM385 416q-48 0 -85 -4t-71 -15q21 -24 40 -46
t52 -60.5t45 -53t19 -22.5v201z" />
</svg>
