<?xml version="1.0" standalone="no"?>
<!DOCTYPE svg PUBLIC "-//W3C//DTD SVG 1.1//EN" "http://www.w3.org/Graphics/SVG/1.1/DTD/svg11.dtd" >
<svg xmlns="http://www.w3.org/2000/svg" xmlns:xlink="http://www.w3.org/1999/xlink" version="1.1" viewBox="-10 0 2058 2048">
   <path fill="currentColor"
d="M716 657q215 0 215 365l20 83l164 16l143 -33l11 17h10l51 -17l123 33q44 -12 102 -133h10l31 50v50l-20 99l10 17q-13 232 -41 232l-41 -66l10 -17q-7 -50 -41 -66l-10 16l-51 -16h-72l-41 16l-41 -16h-10l-10 16l-10 -16l-103 16h-153l-41 17q-92 0 -92 -99h-10l10 -83
q0 -266 -102 -266q-47 0 -82 315l10 67q-39 66 -133 66h-205l-10 -17l-10 17l-102 -17h-62q-32 0 -102 100h-10l-31 -50l20 -66l-10 -17v-16l10 -67l-20 -33q25 -149 82 -149q0 133 112 133h123l10 -17q58 33 164 33q0 -33 61 -33l52 -315q18 0 71 -132z" />
</svg>
