<?xml version="1.0" standalone="no"?>
<!DOCTYPE svg PUBLIC "-//W3C//DTD SVG 1.1//EN" "http://www.w3.org/Graphics/SVG/1.1/DTD/svg11.dtd" >
<svg xmlns="http://www.w3.org/2000/svg" xmlns:xlink="http://www.w3.org/1999/xlink" version="1.1" viewBox="-10 0 2038 2048">
   <path fill="currentColor"
d="M1170 252q111 23 111 96l-33 145l11 12v12l-11 48l11 12v12q0 37 -67 73l-100 -85l-12 12l-33 -12l-111 12l-34 -24l-11 12h-33l-78 -12l-56 12l-312 -12l-145 24l-11 -12v-12l-55 12l-12 -12l-66 61h-23q-31 0 -44 -121l11 -12l-22 -108l11 -73h55q26 0 34 61h-11
q6 48 89 48h22l357 -24v12l11 -12h11l55 12l12 -12h11l44 12l11 -12h12l44 12l11 -12l179 24q133 0 133 -121v-24q34 0 34 -24zM312 674l11 12l11 12q0 24 89 24v12l11 -12h56l11 12l11 -12h346l44 -12q51 23 56 48q-79 86 -134 193q-59 22 -111 145l-156 192q0 70 267 169
l45 -12l11 12h11l45 -12l11 12h11l267 -108l34 36q-82 172 -368 253l-44 -12l-12 12h-11q0 -21 -234 -108l-89 -85h-67q0 52 -144 85h-45q-141 0 -234 -157l11 -12l-22 -133q108 -156 267 -156q81 33 212 144l11 12h11q21 0 56 -72l189 -265v-12l-189 -24l-11 12h-11
l-34 -12l-44 12l-34 -12l-11 12h-11l-33 -12l-56 12v-12l-11 12h-11q-60 0 -78 -49v-12zM145 1216l-56 72v13q33 96 134 96h78l89 -48v-24q-75 -121 -245 -121v12z" />
</svg>
