<?xml version="1.0" standalone="no"?>
<!DOCTYPE svg PUBLIC "-//W3C//DTD SVG 1.1//EN" "http://www.w3.org/Graphics/SVG/1.1/DTD/svg11.dtd" >
<svg xmlns="http://www.w3.org/2000/svg" xmlns:xlink="http://www.w3.org/1999/xlink" version="1.1" viewBox="-10 0 2058 2048">
   <path fill="currentColor"
d="M720 267q156 60 156 189l-10 45l10 78l94 11q157 -8 157 -33l52 11l10 -11h11l41 11q24 0 32 -56l-11 -33l42 -34h31q21 0 21 34l-10 100l10 145l-10 11h-11l-62 -56h-32q-121 0 -167 23q-52 -23 -156 -23l-21 23l-94 -45l11 -11q0 -201 -84 -201l-31 -22q-35 0 -94 123
l10 44q-23 68 -62 78l-11 -11l-73 11h-156l-31 23l-11 -12l-73 12h-83l-63 66h-10q-27 0 -42 -100l10 -11l-10 -78v-56l31 -33q19 0 52 67l63 11h31l42 -11l104 22l11 -11v-11l52 11h42l41 -11l11 11h10q48 -22 52 -45l-10 -33l31 -78l-10 -11q85 -123 167 -123zM605 847
q115 0 115 145h10l-10 11v33l21 22l-21 45l10 11v11l-115 268v11l42 67l11 -11q0 22 31 22l52 -22v11q89 -13 188 -78l41 -11l21 44q-128 212 -354 212q-157 -77 -157 -201q157 -335 157 -401q-17 -61 -94 -89l-11 11h-10l-42 -11l-104 100h-10l-42 -22q0 -85 94 -123
q55 -55 177 -55z" />
</svg>
