<?xml version="1.0" standalone="no"?>
<!DOCTYPE svg PUBLIC "-//W3C//DTD SVG 1.1//EN" "http://www.w3.org/Graphics/SVG/1.1/DTD/svg11.dtd" >
<svg xmlns="http://www.w3.org/2000/svg" xmlns:xlink="http://www.w3.org/1999/xlink" version="1.1" viewBox="-10 0 2058 2048">
   <path fill="currentColor"
d="M911 260q54 19 78 68v14q0 132 -208 355v27q51 3 130 150v164q-44 98 -143 177h-130q-73 -53 -143 -164l13 -13v-14l-13 -55q2 -87 117 -218v-41l-130 -191v-54q0 -129 156 -178l26 41l-39 178q43 122 117 122l78 -136v-41l-65 -123q45 -54 156 -68zM1302 697v13l13 -13
h52l26 27v27l-169 232q-91 324 -313 532q-6 54 -169 123q-78 -10 -78 -27l-13 13h-13l-91 -27l-13 14l-222 -150q-130 -202 -143 -273l13 -14v-14q-48 -341 -130 -341q-52 0 -52 -27v-41l39 -41l65 14h143l118 -14q52 21 52 41v14l-131 82l39 204l-13 41l26 28l-13 13
q84 273 183 273l169 96q157 0 338 -246l79 -150l-26 -150l13 -14v-13l-13 -123v-41q0 -22 234 -68zM638 874l13 14l-39 41v81q32 96 104 96q91 -44 91 -109l-13 -14l13 -14h13q-75 -163 -130 -163q-52 13 -52 68z" />
</svg>
