<?xml version="1.0" standalone="no"?>
<!DOCTYPE svg PUBLIC "-//W3C//DTD SVG 1.1//EN" "http://www.w3.org/Graphics/SVG/1.1/DTD/svg11.dtd" >
<svg xmlns="http://www.w3.org/2000/svg" xmlns:xlink="http://www.w3.org/1999/xlink" version="1.1" viewBox="-10 0 581 1000">
   <path fill="currentColor"
d="M542 82h-132q8 2 19 10.5t11 29.5v67q0 46 -7 88t-24.5 76t-48 54.5t-74.5 20.5t-74.5 -20t-47.5 -54.5t-24.5 -76.5t-7.5 -88v-67q0 -22 11.5 -30.5t18.5 -9.5h-132q8 1 19 9.5t11 30.5v67q0 43 11 89.5t34 87.5t59.5 66t85.5 25v48h-35q-11 0 -16 -7t-7 -12v67
q2 -5 7 -12t16 -7h35v64h-35q-11 0 -16 -7t-7 -12v67q2 -5 7 -11.5t16 -6.5h35v63h-35q-11 0 -16 -7t-7 -11v66q2 -5 7 -11.5t16 -6.5h35v47q0 17 -11 24t-18 8h131q-7 -1 -18.5 -8.5t-11.5 -23.5v-47h32q11 0 16 6.5t6 11.5v-66q-1 4 -6 11t-16 7h-32v-63h32q11 0 16 6.5
t6 11.5v-67q-1 5 -6 12t-16 7h-32v-64h32q11 0 16 7t6 12v-67q-1 5 -6 12t-16 7h-32v-48q48 0 84.5 -25.5t60 -66t34.5 -87t11 -89.5v-67q0 -22 11.5 -30.5t18.5 -9.5z" />
</svg>
