<?xml version="1.0" standalone="no"?>
<!DOCTYPE svg PUBLIC "-//W3C//DTD SVG 1.1//EN" "http://www.w3.org/Graphics/SVG/1.1/DTD/svg11.dtd" >
<svg xmlns="http://www.w3.org/2000/svg" xmlns:xlink="http://www.w3.org/1999/xlink" version="1.1" viewBox="-10 0 2058 2048">
   <path fill="currentColor"
d="M195 245h49q26 0 61 131q281 77 281 279q32 0 61 311l49 16l49 -16l135 16h61l48 -16l49 16h98q37 21 98 377l122 132q85 -10 85 -99h-12l-12 -16h-12l24 -49l-12 -17v-16q9 -49 85 -82q86 29 86 65v66q0 148 -171 279h-122l-98 -82l-12 16q-131 -290 -159 -442l-61 -17
h-147l-134 17l-37 -17q-45 273 -110 344q-110 197 -305 197h-24q-208 0 -208 -147h12l-12 -17v-16q60 -115 134 -115q56 0 74 164l12 16h24q127 -7 269 -311v-82l-73 -16q-143 0 -183 98h-13q-17 0 -49 -131l13 -17v-16l-25 -82h12l-12 -16v-17q0 -41 49 -49q25 0 98 115
h183l12 -66q0 -292 -207 -442l-98 131h-25l-36 -49q14 -148 36 -148l-12 -65z" />
</svg>
