<?xml version="1.0" standalone="no"?>
<!DOCTYPE svg PUBLIC "-//W3C//DTD SVG 1.1//EN" "http://www.w3.org/Graphics/SVG/1.1/DTD/svg11.dtd" >
<svg xmlns="http://www.w3.org/2000/svg" xmlns:xlink="http://www.w3.org/1999/xlink" version="1.1" viewBox="-10 0 2058 2048">
   <path fill="currentColor"
d="M1223 484h267q28 0 60 115q-16 60 -60 87h-61q-101 -115 -206 -115q-115 0 -206 288v14l13 15v14l-13 15h-12l12 43q352 0 352 -87l48 -14l37 87l-13 14l13 72v58q-34 86 -85 86q-61 -115 -85 -115l-48 14l-97 -28q-90 0 -97 43l48 72l-12 14v15q101 245 267 245h48
q76 0 170 -43l48 43v43l-48 58l-13 -14q-111 72 -302 115q0 -28 -218 -202l-25 -43h12l-109 -318l-109 -14h-72q-56 0 -97 260q-71 135 -206 259h-12l-97 -29h-97q-40 -19 -73 -115q10 -101 85 -101h36l85 115l61 -43l12 15q121 -171 121 -231v-87l-24 -29h-218
q-35 0 -121 87h-12q-25 -65 -25 -188q17 -59 61 -86l73 72l12 -14h12l109 28l36 -14l61 14l48 -14v-43q-170 -274 -278 -274h-61l-170 144h-12l-36 -43v-29q0 -97 266 -188h73q110 0 279 289q25 0 48 130h218q24 0 24 -73h13l-13 -14v-14q74 -347 267 -347z" />
</svg>
