<?xml version="1.0" standalone="no"?>
<!DOCTYPE svg PUBLIC "-//W3C//DTD SVG 1.1//EN" "http://www.w3.org/Graphics/SVG/1.1/DTD/svg11.dtd" >
<svg xmlns="http://www.w3.org/2000/svg" xmlns:xlink="http://www.w3.org/1999/xlink" version="1.1" viewBox="-10 0 1095 1000">
   <path fill="currentColor"
d="M1051 456q0 -44 -24 -68t-57 -24q-34 0 -53 20.5t-19 52.5q0 25 12.5 42t33.5 17q13 0 23 -9.5t10 -23.5q0 -13 -8.5 -23.5t-22.5 -10.5q-11 0 -19 8q0 -19 11 -31t32 -12t36 16.5t15 45.5q0 44 -31.5 75.5t-75.5 31.5t-74.5 -30.5t-31.5 -74.5l1 -41q-28 -1 -90.5 -2
t-354.5 -7q-5 -54 -28 -103.5t-60.5 -88t-85.5 -63.5t-102 -32q-17 0 -26 -6.5t-18 -18.5q-7 -9 -10 -11v167q3 -4 10 -17q9 -19 18.5 -30t25.5 -11q46 0 88.5 16t76 45.5t55 69t26.5 83.5l-132 -3q-15 0 -22 -14t-9 -23v139q2 -10 9 -24t22 -14l132 -2q-5 45 -25 84
t-52 68.5t-72.5 45.5t-86.5 16q-24 0 -33 -6t-18 -21q-8 -10 -13 -17v165q2 -3 7 -11q9 -18 21 -28t36 -10q55 -5 102 -29.5t82.5 -63.5t56.5 -88.5t25 -104.5l413 -8q1 56 41 95t96 39t96.5 -40t40.5 -97z" />
</svg>
