<?xml version="1.0" standalone="no"?>
<!DOCTYPE svg PUBLIC "-//W3C//DTD SVG 1.1//EN" "http://www.w3.org/Graphics/SVG/1.1/DTD/svg11.dtd" >
<svg xmlns="http://www.w3.org/2000/svg" xmlns:xlink="http://www.w3.org/1999/xlink" version="1.1" viewBox="-10 0 2058 2048">
   <path fill="currentColor"
d="M1334 439l7 9q60 22 60 54l-94 297l7 9q-16 0 -20 63q-32 21 -74 170q-50 85 -80 234l-21 18q-25 0 -67 -189q-22 -27 -80 -242l-47 -81q0 -50 -47 -72l-40 90h-13q-17 0 -21 -36q53 -135 54 -189l-7 -9l14 -18l-7 -45l40 -45q40 0 67 162q38 46 54 135q11 0 27 63
q71 233 87 242q31 -48 121 -314l40 -108l-40 -99l26 -63l-6 -9q29 -27 60 -27zM362 448l67 27l74 -18l13 54q-35 22 -67 180h-13q-71 -90 -141 -90q-86 63 -107 63q-81 119 -81 171v89q61 222 128 252l60 36l7 -9l33 9l161 -54l13 18q0 67 -127 126q-54 0 -74 18l-26 -9
l-21 9q-81 0 -194 -135q0 -56 -33 -99l6 -9v-9q-27 -78 -40 -81l7 -45l-7 -9l13 -89l-6 -54q13 -95 87 -207q159 -126 261 -126zM764 1158q23 0 47 45q-11 135 -40 135h-27q-15 0 -33 -90q12 -90 53 -90zM1334 1167q27 0 33 81q-10 45 -40 45l-20 -9l-7 9l-20 -27
q0 -99 54 -99z" />
</svg>
