<?xml version="1.0" standalone="no"?>
<!DOCTYPE svg PUBLIC "-//W3C//DTD SVG 1.1//EN" "http://www.w3.org/Graphics/SVG/1.1/DTD/svg11.dtd" >
<svg xmlns="http://www.w3.org/2000/svg" xmlns:xlink="http://www.w3.org/1999/xlink" version="1.1" viewBox="-10 0 915 1000">
   <path fill="currentColor"
d="M849 296q0 39 -26 66.5t-64 27.5q-41 0 -69 -40q-23 -32 -30 -78q-79 159 -153 245q-87 102 -200 144v80l35 36l-59 60l-60 -60l36 -37v-59q-36 19 -97 66q-78 62 -93 73q16 -71 16 -107q0 -22 -22 -71q-17 -35 -33 -69q11 3 78 31q54 23 80 23q35 0 71 -10v-89l-36 -36
l60 -60l59 60l-35 35v73q165 -60 314 -325q-48 29 -86 29q-39 0 -67.5 -30.5t-28.5 -70.5q0 -70 82 -94q-20 10 -26.5 21.5t-6.5 34.5t16.5 39.5t39.5 16.5q44 0 116 -75q13 -13 97 -113q-11 54 -21 107q-14 70 -14 107q0 28 17.5 51t44.5 23q26 0 39.5 -19t13.5 -45
q0 -10 -2 -19q14 32 14 58zM502 721q0 21 -14.5 35.5t-35.5 14.5t-36 -14.5t-15 -35.5t15 -36t36 -15q20 0 35 15t15 36z" />
</svg>
