<?xml version="1.0" standalone="no"?>
<!DOCTYPE svg PUBLIC "-//W3C//DTD SVG 1.1//EN" "http://www.w3.org/Graphics/SVG/1.1/DTD/svg11.dtd" >
<svg xmlns="http://www.w3.org/2000/svg" xmlns:xlink="http://www.w3.org/1999/xlink" version="1.1" viewBox="-10 0 2058 2048">
   <path fill="currentColor"
d="M665 230h113q56 21 114 199h84l57 -14l127 28l57 -14l14 14q32 0 128 -85l42 28q-9 285 -57 285h-28q-49 -85 -127 -85l-213 -15l-42 15q-170 -15 -170 -114l-14 -43l14 -14q-28 0 -28 -43l-14 -14h-85q-41 5 -113 213l-128 15l-14 -15h-14q-33 29 -170 29l-56 14
q-29 100 -57 100h-43q-28 0 -42 -143l28 -57l-14 -42q14 -100 43 -100h42q32 0 57 100h85l70 -14v14q170 -11 170 -57q93 -185 184 -185zM778 657l85 99l-14 14l14 72q0 66 -113 184v15q0 38 85 170l28 100v71q0 175 -226 256h-71q-255 -56 -255 -284l-14 -43q28 0 28 -85
q94 -114 170 -143l14 -71q-61 -38 -127 -156q21 -142 71 -142q21 0 113 213l85 57q71 -37 71 -114v-43h-29l-28 -113q0 -43 113 -57zM467 1368q57 142 142 142q94 -71 127 -171q0 -123 -99 -185q-170 64 -170 214z" />
</svg>
