<?xml version="1.0" standalone="no"?>
<!DOCTYPE svg PUBLIC "-//W3C//DTD SVG 1.1//EN" "http://www.w3.org/Graphics/SVG/1.1/DTD/svg11.dtd" >
<svg xmlns="http://www.w3.org/2000/svg" xmlns:xlink="http://www.w3.org/1999/xlink" version="1.1" viewBox="-10 0 2058 2048">
   <path fill="currentColor"
d="M1001 439h9q62 0 101 90q-22 76 -46 80h-9l-82 -53h-9q-71 27 -92 71q75 100 110 215l-9 36l9 9l-18 90l9 9v9q-62 188 -137 188q-148 81 -330 81l-430 -9l-9 -9v-9q30 -36 274 -171q160 -89 284 -277q26 0 119 -135h9v-36q-11 -27 -82 -54h-37q-87 0 -137 126l9 27
l-55 27q-42 0 -55 -108q103 -179 302 -179h19q32 17 82 90l9 9h28q89 -113 164 -117zM1413 466l27 9l10 -9q99 0 137 90v26q0 82 -73 135h-19l-18 -18l9 -36l-9 -9l18 -18v-9q-18 -45 -64 -45q-135 0 -219 135q-88 110 -101 269q18 0 55 134l91 63q112 -21 202 -152
q76 -90 119 -90l18 18l-73 224q-146 260 -339 260h-9q-122 0 -192 -99l27 -27q79 63 202 63q92 -28 192 -143l27 -45v-27h-9q-137 81 -192 81h-9q-108 0 -174 -171v-62q0 -171 27 -171l-9 -9v-9q53 -133 183 -260q41 -89 156 -89zM809 681q-38 32 -91 134q-42 30 -183 216
q-39 0 -174 116v9q0 29 100 36l10 -9l45 9h119q140 0 266 -206l-10 -9v-9l10 -36l-10 -9v-9l19 -36l-9 -9v-9l9 -9v-9q0 -109 -101 -161z" />
</svg>
