<?xml version="1.0" standalone="no"?>
<!DOCTYPE svg PUBLIC "-//W3C//DTD SVG 1.1//EN" "http://www.w3.org/Graphics/SVG/1.1/DTD/svg11.dtd" >
<svg xmlns="http://www.w3.org/2000/svg" xmlns:xlink="http://www.w3.org/1999/xlink" version="1.1" viewBox="-10 0 871 1000">
   <path fill="currentColor"
d="M826 643q-28 80 -111 124q-55 29 -96 29q-18 0 -40 -4q-100 -19 -162 -54q-48 -27 -125 -97q-100 -92 -166 -221q-82 -162 -82 -230q0 -35 16 -30q7 3 29 64q13 44 51 142q36 77 94 150q50 64 160 157q129 81 226 81q37 0 65 -14q41 -20 62.5 -45.5t38.5 -74.5
q9 -25 9 -51q0 -68 -59 -131q-51 -53 -113 -75q-29 -10 -81 -8q-28 1 -98 9q-63 7 -99 7q-52 0 -82 -13q-20 -10 -46 -22q-14 -5 -47 -43q-29 -33 -36 -46q-52 -100 -45 -120q10 -22 19 -19q11 4 30 44l24 52q47 96 116 120q36 12 84 9q28 -2 98 -14q61 -12 98 -12
q39 0 72 11q79 26 139 93q69 76 69 163q0 34 -12 69z" />
</svg>
