<?xml version="1.0" standalone="no"?>
<!DOCTYPE svg PUBLIC "-//W3C//DTD SVG 1.1//EN" "http://www.w3.org/Graphics/SVG/1.1/DTD/svg11.dtd" >
<svg xmlns="http://www.w3.org/2000/svg" xmlns:xlink="http://www.w3.org/1999/xlink" version="1.1" viewBox="-10 0 749 1000">
   <path fill="currentColor"
d="M705 706q0 -30 -17 -47t-39 -17q-24 0 -37 14t-13 36q0 18 7 29.5t22 11.5q11 0 18.5 -6.5t7.5 -16.5t-6 -16.5t-13 -6.5q-4 0 -11 3q-3 1 -5 2q0 -29 30 -29q15 0 25 11t10 32q0 30 -15.5 47.5t-40.5 17.5q-71 0 -120.5 -20.5t-114.5 -63.5q-40 -26 -68.5 -42.5
t-64.5 -29.5q30 -29 48.5 -51.5t43.5 -57.5q21 -30 31 -43l61 21q9 3 12 7.5t3 10.5q0 4 -1 7l43 -71q-2 2 -7.5 4t-13.5 2q-7 0 -14 -2l-53 -19q11 -16 31 -45q21 -32 35 -51.5t35 -40.5q25 10 47 13.5t48 3.5q42 0 63.5 -17t21.5 -42q0 -27 -21.5 -42.5t-53.5 -15.5
q-35 0 -57 14t-45 44q-11 0 -58 -34q-37 -25 -67.5 -44.5t-71 -39t-89 -32t-100.5 -13.5q-39 0 -68 30t-29 69q0 30 17 47t38 17q25 0 38 -14t13 -36q0 -18 -7.5 -29t-21.5 -11q-26 0 -26 22q0 9 6 16t13 7q4 0 8 -2q5 -2 8 -2q0 28 -31 28q-14 0 -24 -11t-10 -32
q0 -30 15.5 -48t40.5 -18q75 0 126.5 21.5t119.5 66.5q39 26 67 42.5t62 30.5q-19 21 -33 40t-33 48q-20 31 -34 50l-75 -26q-6 -2 -8 -8.5t-2 -16.5l-46 68q7 -3 18 -3q10 0 19 3l64 23q-4 5 -25 35q-25 36 -45.5 60t-53.5 55q-27 -11 -51 -16t-52 -5q-40 0 -62.5 18
t-22.5 42q0 27 22 42.5t54 15.5q34 0 56 -14t46 -44q10 0 55 33q35 25 65.5 45t72 39.5t91.5 32t104 12.5q39 0 67 -29.5t28 -68.5zM669 245q0 14 -14.5 21t-40.5 7q-25 0 -60 -11q-12 -4 -17 -5q8 -16 31 -32t46 -16t39 10t16 26zM204 629q-8 16 -31 32t-47 16
q-22 0 -38 -10.5t-16 -25.5t14.5 -22t39.5 -7q18 0 32.5 3.5t31.5 8.5q7 3 14 5z" />
</svg>
