<?xml version="1.0" standalone="no"?>
<!DOCTYPE svg PUBLIC "-//W3C//DTD SVG 1.1//EN" "http://www.w3.org/Graphics/SVG/1.1/DTD/svg11.dtd" >
<svg xmlns="http://www.w3.org/2000/svg" xmlns:xlink="http://www.w3.org/1999/xlink" version="1.1" viewBox="-10 0 1335 2048">
   <path fill="currentColor"
d="M1235 392q0 58 -31 111h-107q21 -41 21 -65q0 -32 -36 -32q-69 0 -147 175l-86 194q120 45 124 166l-7 75h-113l3 -44q5 -72 -48 -102l-184 419q-68 154 -134 227q-96 108 -229 108q-171 0 -171 -155q0 -78 59 -124q54 -42 134 -42l-27 107q-56 10 -56 59q0 47 75 47
q66 0 120 -63q50 -58 104 -182l179 -408q-98 36 -134 153h-114q72 -248 294 -257l87 -197q56 -126 110 -184q77 -81 190 -81q124 0 124 95z" />
</svg>
