<?xml version="1.0" standalone="no"?>
<!DOCTYPE svg PUBLIC "-//W3C//DTD SVG 1.1//EN" "http://www.w3.org/Graphics/SVG/1.1/DTD/svg11.dtd" >
<svg xmlns="http://www.w3.org/2000/svg" xmlns:xlink="http://www.w3.org/1999/xlink" version="1.1" viewBox="-10 0 718 1000">
   <path fill="currentColor"
d="M658 185q0 45 -26 102q-24 50 -57 90q-60 71 -147 71q-15 0 -32 -2q12 85 12 123q0 87 -59 181q-66 104 -145 104q-52 0 -101 -38q-53 -40 -53 -91q0 -25 21 -25q17 0 37 14q13 79 83 80q75 0 136 -103q52 -89 52 -162q0 -37 -9 -87q-7 -1 -40 -12q-25 -7 -42 -7
q-60 0 -118 56q-13 -24 -13 -45q0 -34 41 -52q32 -14 72 -14q19 0 46 7q23 7 45 13q-5 -47 -5 -82q0 -91 47 -161q53 -81 140 -81q52 0 83.5 34t31.5 87zM615 193q0 -31 -14 -57q-18 -31 -46 -31q-64 0 -123 81q-54 76 -54 143q0 8 10 64q20 3 38 3q77 0 134 -64
q55 -61 55 -139z" />
</svg>
