<?xml version="1.0" standalone="no"?>
<!DOCTYPE svg PUBLIC "-//W3C//DTD SVG 1.1//EN" "http://www.w3.org/Graphics/SVG/1.1/DTD/svg11.dtd" >
<svg xmlns="http://www.w3.org/2000/svg" xmlns:xlink="http://www.w3.org/1999/xlink" version="1.1" viewBox="-10 0 2058 2048">
   <path fill="currentColor"
d="M41 245q38 0 135 171l122 42h41q131 -116 257 -156q288 0 407 327l67 298l-13 43l13 85h-13l13 14v71l-13 15l13 14v14l-13 57l13 43h-13l13 14v142l14 14l122 43v57q0 28 -163 42l-13 -14h-14l-176 43l-27 -43v-14q0 -23 136 -114l-14 -71v-14l14 -14q0 -100 -82 -100
l-271 29h-135q-92 14 -95 42l13 14v15l-13 42q0 71 122 157l13 42q-49 43 -94 43h-28v-14l-94 14h-163l-41 -43v-42q0 -43 82 -43q0 -28 54 -28l13 -71l-27 -214l14 -42l-14 -15h-13l13 -71l-13 -14l13 -71v-142q0 -100 68 -256h-14q-61 -55 -121 -57q-136 -70 -136 -156
v-71zM434 515q176 142 176 227v57q0 98 -122 142l-14 -14v-14l54 -156q-71 -100 -135 -100q-27 0 -41 114l14 14l-14 100v255q14 43 82 43l149 -43l149 15h108l95 -15q-27 -255 -54 -255l13 -15v-14l-13 -57l13 -14v-14q-86 -355 -244 -355h-67q-83 0 -149 99z" />
</svg>
