<?xml version="1.0" standalone="no"?>
<!DOCTYPE svg PUBLIC "-//W3C//DTD SVG 1.1//EN" "http://www.w3.org/Graphics/SVG/1.1/DTD/svg11.dtd" >
<svg xmlns="http://www.w3.org/2000/svg" xmlns:xlink="http://www.w3.org/1999/xlink" version="1.1" viewBox="-10 0 2058 2048">
   <path fill="currentColor"
d="M232 634l28 9l9 -9h9q97 0 232 187l37 18q47 0 65 -62l75 -72h92q45 0 75 179h18l93 -27q33 0 74 36l-9 9v17l46 81h10l46 -9q188 0 232 143l9 9h9l-9 8v9l28 125q-39 98 -176 143h-28q-139 -18 -139 -89l18 -18l130 18q84 -59 84 -98v-54q-33 -134 -204 -134
q0 18 -75 36l-37 -45v-9l9 -8q-25 -90 -55 -90h-28q0 42 -130 72l-18 -27v-18l18 -71l-9 -9v-9l9 -27l-28 -27l-37 -17q-96 21 -130 214l-9 9h-28q-71 -83 -139 -116h-28v8l9 27l-9 45v143q0 178 -241 178q-81 -56 -130 -143v-9q41 -335 84 -383q0 -74 148 -143zM343 750v62
q23 0 158 99h37q-149 -153 -195 -161zM74 1009v35l37 9l75 -9l92 36h19q18 0 18 -45h10l-10 -8v-9l10 -45q-30 -214 -93 -214q-128 0 -158 250zM65 1160q51 81 158 81q62 -25 83 -54v-18q-18 -36 -102 -62h-102q-37 18 -37 53z" />
</svg>
