<?xml version="1.0" standalone="no"?>
<!DOCTYPE svg PUBLIC "-//W3C//DTD SVG 1.1//EN" "http://www.w3.org/Graphics/SVG/1.1/DTD/svg11.dtd" >
<svg xmlns="http://www.w3.org/2000/svg" xmlns:xlink="http://www.w3.org/1999/xlink" version="1.1" viewBox="-10 0 862 1000">
   <path fill="currentColor"
d="M820 449q-22 -49 -68 -89t-105.5 -67.5t-121 -42t-114.5 -14.5q-76 0 -142 12t-118.5 39.5t-83 73t-30.5 109.5q0 43 17.5 77t47 57t66 34.5t74.5 11.5q39 0 70.5 -13.5t53.5 -35.5t33.5 -47t11.5 -46q0 -65 -34.5 -102.5t-91.5 -37.5q39 19 60 45t21 67q0 56 -33.5 85.5
t-86.5 29.5q-13 0 -26 -2q-34 -4 -63 -33.5t-29 -68.5q0 -92 74 -136t213 -44q48 0 103.5 8.5t111 26t105 43.5t85.5 60z" />
</svg>
