<?xml version="1.0" standalone="no"?>
<!DOCTYPE svg PUBLIC "-//W3C//DTD SVG 1.1//EN" "http://www.w3.org/Graphics/SVG/1.1/DTD/svg11.dtd" >
<svg xmlns="http://www.w3.org/2000/svg" xmlns:xlink="http://www.w3.org/1999/xlink" version="1.1" viewBox="-10 0 970 1000">
   <path fill="currentColor"
d="M899 707q0 27 -10 53q-14 35 -37 35q-11 0 -27 -16t-16 -27q0 -27 2 -60q2 -46 2 -61l-6 -22q-8 2 -16 17l-2 25q4 2 5 11q0 7 -1.5 19.5t-1.5 13.5q0 102 -19 102q-17 0 -19 -60q0 14 0 -77q0 -33 -3 -46q-19 16 -25.5 69t-28.5 76q-109 -236 -236 -368q41 79 77 167
q48 120 48 171q0 17 -12 29q-2 0 -82.5 24t-150.5 24q-77 0 -148 -7q-116 -11 -131 -38l3 -48q6 -81 100 -292q101 -229 158 -229q24 0 157 128q124 120 226 297q25 -54 41 -54q6 0 17 11q15 14 17 16q17 -29 28 -29q38 0 38 96q0 16 -1 40t-1 28q0 31 7 31q2 0 45 -79
q3 14 3 30zM700 686q-65 -124 -134 -214q-65 -83 -171 -185l-10 -13q65 18 187 181q120 159 128 231zM551 703q0 -25 -24 -93q-41 -116 -86 -194t-126 -171q-27 2 -103 148q-72 141 -73 173q-13 29 -29 80q-19 61 -17 81v11q163 -35 260 -35q87 0 198 13v-13zM514 747
q-104 -11 -171 -11q-44 0 -111 10q-94 13 -111 15q23 8 109 14q72 5 117 5q78 0 167 -33z" />
</svg>
