<?xml version="1.0" standalone="no"?>
<!DOCTYPE svg PUBLIC "-//W3C//DTD SVG 1.1//EN" "http://www.w3.org/Graphics/SVG/1.1/DTD/svg11.dtd" >
<svg xmlns="http://www.w3.org/2000/svg" xmlns:xlink="http://www.w3.org/1999/xlink" version="1.1" viewBox="-10 0 2058 2048">
   <path fill="currentColor"
d="M1190 252h66q95 31 145 177l-26 40l13 14v14l-53 81h-13q-27 0 -40 -136l-53 -13q-145 34 -145 108q0 36 132 231l53 191l-13 40l13 14v14q-114 372 -370 516q-304 44 -304 95l-331 -54l-79 27l-13 -14l-66 14h-53l-53 -41q0 -103 172 -163q0 -20 277 -190
q113 -91 318 -381l92 -163l-13 -13q53 -14 53 -95q-32 -123 -278 -123q-74 0 -145 109l-40 54v14l13 163l-66 27q-43 -64 -53 -149l-13 -14h-13q57 -299 185 -299l66 -13l13 13h14l39 -13l185 54l13 -14q0 31 133 68h26q155 -172 212 -190zM965 660l-132 217l13 14
q-240 321 -423 489l-26 68q173 54 290 54l14 -13h13l53 13q211 -78 290 -244q66 -144 66 -204l-13 -55h13l-13 -13v-14l13 -81l-13 -14v-14l13 -54q-64 -149 -158 -149zM1308 1407h14q27 6 53 68q-19 95 -53 95h-14l-52 -54l13 -55l-13 -13z" />
</svg>
