<?xml version="1.0" standalone="no"?>
<!DOCTYPE svg PUBLIC "-//W3C//DTD SVG 1.1//EN" "http://www.w3.org/Graphics/SVG/1.1/DTD/svg11.dtd" >
<svg xmlns="http://www.w3.org/2000/svg" xmlns:xlink="http://www.w3.org/1999/xlink" version="1.1" viewBox="-10 0 2058 2048">
   <path fill="currentColor"
d="M674 327q169 0 169 155l101 250l146 -36l45 12l11 -12h11q47 17 68 60v24l-34 36h-11l-124 -12q-67 28 -67 47v12l22 36l-11 12v12q15 59 34 59h45l90 12l90 -12h33l124 24h34q112 -131 236 -131q112 27 112 203v83l-124 155h-11l-22 -24q0 -45 56 -107l11 -36
q0 -68 -79 -95q-110 45 -112 72v107q-52 119 -135 119q-83 -44 -90 -72v-71l12 -12v-12l-12 -12l45 -59l-11 -12l-34 -12v-12q-213 12 -213 48v11q128 340 157 358q56 0 56 24v24q-11 35 -67 35h-56l-12 -12l-11 12h-11l-45 -12l-34 12v-12l-11 12h-56l-34 -35v-24
q0 -36 79 -36l22 -36q-38 -151 -90 -226l12 -36l-79 -71l-371 35q-37 135 -146 334l68 83v24q0 28 -113 48q-202 0 -202 -95q17 -48 34 -48h56l135 -298q0 -24 -34 -24l-11 12h-12l-11 -12l-180 36h-45q-58 0 -67 -36v-24q87 -107 135 -107l202 36h34l45 -60l-11 -12
q45 -19 45 -83l-12 -48h-45q-61 0 -101 -71v-24l23 -24l146 24q87 0 146 -238q22 0 22 -60h-11q29 -155 56 -155zM697 637q0 48 -23 48q17 47 34 47h45l22 -24q-11 -71 -33 -71h-45zM663 816q-42 51 -101 226l326 -48q-29 -166 -124 -166zM1382 1173l-22 48v36l56 12l22 -24
v-72h-56z" />
</svg>
