<?xml version="1.0" standalone="no"?>
<!DOCTYPE svg PUBLIC "-//W3C//DTD SVG 1.1//EN" "http://www.w3.org/Graphics/SVG/1.1/DTD/svg11.dtd" >
<svg xmlns="http://www.w3.org/2000/svg" xmlns:xlink="http://www.w3.org/1999/xlink" version="1.1" viewBox="-10 0 2058 2048">
   <path fill="currentColor"
d="M1259 529q58 27 81 52l-7 7l7 38l-13 29l6 8q-109 119 -250 119h-108l-27 7q-54 -15 -224 -22l-27 7l-7 -7h-6l-7 7h-7l-27 -7l-7 7l-108 -15q-244 25 -244 127v15l21 22l115 -22l40 7h54l21 -7l34 7h27l128 7l7 -7h7l61 7h20l27 -7l7 7h7l6 -7h21v7l47 -7h47l41 7l27 -7
l7 7l47 -7h136l128 -7l21 7l81 -30l13 15l-27 164l14 14l68 -7q28 0 74 89l-14 22l7 23q-11 0 -34 89l-47 37h-41q-40 0 -81 -59q0 -48 61 -60q25 60 68 60v-8l-7 -22l14 -15l-7 -37l7 -8q-34 -29 -55 -29q-75 -31 -81 -45l-7 -30l7 -7v-7l-7 -67v-8l-20 -7l-7 7l-74 -15
l-7 8h-7l-6 -8h-7l-41 8q-40 -5 -40 -15l-21 7l-27 -7l-7 7h-20v-7l-135 15l-21 -8l-6 8h-7l-27 -8l-14 15l-101 -15l-7 8l-34 -8l-101 8l-7 -8l-14 15q-13 -15 -61 -15v-7l-6 7h-14l-47 -7l-48 7l-176 -7l-6 22q55 156 209 156q0 10 102 15l54 -7l108 7l27 -7l7 7h7l7 -7h7
l40 15h7l40 -8l7 8l34 -8h142l7 8l7 -8l47 8h20l41 -8l20 8l7 -8h7q59 0 88 75l-7 7l20 74h-6l13 30q-50 80 -101 104q-54 0 -61 -82l47 -37h27l7 8h7l13 -23q0 -60 -67 -81l-21 7l-61 -15l-6 8h-102l-61 -8l-7 8l-33 -8l-115 15l-48 -22l-34 15l-27 -8l-7 8h-6l-7 -8l-34 8
l-101 -8l-21 8q-243 -28 -243 -90q-41 -18 -41 -89l-20 -30v-7l6 -7v-8l-27 -22h-20l-34 7v-7q-72 6 -108 52q-18 0 -34 -37l7 -45l-7 -7l14 -15l-7 -37q11 -37 47 -37q8 52 61 52h95q14 0 34 -104q16 -36 155 -82l14 -15h101l34 7l41 -7h108l61 -8q17 13 210 23v7l34 -7h54
l41 7q108 -18 108 -59v-8q-13 0 -27 -44q0 -38 74 -82h7z" />
</svg>
