<?xml version="1.0" standalone="no"?>
<!DOCTYPE svg PUBLIC "-//W3C//DTD SVG 1.1//EN" "http://www.w3.org/Graphics/SVG/1.1/DTD/svg11.dtd" >
<svg xmlns="http://www.w3.org/2000/svg" xmlns:xlink="http://www.w3.org/1999/xlink" version="1.1" viewBox="-10 0 683 1000">
   <path fill="currentColor"
d="M655 477l-56 143q27 -134 27 -160q0 -49 -34 -53q-31 -3 -41 8q19 17 19 38q0 29 -15.5 49.5t-44.5 20.5q-27 0 -43.5 -21.5t-16.5 -49.5q0 -7 21 -33q-64 -11 -111 -6l216 357l53 21l-65 31l-72 -28l33 -20l-223 -361h-65v-2l-27 27l-47 -47l47 -46l27 27v-1h39l-55 -71
h-67l-26 26l-47 -47l47 -46l27 27h47l-50 -81l-63 2l-26 27l-47 -47l47 -47l25 26h42q-10 -23 -24 -41q-34 -43 -81 -52l70 -32l69 20q-26 24 -25 37l38 68h64l27 -27l46 47l-46 47l-28 -28h-39l55 81h55l28 -28l47 47l-47 46l-26 -25h-31l52 71h66q17 0 56.5 8.5t46.5 8.5
q12 0 37 -6.5t38 -6.5q79 0 79 78q0 11 -2 24zM540 466q0 -11 -10 -22t-21 -11q-9 0 -16.5 11.5t-7.5 21.5q0 9 8.5 15.5t17.5 6.5q29 0 29 -22z" />
</svg>
