<?xml version="1.0" standalone="no"?>
<!DOCTYPE svg PUBLIC "-//W3C//DTD SVG 1.1//EN" "http://www.w3.org/Graphics/SVG/1.1/DTD/svg11.dtd" >
<svg xmlns="http://www.w3.org/2000/svg" xmlns:xlink="http://www.w3.org/1999/xlink" version="1.1" viewBox="-10 0 2058 2048">
   <path fill="currentColor"
d="M1036 275l22 32q-131 184 -131 271l11 32l-11 33l11 11v10l-11 44l11 32l-11 11l33 11l-11 11q28 183 76 183l76 -10q365 0 480 248l22 109h-11l11 10v11q0 171 -360 303l-54 11l-66 -43l-11 11q-196 -140 -196 -195v-33l11 -43l-11 -11v-11q30 -194 87 -194v-22l-43 -65
l-33 11l-436 -22l-11 11h-11l-66 -11h-32l-44 11l-43 -11h-11l-33 22q-229 -17 -229 -65q54 -127 54 -195q-10 -166 -65 -302q0 -174 65 -174l66 -10l11 10l76 -10h55l11 10l10 -10h11l33 10l98 -10h11l11 10l11 -10h22l109 10l43 -10l131 21l11 -11h11l11 11h11zM109 459
q65 126 65 238l-10 54l10 11v11q-19 118 -43 129q11 44 43 44l186 10l120 -10l11 10h11l11 -10l130 10h55l65 -10l88 21l76 -21q-22 -65 -44 -65l11 -11v-11l-54 -173l11 -11v-11l-11 -32l43 -206l-65 -21h-371l-11 -11l-11 11h-11l-54 -11l-11 11l-55 -11h-120
q-65 0 -65 65zM1112 1043h-65l-22 43v11l109 -11h44q163 22 163 152v43q-27 0 -76 87q-48 32 -98 32q-109 -61 -109 -141l11 -10h21l66 54h22q54 0 76 -76v-43q-15 -44 -98 -44h-66q-119 68 -119 173v11l21 33l-11 11l55 97l142 54h141q208 -105 208 -238q0 -186 -295 -238
l-54 -11z" />
</svg>
