<?xml version="1.0" standalone="no"?>
<!DOCTYPE svg PUBLIC "-//W3C//DTD SVG 1.1//EN" "http://www.w3.org/Graphics/SVG/1.1/DTD/svg11.dtd" >
<svg xmlns="http://www.w3.org/2000/svg" xmlns:xlink="http://www.w3.org/1999/xlink" version="1.1" viewBox="-10 0 2058 2048">
   <path fill="currentColor"
d="M758 454q178 0 265 118l27 130l-27 161l9 32h9q139 0 329 237l-9 11v11q136 279 201 279q112 0 137 -215l36 -54q55 7 55 33v129q0 129 -192 280h-82q-99 -6 -228 -162q-162 -287 -247 -366q-74 -43 -137 -43q-38 15 -55 54q62 101 165 388q82 78 82 139l-18 22l-46 -11
h-9l-64 11v-11l-9 11l-46 -11h-9l-37 11l-36 -11l-64 11l-9 -11h-9l-9 11h-10l-82 -22h-9l-82 11l-9 -11h-9l-9 11h-10l-146 -21l-9 10l-27 -10l-174 21l-9 -11h-9l-110 22l-27 -22l110 -226q0 -32 27 -32q0 -48 128 -247l119 -226q19 0 45 -87q64 -96 146 -279
q21 -50 183 -65zM685 583l-18 43q39 122 91 205q0 80 55 140h9q110 -74 110 -140l9 -43q-68 -205 -201 -205l-9 11h-10zM174 1455l9 43h9l173 -21l165 10h27l101 -10l9 10h9l36 -10l28 10l9 -10h9l37 10l9 -10h9l27 10l18 -54l-45 -86l9 -10v-11l-82 -151l9 -11l-165 -344
l-27 -22h-9q-65 58 -174 313q-28 15 -100 183q-14 0 -100 161z" />
</svg>
