<?xml version="1.0" standalone="no"?>
<!DOCTYPE svg PUBLIC "-//W3C//DTD SVG 1.1//EN" "http://www.w3.org/Graphics/SVG/1.1/DTD/svg11.dtd" >
<svg xmlns="http://www.w3.org/2000/svg" xmlns:xlink="http://www.w3.org/1999/xlink" version="1.1" viewBox="-10 0 2058 2048">
   <path fill="currentColor"
d="M750 192l40 15l40 -15l13 15v15l54 -30l40 15l67 -15q54 15 54 91v16l-14 60l14 16v15l-14 15l27 213l-27 107l27 76l-40 61l13 61h-13l13 15v15l-13 91l13 16l-27 106l27 91l-13 46l13 46l-13 45l13 16v15q0 198 -93 198l-14 -15h-13l-14 15v15q-60 -30 -174 -30h-13
l-54 15l-120 -31l-254 16l-41 -16l-53 31q-134 -15 -161 -46l14 -15l-27 -183l27 -137l-27 -61l13 -61l-13 -15v-15l27 -61l-27 -30l13 -16q-9 -121 -27 -121l14 -15v-31l-27 -46l27 -30v-30h-14l27 -259l-13 -15v-16l13 -61l-13 -45l53 -107l161 15l67 -15l80 15h27l54 -15
l53 15zM147 466l14 46l-14 91v30l14 77l-14 15h-13l13 76l-13 15v15l13 46l-13 15v15l27 61l-27 152l13 16v15l-13 15v15l13 61l-13 15l13 16v152q14 46 81 46l13 -16h13l41 16l13 -16h13l14 16h13l13 -16l94 16h27l281 -16l13 16h14l147 -31l-13 -61l13 -15l-13 -107v-137
l-14 -60q27 -66 27 -244l-27 -30l27 -31v-15l-27 -30l27 -244q0 -112 -161 -122l-53 15l-13 -15h-14l-13 15h-14l-67 -15l-13 15h-13l-14 -15h-13l-94 15l-67 -15q-214 0 -241 122zM616 573h94l26 30q0 27 -214 137l-27 91l14 16l-27 30q0 153 94 213h13l121 -15l53 15v46
q0 56 -201 76q0 -25 -93 -61q-121 -188 -121 -259v-45q75 -244 241 -244z" />
</svg>
