<?xml version="1.0" standalone="no"?>
<!DOCTYPE svg PUBLIC "-//W3C//DTD SVG 1.1//EN" "http://www.w3.org/Graphics/SVG/1.1/DTD/svg11.dtd" >
<svg xmlns="http://www.w3.org/2000/svg" xmlns:xlink="http://www.w3.org/1999/xlink" version="1.1" viewBox="-10 0 1436 2048">
   <path fill="currentColor"
d="M635 237q385 51 549 167q220 212 220 373h-12l24 51l-12 13v13l12 77l-24 77l12 13v13q0 139 -269 411q0 50 -281 167l-73 13l-12 -13h-12l-122 26l-305 -129q-194 -90 -306 -385l13 -13v-13l-13 -116v-25l13 -13l-37 -116v-25q0 -66 110 -219l-12 -13v-13
q251 -308 525 -308zM171 815l12 13q-28 0 -37 65l13 38h-13l25 51l-12 13v13q63 277 232 386q128 96 256 141h24q319 0 452 -244q26 -5 110 -180l-12 -13v-13l24 -51l-12 -13v-13l12 -13v-13l-24 -51l12 -51l-12 -13v-13l12 -13v-13l-25 -90l13 -13v-12q0 -79 -208 -257
q-233 -90 -329 -90h-86l-220 77q-207 204 -207 372zM623 610h36q157 319 330 527v25l-232 39l-12 -13l-367 26l-24 -39v-51q86 -132 208 -411l-13 -13zM476 1072v13q0 26 110 26v13l37 -13l85 13l98 -26v-13l-25 -25l12 -13v-13l-146 -219h-24q-43 16 -147 257z" />
</svg>
