<?xml version="1.0" standalone="no"?>
<!DOCTYPE svg PUBLIC "-//W3C//DTD SVG 1.1//EN" "http://www.w3.org/Graphics/SVG/1.1/DTD/svg11.dtd" >
<svg xmlns="http://www.w3.org/2000/svg" xmlns:xlink="http://www.w3.org/1999/xlink" version="1.1" viewBox="-10 0 2058 2048">
   <path fill="currentColor"
d="M714 230h67l27 24q-39 44 -188 97l-41 122q21 73 95 73h107q52 -37 122 -37l13 12v12q0 83 -189 134h-80v12q0 64 161 206l-13 13v12q90 155 121 158l-13 12v12q175 243 202 340l94 85q0 48 -175 85l-41 -25l-94 25v-13l-13 13h-95l-54 -13l-53 13l-14 -13
q-175 13 -175 37l-67 -12h-149l-27 24l-134 -12h-68l-40 -37v-60l121 -255l-13 -12v-12l67 -146q18 0 54 -121l27 -25l-14 -36q22 0 95 -219l54 -72l-14 -13v-12l81 -145l-13 -73l13 -12l-13 -12q67 -98 269 -134zM350 1007l14 36q-45 0 -162 389l-13 12l13 48l27 25
l189 -25l13 12l121 -24l81 12h94l81 -12l14 12h13l14 -12h13l54 12l54 -36q-40 -97 -229 -340h13q-143 -260 -269 -376q-33 2 -135 267z" />
</svg>
