<?xml version="1.0" standalone="no"?>
<!DOCTYPE svg PUBLIC "-//W3C//DTD SVG 1.1//EN" "http://www.w3.org/Graphics/SVG/1.1/DTD/svg11.dtd" >
<svg xmlns="http://www.w3.org/2000/svg" xmlns:xlink="http://www.w3.org/1999/xlink" version="1.1" viewBox="-10 0 2058 2048">
   <path fill="currentColor"
d="M572 207l40 14l80 -14h40l53 28l13 -14h14q185 47 186 84q0 28 -80 42q-32 -28 -293 -42q0 24 -199 70q-187 110 -266 393l-14 56l14 56v14l-14 14q58 338 173 421q151 169 280 169h13q308 0 505 -141h40l14 14h13q0 157 -532 267l-40 -28l-13 14h-14l-239 -84
q-199 -141 -240 -309q-23 -11 -79 -182l13 -14v-14q-13 -99 -40 -99q53 -347 133 -462q0 -42 186 -155l240 -84zM732 530q31 14 199 350l80 113l-13 14q25 0 66 84v28l-26 28h-14l-66 -14l-280 42h-79q-227 0 -227 -56q77 -95 306 -575l14 -14h40zM519 1077l80 14l66 -14
l13 14l67 -14h93l27 -56q-137 -250 -173 -267q-57 0 -173 323z" />
</svg>
