<?xml version="1.0" standalone="no"?>
<!DOCTYPE svg PUBLIC "-//W3C//DTD SVG 1.1//EN" "http://www.w3.org/Graphics/SVG/1.1/DTD/svg11.dtd" >
<svg xmlns="http://www.w3.org/2000/svg" xmlns:xlink="http://www.w3.org/1999/xlink" version="1.1" viewBox="-10 0 1810 2048">
   <path fill="currentColor"
d="M37 642h38l24 24v12l-12 60l12 12l150 -24l12 12h12l50 -12l13 12h12l12 -12l88 12h62l149 -12q0 115 137 203h24q120 0 162 -132l-12 -35l37 -24h74l199 -12l13 12h12l50 -12l112 12l12 -12h13l12 12l37 -12l137 12q35 -72 100 -72v24l12 95q-12 132 -50 132
q-28 0 -49 -84h-13q-280 0 -348 24l-37 -12l-50 12l-37 -12l-13 12l-62 -12h-74q-105 192 -237 192l-12 11v12l-87 -23l12 -12v-12q-77 -168 -211 -168l-62 12l-75 -12q-323 18 -323 60h-25l-37 -36l12 -60l-12 -143zM1740 1060l38 36v36l-13 48l13 12v12l-13 48l13 12v12
q0 74 -63 107q-37 -46 -37 -107h-12l-38 12l-124 -12h-149l-50 12l-99 -24l-50 12l-12 -12h-13q-38 3 -137 155l-124 24h-25q-101 0 -186 -167l-13 -12h-12l-12 12h-13l-12 -12h-13l-62 24l-385 -24q-15 107 -38 107q-51 -16 -74 -60v-119l-13 -48q25 -54 50 -60
q62 72 112 72h298l75 -12q137 12 137 60q94 119 161 119h38q74 -25 161 -155l62 -24l137 12l211 -12l237 12z" />
</svg>
