<?xml version="1.0" standalone="no"?>
<!DOCTYPE svg PUBLIC "-//W3C//DTD SVG 1.1//EN" "http://www.w3.org/Graphics/SVG/1.1/DTD/svg11.dtd" >
<svg xmlns="http://www.w3.org/2000/svg" xmlns:xlink="http://www.w3.org/1999/xlink" version="1.1" viewBox="-10 0 1646 2048">
   <path fill="currentColor"
d="M1575 432q51 12 51 35q0 89 -101 89l-9 -9h-8l-8 9h-17v-9l-177 18l-177 -18l-8 9l-43 -9h-210q-42 26 -42 53l8 9v9l-8 36l8 9l-17 88q0 46 51 53q97 -30 160 -79h25l68 88q0 36 -76 45l-9 -9h-8q-202 15 -202 44l-9 71l9 98l-9 8v9l9 54l-9 70q17 0 17 27l8 9h9
l345 -27l34 9l25 -9l26 9q33 -9 33 -35l-8 -9v-9l8 -35l-8 -9v-9q15 -62 59 -62l17 44l-9 9v9q0 47 68 97h25l25 -26l-8 -36q0 -72 59 -97h33l9 26q-42 365 -110 453q-77 92 -109 106h-76q-67 -55 -67 -80q0 -130 151 -239q0 -36 -109 -36h-9l-33 9l-9 -9h-8l-110 27l-8 -9
l-84 9h-34l-51 -9l-50 18l-9 -9h-8l-42 9l-9 -9l-42 9h-8l-51 -9q-20 15 -261 26l-160 -17l-34 17l-59 -8h-67l-76 35q-42 -11 -42 -27v-26q98 -159 135 -186q97 102 177 115l143 -18l34 18l8 -9h8l9 9l42 -9h17v9l42 -9h93q17 0 17 -27l-9 -8v-9l9 -36l-9 -9v-8l9 -36
l-9 -9v-9l9 -35l-9 -9l17 -89l-25 -79q-101 17 -253 17h-42q-57 0 -169 36l-8 -9h-9l-33 9l-34 -45v-8l118 -178h8q108 115 304 115l8 9h9q92 0 126 -44l-8 -9v-115l8 -36l-17 -79l9 -9l16 -45l59 -9l9 9h8l9 -9h25v9l59 -9h143l9 9l50 -17h34l50 8l9 -8l25 8l177 -8h17
l50 8zM1289 1532q0 13 34 26q89 0 135 -213v-9h-43q-126 144 -126 196z" />
</svg>
