<?xml version="1.0" standalone="no"?>
<!DOCTYPE svg PUBLIC "-//W3C//DTD SVG 1.1//EN" "http://www.w3.org/Graphics/SVG/1.1/DTD/svg11.dtd" >
<svg xmlns="http://www.w3.org/2000/svg" xmlns:xlink="http://www.w3.org/1999/xlink" version="1.1" viewBox="-10 0 1915 2048">
   <path fill="currentColor"
d="M1091 439l27 23l-6 8v15l6 7v8q-25 14 -62 130l7 8q-14 0 -35 130l-7 7v92l-20 122l7 23h-7l13 54l-6 23q0 20 55 61q48 0 118 -153q96 -95 243 -145h6l21 23q-21 115 -55 214q21 68 55 68q72 -32 125 -168q31 0 62 -114l28 -39h21q28 0 28 138h7l-7 23l14 38h-7
q11 61 27 61h7q61 -82 77 -153q-42 -29 -42 -84q10 0 21 -30l7 -8h21q37 0 55 46q-4 84 -14 84l-69 153h-14l7 7v8q-14 5 -63 99l-13 16q-63 0 -63 -138q-11 0 -28 -61h-6q-51 33 -104 153l-70 53h-14q-39 0 -83 -76h-28q-69 84 -97 84l-76 -84l-125 69h-27
q-58 -56 -84 -138l14 -84l-7 -8v-7l14 -31l-7 -7v-39q2 -38 14 -38l-7 -30q0 -54 14 -54l-7 -7v-8l7 -54l-21 -15q-17 0 -132 138q-97 96 -138 175h-21l-14 -15q14 -92 28 -107l-7 -8v-7l21 -54l-7 -7v-8l7 -30l-7 -8l21 -84l-21 -15h-14q0 18 -76 107q-168 200 -229 313
q-65 88 -146 122l-7 -8l-7 8h-48q-104 -82 -104 -107l-14 -53q14 0 14 -46l41 -38q80 0 104 53l-20 76v8q0 15 41 23q30 -2 118 -122l229 -283q176 -244 194 -245h14l21 23l-21 107l7 8v8q-28 100 -28 175h21q254 -248 305 -351zM1209 1127q33 30 55 30q54 0 104 -175v-46
h-28q-131 90 -131 191z" />
</svg>
