<?xml version="1.0" standalone="no"?>
<!DOCTYPE svg PUBLIC "-//W3C//DTD SVG 1.1//EN" "http://www.w3.org/Graphics/SVG/1.1/DTD/svg11.dtd" >
<svg xmlns="http://www.w3.org/2000/svg" xmlns:xlink="http://www.w3.org/1999/xlink" version="1.1" viewBox="-10 0 1810 2048">
   <path fill="currentColor"
d="M841 230q171 0 227 231l10 10v10l-10 41q274 0 334 -20l11 10h10l44 -10l10 10h11l65 -10l11 10q129 0 129 -71q5 -40 32 -40h54l11 30q-13 262 -54 262h-43l-22 -41l11 -10l-75 -20l-11 10l-54 -10h-43l-43 10l-43 -10h-11l-108 10l-140 -20l-11 10h-11
q-162 0 -162 -100l-10 -61h10q0 -64 -97 -80h-32q-60 28 -119 221l-226 30l-11 -10h-11l-10 10h-11l-32 -10l-54 10l-194 -10q0 18 -54 30q0 51 -44 51q-75 0 -75 -101l11 -10h11l-11 -40l11 -40l-22 -101q49 -40 75 -40q58 47 65 131l11 10l140 -21l324 31q64 0 64 -71
l-10 -10v-10q30 -5 53 -131q29 0 44 -50zM917 733q184 0 269 181l-11 10l11 60q0 131 -97 262q-148 392 -367 392q-71 0 -118 -70v-21l11 -10l-11 -10v-10q83 -205 399 -412q0 -20 -54 -20v-10l-11 10h-11q-183 -72 -183 -201q54 -151 173 -151zM927 833l-10 -10h-11
q-33 13 -65 91v10l97 101q151 -11 151 -71q0 -74 -119 -141h-21zM744 1457v40l22 20h10q129 0 248 -301l11 -31h-32q-127 68 -259 272z" />
</svg>
