<?xml version="1.0" standalone="no"?>
<!DOCTYPE svg PUBLIC "-//W3C//DTD SVG 1.1//EN" "http://www.w3.org/Graphics/SVG/1.1/DTD/svg11.dtd" >
<svg xmlns="http://www.w3.org/2000/svg" xmlns:xlink="http://www.w3.org/1999/xlink" version="1.1" viewBox="-10 0 1104 1000">
   <path fill="currentColor"
d="M1045 201q0 89 -128 89q-14 0 -36 -1q-28 -1 -33 -1l-1 191q10 10 20 20.5t10 23.5q0 15 -11 28t-25 13q-17 0 -33 -11t-16 -27q0 -20 29 -46q1 -10 1 -25q0 -67 -2 -167h-139l-1 199q32 17 32 33q0 18 -15 30t-33 12q-12 0 -24.5 -13t-12.5 -24q0 -13 13.5 -22.5
t13.5 -29.5l1 -185h-107v484l22 22l-57 57l-57 -57l27 -27v-479h-96l-1 201q2 4 17 12q11 7 11 21q0 16 -12.5 31.5t-27.5 15.5q-44 0 -44 -43q0 -16 8 -24q2 -2 21 -13v-201h-121v201q33 8 33 47q0 12 -16 24.5t-28 12.5q-15 0 -30 -16t-15 -32q0 -11 10.5 -20t20.5 -16
q1 -22 1 -63q0 -59 -2 -138q-30 3 -59 3q-104 0 -104 -97q0 -31 23.5 -55t54.5 -24q22 0 40 12t18 33q0 16 -12 26.5t-28 10.5q-18 0 -30.5 -17t-16.5 -17q-21 0 -21 31q0 12 20 20q16 6 30 6h828q61 0 61 -29q0 -18 -22 -32q-8 4 -16 21q-6 11 -28 11q-17 0 -31 -12
t-14 -28t19 -29t36 -13q34 0 59.5 28.5t25.5 63.5z" />
</svg>
