<?xml version="1.0" standalone="no"?>
<!DOCTYPE svg PUBLIC "-//W3C//DTD SVG 1.1//EN" "http://www.w3.org/Graphics/SVG/1.1/DTD/svg11.dtd" >
<svg xmlns="http://www.w3.org/2000/svg" xmlns:xlink="http://www.w3.org/1999/xlink" version="1.1" viewBox="-10 0 1563 2048">
   <path fill="currentColor"
d="M509 507q32 6 56 48v8q-24 0 -38 105l10 8q-16 0 -38 145l10 8v8l-10 33l10 8l-29 121v80l47 16h10q57 -32 114 -32h47l57 40h19q66 -48 105 -48q35 0 76 48v57l-10 8l10 8v8q-26 23 -38 137q13 33 47 48h19q79 0 85 -72l-9 -8v-8l9 -32l-9 -9v-8q19 0 38 -80
q71 -81 171 -81l85 81v8l-19 16h-9l-95 -16q-76 10 -76 72v49q14 88 57 88l57 8l85 -48l19 16v16q0 61 -171 89q-112 -56 -142 -56q-70 40 -152 40q-57 -24 -57 -129l19 -129l-57 -16q-54 57 -114 201q-43 57 -85 57l-29 -24q95 -119 95 -234v-8l-28 -24q-199 14 -199 80
q0 116 -200 234l-28 -16l-48 8q-82 0 -161 -121l19 -48l-10 -8v-8q40 -57 57 -57h57q18 0 57 57q-66 52 -66 80q40 32 76 32h28q133 -54 133 -121q29 0 29 -56q-33 -24 -86 -32v-8q104 -34 105 -49v-72l19 -145l-10 -8v-8l10 -8v-8l-10 -33l10 -24l-10 -8v-8l10 -32l-10 -24
q-199 42 -199 129l-10 8q0 89 95 104l19 16l-28 17h-38l-76 -17l-10 9q-85 -62 -85 -129q21 0 28 -73zM1524 1337l19 24v49l-47 40h-19l-29 -24v-16l10 -8l-10 -8v-8q43 -49 76 -49z" />
</svg>
