<?xml version="1.0" standalone="no"?>
<!DOCTYPE svg PUBLIC "-//W3C//DTD SVG 1.1//EN" "http://www.w3.org/Graphics/SVG/1.1/DTD/svg11.dtd" >
<svg xmlns="http://www.w3.org/2000/svg" xmlns:xlink="http://www.w3.org/1999/xlink" version="1.1" viewBox="-10 0 1608 2048">
   <path fill="currentColor"
d="M979 477q65 6 65 47q0 38 -178 382l-9 56h9q100 -9 338 -327q41 -23 122 -149l28 -9l56 9v47l-56 102l9 10q-65 71 -140 252q-66 69 -66 149l9 9q-25 0 -37 121l9 10v9l-19 28l19 46h-9q0 47 94 56l93 -139q19 0 19 28q0 126 -141 205q-124 0 -178 -140l-9 -47
q21 -100 84 -242l-9 -10q31 0 47 -121h-28q-296 238 -338 289q0 22 -93 121q0 38 -28 38h-10l-28 -19l9 -46v-28q36 -9 94 -140q47 -41 75 -177l-9 -10h-19q-467 494 -572 494h-28q-101 0 -131 -158v-56q15 -168 150 -168l56 9v38q-131 27 -131 84l-9 9q17 149 121 149
l188 -121q431 -411 431 -494q27 -5 84 -121zM1532 1260h28l28 28q-9 140 -56 140h-10q-37 -19 -37 -47l19 -84l-10 -9z" />
</svg>
