<?xml version="1.0" standalone="no"?>
<!DOCTYPE svg PUBLIC "-//W3C//DTD SVG 1.1//EN" "http://www.w3.org/Graphics/SVG/1.1/DTD/svg11.dtd" >
<svg xmlns="http://www.w3.org/2000/svg" xmlns:xlink="http://www.w3.org/1999/xlink" version="1.1" viewBox="-10 0 1773 2048">
   <path fill="currentColor"
d="M1537 267h19q21 0 38 62l-28 72l9 8v9q-16 7 -103 267l9 27q-41 54 -84 285q0 98 103 98v18l-47 44q-26 0 -122 -115h-28q-75 71 -141 71q-101 0 -121 -143l9 -9v-9l-9 -44q103 -169 300 -169l9 -9q44 0 103 -285l9 -9v-9l-9 -9l19 -17l-10 -45q17 0 38 -80zM281 783
l28 27l-28 62l10 9l-19 18v9l19 18l159 -80q94 0 150 80h-9l18 71q0 78 -131 178h-47l-37 -9l-28 9l-38 -53l9 -27h29q32 36 65 36h28q94 -59 94 -134q0 -27 -66 -62q-184 0 -253 133q-65 146 -65 232l56 9v26q-25 47 -122 143l-19 44l10 9q-22 0 -47 80l-28 27l-19 -27
q23 -213 47 -213l-10 -9l75 -232q43 -249 75 -249l-9 -9v-9l56 -98l10 -9h37zM1097 970l9 45l-9 9l47 35h56q90 -39 141 -187v-26l-38 -36q-197 73 -197 151zM1697 1086h9q47 26 47 53q0 24 -47 45l-37 -27v-44z" />
</svg>
