<?xml version="1.0" standalone="no"?>
<!DOCTYPE svg PUBLIC "-//W3C//DTD SVG 1.1//EN" "http://www.w3.org/Graphics/SVG/1.1/DTD/svg11.dtd" >
<svg xmlns="http://www.w3.org/2000/svg" xmlns:xlink="http://www.w3.org/1999/xlink" version="1.1" viewBox="-10 0 1803 2048">
   <path fill="currentColor"
d="M1735 365q33 11 48 40l-103 184l8 8q-24 5 -24 64l24 16l8 -8h8l39 40q0 12 -31 24l-72 -8q-150 249 -150 289l8 24l-8 8l39 24l64 -40l24 24q0 66 -64 96h-8q-112 0 -142 -88h8l-8 -24q0 -43 103 -241l-8 -8q47 -42 47 -80q0 -12 -55 -40v-8l24 -24h7l56 8
q79 -143 103 -256zM1109 789l16 16v8l-8 56l8 8l-16 16l8 8l88 -32q118 31 118 112q-5 73 -15 73l7 8v8q-78 104 -103 104h-15q-103 0 -103 -72v-8l23 -16l80 32h15q48 -29 48 -96v-17q-12 -72 -63 -72q-134 52 -206 177l-64 136l24 32h103q47 5 47 24v16h-15v8l-56 -8
q-182 16 -182 56l8 8l-8 8v8l16 16l8 -8h8l39 8l8 -8h8l24 8l8 -8h8l8 8h8l71 -8q39 6 39 24v8l-23 24h-64l-39 8l-48 -8h-47l-8 -8q-87 14 -87 40l7 8q-17 7 -63 120l-32 24l-23 -24v-32l63 -96v-48l-79 -8h-72l-31 -8l-8 8l-167 -24q-111 0 -111 128q-18 88 -63 88h-8
l-16 -40q8 -45 56 -120l-8 -8v-8l8 -24h-8l-8 -8l-8 8l-119 -16l-32 8q-63 -13 -63 -32l48 -24q66 16 174 16q35 0 63 -32h8v-8q0 -32 -150 -32h-88l-23 -24l55 -24l87 16l56 -8l79 8q27 -33 87 -208q20 -19 72 -169h7l-7 -8v-8q50 -80 63 -80h16l24 24v48l87 -16
q134 33 134 72l-7 8v8l7 24q0 112 -126 209l-32 8q-79 -22 -79 -72v-8l23 -24h8q28 0 56 32h8q63 -29 63 -129l-31 -56l-88 -8q-76 0 -166 265q-32 42 -32 72l56 8l8 -8h8l87 16v-8l8 8h15l32 -8l8 8l40 -8h24l47 8l8 -8h8l63 16h24q159 -277 159 -313q35 -42 79 -168z
M357 1326v16l23 24h40l190 24l8 -8l143 16l47 -56v-24l-95 -16l-8 8h-8l-31 -8l-8 8h-8l-24 -8l-8 8l-40 -8h-71zM1537 1318h8q40 24 40 56l-32 24q-55 -11 -55 -32v-8z" />
</svg>
