<?xml version="1.0" standalone="no"?>
<!DOCTYPE svg PUBLIC "-//W3C//DTD SVG 1.1//EN" "http://www.w3.org/Graphics/SVG/1.1/DTD/svg11.dtd" >
<svg xmlns="http://www.w3.org/2000/svg" xmlns:xlink="http://www.w3.org/1999/xlink" version="1.1" viewBox="-10 0 1533 2048">
   <path fill="currentColor"
d="M964 245l13 16l67 -16h27l14 16l13 -16h13q69 32 107 142q-43 309 -80 349l13 16v47l-13 48h13l108 31q119 -10 227 -79l27 32l-13 16v15l13 64q-19 142 -54 142l-160 -63l-14 16l-67 -16h-40q-147 16 -147 158l13 16l-13 79v79q0 53 40 111l-13 16l80 32l80 -16l14 16
v15q0 65 -174 95q-134 0 -174 -300l-14 -16q33 0 54 -206l-14 -16v-16l14 -47h-14l-107 -16q-187 0 -187 111q-229 500 -429 538h-107l-80 -95l13 -16v-16l-13 -47l54 -48h53l94 64q129 0 308 -412v-16l-161 -31l-107 63h-40q-23 0 -40 -95l13 -48l-13 -15v-16
q35 -102 67 -111q95 95 147 95h53q241 0 241 -174q67 -106 148 -333zM736 815q26 57 81 79l13 -16l67 16h54q47 0 107 -222l-14 -15v-16q41 -61 41 -143v-63l-54 -63h-13q-67 0 -282 443z" />
</svg>
