<?xml version="1.0" standalone="no"?>
<!DOCTYPE svg PUBLIC "-//W3C//DTD SVG 1.1//EN" "http://www.w3.org/Graphics/SVG/1.1/DTD/svg11.dtd" >
<svg xmlns="http://www.w3.org/2000/svg" xmlns:xlink="http://www.w3.org/1999/xlink" version="1.1" viewBox="-10 0 1716 2048">
   <path fill="currentColor"
d="M973 230q413 88 413 367q-107 352 -320 352q-146 -83 -146 -162q8 -88 40 -88h53q0 113 53 132q82 0 160 -146v-74q0 -164 -186 -234l-40 -30h-27q-107 0 -133 176q-18 0 -40 103l13 15q-32 30 -80 190q166 191 293 235l14 15q-32 88 -54 88h-26q-202 -176 -267 -176h-13
l-27 58v30q137 176 253 176l27 44q-13 132 -53 132h-14q-140 -220 -240 -220h-53q0 44 -40 44v44q0 94 160 146l27 59l-54 88h-26l-94 -117l-66 -30l-200 176l-67 15q-213 -9 -213 -88q25 -132 107 -132q53 88 106 88q79 0 134 -117v-15q-26 -88 -134 -88l14 -73l-14 -15
q27 0 27 -44l13 -15h54q22 0 53 88h66q94 -61 94 -88v-29q-84 -125 -253 -191v-29q36 -97 80 -117h26q0 169 213 190v-14l14 -59q-38 -64 -227 -235v-58q0 -79 53 -103h14q26 0 26 44l14 15h13l-13 14v30q62 111 146 132q63 0 174 -411q64 -64 173 -88z" />
</svg>
