<?xml version="1.0" standalone="no"?>
<!DOCTYPE svg PUBLIC "-//W3C//DTD SVG 1.1//EN" "http://www.w3.org/Graphics/SVG/1.1/DTD/svg11.dtd" >
<svg xmlns="http://www.w3.org/2000/svg" xmlns:xlink="http://www.w3.org/1999/xlink" version="1.1" viewBox="-10 0 1191 1000">
   <path fill="currentColor"
d="M1130 659l-103 162q-17 -50 -48 -82q-25 -25 -76 -55q-20 -11 -61 -37l-69 -34v162l19 19l-47 46l-47 -46l21 -21q2 -174 0 -176q-67 -44 -201 -80q-79 -18 -157 -36l-25 -6v294l20 21l-46 47l-47 -47l20 -20v-299q-50 7 -92 18q-100 25 -140 63q0 -30 5 -35
q42 -40 102 -58q37 -8 125 -31v-246h3l-24 -24l46 -47l47 47l-19 19v242q64 0 87 1q124 6 220 42l76 22v-296h1l-22 -22l47 -47l47 47l-19 19v323q94 58 267 150q30 13 90 1z" />
</svg>
