<?xml version="1.0" standalone="no"?>
<!DOCTYPE svg PUBLIC "-//W3C//DTD SVG 1.1//EN" "http://www.w3.org/Graphics/SVG/1.1/DTD/svg11.dtd" >
<svg xmlns="http://www.w3.org/2000/svg" xmlns:xlink="http://www.w3.org/1999/xlink" version="1.1" viewBox="-10 0 1578 2048">
   <path fill="currentColor"
d="M278 237q195 62 195 202l-14 16l14 15v16l-28 62l14 47l-181 218v16l14 15v16l-14 15v16l56 202l-14 16v15q126 343 306 343h125q0 -27 153 -140q285 -360 320 -483v-31q-222 -169 -222 -311q0 -174 125 -234q212 0 278 125h14l-14 15l14 78l-14 202q76 63 153 63v62
q0 27 -70 47l-83 -16h-14q-116 0 -125 156l-292 389q-203 227 -292 233l-70 16q-199 0 -348 -358q-38 0 -55 -156l14 -46l-28 -32l14 -15v-16l-28 -124h14l-181 -280l14 -16v-16l-28 -77h14l-14 -16v-31q0 -218 278 -218zM125 533q35 140 125 140h28q57 -46 98 -171v-32
q-26 -108 -140 -108q-97 35 -97 171h-14zM1113 486l14 16v15l-14 62l167 94l28 -125l-14 -15v-16l14 -62q-36 -78 -112 -78q-83 0 -83 109z" />
</svg>
