<?xml version="1.0" standalone="no"?>
<!DOCTYPE svg PUBLIC "-//W3C//DTD SVG 1.1//EN" "http://www.w3.org/Graphics/SVG/1.1/DTD/svg11.dtd" >
<svg xmlns="http://www.w3.org/2000/svg" xmlns:xlink="http://www.w3.org/1999/xlink" version="1.1" viewBox="-10 0 1474 2048">
   <path fill="currentColor"
d="M1374 629q0 200 -132 465q-126 252 -283 395q-165 150 -316 150q-272 0 -272 -312q0 -134 85 -385q70 -207 70 -282q0 -202 -156 -202q-60 0 -102.5 39t-42.5 98q0 82 40 148l-114 61q-61 -97 -61 -216q0 -115 89 -186q83 -67 201 -67q291 0 291 325q0 86 -77.5 324.5
t-77.5 340.5q0 191 120 191q146 0 301 -185q114 -136 193 -315q99 -223 99 -378q0 -222 -146 -222q-54 0 -86.5 41.5t-32.5 96.5q0 35 26 80t62 69l-82 107q-141 -114 -141 -258q0 -258 258 -258q132 0 213 104q74 95 74 231z" />
</svg>
