<?xml version="1.0" standalone="no"?>
<!DOCTYPE svg PUBLIC "-//W3C//DTD SVG 1.1//EN" "http://www.w3.org/Graphics/SVG/1.1/DTD/svg11.dtd" >
<svg xmlns="http://www.w3.org/2000/svg" xmlns:xlink="http://www.w3.org/1999/xlink" version="1.1" viewBox="-10 0 1631 2048">
   <path fill="currentColor"
d="M1106 245q355 134 355 252q56 0 123 281l27 134l-14 15v14l14 75q-29 0 -55 133q-28 0 -204 296l-96 89q-181 104 -341 104q-199 -74 -273 -222l-14 -15l14 -15l-41 -222h13q-140 -445 -382 -445q-81 24 -150 148q20 149 68 149h27l41 -30h55l55 44q0 134 -96 134h-27
q-205 -97 -205 -237l14 -15v-15l-14 -59q27 0 27 -74q0 -88 219 -163l54 14l41 -14q196 129 301 281l-14 15v15l41 118h-14q47 196 96 252l-14 15v15q99 222 246 222q222 0 464 -429l55 -208l-41 -89l13 -44q-32 0 -40 -134q-137 -237 -369 -237q-191 0 -191 297
q90 103 150 103h27q82 -103 109 -103q82 35 82 88q-51 134 -122 134q-285 0 -328 -297l-14 -59q0 -201 328 -311z" />
</svg>
