<?xml version="1.0" standalone="no"?>
<!DOCTYPE svg PUBLIC "-//W3C//DTD SVG 1.1//EN" "http://www.w3.org/Graphics/SVG/1.1/DTD/svg11.dtd" >
<svg xmlns="http://www.w3.org/2000/svg" xmlns:xlink="http://www.w3.org/1999/xlink" version="1.1" viewBox="-10 0 689 1000">
   <path fill="currentColor"
d="M645 612v-5l1 -5q0 -23 -11.5 -38t-30.5 -15q-13 0 -40 15q24 2 34.5 9t10.5 31q-2 28 -23.5 52.5t-58.5 24.5q-36 0 -57 -28t-21 -67q0 -21 6.5 -39.5t18.5 -45.5q16 -35 24.5 -62t8.5 -61q0 -86 -39.5 -130.5t-123.5 -44.5q-74 0 -121 44.5t-47 132.5q0 29 7.5 48.5
t23.5 44.5q18 31 27.5 57t9.5 68q0 28 -19 51.5t-53 23.5q-41 0 -68.5 -22.5t-27.5 -47.5q0 -21 3.5 -35t15.5 -24q-7 1 -18 7.5t-21 15.5t-17 18.5t-7 14.5q3 44 34.5 75t74.5 31q27 0 54 -10.5t48.5 -29.5t34 -43.5t12.5 -51.5q0 -32 -7 -60t-20 -66q-12 -35 -17.5 -56
t-5.5 -43q0 -45 21.5 -77t54.5 -32q32 0 54.5 12t35.5 30.5t18.5 39t5.5 41.5q0 30 -3 54.5t-9 57.5q-6 31 -9 53t-3 49q0 59 38.5 95.5t91.5 36.5q38 0 71 -27t38 -67z" />
</svg>
