<?xml version="1.0" standalone="no"?>
<!DOCTYPE svg PUBLIC "-//W3C//DTD SVG 1.1//EN" "http://www.w3.org/Graphics/SVG/1.1/DTD/svg11.dtd" >
<svg xmlns="http://www.w3.org/2000/svg" xmlns:xlink="http://www.w3.org/1999/xlink" version="1.1" viewBox="-10 0 863 1000">
   <path fill="currentColor"
d="M816 22l-117 191v-48l-28 28q66 20 66 62q0 32 -54 32q-15 0 -49 -6q72 -12 72 -29q0 -10 -55 -37l-160 161q-9 9 -14.5 55t-27.5 68q-35 34 -118 34l-215 213q21 33 84 33q35 0 56 -58q-6 -8 -13 -8q-8 0 -19 11.5t-19 12.5l-6 -6q0 -22 17 -41t39 -19q37 0 37 48
q0 38 -31 62.5t-70 24.5q-57 0 -102 -49t-45 -106q0 -65 52 -116t118 -51q6 0 85 15q25 -34 71 -78q39 -36 78 -73q56 -187 128 -187q9 0 24.5 5t23.5 6q14 -13 39 -40h-42zM597 199l-16 -6q-25 5 -53 44q-21 30 -34 65zM454 413v-2l-95 97h6q16 1 52.5 -38t36.5 -57z
M276 523q-18 -9 -24 -9q-59 0 -116 54.5t-57 113.5q0 12 16 21z" />
</svg>
