<?xml version="1.0" standalone="no"?>
<!DOCTYPE svg PUBLIC "-//W3C//DTD SVG 1.1//EN" "http://www.w3.org/Graphics/SVG/1.1/DTD/svg11.dtd" >
<svg xmlns="http://www.w3.org/2000/svg" xmlns:xlink="http://www.w3.org/1999/xlink" version="1.1" viewBox="-10 0 1623 2048">
   <path fill="currentColor"
d="M1227 290l151 28l200 -28l25 28q-38 139 -38 236l13 83q-16 84 -38 84h-12q-63 -56 -63 -153l-12 -14h-25q-40 0 -288 208q-47 0 -188 126q-176 58 -176 139h-12l12 13l-25 181q0 375 113 375h13v42h-63l-88 -28l-150 28l-12 -14v-14q0 -28 37 -28l13 -41l-13 -14
l25 -153l-12 -14v-14l12 -55l-12 -14v-14l25 -56l-25 -28l25 -55l-13 -14l13 -70v-69q-72 -83 -276 -195q-221 -208 -300 -208l-25 28l-38 -42q163 -222 225 -222h25l51 69h-13q29 87 238 361l75 42l63 -42l-25 -180h25v-70q0 -113 -88 -139l-12 -14v-13l50 -28l50 14
l12 -14q0 28 100 28v13l138 -27l25 41v14q0 23 -75 56l-12 14q-30 0 -50 83l12 42l-25 28v166q0 32 63 42q386 -212 501 -347v-14q-36 -57 -151 -98l-12 -13v-14z" />
</svg>
