<?xml version="1.0" standalone="no"?>
<!DOCTYPE svg PUBLIC "-//W3C//DTD SVG 1.1//EN" "http://www.w3.org/Graphics/SVG/1.1/DTD/svg11.dtd" >
<svg xmlns="http://www.w3.org/2000/svg" xmlns:xlink="http://www.w3.org/1999/xlink" version="1.1" viewBox="-10 0 1091 2048">
   <path fill="currentColor"
d="M991 1606h-93q0 -61 -25 -108q-31 -57 -87 -57q-59 0 -96 55q-30 46 -36 110h-227q-5 -64 -36 -110q-36 -55 -95 -55q-57 0 -88 57q-24 45 -24 108h-94q0 -142 95 -224q43 -37 107 -37q120 0 167 115v-609h-265v-96h693v96h-265v609q47 -115 167 -115q122 0 177 138
q25 63 25 123z" />
</svg>
