<?xml version="1.0" standalone="no"?>
<!DOCTYPE svg PUBLIC "-//W3C//DTD SVG 1.1//EN" "http://www.w3.org/Graphics/SVG/1.1/DTD/svg11.dtd" >
<svg xmlns="http://www.w3.org/2000/svg" xmlns:xlink="http://www.w3.org/1999/xlink" version="1.1" viewBox="-10 0 1489 2048">
   <path fill="currentColor"
d="M35 237l94 87h24v-11l82 11h130l117 -11l59 11l141 -11l59 11l23 -22l12 11l59 -11h59q0 77 -494 587q0 61 -165 195l-35 54v11q0 30 118 44l35 -11q188 58 317 152l12 11h12l200 -120l106 -21h35q34 9 141 119l-12 54l12 33q-123 152 -200 152q-84 0 -317 -98h-47
q-71 55 -377 174h-23q-106 0 -118 -109q16 -54 82 -54h12l82 76q71 -11 271 -119v-33q0 -56 -459 -119l-23 -44l23 -43l-11 -11q31 0 188 -217l-12 -11q67 -34 400 -456v-22q-12 -44 -71 -44l-117 11l-94 -11q-256 25 -306 55h-12q-29 0 -35 -44l12 -65l-24 -98
q18 -43 35 -43zM776 1388v11q0 39 165 54q141 -49 141 -130q0 -54 -106 -54q-171 72 -200 119z" />
</svg>
