<?xml version="1.0" standalone="no"?>
<!DOCTYPE svg PUBLIC "-//W3C//DTD SVG 1.1//EN" "http://www.w3.org/Graphics/SVG/1.1/DTD/svg11.dtd" >
<svg xmlns="http://www.w3.org/2000/svg" xmlns:xlink="http://www.w3.org/1999/xlink" version="1.1" viewBox="-10 0 1653 2048">
   <path fill="currentColor"
d="M452 237l176 26q89 0 138 -26l13 13h12l63 -13l38 13l12 -13h13l13 13h12l38 -13l364 26l264 -26l25 52q-17 53 -63 78l-276 -26l-13 13h-12l-13 -13l-151 26l-75 -13h-25l-75 13l-101 -26l-75 13h-13l-50 -13l-63 26l-12 -13h-13q-88 0 -88 155l13 39l-13 13h-13l13 13
v13l-13 91l38 26h101l75 13l13 -13h12l38 13l38 -13q213 0 213 117l-25 26v52l-13 129h13l-25 39l25 117l-25 26v78l12 52l-12 52v51l12 52q-35 130 -88 130l-464 13l-51 -13l-12 13h-13l-12 -13h-13l-88 13l-201 -13l-37 -52v-117l-13 -52l13 -12l-13 -104l25 -169l-12 -13
l25 -143l-13 -13v-13l13 -77l-13 -91l13 -52l-13 -13l38 -39l213 26h113l13 -13h13l-13 -220v-26l13 -117l-13 -13v-13q13 -52 50 -52zM138 873l-12 350v65l-13 78l13 13v13l-13 77l38 39l251 -39q91 39 226 52l13 -13h12l13 13q213 -17 213 -52l-12 -103l12 -104h-12
l12 -13v-91l-12 -52l25 -52l-13 -52l13 -13v-13l-13 -13v-13l25 -51q-12 -91 -100 -91h-38l-63 13l-75 -13h-25q-101 0 -101 91l-12 259l-38 26h-12q-31 0 -51 -156l26 -116l-13 -13v-13l13 -39q-57 -52 -139 -52q-95 35 -138 78z" />
</svg>
