<?xml version="1.0" standalone="no"?>
<!DOCTYPE svg PUBLIC "-//W3C//DTD SVG 1.1//EN" "http://www.w3.org/Graphics/SVG/1.1/DTD/svg11.dtd" >
<svg xmlns="http://www.w3.org/2000/svg" xmlns:xlink="http://www.w3.org/1999/xlink" version="1.1" viewBox="-10 0 1616 2048">
   <path fill="currentColor"
d="M292 866h116q249 106 530 275q288 166 374 175q150 0 194 -150v-38l-78 -112l52 -50h51q65 32 65 112l-26 50l13 13v25l-52 75l13 12v13q-124 162 -258 162q-119 -18 -529 -287q-258 -175 -388 -225h-90q-98 37 -168 150q0 200 168 200l13 12v13l-26 25q-258 0 -258 -200
q116 -250 284 -250z" />
</svg>
