<?xml version="1.0" standalone="no"?>
<!DOCTYPE svg PUBLIC "-//W3C//DTD SVG 1.1//EN" "http://www.w3.org/Graphics/SVG/1.1/DTD/svg11.dtd" >
<svg xmlns="http://www.w3.org/2000/svg" xmlns:xlink="http://www.w3.org/1999/xlink" version="1.1" viewBox="-10 0 1436 2048">
   <path fill="currentColor"
d="M659 237q88 0 336 109q105 -78 155 -78h28q115 0 238 218q-38 280 -238 280l-14 16q0 -26 -169 -109q-65 -280 -112 -280l-112 -31l-14 15v16l-42 -16q-58 22 -84 78v15q0 184 196 483l-14 47l56 187q-60 342 -224 342q-33 39 -224 109l-14 -16l-71 16h-70
q-158 -72 -182 -109q-31 -4 -84 -140q0 -119 84 -202h70q112 0 168 124l-14 16l14 15v94h28v15l-14 16v15l99 31q29 -31 154 -31l14 -15v-16l14 16h14q24 -4 84 -140v-31l-14 -16l14 -47l-14 -62l14 -62l-70 -172q-28 0 -98 -217l-56 -63l14 -15v-16l-42 -109
q0 -159 196 -280zM1051 486v62q0 78 155 125h28q98 -82 98 -140q-38 -129 -112 -156h-98q-71 31 -71 109zM84 1389v15q0 29 98 94h14l42 -47l-14 -78l14 -15l-56 -47h-42z" />
</svg>
