<?xml version="1.0" standalone="no"?>
<!DOCTYPE svg PUBLIC "-//W3C//DTD SVG 1.1//EN" "http://www.w3.org/Graphics/SVG/1.1/DTD/svg11.dtd" >
<svg xmlns="http://www.w3.org/2000/svg" xmlns:xlink="http://www.w3.org/1999/xlink" version="1.1" viewBox="-10 0 881 1000">
   <path fill="currentColor"
d="M818 656q0 61 -39.5 105t-95.5 44q-55 0 -94.5 -44t-39.5 -105q0 -37 16 -67q8 -18 38 -56q59 -79 59 -163q0 -102 -65.5 -181.5t-155.5 -79.5t-155 79.5t-65 181.5q0 33 21 94q24 68 48 84q32 66 32 100q0 61 -39.5 105t-94.5 44q-56 0 -95.5 -44t-39.5 -105
q0 -63 41.5 -105.5t108.5 -44.5q-26 -72 -26 -128q0 -122 78.5 -215.5t185.5 -93.5q108 0 186 93.5t78 215.5q0 60 -30 136q66 5 104.5 46.5t38.5 103.5zM775 656q0 -42 -27 -71.5t-65 -29.5q-37 0 -64 29.5t-27 71.5q0 41 27 70.5t64 29.5q38 0 65 -29.5t27 -70.5zM279 648
q0 -42 -27 -71.5t-64 -29.5q-38 0 -65 29.5t-27 71.5q0 41 27 70.5t65 29.5q37 0 64 -29.5t27 -70.5z" />
</svg>
