<?xml version="1.0" standalone="no"?>
<!DOCTYPE svg PUBLIC "-//W3C//DTD SVG 1.1//EN" "http://www.w3.org/Graphics/SVG/1.1/DTD/svg11.dtd" >
<svg xmlns="http://www.w3.org/2000/svg" xmlns:xlink="http://www.w3.org/1999/xlink" version="1.1" viewBox="-10 0 689 1000">
   <path fill="currentColor"
d="M645 297q-5 -40 -38 -67t-71 -27q-53 0 -91.5 36.5t-38.5 95.5q0 27 3 50.5t9 51.5q6 36 9 59t3 53q0 21 -5.5 41.5t-18.5 39t-35.5 30.5t-54.5 12q-33 0 -54.5 -32t-21.5 -77q0 -22 5.5 -44t17.5 -55q13 -39 20 -66.5t7 -59.5q0 -27 -12.5 -52t-34 -43.5t-48.5 -29
t-54 -10.5q-43 0 -74.5 31t-34.5 75q0 5 7 14t17.5 18.5t21 16t17.5 7.5q-12 -10 -15.5 -24t-3.5 -35q0 -25 27.5 -47.5t68.5 -22.5q34 0 53 23.5t19 51.5q0 42 -9.5 68t-27.5 56q-16 26 -23.5 45.5t-7.5 48.5q0 88 44.5 132.5t121.5 44.5t121 -47t44 -128q0 -34 -8.5 -61
t-24.5 -62q-13 -28 -19 -46t-6 -39q0 -39 21 -67t57 -28q37 0 58.5 24.5t23.5 52.5q0 24 -10.5 31t-34.5 9q27 15 40 15q19 0 30.5 -15t11.5 -38l-1 -5v-5z" />
</svg>
