<?xml version="1.0" standalone="no"?>
<!DOCTYPE svg PUBLIC "-//W3C//DTD SVG 1.1//EN" "http://www.w3.org/Graphics/SVG/1.1/DTD/svg11.dtd" >
<svg xmlns="http://www.w3.org/2000/svg" xmlns:xlink="http://www.w3.org/1999/xlink" version="1.1" viewBox="-10 0 745 1000">
   <path fill="currentColor"
d="M701 794q-1 -92 -36.5 -220.5t-97.5 -251.5q-42 -82 -109 -129.5t-155 -47.5q-56 0 -105.5 21t-87 58.5t-58.5 87.5t-21 105t21 104.5t58.5 87.5t87 59t105.5 21q50 0 98 -19t86.5 -54t61.5 -83t25 -105q50 120 82 209t45 157zM526 417q0 42 -17.5 82.5t-48.5 72.5
t-71.5 50t-85.5 18q-46 0 -86.5 -17t-71.5 -48t-48.5 -71.5t-17.5 -86.5t17.5 -86.5t48 -71.5t71.5 -48t87 -17q45 0 86 17t71.5 48t48 71.5t17.5 86.5z" />
</svg>
