<?xml version="1.0" standalone="no"?>
<!DOCTYPE svg PUBLIC "-//W3C//DTD SVG 1.1//EN" "http://www.w3.org/Graphics/SVG/1.1/DTD/svg11.dtd" >
<svg xmlns="http://www.w3.org/2000/svg" xmlns:xlink="http://www.w3.org/1999/xlink" version="1.1" viewBox="-10 0 1074 1000">
   <path fill="currentColor"
d="M1013 502q0 47 -31.5 73.5t-79.5 26.5q-47 0 -77 -30q-21 -22 -42 -74h-396q0 74 -43.5 139.5t-110.5 103.5q-24 14 -92 27q-61 12 -90 34v-134q3 2 31 27q19 17 35 17q62 0 125 -37t91 -92q8 -15 17 -30q11 -20 11 -33v-22h-118l-48 35v-117l49 39h120q-1 -55 -32 -114
t-95 -79q-42 -13 -127 -13q-28 0 -59 38v-140q9 20 97 41q99 24 134 52q22 15 61 53q35 46 44 162h428q3 47 24 79q26 37 71 37q31 0 52.5 -25t21.5 -56q0 -26 -12 -38q-9 -9 -35 -18l-15 9q35 14 35 30t-13 28t-31 15q-38 -12 -38 -48q0 -24 16 -39.5t40 -15.5
q36 0 59 26.5t23 62.5z" />
</svg>
