<?xml version="1.0" standalone="no"?>
<!DOCTYPE svg PUBLIC "-//W3C//DTD SVG 1.1//EN" "http://www.w3.org/Graphics/SVG/1.1/DTD/svg11.dtd" >
<svg xmlns="http://www.w3.org/2000/svg" xmlns:xlink="http://www.w3.org/1999/xlink" version="1.1" viewBox="-10 0 1172 1000">
   <path fill="currentColor"
d="M1112 529q0 53 -36 92t-88 39q-45 0 -74.5 -26t-29.5 -71q0 -32 24 -58t55 -26q17 0 31.5 15t14.5 32q0 43 -36 43q-12 0 -17.5 -15t-3.5 -28q-2 -1 -5 -1q-20 0 -22 4q-5 9 -10 17l-1 14q-2 32 19.5 53.5t54.5 21.5q32 0 57.5 -28.5t25.5 -60.5q0 -107 -80 -107h-439
l-255 361l-247 -375l247 -380l254 356h425q57 0 96.5 36t39.5 92zM501 425l-204 -295l-191 295l191 303z" />
</svg>
