<?xml version="1.0" standalone="no"?>
<!DOCTYPE svg PUBLIC "-//W3C//DTD SVG 1.1//EN" "http://www.w3.org/Graphics/SVG/1.1/DTD/svg11.dtd" >
<svg xmlns="http://www.w3.org/2000/svg" xmlns:xlink="http://www.w3.org/1999/xlink" version="1.1" viewBox="-10 0 1060 1000">
   <path fill="currentColor"
d="M984 712q-2 44 -38 75.5t-76 31.5q-88 0 -183 -114q-53 -63 -95 -142l-39 28l-3 53l-74 -3l1 -81l49 4l51 -39l-179 -359l-191 579q28 25 37 50q-5 5 -83 40l-95 -40l75 -51l246 -706l225 456l34 -24l-1 -47l77 -4l-1 81l-45 3l-45 33q42 73 88 131q83 106 141 106
q42 0 65 -29q20 -25 20 -62q0 -36 -15 -60q-19 -28 -53 -26q-22 1 -42.5 16t-20.5 35v17q2 5 8 12q2 -15 7 -30q20 -13 30 -13q38 0 38 48q0 50 -43 50q-4 0 -11.5 1.5t-11.5 1.5q-15 0 -42.5 -29.5t-27.5 -45.5q0 -42 34 -75q32 -30 69 -31q82 -1 108 58q15 33 12 101z" />
</svg>
