<?xml version="1.0" standalone="no"?>
<!DOCTYPE svg PUBLIC "-//W3C//DTD SVG 1.1//EN" "http://www.w3.org/Graphics/SVG/1.1/DTD/svg11.dtd" >
<svg xmlns="http://www.w3.org/2000/svg" xmlns:xlink="http://www.w3.org/1999/xlink" version="1.1" viewBox="-10 0 794 1000">
   <path fill="currentColor"
d="M551 597q0 22 -12 29l-63 39l-122 -205q23 -10 46 -25t44.5 -36.5t35 -51t13.5 -64.5q0 -50 -18.5 -87.5t-51.5 -62t-76.5 -36t-92.5 -11.5h-225q18 3 32.5 12.5t14.5 25.5v629q0 13 -6.5 22.5t-14 14.5t-13.5 7l-9 3h152q-9 -2 -23 -12.5t-14 -34.5v-271h106
q21 0 38 -1.5t28 -4.5l121 210l-56 35q-5 4 -13 4q-11 0 -21 -7l36 63q0 -21 14 -31l57 -36l77 125q20 31 50 49t72 18q42 -1 73 -30t32 -79q0 -42 -23.5 -64.5t-54.5 -22.5q-33 0 -55.5 19t-22.5 46q0 26 10.5 40.5t27.5 14.5q15 0 25 -8.5t10 -22.5q0 -12 -8.5 -21.5
t-17.5 -9.5q-10 0 -22 7q0 -16 15.5 -26t37.5 -10q20 0 34.5 15.5t14.5 42.5q0 37 -24 55t-51 18q-36 0 -56 -13.5t-33 -36.5l-76 -127l63 -39q5 -3 10 -3q10 0 21 8zM415 285q0 65 -45.5 113t-125.5 48h-96v-322h96q78 0 124.5 47t46.5 114z" />
</svg>
