<?xml version="1.0" standalone="no"?>
<!DOCTYPE svg PUBLIC "-//W3C//DTD SVG 1.1//EN" "http://www.w3.org/Graphics/SVG/1.1/DTD/svg11.dtd" >
<svg xmlns="http://www.w3.org/2000/svg" xmlns:xlink="http://www.w3.org/1999/xlink" version="1.1" viewBox="-10 0 823 1000">
   <path fill="currentColor"
d="M790 818q1 32 -23 58.5t-54 26.5q-96 2 -179 -184l-33 27v27h-66v-66h49l36 -22l-135 -216h-242v303l22 22l-47 47l-47 -47l24 -19v-571l-66 -63h339q63 0 113.5 40.5t50.5 94.5v59q0 30 -13 62q-16 40 -44 47q-4 2 -39 11l114 213q13 -1 42 -25v-36h66v66h-40
q-48 27 -48 24q12 52 55 107q48 61 93 62q17 0 28 -12.5t11 -29.5q0 -61 -47 -64q-13 -1 -29.5 9.5t-16.5 23.5q0 3 8.5 14.5t10.5 11.5l-6 -25l6 -16q2 -3 15 -3q29 0 29 27q0 29 -26 34q-21 4 -37.5 -11.5t-16.5 -32.5q0 -25 20 -40t46 -15q33 0 57 30q20 26 20 51z
M474 340q0 -111 -28 -137q-24 -22 -136 -24h-168v259h167q79 0 110 -12q55 -21 55 -86z" />
</svg>
