<?xml version="1.0" standalone="no"?>
<!DOCTYPE svg PUBLIC "-//W3C//DTD SVG 1.1//EN" "http://www.w3.org/Graphics/SVG/1.1/DTD/svg11.dtd" >
<svg xmlns="http://www.w3.org/2000/svg" xmlns:xlink="http://www.w3.org/1999/xlink" version="1.1" viewBox="-10 0 1027 1000">
   <path fill="currentColor"
d="M960 307q0 122 -95 148q115 52 115 160q0 84 -63.5 134.5t-162.5 50.5h-338l-369 -679l734 -1q179 21 179 187zM892 304q0 -80 -31 -107q-26 -22 -106 -26l-99 181l-42 89q28 0 67 -1q29 -1 73 0q53 2 74 2q45 -10 57 -48q7 -22 7 -90zM912 607q0 -89 -47 -117
q-38 -22 -148 -22h-58q-43 1 -66 1l-165 303h323q161 0 161 -165zM708 170h-587l293 537z" />
</svg>
