<?xml version="1.0" standalone="no"?>
<!DOCTYPE svg PUBLIC "-//W3C//DTD SVG 1.1//EN" "http://www.w3.org/Graphics/SVG/1.1/DTD/svg11.dtd" >
<svg xmlns="http://www.w3.org/2000/svg" xmlns:xlink="http://www.w3.org/1999/xlink" version="1.1" viewBox="-10 0 1428 2048">
   <path fill="currentColor"
d="M38 754l170 9l104 -9l9 9v36q0 15 -66 36l-19 36l10 54l-10 9v9l10 9v9l-10 37l10 9v9l-19 27l9 9v9l-9 36l9 27l-9 9v9l9 27l-9 36l9 27h-9l9 9v18l-9 9l9 9v45l-9 9l9 9l-9 91v18l19 27l-19 18q0 46 47 72l161 -18l37 9q95 0 95 -27t19 -27l-10 -9v-9q29 -42 85 -235
q67 -108 133 -298q22 -18 56 -117l10 -9h9q73 123 161 226l236 360q142 129 142 181l-19 18l-85 -9q-84 0 -151 27l-10 -9l-113 18l-28 -9l-10 9h-9l-10 -9h-9l-47 9l-10 -9l-47 9l-113 -18l-48 9l-104 -9l-37 9l-76 -9l-19 18l-66 -9h-217l-38 -9l-10 9h-9q-57 -9 -57 -27
l10 -9h9l-9 -9v-18l9 -36l-9 -9v-9l9 -36l-9 -9v-9l9 -36l-9 -10v-9l9 -9v-9l-9 -9l9 -90v-81l-9 -108l18 -18v-36l-9 -36l9 -9v-9l-9 -46l9 -9v-9l-9 -36l9 -9v-9q0 -54 -85 -54l-9 -9v-9q18 -41 38 -45zM813 1097v9l9 9v9q-35 27 -123 243l-66 154v18l19 18h161l37 -9
l10 9l57 -9l141 9q133 -7 133 -27l-10 -27l10 -9q-171 -201 -199 -289q-50 -26 -113 -144l-10 -9h-19z" />
</svg>
