<?xml version="1.0" standalone="no"?>
<!DOCTYPE svg PUBLIC "-//W3C//DTD SVG 1.1//EN" "http://www.w3.org/Graphics/SVG/1.1/DTD/svg11.dtd" >
<svg xmlns="http://www.w3.org/2000/svg" xmlns:xlink="http://www.w3.org/1999/xlink" version="1.1" viewBox="-10 0 425 1000">
   <path fill="currentColor"
d="M32 536q0 41 16 78.5t44.5 66.5t66.5 45.5t81 16.5q47 0 85.5 -22t54.5 -46q6 -10 6 -17q-37 34 -70 50t-76 16q-32 0 -60 -16.5t-49 -44.5t-32.5 -60.5t-11.5 -64.5q0 -80 43 -135t109 -55q51 1 90.5 17t59.5 39q0 -5 -7 -15l-1 -1q-17 -21 -54 -40t-87 -19
q-42 0 -80 16t-67 44.5t-45 66.5t-16 80z" />
</svg>
