<?xml version="1.0" standalone="no"?>
<!DOCTYPE svg PUBLIC "-//W3C//DTD SVG 1.1//EN" "http://www.w3.org/Graphics/SVG/1.1/DTD/svg11.dtd" >
<svg xmlns="http://www.w3.org/2000/svg" xmlns:xlink="http://www.w3.org/1999/xlink" version="1.1" viewBox="-10 0 656 1000">
   <path fill="currentColor"
d="M628 771q-30 -10 -48.5 -31t-18.5 -52v-388q0 -27 -11.5 -46.5t-30 -30t-39 -15t-39.5 -4.5q-52 0 -88 18.5t-45 47.5q-14 -31 -48 -48.5t-82 -17.5q-19 0 -44 5t-48.5 17t-39 32t-15.5 48v433h69v-443q0 -27 21.5 -43t53.5 -16q31 0 60 18t29 47v437h66v-440
q0 -28 25.5 -44.5t56.5 -16.5q32 0 55.5 17.5t23.5 44.5v387q0 45 34.5 64.5t102.5 19.5z" />
</svg>
