<?xml version="1.0" standalone="no"?>
<!DOCTYPE svg PUBLIC "-//W3C//DTD SVG 1.1//EN" "http://www.w3.org/Graphics/SVG/1.1/DTD/svg11.dtd" >
<svg xmlns="http://www.w3.org/2000/svg" xmlns:xlink="http://www.w3.org/1999/xlink" version="1.1" viewBox="-10 0 678 1000">
   <path fill="currentColor"
d="M622 593v-78q-1 3 -5 8t-10 5h-104v-158h103q6 0 10 5.5t5 9.5v-77q-1 3 -5 8t-10 5h-103v-70q0 -12 7 -17.5t12 -6.5h-105q5 1 12.5 6.5t7.5 17.5v70h-200v-70q0 -12 7.5 -17.5t12.5 -6.5h-103q4 1 10.5 6.5t6.5 17.5v70h-103q-6 0 -9.5 -5t-5.5 -8v77q2 -4 5.5 -9.5
t9.5 -5.5h103v158h-104q-6 0 -10 -5t-5 -8v78q1 -4 5 -9.5t10 -5.5h104v64q0 12 -6.5 17.5t-10.5 7.5h99q-4 -2 -10 -8t-6 -17v-64h200v64q0 11 -7.5 17t-12.5 8h105q-5 -2 -12 -8t-7 -17v-64h104q6 0 10 5.5t5 9.5zM437 528h-200v-158h200v158z" />
</svg>
