<?xml version="1.0" standalone="no"?>
<!DOCTYPE svg PUBLIC "-//W3C//DTD SVG 1.1//EN" "http://www.w3.org/Graphics/SVG/1.1/DTD/svg11.dtd" >
<svg xmlns="http://www.w3.org/2000/svg" xmlns:xlink="http://www.w3.org/1999/xlink" version="1.1" viewBox="-10 0 523 1000">
   <path fill="currentColor"
d="M442 351q7 -10 16.5 -16t14.5 -8h-73q5 1 13 3.5t8 7.5v1q-1 1 -1 2l-155 165l-132 -164q-2 -3 -2 -6q0 -5 7.5 -7t12.5 -2h-107q7 2 19.5 8.5t19.5 18.5l146 187l-161 176q-10 10 -21 17t-16 10h78q-4 -2 -11 -6t-7 -10l153 -169l136 172q0 6 -6.5 9t-10.5 4h106
q-5 -3 -16.5 -10t-20.5 -19l-153 -191q23 -27 51 -57t49.5 -52t39 -40t23.5 -24z" />
</svg>
