<?xml version="1.0" standalone="no"?>
<!DOCTYPE svg PUBLIC "-//W3C//DTD SVG 1.1//EN" "http://www.w3.org/Graphics/SVG/1.1/DTD/svg11.dtd" >
<svg xmlns="http://www.w3.org/2000/svg" xmlns:xlink="http://www.w3.org/1999/xlink" version="1.1" viewBox="-10 0 534 1000">
   <path fill="currentColor"
d="M500 747q-7 -3 -17.5 -12.5t-11.5 -25.5v-317q0 -22 -9 -37t-23 -24t-30 -12.5t-31 -3.5q-42 0 -70.5 15t-37.5 38q-11 -25 -38 -39t-66 -14q-16 0 -35 4t-37.5 13.5t-31 26t-12.5 39.5v311q0 19 -10 28t-17 11h106q-7 -3 -17.5 -12.5t-10.5 -26.5v-320q0 -21 18.5 -34.5
t44.5 -13.5q25 0 49.5 15t24.5 38v315q-1 18 -10.5 27t-16.5 11h105q-7 -3 -17.5 -12t-11.5 -25v-318q0 -22 21.5 -36t46.5 -14t45.5 14.5t20.5 35.5v317q-1 18 -10.5 27t-16.5 11h106z" />
</svg>
