<?xml version="1.0" standalone="no"?>
<!DOCTYPE svg PUBLIC "-//W3C//DTD SVG 1.1//EN" "http://www.w3.org/Graphics/SVG/1.1/DTD/svg11.dtd" >
<svg xmlns="http://www.w3.org/2000/svg" xmlns:xlink="http://www.w3.org/1999/xlink" version="1.1" viewBox="-10 0 870 1000">
   <path fill="currentColor"
d="M829 271q-11 45 -27.5 80t-34.5 35q-19 0 -35 -27q-33 -57 -67 -119t-54 -98q-15 -28 -34 -39.5t-46 -11.5q-22 0 -42 13t-31 38q-22 52 -50 114t-47 102q-12 33 -22 33t-29 -33q-20 -36 -40 -78.5t-44 -94.5l-4 -9q-21 -44 -42 -64.5t-42 -20.5q-35 0 -60.5 49.5
t-30.5 122.5q16 -41 31 -65t30 -24q8 0 17.5 6t15.5 19q8 17 29 63q29 65 45.5 100.5t32.5 66.5q23 43 63 43q19 0 36 -12.5t28 -36.5q10 -21 23.5 -50t27 -59t26.5 -59.5t24 -55.5q11 -28 30 -28q21 0 36 28q11 22 29 54.5t47 82.5q28 51 42 76q16 28 37 43.5t43 15.5
q36 0 61 -48.5t28 -151.5zM813 592l-2 6q-17 56 -30.5 87.5t-28.5 31.5q-8 0 -17.5 -7t-18.5 -24q-26 -44 -62 -107t-60 -109q-15 -29 -36.5 -43.5t-45.5 -14.5q-22 0 -41 15.5t-31 42.5q-11 28 -22.5 54t-35.5 79q-26 56 -37 83q-14 33 -23 33q-10 0 -30 -33
q-14 -26 -28.5 -56.5t-39.5 -84.5q-14 -29 -19 -40q-20 -44 -42.5 -65.5t-43.5 -21.5q-35 0 -60.5 48t-30.5 119q15 -38 30.5 -61t30.5 -23q19 0 32 27q8 17 38 81q24 49 40.5 84t31.5 64q11 21 28 32.5t35 11.5q20 0 37 -13t28 -38q12 -25 24.5 -52.5t23.5 -52.5
t26.5 -60.5t24.5 -56.5q12 -29 30 -29q22 0 36 29q12 22 28.5 51.5t53.5 93.5q37 66 38 67q16 28 38 44.5t44 16.5q36 0 60.5 -51t26.5 -158z" />
</svg>
