<?xml version="1.0" standalone="no"?>
<!DOCTYPE svg PUBLIC "-//W3C//DTD SVG 1.1//EN" "http://www.w3.org/Graphics/SVG/1.1/DTD/svg11.dtd" >
<svg xmlns="http://www.w3.org/2000/svg" xmlns:xlink="http://www.w3.org/1999/xlink" version="1.1" viewBox="-10 0 890 1000">
   <path fill="currentColor"
d="M852 251q0 -35 -13.5 -66t-36.5 -54t-53 -35.5t-62 -12.5q-96 0 -164 63q-31 28 -52 67t-29 83q-7 -44 -26.5 -83t-50.5 -68.5t-71 -45.5t-86 -16q-34 0 -66.5 11.5t-58 33.5t-41 53.5t-15.5 69.5q1 70 38 120.5t88 61.5l52 -72q-24 -2 -49 -11.5t-45.5 -24.5t-33 -34
t-12.5 -40q0 -53 43 -81.5t100 -28.5q37 0 70 19.5t58 52t38.5 71.5t13.5 77v439h110v-439q0 -37 14 -76t39.5 -72t60.5 -52.5t74 -19.5q50 0 89.5 31t39.5 79q0 38 -42.5 68.5t-95.5 35.5l60 78q50 -11 82.5 -61t32.5 -121z" />
</svg>
