<?xml version="1.0" standalone="no"?>
<!DOCTYPE svg PUBLIC "-//W3C//DTD SVG 1.1//EN" "http://www.w3.org/Graphics/SVG/1.1/DTD/svg11.dtd" >
<svg xmlns="http://www.w3.org/2000/svg" xmlns:xlink="http://www.w3.org/1999/xlink" version="1.1" viewBox="-10 0 898 1000">
   <path fill="currentColor"
d="M858 326q0 -75 -33.5 -123.5t-89 -74.5t-121.5 -35.5t-142 -9.5q-57 0 -118.5 14.5t-118 43t-100 70.5t-65.5 94q37 -34 87 -59t105.5 -40.5t109.5 -22.5t103 -7q63 0 114 9.5t89.5 30.5t59.5 54t21 79q0 38 -27.5 66.5t-61.5 33.5q-12 2 -24 2q-53 0 -86.5 -30
t-33.5 -87q0 -41 20 -66t59 -44q-56 0 -94.5 42.5t-38.5 107.5q0 54 45.5 94t129.5 40q38 0 75.5 -12t68.5 -35.5t49 -57.5t18 -77zM819 584q-37 34 -87 58.5t-105.5 40.5t-109.5 23t-103 7q-63 0 -114.5 -9.5t-90 -30t-59.5 -53.5t-21 -79q0 -38 28 -67t61 -34q4 0 12 -1
t12 -1q52 0 86.5 30.5t34.5 86.5q0 41 -20 66.5t-59 44.5q56 0 94 -42.5t38 -107.5q0 -54 -45 -94t-129 -40q-38 0 -76 12t-68.5 36t-49 58t-18.5 75q0 75 33.5 124t88.5 75t121 35.5t141 9.5q57 0 119 -15t119 -43.5t101 -70.5t66 -94z" />
</svg>
