<?xml version="1.0" standalone="no"?>
<!DOCTYPE svg PUBLIC "-//W3C//DTD SVG 1.1//EN" "http://www.w3.org/Graphics/SVG/1.1/DTD/svg11.dtd" >
<svg xmlns="http://www.w3.org/2000/svg" xmlns:xlink="http://www.w3.org/1999/xlink" version="1.1" viewBox="-10 0 788 1000">
   <path fill="currentColor"
d="M755 83q-40 16 -85.5 32.5t-95.5 31t-97.5 24t-83.5 9.5q-51 0 -108.5 -25t-110.5 -72q-27 62 -62 96t-88 51q54 0 94.5 -14.5t65.5 -47.5q35 34 88 53.5t105 19.5q20 0 44.5 -5.5t39.5 -11.5q-40 22 -81.5 50t-80 60.5t-66.5 66t-40 64.5q-23 11 -48 31t-47 47t-36.5 59
t-17.5 66q7 -24 23 -47t35.5 -43t39.5 -34.5t37 -24.5q-11 31 -11 70q0 108 63 164t191 56q50 0 95.5 -14t81 -40.5t55.5 -64t20 -81.5q0 -95 -64 -151t-163 -56q-21 0 -61.5 7t-64.5 16q34 -42 84 -86.5t107 -88t114 -82.5t129 -85zM583 606q0 83 -46 129t-115 46
q-40 0 -71 -17.5t-51.5 -46.5t-31 -62.5t-10.5 -65.5t7.5 -56t22.5 -52q2 -5 5 -11q3 -1 7 -2q33 -11 65 -18.5t66 -7.5q31 0 58.5 13.5t49 37t33 53t11.5 60.5z" />
</svg>
