<?xml version="1.0" standalone="no"?>
<!DOCTYPE svg PUBLIC "-//W3C//DTD SVG 1.1//EN" "http://www.w3.org/Graphics/SVG/1.1/DTD/svg11.dtd" >
<svg xmlns="http://www.w3.org/2000/svg" xmlns:xlink="http://www.w3.org/1999/xlink" version="1.1" viewBox="-10 0 550 1000">
   <path fill="currentColor"
d="M516 653v-31h-121v-185l-75 90v95h-220q23 -22 79 -74q56 -51 92 -86.5t66.5 -74.5t48.5 -79.5t18 -82.5q0 -64 -44.5 -102.5t-115.5 -38.5q-75 0 -128.5 43t-63.5 120q26 -51 69 -74.5t91 -23.5q38 0 70 29t32 72q0 30 -16.5 66t-43.5 73t-59 74t-78 89q-64 71 -88 101
h291v145h75v-145h121z" />
</svg>
