<?xml version="1.0" standalone="no"?>
<!DOCTYPE svg PUBLIC "-//W3C//DTD SVG 1.1//EN" "http://www.w3.org/Graphics/SVG/1.1/DTD/svg11.dtd" >
<svg xmlns="http://www.w3.org/2000/svg" xmlns:xlink="http://www.w3.org/1999/xlink" version="1.1" viewBox="-10 0 784 1000">
   <path fill="currentColor"
d="M744 672q0 -32 -29.5 -60t-71.5 -28q-23 0 -38.5 15t-15.5 36q0 24 17 39.5t35 15.5t29 -7.5t18 -18.5q8 4 12 10t4 18q0 8 -6 21t-17.5 25.5t-29.5 21t-40 8.5q-44 0 -77.5 -28t-33.5 -68q0 -33 19.5 -72.5t59.5 -102.5q48 -76 73 -128.5t25 -102.5q0 -60 -26.5 -97.5
t-68 -55.5t-85 -23.5t-91.5 -5.5q-78 0 -133.5 34.5t-55.5 96.5q0 14 3 29q4 19 9 47q15 69 15 99q0 66 -22.5 103t-66.5 37q-37 0 -59 -21t-22 -51q0 -35 11.5 -54.5t49.5 -32.5q-44 1 -73 28.5t-29 63.5q0 19 6 37.5t20 34.5t38 26t58 10q71 0 114 -32.5t65 -88.5
q13 -34 13 -71q0 -24 -4.5 -50t-13.5 -71q-1 -8 -2 -11q-3 -13 -3 -25q0 -45 30.5 -76t80.5 -31q42 0 69.5 10.5t42.5 28.5t21 42t6 52q0 59 -25 111.5t-74 126.5q-41 63 -61.5 104t-20.5 82q0 62 51.5 101t125.5 39q76 0 125 -35.5t49 -104.5z" />
</svg>
