<?xml version="1.0" standalone="no"?>
<!DOCTYPE svg PUBLIC "-//W3C//DTD SVG 1.1//EN" "http://www.w3.org/Graphics/SVG/1.1/DTD/svg11.dtd" >
<svg xmlns="http://www.w3.org/2000/svg" xmlns:xlink="http://www.w3.org/1999/xlink" version="1.1" viewBox="-10 0 791 1000">
   <path fill="currentColor"
d="M747 178l-275 91h139l-143 122q-34 -37 -81.5 -58t-100.5 -21q-51 0 -97 19.5t-81 54t-54.5 80.5t-19.5 97t19.5 96.5t54.5 80.5t81 54.5t97 19.5t97 -19.5t80.5 -54t54 -80.5t19.5 -97q0 -80 -46 -145l141 -120v145zM451 643q0 64 -35.5 97.5t-83.5 33.5q-36 0 -72 -24
t-64.5 -66t-45 -93t-16.5 -102q0 -56 31 -95t76 -39q40 0 78 26.5t68 70.5t47 95t17 96z" />
</svg>
