<?xml version="1.0" standalone="no"?>
<!DOCTYPE svg PUBLIC "-//W3C//DTD SVG 1.1//EN" "http://www.w3.org/Graphics/SVG/1.1/DTD/svg11.dtd" >
<svg xmlns="http://www.w3.org/2000/svg" xmlns:xlink="http://www.w3.org/1999/xlink" version="1.1" viewBox="-10 0 770 1000">
   <path fill="currentColor"
d="M724 449q0 -73 -28 -139t-78.5 -117.5t-117 -80t-141.5 -28.5q-54 0 -104 15.5t-92.5 43.5t-73.5 65t-50 80q18 -7 39 -12t39 -5q56 0 107.5 21.5t90 60t60 90t21.5 107.5q0 83 -37.5 147.5t-106.5 99.5q20 7 50.5 11.5t56.5 4.5q72 0 138 -27.5t117.5 -77.5t80.5 -117
t29 -142zM625 469q0 65 -25 124t-69 104t-103 70t-124 25h-9l-1 -5q39 -15 73 -42t59.5 -62t39 -76t13.5 -85q0 -58 -22 -110t-61 -91t-91 -61t-110 -22q-72 0 -127 29l-3 -3q46 -54 107 -84.5t132 -30.5q65 0 124 24.5t103 68.5t69 102.5t25 124.5z" />
</svg>
