<?xml version="1.0" standalone="no"?>
<!DOCTYPE svg PUBLIC "-//W3C//DTD SVG 1.1//EN" "http://www.w3.org/Graphics/SVG/1.1/DTD/svg11.dtd" >
<svg xmlns="http://www.w3.org/2000/svg" xmlns:xlink="http://www.w3.org/1999/xlink" version="1.1" viewBox="-10 0 602 1000">
   <path fill="currentColor"
d="M566 808q-66 -62 -91.5 -142t-26.5 -193q24 5 58 14t49 17q-2 -13 -4.5 -26.5t-5.5 -25.5q-15 -6 -43 -13t-54 -11q2 -103 33 -191t85 -149q-45 13 -83 44.5t-67 76t-46 97.5t-20 109q-25 -4 -57 -4q-18 0 -52 4q-3 -55 -20 -108.5t-46 -98t-67.5 -76t-82.5 -44.5
q54 61 85 149.5t34 190.5q-25 4 -52 11.5t-46 16.5q-1 5 -2 12q-2 19 -5 31q17 -6 47.5 -13.5t57.5 -12.5q-2 114 -27.5 193.5t-91.5 141.5q44 -14 82.5 -47.5t67.5 -80.5t46 -103t20 -116q15 -1 23 -2q18 -2 29 -2q14 0 27.5 1t29.5 3q3 60 20 116.5t46 103t67.5 79.5
t82.5 48z" />
</svg>
