<?xml version="1.0" standalone="no"?>
<!DOCTYPE svg PUBLIC "-//W3C//DTD SVG 1.1//EN" "http://www.w3.org/Graphics/SVG/1.1/DTD/svg11.dtd" >
<svg xmlns="http://www.w3.org/2000/svg" xmlns:xlink="http://www.w3.org/1999/xlink" version="1.1" viewBox="-10 0 571 1000">
   <path fill="currentColor"
d="M531 476q0 -35 -6 -62t-20.5 -48t-40 -32.5t-63.5 -11.5q-20 0 -41 9.5t-39.5 26t-32 38t-19.5 44.5v-230h223v-27h-223v-86h-102v86h-139v27h139v301h102q16 -77 49.5 -112.5t73.5 -35.5q31 0 43.5 24.5t12.5 81.5q0 49 -28.5 101.5t-77.5 100.5t-112 86t-130 59h5
q56 0 129.5 -28t141.5 -76.5t111.5 -110t43.5 -125.5z" />
</svg>
