<?xml version="1.0" standalone="no"?>
<!DOCTYPE svg PUBLIC "-//W3C//DTD SVG 1.1//EN" "http://www.w3.org/Graphics/SVG/1.1/DTD/svg11.dtd" >
<svg xmlns="http://www.w3.org/2000/svg" xmlns:xlink="http://www.w3.org/1999/xlink" version="1.1" viewBox="-10 0 566 1000">
   <path fill="currentColor"
d="M523 567q0 -43 -14 -83t-38 -71.5t-56.5 -53t-67.5 -31.5q72 -14 117.5 -80t45.5 -165q-24 106 -78 157t-146 51q-30 0 -66 -10t-72.5 -33.5t-66.5 -64.5t-46 -100q0 58 12.5 102.5t33.5 74.5t46.5 48.5t54.5 29.5q-26 6 -52.5 26t-49.5 51.5t-36.5 70t-13.5 80.5
q0 52 19.5 97.5t54.5 79.5t80 52.5t93 18.5q50 0 95.5 -19t79 -53t52.5 -79.5t19 -95.5zM434 634q0 61 -31.5 102t-79.5 41q-36 0 -73.5 -22.5t-68 -61t-48.5 -86t-18 -95.5q0 -63 31 -106t78 -43q39 0 77 22t68 60t47.5 87t17.5 102z" />
</svg>
