<?xml version="1.0" standalone="no"?>
<!DOCTYPE svg PUBLIC "-//W3C//DTD SVG 1.1//EN" "http://www.w3.org/Graphics/SVG/1.1/DTD/svg11.dtd" >
<svg xmlns="http://www.w3.org/2000/svg" xmlns:xlink="http://www.w3.org/1999/xlink" version="1.1" viewBox="-10 0 493 1000">
   <path fill="currentColor"
d="M455 294q0 -44 -16.5 -82.5t-46.5 -67.5t-70 -45t-84 -16q-42 0 -80 17.5t-67 47t-45 68t-16 80.5q0 73 45.5 130.5t114.5 74.5v159h-99v27h99v113h91v-113h101v-27h-101v-155q76 -14 125 -73t49 -138zM374 337q0 60 -24.5 95.5t-66.5 35.5q-37 0 -68 -17.5t-53.5 -48
t-34.5 -71t-12 -85.5q0 -50 26.5 -84t65.5 -34q31 0 60.5 14.5t54 42t38.5 66.5t14 86z" />
</svg>
