<?xml version="1.0" standalone="no"?>
<!DOCTYPE svg PUBLIC "-//W3C//DTD SVG 1.1//EN" "http://www.w3.org/Graphics/SVG/1.1/DTD/svg11.dtd" >
<svg xmlns="http://www.w3.org/2000/svg" xmlns:xlink="http://www.w3.org/1999/xlink" version="1.1" viewBox="-10 0 826 1000">
   <path fill="currentColor"
d="M793 805q-28 -29 -60.5 -70t-58.5 -79q5 -7 11 -16q45 -67 72.5 -128.5t27.5 -143.5q0 -56 -24.5 -98.5t-62.5 -43.5v-41q0 -51 -36.5 -76.5t-85.5 -25.5q-44 0 -70.5 12.5t-43.5 42.5q-10 -29 -39.5 -42t-73.5 -13q-41 0 -75 14t-48 41q-12 -31 -31.5 -43t-63.5 -12
q-47 0 -76 19.5t-29 51.5q11 -16 21 -22.5t25 -6.5q22 0 38.5 15t16.5 45v453h96v-453q0 -25 19 -40t52 -15q35 0 50.5 11.5t15.5 43.5v453h96v-453q0 -25 23 -40t52 -15t53 16.5t24 41.5v40q-36 4 -59 44t-23 96q0 76 26.5 143.5t64.5 126.5q-9 16 -24 39.5t-33 48.5
t-35.5 46t-31.5 33h68q21 -19 47 -52.5t45 -65.5q18 30 43 62t51 56h46zM703 368q0 38 -3.5 66.5t-11 54t-19 51t-30.5 63.5q-14 -25 -27 -52t-25 -58.5t-19 -63.5t-7 -61q0 -41 19 -74t52 -33q35 0 53 30t18 77z" />
</svg>
